<svg width="390" height="18" viewBox="0 0 390 18" fill="none" xmlns="http://www.w3.org/2000/svg">
<path fill-rule="evenodd" clip-rule="evenodd" d="M11.9388 0L0 7.5V17.5H390V7.5L377.564 0L365.625 7.5L353.189 0L341.25 7.5L328.814 0L316.875 7.5L304.439 0L292.5 7.5L280.064 0L268.125 7.5L255.689 0L243.75 7.5L231.314 0L219.375 7.5L206.939 0L195 7.5L182.564 0L170.625 7.5L158.189 0L146.25 7.5L133.814 0L121.875 7.5L109.439 0L97.5 7.5L85.0638 0L73.125 7.5L60.6888 0L48.75 7.5L36.3138 0L24.375 7.5L11.9388 0Z" fill="#0B0B25"/>
</svg>
