<svg width="358" height="187" viewBox="0 0 358 187" fill="none" xmlns="http://www.w3.org/2000/svg">
<line y1="148.25" x2="358" y2="148.25" stroke="white" stroke-opacity="0.3" stroke-width="0.5" stroke-dasharray="4 4"/>
<line y1="115.25" x2="358" y2="115.25" stroke="white" stroke-opacity="0.3" stroke-width="0.5" stroke-dasharray="4 4"/>
<line y1="82.25" x2="358" y2="82.25" stroke="white" stroke-opacity="0.3" stroke-width="0.5" stroke-dasharray="4 4"/>
<line y1="49.25" x2="358" y2="49.25" stroke="white" stroke-opacity="0.3" stroke-width="0.5" stroke-dasharray="4 4"/>
<line y1="16.25" x2="358" y2="16.25" stroke="white" stroke-opacity="0.3" stroke-width="0.5" stroke-dasharray="4 4"/>
<path d="M26 49H333" stroke="#01C27F" stroke-width="2" stroke-linecap="round"/>
<path d="M26 149L128 114.5H179L231 81.5L333.5 47.5" stroke="#7165E3" stroke-width="2" stroke-linecap="round"/>
<path d="M325.479 34H327.793L322.705 19.9082H320.342L315.254 34H317.529L318.818 30.1914H324.189L325.479 34ZM321.475 22.252H321.533L323.633 28.4336H319.375L321.475 22.252Z" fill="white"/>
<circle cx="333.5" cy="49" r="7" fill="#01C27F" stroke="#0B0B25" stroke-width="2"/>
<path d="M25.4004 176H26.4697V168.954H25.3906L23.5352 170.272V171.347L25.376 170.038H25.4004V176Z" fill="white" fill-opacity="0.5"/>
<path d="M74.2026 171.02V171.029H75.2378V171.015C75.2378 170.282 75.8188 169.726 76.5903 169.726C77.3228 169.726 77.8892 170.224 77.8892 170.849C77.8892 171.4 77.6646 171.771 76.8052 172.665L74.2612 175.258V176H79.0806V175.077H75.7358V175.053L77.4985 173.28C78.5288 172.226 78.9683 171.615 78.9683 170.795C78.9683 169.677 77.9673 168.822 76.6245 168.822C75.2231 168.822 74.2026 169.75 74.2026 171.02Z" fill="white" fill-opacity="0.5"/>
<path d="M126.437 172.812H127.316C128.244 172.812 128.82 173.28 128.82 174.042C128.82 174.73 128.205 175.219 127.345 175.219C126.457 175.219 125.9 174.755 125.832 174.081H124.782C124.85 175.297 125.827 176.132 127.345 176.132C128.815 176.132 129.933 175.287 129.933 174.057C129.933 173.07 129.25 172.421 128.19 172.348V172.328C129.064 172.172 129.64 171.542 129.64 170.663C129.64 169.579 128.668 168.822 127.335 168.822C125.939 168.822 125.006 169.618 124.923 170.854H125.954C126.017 170.16 126.525 169.721 127.287 169.721C128.122 169.721 128.571 170.155 128.571 170.81C128.571 171.474 128.048 171.952 127.287 171.952H126.437V172.812Z" fill="white" fill-opacity="0.5"/>
<path d="M179.396 176H180.446V174.608H181.413V173.69H180.446V168.954H178.864C177.277 171.249 176.477 172.514 175.871 173.651V174.608H179.396V176ZM176.892 173.681C177.453 172.66 178.166 171.562 179.387 169.799H179.406V173.705H176.892V173.681Z" fill="white" fill-opacity="0.5"/>
<path d="M230.214 176.132C231.732 176.132 232.797 175.131 232.797 173.686C232.797 172.318 231.825 171.327 230.473 171.327C229.784 171.327 229.208 171.596 228.9 172.04H228.876L229.071 169.877H232.387V168.954H228.192L227.821 172.938H228.822C229.096 172.475 229.623 172.196 230.233 172.196C231.112 172.196 231.728 172.831 231.728 173.715C231.728 174.599 231.112 175.219 230.224 175.219C229.438 175.219 228.837 174.74 228.759 174.042H227.714C227.777 175.272 228.808 176.132 230.214 176.132Z" fill="white" fill-opacity="0.5"/>
<path d="M280.984 176.137C282.478 176.137 283.557 175.111 283.557 173.7C283.557 172.362 282.561 171.371 281.218 171.371C280.339 171.371 279.592 171.83 279.285 172.514H279.265C279.27 170.741 279.915 169.735 281.023 169.735C281.667 169.735 282.195 170.111 282.366 170.688H283.459C283.245 169.564 282.278 168.817 281.033 168.817C279.27 168.817 278.215 170.214 278.215 172.572C278.215 173.397 278.362 174.091 278.65 174.652C279.109 175.604 279.944 176.137 280.984 176.137ZM280.974 175.214C280.134 175.214 279.485 174.55 279.485 173.715C279.485 172.88 280.125 172.265 280.984 172.265C281.848 172.265 282.468 172.88 282.468 173.734C282.468 174.56 281.804 175.214 280.974 175.214Z" fill="white" fill-opacity="0.5"/>
<path d="M330.366 176H331.513L334.575 169.901V168.954H329.78V169.877H333.496V169.901L330.366 176Z" fill="white" fill-opacity="0.5"/>
</svg>
