<svg width="358" height="190" viewBox="0 0 358 190" fill="none" xmlns="http://www.w3.org/2000/svg">
<line y1="148.25" x2="358" y2="148.25" stroke="white" stroke-opacity="0.3" stroke-width="0.5" stroke-dasharray="4 4"/>
<line y1="115.25" x2="358" y2="115.25" stroke="white" stroke-opacity="0.3" stroke-width="0.5" stroke-dasharray="4 4"/>
<line y1="82.25" x2="358" y2="82.25" stroke="white" stroke-opacity="0.3" stroke-width="0.5" stroke-dasharray="4 4"/>
<line y1="49.25" x2="358" y2="49.25" stroke="white" stroke-opacity="0.3" stroke-width="0.5" stroke-dasharray="4 4"/>
<line y1="16.25" x2="358" y2="16.25" stroke="white" stroke-opacity="0.3" stroke-width="0.5" stroke-dasharray="4 4"/>
<path d="M26 121L128.5 87.5154L179.5 98.5L282 22.5L331 41" stroke="#7165E3" stroke-width="2" stroke-linecap="round"/>
<path d="M26 141L128.5 108.5H179.5L282 42H331.5" stroke="#01C27F" stroke-width="2" stroke-linecap="round"/>
<path d="M26 148L128.5 115.25H180.481L282.5 49H332.5" stroke="#EE3F3F" stroke-width="2" stroke-linecap="round"/>
<path d="M325.479 26L324.189 22.1914H318.818L317.529 26H315.254L320.342 11.9082H322.705L327.793 26H325.479ZM321.475 14.252L319.375 20.4336H323.633L321.533 14.252H321.475Z" fill="white"/>
<circle cx="333.5" cy="41" r="7" fill="#01C27F" stroke="#0B0B25" stroke-width="2"/>
<path d="M25.4004 181V175.038H25.376L23.5352 176.347V175.272L25.3906 173.954H26.4697V181H25.4004Z" fill="white" fill-opacity="0.5"/>
<path d="M74.2026 176.02C74.2026 174.75 75.2231 173.822 76.6245 173.822C77.9673 173.822 78.9683 174.677 78.9683 175.795C78.9683 176.615 78.5288 177.226 77.4985 178.28L75.7358 180.053V180.077H79.0806V181H74.2612V180.258L76.8052 177.665C77.6646 176.771 77.8892 176.4 77.8892 175.849C77.8892 175.224 77.3228 174.726 76.5903 174.726C75.8188 174.726 75.2378 175.282 75.2378 176.015V176.029H74.2026V176.02Z" fill="white" fill-opacity="0.5"/>
<path d="M126.437 177.812V176.952H127.287C128.048 176.952 128.571 176.474 128.571 175.81C128.571 175.155 128.122 174.721 127.287 174.721C126.525 174.721 126.017 175.16 125.954 175.854H124.923C125.006 174.618 125.939 173.822 127.335 173.822C128.668 173.822 129.64 174.579 129.64 175.663C129.64 176.542 129.064 177.172 128.19 177.328V177.348C129.25 177.421 129.933 178.07 129.933 179.057C129.933 180.287 128.815 181.132 127.345 181.132C125.827 181.132 124.85 180.297 124.782 179.081H125.832C125.9 179.755 126.457 180.219 127.345 180.219C128.205 180.219 128.82 179.73 128.82 179.042C128.82 178.28 128.244 177.812 127.316 177.812H126.437Z" fill="white" fill-opacity="0.5"/>
<path d="M179.396 181V179.608H175.871V178.651C176.477 177.514 177.277 176.249 178.864 173.954H180.446V178.69H181.413V179.608H180.446V181H179.396ZM176.892 178.681V178.705H179.406V174.799H179.387C178.166 176.562 177.453 177.66 176.892 178.681Z" fill="white" fill-opacity="0.5"/>
<path d="M230.214 181.132C228.808 181.132 227.777 180.272 227.714 179.042H228.759C228.837 179.74 229.438 180.219 230.224 180.219C231.112 180.219 231.728 179.599 231.728 178.715C231.728 177.831 231.112 177.196 230.233 177.196C229.623 177.196 229.096 177.475 228.822 177.938H227.821L228.192 173.954H232.387V174.877H229.071L228.876 177.04H228.9C229.208 176.596 229.784 176.327 230.473 176.327C231.825 176.327 232.797 177.318 232.797 178.686C232.797 180.131 231.732 181.132 230.214 181.132Z" fill="white" fill-opacity="0.5"/>
<path d="M280.984 181.137C279.944 181.137 279.109 180.604 278.65 179.652C278.362 179.091 278.215 178.397 278.215 177.572C278.215 175.214 279.27 173.817 281.033 173.817C282.278 173.817 283.245 174.564 283.459 175.688H282.366C282.195 175.111 281.667 174.735 281.023 174.735C279.915 174.735 279.27 175.741 279.265 177.514H279.285C279.592 176.83 280.339 176.371 281.218 176.371C282.561 176.371 283.557 177.362 283.557 178.7C283.557 180.111 282.478 181.137 280.984 181.137ZM280.974 180.214C281.804 180.214 282.468 179.56 282.468 178.734C282.468 177.88 281.848 177.265 280.984 177.265C280.125 177.265 279.485 177.88 279.485 178.715C279.485 179.55 280.134 180.214 280.974 180.214Z" fill="white" fill-opacity="0.5"/>
<path d="M330.366 181L333.496 174.901V174.877H329.78V173.954H334.575V174.901L331.513 181H330.366Z" fill="white" fill-opacity="0.5"/>
</svg>
