<svg width="358" height="187" viewBox="0 0 358 187" fill="none" xmlns="http://www.w3.org/2000/svg">
<line y1="148.25" x2="358" y2="148.25" stroke="white" stroke-opacity="0.3" stroke-width="0.5" stroke-dasharray="4 4"/>
<line y1="115.25" x2="358" y2="115.25" stroke="white" stroke-opacity="0.3" stroke-width="0.5" stroke-dasharray="4 4"/>
<line y1="82.25" x2="358" y2="82.25" stroke="white" stroke-opacity="0.3" stroke-width="0.5" stroke-dasharray="4 4"/>
<line y1="49.25" x2="358" y2="49.25" stroke="white" stroke-opacity="0.3" stroke-width="0.5" stroke-dasharray="4 4"/>
<line y1="16.25" x2="358" y2="16.25" stroke="white" stroke-opacity="0.3" stroke-width="0.5" stroke-dasharray="4 4"/>
<path d="M20.5 149L60 99.5L100 133L140 81.5L180 99.5L220 81.5" stroke="#7165E3" stroke-width="2" stroke-linecap="round"/>
<path d="M220 81.5L338.5 148.5" stroke="#7165E3" stroke-width="2" stroke-linecap="round" stroke-dasharray="6 6"/>
<path d="M220 81.5L338.5 15.5" stroke="#7165E3" stroke-width="2" stroke-linecap="round" stroke-dasharray="6 6"/>
<path d="M22 50H338" stroke="#01C27F" stroke-width="2" stroke-linecap="round"/>
<path d="M22 116H338" stroke="#EE3F3F" stroke-width="2" stroke-linecap="round"/>
<path d="M172.479 83H174.793L169.705 68.9082H167.342L162.254 83H164.529L165.818 79.1914H171.189L172.479 83ZM168.475 71.252H168.533L170.633 77.4336H166.375L168.475 71.252Z" fill="white"/>
<circle cx="180.5" cy="98" r="7" fill="#7165E3" stroke="#0B0B25" stroke-width="2"/>
<path d="M262.09 36C265.098 36 266.904 34.4961 266.904 32.0156C266.904 30.1406 265.605 28.7832 263.701 28.5684V28.4902C265.107 28.2559 266.201 26.918 266.201 25.4238C266.201 23.2949 264.561 21.9082 262.07 21.9082H256.299V36H262.09ZM258.486 23.6953H261.533C263.125 23.6953 264.023 24.418 264.023 25.7266C264.023 27.123 262.979 27.9043 261.074 27.9043H258.486V23.6953ZM258.486 34.2129V29.5742H261.523C263.584 29.5742 264.668 30.3555 264.668 31.8789C264.668 33.4023 263.623 34.2129 261.65 34.2129H258.486Z" fill="white"/>
<circle cx="273.5" cy="51" r="7" fill="#01C27F" stroke="#0B0B25" stroke-width="2"/>
<path d="M270.246 101.234C273.488 101.234 275.695 99.5254 276.232 96.6152H274.055C273.615 98.3145 272.219 99.3203 270.256 99.3203C267.668 99.3203 266.027 97.2402 266.027 93.9492C266.027 90.6875 267.688 88.5879 270.246 88.5879C272.16 88.5879 273.664 89.7695 274.055 91.5762H276.223C275.852 88.6367 273.439 86.6738 270.246 86.6738C266.311 86.6738 263.791 89.4863 263.791 93.9492C263.791 98.4414 266.291 101.234 270.246 101.234Z" fill="white"/>
<circle cx="281.5" cy="116" r="7" fill="#EE3F3F" stroke="#0B0B25" stroke-width="2"/>
<path d="M302.299 107.908V122H307.348C311.547 122 314.018 119.383 314.018 114.93C314.018 110.486 311.547 107.908 307.348 107.908H302.299ZM304.486 109.793H307.143C310.131 109.793 311.791 111.629 311.791 114.949C311.791 118.279 310.131 120.105 307.143 120.105H304.486V109.793Z" fill="white"/>
<circle cx="319.5" cy="137" r="7" fill="#7165E3" stroke="#0B0B25" stroke-width="2"/>
<path d="M19.7178 176H20.7871V168.954H19.708L17.8525 170.272V171.347L19.6934 170.038H19.7178V176Z" fill="white" fill-opacity="0.5"/>
<path d="M57.1548 171.02V171.029H58.1899V171.015C58.1899 170.282 58.771 169.726 59.5425 169.726C60.2749 169.726 60.8413 170.224 60.8413 170.849C60.8413 171.4 60.6167 171.771 59.7573 172.665L57.2134 175.258V176H62.0327V175.077H58.688V175.053L60.4507 173.28C61.481 172.226 61.9204 171.615 61.9204 170.795C61.9204 169.677 60.9194 168.822 59.5767 168.822C58.1753 168.822 57.1548 169.75 57.1548 171.02Z" fill="white" fill-opacity="0.5"/>
<path d="M98.0244 172.812H98.9033C99.8311 172.812 100.407 173.28 100.407 174.042C100.407 174.73 99.792 175.219 98.9326 175.219C98.0439 175.219 97.4873 174.755 97.4189 174.081H96.3691C96.4375 175.297 97.4141 176.132 98.9326 176.132C100.402 176.132 101.521 175.287 101.521 174.057C101.521 173.07 100.837 172.421 99.7773 172.348V172.328C100.651 172.172 101.228 171.542 101.228 170.663C101.228 169.579 100.256 168.822 98.9229 168.822C97.5264 168.822 96.5938 169.618 96.5107 170.854H97.541C97.6045 170.16 98.1123 169.721 98.874 169.721C99.709 169.721 100.158 170.155 100.158 170.81C100.158 171.474 99.6357 171.952 98.874 171.952H98.0244V172.812Z" fill="white" fill-opacity="0.5"/>
<path d="M139.619 176H140.668V174.608H141.635V173.69H140.668V168.954H139.086C137.5 171.249 136.699 172.514 136.093 173.651V174.608H139.619V176ZM137.114 173.681C137.675 172.66 138.388 171.562 139.609 169.799H139.628V173.705H137.114V173.681Z" fill="white" fill-opacity="0.5"/>
<path d="M179.071 176.132C180.59 176.132 181.654 175.131 181.654 173.686C181.654 172.318 180.683 171.327 179.33 171.327C178.642 171.327 178.065 171.596 177.758 172.04H177.733L177.929 169.877H181.244V168.954H177.05L176.679 172.938H177.68C177.953 172.475 178.48 172.196 179.091 172.196C179.97 172.196 180.585 172.831 180.585 173.715C180.585 174.599 179.97 175.219 179.081 175.219C178.295 175.219 177.694 174.74 177.616 174.042H176.571C176.635 175.272 177.665 176.132 179.071 176.132Z" fill="white" fill-opacity="0.5"/>
<path d="M218.476 176.137C219.97 176.137 221.049 175.111 221.049 173.7C221.049 172.362 220.053 171.371 218.71 171.371C217.831 171.371 217.084 171.83 216.776 172.514H216.757C216.762 170.741 217.406 169.735 218.515 169.735C219.159 169.735 219.687 170.111 219.857 170.688H220.951C220.736 169.564 219.77 168.817 218.524 168.817C216.762 168.817 215.707 170.214 215.707 172.572C215.707 173.397 215.854 174.091 216.142 174.652C216.601 175.604 217.436 176.137 218.476 176.137ZM218.466 175.214C217.626 175.214 216.977 174.55 216.977 173.715C216.977 172.88 217.616 172.265 218.476 172.265C219.34 172.265 219.96 172.88 219.96 173.734C219.96 174.56 219.296 175.214 218.466 175.214Z" fill="white" fill-opacity="0.5"/>
<path d="M256.493 176H257.64L260.702 169.901V168.954H255.907V169.877H259.623V169.901L256.493 176Z" fill="white" fill-opacity="0.5"/>
<path d="M297.924 176.132C299.486 176.132 300.59 175.292 300.59 174.096C300.59 173.202 299.96 172.479 299.022 172.284V172.26C299.804 172.035 300.302 171.43 300.302 170.683C300.302 169.604 299.311 168.822 297.924 168.822C296.542 168.822 295.541 169.608 295.541 170.678C295.541 171.435 296.044 172.045 296.825 172.26V172.284C295.893 172.479 295.258 173.197 295.258 174.096C295.258 175.287 296.352 176.132 297.924 176.132ZM297.924 175.253C297.025 175.253 296.386 174.735 296.386 174.018C296.386 173.295 297.025 172.772 297.924 172.772C298.822 172.772 299.457 173.29 299.457 174.018C299.457 174.735 298.822 175.253 297.924 175.253ZM297.924 171.894C297.157 171.894 296.625 171.435 296.625 170.795C296.625 170.15 297.157 169.691 297.924 169.691C298.686 169.691 299.223 170.15 299.223 170.795C299.223 171.435 298.681 171.894 297.924 171.894Z" fill="white" fill-opacity="0.5"/>
<path d="M337.521 176.132C339.289 176.132 340.333 174.735 340.333 172.377C340.333 171.552 340.187 170.858 339.899 170.297C339.445 169.35 338.605 168.817 337.56 168.817C336.071 168.817 334.987 169.843 334.987 171.254C334.987 172.592 335.988 173.583 337.326 173.583C338.234 173.583 338.976 173.124 339.259 172.431H339.264H339.269C339.274 172.431 339.279 172.431 339.279 172.431C339.279 174.208 338.634 175.224 337.536 175.224C336.886 175.224 336.349 174.838 336.183 174.262H335.084C335.294 175.38 336.266 176.132 337.521 176.132ZM337.56 172.689C336.706 172.689 336.076 172.064 336.076 171.22C336.076 170.399 336.735 169.75 337.575 169.75C338.415 169.75 339.069 170.404 339.069 171.239C339.069 172.069 338.424 172.689 337.56 172.689Z" fill="white" fill-opacity="0.5"/>
</svg>
