<svg width="16" height="17" viewBox="0 0 16 17" fill="none" xmlns="http://www.w3.org/2000/svg">
<g opacity="0.5" clip-path="url(#clip0_4570_468869)">
<path d="M9.99999 5.16681L5.66665 9.50014C5.40144 9.76536 5.25244 10.1251 5.25244 10.5001C5.25244 10.8752 5.40144 11.2349 5.66665 11.5001C5.93187 11.7654 6.29158 11.9144 6.66665 11.9144C7.04172 11.9144 7.40144 11.7654 7.66665 11.5001L12 7.16681C12.5304 6.63637 12.8284 5.91695 12.8284 5.16681C12.8284 4.41666 12.5304 3.69724 12 3.16681C11.4696 2.63637 10.7501 2.33838 9.99999 2.33838C9.24984 2.33838 8.53042 2.63637 7.99999 3.16681L3.66665 7.50014C2.871 8.29579 2.42401 9.37492 2.42401 10.5001C2.42401 11.6254 2.871 12.7045 3.66665 13.5001C4.4623 14.2958 5.54143 14.7428 6.66665 14.7428C7.79187 14.7428 8.871 14.2958 9.66665 13.5001L14 9.16681" stroke="white" stroke-linecap="round" stroke-linejoin="round"/>
</g>
<defs>
<clipPath id="clip0_4570_468869">
<rect width="16" height="16" fill="white" transform="translate(0 0.5)"/>
</clipPath>
</defs>
</svg>
