<svg width="24" height="24" viewBox="0 0 24 24" fill="none" xmlns="http://www.w3.org/2000/svg">
<rect width="24" height="24" rx="12" fill="#141432"/>
<path d="M11.6053 20.0222L10.1445 20.9275C9.92538 21.0668 9.70626 20.9971 9.56018 20.7882L6.41947 15.7048L8.3185 14.7299L11.7514 19.4651C11.8244 19.674 11.7514 19.8829 11.6053 20.0222Z" fill="#7165E3"/>
<path d="M16.7181 9.29822L16.2069 9.6464L14.1617 6.86095L14.673 6.51277C15.4034 6.02531 16.426 6.30386 16.9373 7.06986C17.5946 7.83586 17.4485 8.81077 16.7181 9.29822Z" fill="#7165E3"/>
<path d="M18.6171 12.6408L9.34101 14.0335L7.22285 11.0391L11.8974 3.37912L18.6171 12.6408Z" fill="#7878DF"/>
<path d="M5.54299 16.1226C5.03171 16.4708 4.30131 16.2618 3.93611 15.7048L3.57091 15.2173C3.20571 14.6602 3.27875 13.9638 3.79003 13.6853C4.30131 13.3371 5.03171 13.546 5.39691 14.1031L5.76211 14.5906C6.12731 15.1477 6.05427 15.844 5.54299 16.1226Z" fill="#7165E3"/>
<path d="M18.9093 12.9889C18.6172 13.1979 18.1789 13.0586 17.9598 12.78L11.6053 4.00586C11.3862 3.65768 11.4593 3.30949 11.7514 3.10059C12.0436 2.89168 12.4818 3.03095 12.7009 3.30949L18.9824 12.014C19.2015 12.3622 19.2015 12.78 18.9093 12.9889Z" fill="#7165E3"/>
<path fill-rule="evenodd" clip-rule="evenodd" d="M5.39955 15.639C5.29129 15.5342 5.1921 15.4168 5.10456 15.287L4.52024 14.4513C3.86288 13.4764 4.00896 12.223 4.88544 11.6659L5.46976 11.248C6.34624 10.691 7.66095 10.9695 8.31831 11.9444L8.90263 12.78C8.95584 12.859 9.00378 12.9392 9.0465 13.0205L9.7062 13.9639C9.92532 14.2424 9.85228 14.6603 9.63316 14.8692L8.24327 15.7758L7.95311 15.9833C7.89366 16.0211 7.83218 16.0551 7.76904 16.0852L6.85764 16.6797C6.56548 16.8886 6.20028 16.7494 5.98116 16.4708L5.39955 15.639Z" fill="#7165E3"/>
<path d="M17.1791 3L16.6528 4.86292" stroke="#7165E3" stroke-width="0.75" stroke-miterlimit="10" stroke-linecap="round" stroke-linejoin="round"/>
<path d="M19.61 5.02768L18.0602 6.38969" stroke="#7165E3" stroke-width="0.75" stroke-miterlimit="10" stroke-linecap="round" stroke-linejoin="round"/>
<path d="M20.6572 8.19437L18.9258 8.19437" stroke="#7165E3" stroke-width="0.75" stroke-miterlimit="10" stroke-linecap="round" stroke-linejoin="round"/>
</svg>
