<svg width="44" height="45" viewBox="0 0 44 45" fill="none" xmlns="http://www.w3.org/2000/svg">
<path d="M40 0.5H4C1.79086 0.5 0 2.29086 0 4.5V40.5C0 42.7091 1.79086 44.5 4 44.5H40C42.2091 44.5 44 42.7091 44 40.5V4.5C44 2.29086 42.2091 0.5 40 0.5Z" fill="black"/>
<path d="M22.2227 14.8846C23.0547 14.8846 24.0977 14.3048 24.7188 13.5318C25.2812 12.8312 25.6914 11.8528 25.6914 10.8744C25.6914 10.7416 25.6797 10.6087 25.6562 10.5C24.7305 10.5362 23.6172 11.1402 22.9492 11.9495C22.4219 12.5655 21.9414 13.5318 21.9414 14.5223C21.9414 14.6672 21.9648 14.8121 21.9766 14.8605C22.0352 14.8725 22.1289 14.8846 22.2227 14.8846ZM19.293 29.5C20.4297 29.5 20.9336 28.7149 22.3516 28.7149C23.793 28.7149 24.1094 29.4758 25.375 29.4758C26.6172 29.4758 27.4492 28.2921 28.2344 27.1325C29.1133 25.8039 29.4766 24.4994 29.5 24.439C29.418 24.4148 27.0391 23.4123 27.0391 20.5979C27.0391 18.158 28.9141 17.0588 29.0195 16.9743C27.7773 15.1383 25.8906 15.09 25.375 15.09C23.9805 15.09 22.8438 15.9596 22.1289 15.9596C21.3555 15.9596 20.3359 15.1383 19.1289 15.1383C16.832 15.1383 14.5 17.095 14.5 20.7912C14.5 23.0861 15.3672 25.514 16.4336 27.0842C17.3477 28.4129 18.1445 29.5 19.293 29.5Z" fill="white"/>
</svg>
