<svg width="12" height="12" viewBox="0 0 12 12" fill="none" xmlns="http://www.w3.org/2000/svg">
<rect width="12" height="12" rx="6" fill="#23233B"/>
<path fill-rule="evenodd" clip-rule="evenodd" d="M5.53846 6.46154V8.53846C5.53846 8.79375 5.745 9 6.00014 9C6.25529 9 6.46154 8.79361 6.46154 8.53846V6.46154H8.53846C8.79375 6.46154 9 6.255 9 5.99986C9 5.74471 8.79361 5.53846 8.53846 5.53846H6.46154V3.46154C6.46154 3.20639 6.25529 3 6.00014 3C5.745 3 5.53846 3.20639 5.53846 3.46154V5.53846H3.46154C3.20639 5.53846 3 5.74471 3 5.99986C3 6.255 3.20639 6.46154 3.46154 6.46154H5.53846Z" fill="white"/>
</svg>
