<svg width="24" height="24" viewBox="0 0 24 24" fill="none" xmlns="http://www.w3.org/2000/svg">
<path d="M2.32495 5.7002V11.1002H7.72496" stroke="white" stroke-linecap="round" stroke-linejoin="round"/>
<path d="M4.36004 14.9907C5.002 16.8311 6.21874 18.4109 7.82693 19.4921C9.43512 20.5733 11.3476 21.0973 13.2763 20.9851C15.205 20.873 17.0454 20.1309 18.5202 18.8704C19.9949 17.61 21.0242 15.8997 21.4529 13.997C21.8815 12.0944 21.6864 10.1026 20.8968 8.32177C20.1073 6.54092 18.7661 5.06747 17.0754 4.12344C15.3846 3.17941 13.4359 2.81593 11.5229 3.08779C9.60984 3.35964 7.83609 4.25209 6.46889 5.63067L2.7749 10.2" stroke="white" stroke-linecap="round" stroke-linejoin="round"/>
<path d="M12 7.5V13.8L15.6 15.6" stroke="white" stroke-linecap="round" stroke-linejoin="round"/>
</svg>
