<svg width="48" height="48" viewBox="0 0 48 48" fill="none" xmlns="http://www.w3.org/2000/svg">
<rect width="48" height="48" rx="24" fill="#404076"/>
<path fill-rule="evenodd" clip-rule="evenodd" d="M24 22.5C27.3137 22.5 30 19.8137 30 16.5C30 13.1863 27.3137 10.5 24 10.5C20.6863 10.5 18 13.1863 18 16.5C18 19.8137 20.6863 22.5 24 22.5ZM13.5 33C13.5 29.6863 16.1863 27 19.5 27H28.5C31.8137 27 34.5 29.6863 34.5 33V34.5C34.5 36.1569 33.1569 37.5 31.5 37.5H16.5C14.8431 37.5 13.5 36.1569 13.5 34.5V33Z" fill="#7878DF"/>
</svg>
