<svg width="48" height="48" viewBox="0 0 48 48" fill="none" xmlns="http://www.w3.org/2000/svg">
<circle cx="26" cy="17.6875" r="10.5" fill="#5E5CC2"/>
<path d="M22 20.1C22 21.5359 23.1939 22.7 24.6667 22.7H27.3333C28.8061 22.7 30 21.5359 30 20.1C30 18.6641 28.8061 17.5 27.3333 17.5H24.6667C23.1939 17.5 22 16.3359 22 14.9C22 13.4641 23.1939 12.3 24.6667 12.3H27.3333C28.8061 12.3 30 13.4641 30 14.9M26 11V24" stroke="#EAECEF" stroke-linecap="round" stroke-linejoin="round"/>
<path d="M14.38 40.8125C15.0521 40.8125 15.3881 40.8125 15.6448 40.6793C15.8706 40.5621 16.0542 40.3751 16.1692 40.1452C16.3 39.8837 16.3 39.5415 16.3 38.8569V31.7681C16.3 31.0835 16.3 30.7413 16.1692 30.4798C16.0542 30.2499 15.8706 30.0629 15.6448 29.9457C15.3881 29.8125 15.0521 29.8125 14.38 29.8125H13.42C12.7479 29.8125 12.4119 29.8125 12.1552 29.9457C11.9294 30.0629 11.7458 30.2499 11.6308 30.4798C11.5 30.7413 11.5 31.0835 11.5 31.7681L11.5 38.8569C11.5 39.5415 11.5 39.8837 11.6308 40.1452C11.7458 40.3751 11.9294 40.5621 12.1552 40.6793C12.4119 40.8125 12.7479 40.8125 13.42 40.8125H14.38Z" fill="#5E5CC2"/>
<path d="M16.3 34.7623H27.9564C28.4972 34.7623 29.023 34.5891 29.4551 34.2673L32.4726 32.0251C33.2257 31.4658 34.2798 31.54 34.9455 32.1996C35.6848 32.9321 35.6848 34.1188 34.9455 34.8502L32.3564 37.4153C31.6595 38.1058 30.7703 38.5773 29.8036 38.7691L26.1442 39.4942C25.4185 39.6378 24.6704 39.6204 23.9523 39.4422L20.6426 38.6231C20.2467 38.5241 19.8408 38.4746 19.4323 38.4746H16.3" fill="#5E5CC2"/>
<path d="M16.3 34.7623L26.8973 34.7622C27.9426 34.7622 28.7894 33.9232 28.7894 32.8875V32.5126C28.7894 31.6526 28.1987 30.9027 27.3569 30.6948L24.4943 29.9857C24.0285 29.8707 23.5514 29.8125 23.0718 29.8125C21.914 29.8125 19.8183 30.7888 19.8183 30.7888L16.3 32.2874" fill="#5E5CC2"/>
</svg>
