<svg width="48" height="48" viewBox="0 0 48 48" fill="none" xmlns="http://www.w3.org/2000/svg">
<path d="M37.3907 20.6821V14.6288C37.3907 12.7488 36.5374 11.9888 34.4174 11.9888H29.0307C26.9107 11.9888 26.0574 12.7488 26.0574 14.6288V20.6688C26.0574 22.5621 26.9107 23.3088 29.0307 23.3088H34.4174C36.5374 23.3221 37.3907 22.5621 37.3907 20.6821Z" fill="#5E5CC2"/>
<path d="M22.0575 20.6821V14.6288C22.0575 12.7488 21.2041 11.9888 19.0841 11.9888H13.6975C11.5775 11.9888 10.7241 12.7488 10.7241 14.6288V20.6688C10.7241 22.5621 11.5775 23.3088 13.6975 23.3088H19.0841C21.2041 23.3221 22.0575 22.5621 22.0575 20.6821Z" fill="#5E5CC2"/>
<path d="M22.0575 35.6823V30.2956C22.0575 28.1756 21.2041 27.3223 19.0841 27.3223H13.6975C11.5775 27.3223 10.7241 28.1756 10.7241 30.2956V35.6823C10.7241 37.8023 11.5775 38.6556 13.6975 38.6556H19.0841C21.2041 38.6556 22.0575 37.8023 22.0575 35.6823Z" fill="#5E5CC2"/>
<path d="M32.0574 29.3223V37.3223" stroke="white" stroke-linecap="round"/>
<path d="M28.0574 33.3223L36.0574 33.3223" stroke="white" stroke-linecap="round"/>
</svg>
