<svg width="48" height="48" viewBox="0 0 48 48" fill="none" xmlns="http://www.w3.org/2000/svg">
<rect width="48" height="48" rx="4" fill="#1D1D40"/>
<path fill-rule="evenodd" clip-rule="evenodd" d="M13.6958 13H35.2625C36.4549 13 37.4729 13.8003 37.8259 14.9003L24.4583 24.3869L11.1249 14.9244C11.4706 13.812 12.4948 13 13.6958 13ZM24.7477 25.4078L37.9583 16.0325V23.5648C37.0432 23.2004 36.045 23 35 23C30.5817 23 27 26.5817 27 31C27 32.4571 27.3896 33.8233 28.0703 35H13.6958C12.2131 35 11 33.7625 11 32.25V16.062L24.169 25.4078C24.3423 25.5307 24.5744 25.5307 24.7477 25.4078Z" fill="#7165E3"/>
<circle cx="35" cy="31" r="7" fill="#7165E3"/>
<g clip-path="url(#clip0_12864_19822)">
<path d="M35.7208 34.7499C35.6476 34.8762 35.5424 34.981 35.4159 35.0539C35.2894 35.1268 35.146 35.1651 35 35.1651C34.854 35.1651 34.7106 35.1268 34.5841 35.0539C34.4576 34.981 34.3524 34.8762 34.2792 34.7499M39.1667 33.0833H30.8333C31.1649 33.0833 31.4828 32.9516 31.7172 32.7171C31.9516 32.4827 32.0833 32.1648 32.0833 31.8333V29.7499C32.0833 28.9764 32.3906 28.2345 32.9376 27.6875C33.4846 27.1405 34.2265 26.8333 35 26.8333C35.7736 26.8333 36.5154 27.1405 37.0624 27.6875C37.6094 28.2345 37.9167 28.9764 37.9167 29.7499V31.8333C37.9167 32.1648 38.0484 32.4827 38.2828 32.7171C38.5172 32.9516 38.8352 33.0833 39.1667 33.0833Z" stroke="white" stroke-linecap="round" stroke-linejoin="round"/>
</g>
<defs>
<clipPath id="clip0_12864_19822">
<rect width="10" height="10" fill="white" transform="translate(30 26)"/>
</clipPath>
</defs>
</svg>
