<svg width="40" height="40" viewBox="0 0 40 40" fill="none" xmlns="http://www.w3.org/2000/svg">
<rect x="0.25" y="0.25" width="39.5" height="39.5" rx="3.75" fill="#404076"/>
<path d="M28.5276 10.9583L12.1056 6.70422C11.9609 6.66799 11.8066 6.65766 11.6555 6.6741C11.5044 6.69053 11.3607 6.73325 11.2362 6.79876C11.1111 6.86367 11.0091 6.95004 10.9389 7.05046C10.8688 7.15089 10.8326 7.26239 10.8335 7.37542V15.7323C10.8335 15.9203 10.9345 16.1007 11.1143 16.2336C11.2941 16.3666 11.5381 16.4413 11.7924 16.4413V34.1665H27.9523V21.2909C28.0358 21.3076 28.1215 21.3171 28.208 21.3193C28.4623 21.3193 28.7061 21.2446 28.8859 21.1116C29.0658 20.9787 29.1668 20.7983 29.1668 20.6103V11.6295C29.1676 11.4824 29.1065 11.3388 28.9919 11.2185C28.8774 11.0982 28.7151 11.0073 28.5276 10.9583Z" fill="#5D5FEF"/>
<path d="M18.3456 14.1665H8.32133C7.86779 14.1665 7.50012 14.4916 7.50012 14.8925V33.4405C7.50012 33.8414 7.86779 34.1665 8.32133 34.1665H18.3456C18.7991 34.1665 19.1668 33.8414 19.1668 33.4405V14.8925C19.1668 14.4916 18.7991 14.1665 18.3456 14.1665Z" fill="#5E5CC2"/>
<path opacity="0.7" d="M10.0001 29.1665C10.0001 28.7063 10.3732 28.3332 10.8335 28.3332H15.8335C16.2937 28.3332 16.6668 28.7063 16.6668 29.1665V32.4999H10.0001V29.1665Z" fill="white"/>
<rect opacity="0.7" x="10.0001" y="23.3332" width="6.66667" height="1.66667" rx="0.833333" fill="white"/>
<rect opacity="0.7" x="10.0001" y="19.1665" width="6.66667" height="1.66667" rx="0.833333" fill="white"/>
<path d="M32.4799 18.3332H22.5205C22.0491 18.3332 21.6669 18.6582 21.6669 19.059V32.6074C21.6669 33.0082 22.0491 33.3332 22.5205 33.3332H32.4799C32.9514 33.3332 33.3335 33.0082 33.3335 32.6074V19.059C33.3335 18.6582 32.9514 18.3332 32.4799 18.3332Z" fill="#5E5CC2"/>
<rect opacity="0.7" x="25.0001" y="24.1665" width="5" height="0.833334" rx="0.416667" fill="white"/>
<path opacity="0.7" d="M25.0001 29.1665C25.0001 28.7063 25.3732 28.3332 25.8335 28.3332H29.1668C29.627 28.3332 30.0001 28.7063 30.0001 29.1665V32.4999H25.0001V29.1665Z" fill="white"/>
<path d="M35.8405 34.1665H4.99308C4.77394 34.1665 4.56377 34.0788 4.40882 33.9225C4.25387 33.7662 4.16681 33.5542 4.16681 33.3332C4.16681 33.1122 4.25387 32.9002 4.40882 32.7439C4.56377 32.5877 4.77394 32.4999 4.99308 32.4999H35.8405C36.0597 32.4999 36.2699 32.5877 36.4248 32.7439C36.5798 32.9002 36.6668 33.1122 36.6668 33.3332C36.6668 33.5542 36.5798 33.7662 36.4248 33.9225C36.2699 34.0788 36.0597 34.1665 35.8405 34.1665Z" fill="#5D5FEF"/>
<rect x="0.25" y="0.25" width="39.5" height="39.5" rx="3.75" stroke="#5E5CC2" stroke-width="0.5"/>
</svg>
