<svg width="24" height="24" viewBox="0 0 24 24" fill="none" xmlns="http://www.w3.org/2000/svg">
<path fill-rule="evenodd" clip-rule="evenodd" d="M5 4C4.17157 4 3.5 4.67157 3.5 5.5C3.5 7 5 7 5.5 7L19.5 7C20.6046 7 21.5 8.39543 21.5 9.5V18.5C21.5 19.6046 20.5 21 19 21H5C3.5 21 2.5 19.6046 2.5 18.5V5.49999C2.5 4.11928 3.61929 3 5 3H17C17.2761 3 17.5 3.22386 17.5 3.5C17.5 3.77614 17.2761 4 17 4H5ZM16.5 12.5C15.9477 12.5 15.5 12.9477 15.5 13.5C15.5 14.0523 15.9477 14.5 16.5 14.5C17.0523 14.5 17.5 14.0523 17.5 13.5C17.5 12.9477 17.0523 12.5 16.5 12.5Z" fill="#7165E3"/>
</svg>
