<svg width="48" height="48" viewBox="0 0 48 48" fill="none" xmlns="http://www.w3.org/2000/svg">
<rect width="48" height="48" rx="4" fill="#1D1D40"/>
<path d="M33.25 14.1829C34.6812 14.1829 35.8415 13.0227 35.8415 11.5915C35.8415 10.1602 34.6812 9 33.25 9C31.8188 9 30.6585 10.1602 30.6585 11.5915C30.6585 13.0227 31.8188 14.1829 33.25 14.1829Z" fill="#7165E3"/>
<path d="M24.5 24C26.9853 24 29 21.9853 29 19.5C29 17.0147 26.9853 15 24.5 15C22.0147 15 20 17.0147 20 19.5C20 21.9853 22.0147 24 24.5 24Z" fill="#7165E3"/>
<path fill-rule="evenodd" clip-rule="evenodd" d="M19.0117 19.8612L16.9244 19.2631L16.9244 19.2631C16.5003 19.1416 16.2883 19.0809 16.1205 19.1286C15.9736 19.1704 15.8475 19.2658 15.767 19.396C15.6752 19.5447 15.6752 19.7658 15.6752 20.2082V21.5714C15.6752 21.7315 15.6752 21.8115 15.6584 21.8819C15.6424 21.949 15.6216 21.9998 15.5858 22.0587C15.5483 22.1205 15.4847 22.1847 15.3576 22.3132L15.3576 22.3132C14.7574 22.9198 14.2617 23.6305 13.8997 24.4158C13.787 24.6605 13.7306 24.7828 13.6615 24.856C13.587 24.9349 13.515 24.981 13.4124 25.0157C13.3172 25.0479 13.199 25.0479 12.9626 25.0479H12.9626C12.636 25.0479 12.4727 25.0479 12.3467 25.1088C12.2217 25.1691 12.1209 25.2703 12.0607 25.3956C12 25.522 12 25.6857 12 26.0133V30.2078C12 30.5518 12 30.7239 12.0668 30.8553C12.1255 30.9708 12.2192 31.0648 12.3344 31.1237C12.4655 31.1907 12.637 31.1907 12.98 31.1907H13.6431C13.8472 31.1907 13.9492 31.1907 14.0351 31.2165C14.1173 31.2411 14.1772 31.2728 14.244 31.3268C14.3138 31.3832 14.3792 31.4788 14.51 31.67L14.51 31.67L14.51 31.67C15.2537 32.7571 16.2805 33.6342 17.4837 34.1945L17.4837 34.1945C17.7388 34.3132 17.8663 34.3726 17.9416 34.4466C18.0137 34.5175 18.0563 34.5844 18.09 34.6799C18.1253 34.7795 18.1253 34.9036 18.1253 35.1519V36.3505C18.1253 36.6946 18.1253 36.8666 18.192 36.998C18.2508 37.1136 18.3445 37.2075 18.4597 37.2664C18.5907 37.3334 18.7623 37.3334 19.1053 37.3334H21.433C21.7761 37.3334 21.9476 37.3334 22.0786 37.2664C22.1939 37.2075 22.2876 37.1136 22.3463 36.998C22.4131 36.8666 22.4131 36.6946 22.4131 36.3505V35.8591C22.4131 35.5151 22.4131 35.3431 22.4798 35.2117C22.5385 35.0961 22.6322 35.0021 22.7475 34.9432C22.8785 34.8763 23.05 34.8763 23.3931 34.8763H25.1082C25.4512 34.8763 25.6227 34.8763 25.7538 34.9432C25.869 35.0021 25.9627 35.0961 26.0215 35.2117C26.0882 35.3431 26.0882 35.5151 26.0882 35.8591V36.3505C26.0882 36.6946 26.0882 36.8666 26.155 36.998C26.2137 37.1136 26.3074 37.2075 26.4227 37.2664C26.5537 37.3334 26.7252 37.3334 27.0683 37.3334H29.3959C29.7389 37.3334 29.9104 37.3334 30.0415 37.2664C30.1567 37.2075 30.2504 37.1136 30.3091 36.998C30.3759 36.8666 30.3759 36.6946 30.3759 36.3505V33.4387C30.3759 33.2786 30.3759 33.1985 30.3927 33.1281C30.4087 33.061 30.4295 33.0103 30.4653 32.9513C30.5028 32.8895 30.5664 32.8253 30.6935 32.6968C32.0117 31.3645 32.826 29.5301 32.826 27.505C32.826 24.9885 31.5686 22.7666 29.6494 21.4366C28.866 23.5187 26.856 25.0001 24.5 25.0001C21.5838 25.0001 19.1976 22.7304 19.0117 19.8612ZM28.7557 20.9665C28.7525 20.9661 28.7493 20.9658 28.7459 20.9655L20.6256 20.1337H20.1002C20.0771 20.1337 20.0593 20.1337 20.0442 20.1335C20.3521 22.3189 22.2297 24.0001 24.5 24.0001C26.4719 24.0001 28.1475 22.7318 28.7557 20.9665Z" fill="#7165E3"/>
<path d="M20.2927 26.6221H29.622" stroke="white" stroke-linecap="round"/>
<path d="M18.2195 26.6221H17.2195" stroke="white" stroke-linecap="round"/>
<path d="M23 20.5C23 21.0523 23.4477 21.5 24 21.5H25C25.5523 21.5 26 21.0523 26 20.5C26 19.9477 25.5523 19.5 25 19.5H24C23.4477 19.5 23 19.0523 23 18.5C23 17.9477 23.4477 17.5 24 17.5H25C25.5523 17.5 26 17.9477 26 18.5M24.5 17V22" stroke="white" stroke-width="0.6" stroke-linecap="round" stroke-linejoin="round"/>
</svg>
