<svg width="40" height="40" viewBox="0 0 40 40" fill="none" xmlns="http://www.w3.org/2000/svg">
<circle cx="20" cy="20" r="19.5" stroke="#404076"/>
<path fill-rule="evenodd" clip-rule="evenodd" d="M11 11.4737C11 11.2121 11.2121 11 11.4737 11H18.1053C18.3669 11 18.5789 11.2121 18.5789 11.4737V18.1053C18.5789 18.3669 18.3669 18.5789 18.1053 18.5789H11.4737C11.2121 18.5789 11 18.3669 11 18.1053V11.4737ZM11.9474 11.9474V17.6316H17.6316V11.9474H11.9474Z" fill="white"/>
<path fill-rule="evenodd" clip-rule="evenodd" d="M21.4209 11.4737C21.4209 11.2121 21.633 11 21.8946 11H28.5262C28.7878 11 28.9998 11.2121 28.9998 11.4737V18.1053C28.9998 18.3669 28.7878 18.5789 28.5262 18.5789H21.8946C21.633 18.5789 21.4209 18.3669 21.4209 18.1053V11.4737ZM22.3683 11.9474V17.6316H28.0525V11.9474H22.3683Z" fill="white"/>
<path fill-rule="evenodd" clip-rule="evenodd" d="M21.4209 21.8948C21.4209 21.6332 21.633 21.4211 21.8946 21.4211H28.5262C28.7878 21.4211 28.9998 21.6332 28.9998 21.8948V28.5263C28.9998 28.788 28.7878 29 28.5262 29H21.8946C21.633 29 21.4209 28.788 21.4209 28.5263V21.8948ZM22.3683 22.3684V28.0527H28.0525V22.3684H22.3683Z" fill="white"/>
<path fill-rule="evenodd" clip-rule="evenodd" d="M11 21.8948C11 21.6332 11.2121 21.4211 11.4737 21.4211H18.1053C18.3669 21.4211 18.5789 21.6332 18.5789 21.8948V28.5263C18.5789 28.788 18.3669 29 18.1053 29H11.4737C11.2121 29 11 28.788 11 28.5263V21.8948ZM11.9474 22.3684V28.0527H17.6316V22.3684H11.9474Z" fill="white"/>
</svg>
