<svg width="64" height="64" viewBox="0 0 64 64" fill="none" xmlns="http://www.w3.org/2000/svg">
<circle opacity="0.1" cx="32" cy="32" r="23" fill="#6764EA"/>
<circle opacity="0.1" cx="32" cy="32" r="32" fill="#6764EA"/>
<path fill-rule="evenodd" clip-rule="evenodd" d="M43.2 21H20.8C19.26 21 18 22.2375 18 23.75V40.25C18 41.7625 19.26 43 20.8 43H43.2C44.74 43 46 41.7625 46 40.25V23.75C46 22.2375 44.74 21 43.2 21ZM21.5808 25.4987C21.0831 25.1504 20.3972 25.2714 20.0489 25.7691C19.7005 26.2668 19.8215 26.9527 20.3192 27.3011L31.3192 35.0011C31.698 35.2662 32.2021 35.2662 32.5808 35.0011L43.5808 27.3011C44.0785 26.9527 44.1996 26.2668 43.8512 25.7691C43.5028 25.2714 42.8169 25.1504 42.3192 25.4987L31.95 32.7572L21.5808 25.4987Z" fill="#5096FF"/>
</svg>
