<svg width="48" height="48" viewBox="0 0 48 48" fill="none" xmlns="http://www.w3.org/2000/svg">
<rect width="48" height="48" rx="4" fill="#1D1D40"/>
<path d="M33.2751 26.0447C32.7937 31.3461 28.3362 35.4998 22.9091 35.4998C17.1603 35.4998 12.5 30.8395 12.5 25.0907C12.5 19.6636 16.6537 15.2061 21.9551 14.7247C22.1823 14.7041 22.4091 14.8924 22.4091 15.1816V24.0907C22.4091 24.9192 23.0807 25.5907 23.9091 25.5907H32.8182C33.1075 25.5907 33.2957 25.8175 33.2751 26.0447Z" fill="#7165E3" stroke="#7165E3" stroke-linejoin="round"/>
<path d="M35.9548 21.9099C35.4801 16.6824 31.3176 12.5198 26.09 12.0451C25.54 11.9952 25.0908 12.4477 25.0908 13V21.9091C25.0908 22.4614 25.5385 22.9091 26.0908 22.9091H34.9999C35.5522 22.9091 36.0047 22.4599 35.9548 21.9099Z" fill="#7165E3"/>
<path d="M26 22L28 20L30 21L34 17" stroke="white" stroke-linecap="round" stroke-linejoin="round"/>
</svg>
