<svg width="32" height="32" viewBox="0 0 32 32" fill="none" xmlns="http://www.w3.org/2000/svg">
<rect width="32" height="32" rx="4" fill="#23233B"/>
<path fill-rule="evenodd" clip-rule="evenodd" d="M14.5495 16L10.3431 20.2064C9.942 20.6075 9.94245 21.2561 10.3434 21.6571C10.7443 22.058 11.3927 22.0578 11.7936 21.6568L16 17.4505L20.2064 21.6568C20.6075 22.058 21.2562 22.0575 21.6571 21.6566C22.058 21.2557 22.0578 20.6073 21.6569 20.2064L17.4505 16L21.6569 11.7936C22.0578 11.3927 22.058 10.7443 21.6571 10.3434C21.2562 9.94244 20.6073 9.94221 20.2064 10.3431L16 14.5495L11.7936 10.3431C11.3927 9.94221 10.7443 9.94199 10.3434 10.3429C9.94245 10.7438 9.94223 11.3927 10.3431 11.7936L14.5495 16Z" fill="white" fill-opacity="0.7"/>
</svg>
