<svg width="47" height="45" viewBox="0 0 47 45" fill="none" xmlns="http://www.w3.org/2000/svg">
<path d="M27.3419 9.71983C29.8095 9.69531 32.2848 10.6244 34.1676 12.5072C36.0504 14.39 36.9795 16.8653 36.955 19.3329M33.1393 19.5555C33.226 17.9899 32.6714 16.3954 31.4754 15.1993C30.2794 14.0033 28.6849 13.4487 27.1193 13.5355" stroke="#EAECEF" stroke-linecap="round" stroke-linejoin="round"/>
<path d="M25.5358 22.0003C23.9444 20.4089 22.6878 18.6095 21.766 16.6895C21.7353 16.6258 21.7199 16.5938 21.6992 16.5401C21.5103 16.0535 21.6168 15.4282 21.9564 15.0317C21.9939 14.9879 22.0298 14.952 22.1018 14.88C22.3469 14.6348 22.4696 14.5122 22.5626 14.3987C23.4639 13.2999 23.4639 11.7177 22.5626 10.6189C22.4696 10.5054 22.3469 10.3828 22.1018 10.1376L21.8436 9.87949C21.3583 9.39421 21.1158 9.15167 20.8741 8.98963C19.8701 8.31618 18.5586 8.31618 17.5545 8.98963C17.3128 9.15168 17.0703 9.39421 16.585 9.87949L16.3762 10.0883C15.8755 10.589 15.6251 10.8394 15.3915 11.1798C14.8694 11.941 14.5417 13.2012 14.6268 14.1206C14.6648 14.5316 14.7323 14.7689 14.8669 15.2434C16.0073 19.2609 18.1587 23.0519 21.3215 26.2147C24.4842 29.3774 28.2753 31.5289 32.2927 32.6692C32.7673 32.8039 33.0045 32.8713 33.4155 32.9093C34.3349 32.9944 35.5951 32.6667 36.3563 32.1446C36.6967 31.9111 36.9472 31.6606 37.4478 31.16L37.6566 30.9511C38.1419 30.4659 38.3845 30.2233 38.5465 29.9817C39.22 28.9776 39.22 27.6661 38.5465 26.662C38.3845 26.4204 38.1419 26.1777 37.6566 25.6925L37.3985 25.4344C37.1533 25.1892 37.0307 25.0666 36.9172 24.9735C35.8185 24.0722 34.2362 24.0722 33.1374 24.9735C33.0239 25.0666 32.9013 25.1892 32.6561 25.4344C32.5842 25.5063 32.5482 25.5423 32.5044 25.5798C32.1079 25.9193 31.4826 26.0259 30.996 25.837C30.9423 25.8161 30.9104 25.8008 30.8466 25.7701C28.9266 24.8484 27.1272 23.5918 25.5358 22.0003Z" fill="#5E5CC2"/>
<path d="M20.7141 25.75H11.7141C8.95269 25.75 6.71411 27.9886 6.71411 30.75V32.75C6.71411 35.5114 8.95269 37.75 11.7141 37.75H23.7141C26.4755 37.75 28.7141 35.5114 28.7141 32.75V31.75" stroke="#5E5CC2"/>
<circle cx="11.7141" cy="31.75" r="1" fill="#5E5CC2"/>
<circle cx="16.7141" cy="31.75" r="1" fill="#5E5CC2"/>
<circle cx="21.7141" cy="31.75" r="1" fill="#5E5CC2"/>
</svg>
