<svg width="48" height="48" viewBox="0 0 48 48" fill="none" xmlns="http://www.w3.org/2000/svg">
<rect width="48" height="48" rx="4" fill="#1D1D40"/>
<circle cx="26" cy="17.1875" r="9.8" fill="#7165E3" stroke="#7165E3" stroke-width="1.4"/>
<path d="M22 19.6C22 21.0359 23.1939 22.2 24.6667 22.2H27.3333C28.8061 22.2 30 21.0359 30 19.6C30 18.1641 28.8061 17 27.3333 17H24.6667C23.1939 17 22 15.8359 22 14.4C22 12.9641 23.1939 11.8 24.6667 11.8H27.3333C28.8061 11.8 30 12.9641 30 14.4M26 10.5V23.5" stroke="white" stroke-width="1.4" stroke-linecap="round" stroke-linejoin="round"/>
<path d="M16.3 38.9746H19.4323C19.8408 38.9746 20.2467 39.0241 20.6426 39.1231L23.9523 39.9422C24.6704 40.1204 25.4185 40.1378 26.1442 39.9942L29.8036 39.2691C30.7703 39.0773 31.6595 38.6058 32.3564 37.9153L34.9455 35.3502C35.6848 34.6188 35.6848 33.4321 34.9455 32.6996C34.2798 32.04 33.2257 31.9658 32.4726 32.5251L29.4551 34.7673C29.023 35.0891 28.4972 35.2623 27.9564 35.2623H25.0426L26.8973 35.2622C27.9426 35.2622 28.7894 34.4232 28.7894 33.3875V33.0126C28.7894 32.1526 28.1987 31.4027 27.3569 31.1948L24.4943 30.4857C24.0285 30.3707 23.5514 30.3125 23.0718 30.3125C21.914 30.3125 19.8183 31.2888 19.8183 31.2888L16.3 32.7874M11.5 32.2681L11.5 39.3569C11.5 40.0415 11.5 40.3837 11.6308 40.6452C11.7458 40.8751 11.9294 41.0621 12.1552 41.1793C12.4119 41.3125 12.7479 41.3125 13.42 41.3125H14.38C15.0521 41.3125 15.3881 41.3125 15.6448 41.1793C15.8706 41.0621 16.0542 40.8751 16.1692 40.6452C16.3 40.3837 16.3 40.0415 16.3 39.3569V32.2681C16.3 31.5835 16.3 31.2413 16.1692 30.9798C16.0542 30.7499 15.8706 30.5629 15.6448 30.4457C15.3881 30.3125 15.0521 30.3125 14.38 30.3125H13.42C12.7479 30.3125 12.4119 30.3125 12.1552 30.4457C11.9294 30.5629 11.7458 30.7499 11.6308 30.9798C11.5 31.2413 11.5 31.5835 11.5 32.2681Z" stroke="#7165E3" stroke-width="1.4" stroke-linecap="round" stroke-linejoin="round"/>
</svg>
