<svg width="40" height="40" viewBox="0 0 40 40" fill="none" xmlns="http://www.w3.org/2000/svg">
<circle cx="20" cy="20" r="19.5" stroke="#404076"/>
<path fill-rule="evenodd" clip-rule="evenodd" d="M11.4737 29C11.2121 29 11 28.7879 11 28.5263L11 11.4737C11 11.2121 11.2121 11 11.4737 11L18.1053 11C18.3669 11 18.5789 11.2121 18.5789 11.4737L18.5789 28.5263C18.5789 28.7879 18.3669 29 18.1053 29L11.4737 29ZM11.9474 28.0526L17.6316 28.0526L17.6316 11.9474L11.9474 11.9474L11.9474 28.0526Z" fill="white"/>
<path fill-rule="evenodd" clip-rule="evenodd" d="M21.8946 29C21.633 29 21.4209 28.7879 21.4209 28.5263L21.4209 11.5263C21.4209 11.2647 21.633 11.0526 21.8946 11.0526L28.5262 11.0526C28.7878 11.0526 28.9998 11.2647 28.9998 11.5263L28.9998 28.5263C28.9998 28.7879 28.7878 29 28.5262 29L21.8946 29ZM22.3683 28.0526L28.0525 28.0526L28.0525 12L22.3683 12L22.3683 28.0526Z" fill="white"/>
</svg>
