<svg width="48" height="48" viewBox="0 0 48 48" fill="none" xmlns="http://www.w3.org/2000/svg">
<path d="M25.3333 36H13.6667C11.3331 36 10.1663 36 9.27504 35.4913C8.49103 35.044 7.85361 34.3301 7.45414 33.452C7 32.4536 7 31.147 7 28.5333V15.4667C7 12.8531 7 11.5463 7.45414 10.548C7.85361 9.66995 8.49103 8.95604 9.27504 8.50864C10.1663 8 11.3331 8 13.6667 8H25.3333C27.6669 8 28.8336 8 29.725 8.50864C30.509 8.95604 31.1464 9.66995 31.5458 10.548C32 11.5463 32 12.8531 32 15.4667V22" stroke="#5E5CC2" stroke-linecap="round" stroke-linejoin="round"/>
<circle cx="32" cy="30.6004" r="9.10673" fill="#5E5CC2"/>
<path d="M29.3933 32.281C29.3933 33.2115 30.1557 33.9659 31.0962 33.9659H32.799C33.7395 33.9659 34.5019 33.2115 34.5019 32.281C34.5019 31.3504 33.7395 30.5961 32.799 30.5961H31.0962C30.1557 30.5961 29.3933 29.8417 29.3933 28.9112C29.3933 27.9806 30.1557 27.2262 31.0962 27.2262H32.799C33.7395 27.2262 34.5019 27.9806 34.5019 28.9112M31.9476 26.3838V34.8084" stroke="#EAECEF" stroke-linecap="round" stroke-linejoin="round"/>
<rect x="12.5" y="20.5" width="5" height="9" rx="0.5" stroke="#5E5CC2"/>
<path d="M15 18L15 20" stroke="#5E5CC2" stroke-linecap="round"/>
<path d="M15 30V32" stroke="#5E5CC2" stroke-linecap="round"/>
<rect x="20.5" y="13.5" width="5" height="9" rx="0.5" stroke="#5E5CC2"/>
<path d="M23 11V13" stroke="#5E5CC2" stroke-linecap="round"/>
<path d="M23 23V25" stroke="#5E5CC2" stroke-linecap="round"/>
</svg>
