<svg width="48" height="48" viewBox="0 0 48 48" fill="none" xmlns="http://www.w3.org/2000/svg">
<circle cx="24.0004" cy="23" r="11" fill="#5E5CC2"/>
<path d="M20.0004 25.4C20.0004 26.7255 21.1943 27.8 22.667 27.8H25.3337C26.8065 27.8 28.0004 26.7255 28.0004 25.4C28.0004 24.0745 26.8065 23 25.3337 23H22.667C21.1943 23 20.0004 21.9255 20.0004 20.6C20.0004 19.2745 21.1943 18.2 22.667 18.2H25.3337C26.8065 18.2 28.0004 19.2745 28.0004 20.6M24.0004 17V29" stroke="#EAECEF" stroke-linecap="round" stroke-linejoin="round"/>
<path d="M38 19.8462V8M38 8L33.5577 12.4423M38 8L42.4424 12.4423" stroke="#5E5CC2" stroke-linecap="round" stroke-linejoin="round"/>
<path d="M11 28.1538V40M11 40L6.55774 35.5577M11 40L15.4424 35.5577" stroke="#5E5CC2" stroke-linecap="round" stroke-linejoin="round"/>
</svg>
