<svg width="16" height="16" viewBox="0 0 16 16" fill="none" xmlns="http://www.w3.org/2000/svg">
<path fill-rule="evenodd" clip-rule="evenodd" d="M5.82386 2.38906C5.82386 2.19111 5.66564 2.03064 5.47046 2.03064C5.27528 2.03064 5.11705 2.19111 5.11705 2.38906V3.75012H4.6767C4.05642 3.75012 3.55359 4.2601 3.55359 4.88919V9.34625C3.55359 9.97534 4.05642 10.4853 4.6767 10.4853H5.11705V11.8466C5.11705 12.0446 5.27528 12.205 5.47046 12.205C5.66564 12.205 5.82386 12.0446 5.82386 11.8466V10.4853H6.28574C6.90602 10.4853 7.40885 9.97534 7.40885 9.34625V4.88919C7.40885 4.2601 6.90602 3.75012 6.28574 3.75012H5.82386V2.38906ZM4.2604 4.88919C4.2604 4.656 4.44678 4.46697 4.6767 4.46697H6.28574C6.51566 4.46697 6.70204 4.656 6.70204 4.88919V9.34625C6.70204 9.57943 6.51566 9.76847 6.28574 9.76847H4.6767C4.44678 9.76847 4.2604 9.57943 4.2604 9.34625V4.88919ZM9.7142 5.51442C9.09392 5.51442 8.59108 6.0244 8.59108 6.65349V11.1105C8.59108 11.7396 9.09392 12.2496 9.7142 12.2496H10.1545V13.6109C10.1545 13.8089 10.3128 13.9694 10.508 13.9694C10.7031 13.9694 10.8614 13.8089 10.8614 13.6109V12.2496H11.3232C11.9435 12.2496 12.4463 11.7396 12.4463 11.1105V6.65348C12.4463 6.0244 11.9435 5.51442 11.3232 5.51442H10.8614V4.15338C10.8614 3.95543 10.7031 3.79496 10.508 3.79496C10.3128 3.79496 10.1545 3.95543 10.1545 4.15338V5.51442H9.7142ZM9.29789 6.65349C9.29789 6.4203 9.48428 6.23127 9.7142 6.23127H11.3232C11.5532 6.23127 11.7395 6.4203 11.7395 6.65348V11.1105C11.7395 11.3437 11.5532 11.5328 11.3232 11.5328H9.7142C9.48428 11.5328 9.29789 11.3437 9.29789 11.1105V6.65349Z" fill="white" stroke="white" stroke-width="0.2" stroke-linecap="round"/>
</svg>
