<svg width="24" height="24" viewBox="0 0 24 24" fill="none" xmlns="http://www.w3.org/2000/svg">
<path fill-rule="evenodd" clip-rule="evenodd" d="M4.58826 7.94128C4.58826 7.64889 4.82528 7.41187 5.11767 7.41187H18.8824C19.1748 7.41187 19.4118 7.64889 19.4118 7.94128C19.4118 8.23366 19.1748 8.47069 18.8824 8.47069H5.11767C4.82528 8.47069 4.58826 8.23366 4.58826 7.94128Z" fill="white"/>
<path fill-rule="evenodd" clip-rule="evenodd" d="M4.58826 12.0001C4.58826 11.7077 4.82528 11.4707 5.11767 11.4707H18.8824C19.1748 11.4707 19.4118 11.7077 19.4118 12.0001C19.4118 12.2925 19.1748 12.5295 18.8824 12.5295H5.11767C4.82528 12.5295 4.58826 12.2925 4.58826 12.0001Z" fill="white"/>
<path fill-rule="evenodd" clip-rule="evenodd" d="M4.58826 16.059C4.58826 15.7666 4.82528 15.5295 5.11767 15.5295H18.8824C19.1748 15.5295 19.4118 15.7666 19.4118 16.059C19.4118 16.3513 19.1748 16.5884 18.8824 16.5884H5.11767C4.82528 16.5884 4.58826 16.3513 4.58826 16.059Z" fill="white"/>
</svg>
