<svg width="24" height="24" viewBox="0 0 24 24" fill="none" xmlns="http://www.w3.org/2000/svg">
<path d="M9.2 14.1333C9.2 15.1643 10.0357 16 11.0667 16H12.8C13.9046 16 14.8 15.1046 14.8 14C14.8 12.8954 13.9046 12 12.8 12H11.2C10.0954 12 9.2 11.1046 9.2 10C9.2 8.89543 10.0954 8 11.2 8H12.9333C13.9643 8 14.8 8.83574 14.8 9.86667M12 6.8V8M12 16V17.2M20 12C20 16.4183 16.4183 20 12 20C7.58172 20 4 16.4183 4 12C4 7.58172 7.58172 4 12 4C16.4183 4 20 7.58172 20 12Z" stroke="white" stroke-linecap="round" stroke-linejoin="round"/>
</svg>
