<svg width="40" height="40" viewBox="0 0 40 40" fill="none" xmlns="http://www.w3.org/2000/svg">
<path d="M14.4 24.2667C14.4 26.3285 16.0715 28 18.1333 28H21.6C23.8091 28 25.6 26.2091 25.6 24C25.6 21.7909 23.8091 20 21.6 20H18.4C16.1909 20 14.4 18.2091 14.4 16C14.4 13.7909 16.1909 12 18.4 12H21.8667C23.9285 12 25.6 13.6715 25.6 15.7333M20 9.6V12M20 28V30.4M36 20C36 28.8366 28.8366 36 20 36C11.1634 36 4 28.8366 4 20C4 11.1634 11.1634 4 20 4C28.8366 4 36 11.1634 36 20Z" stroke="white" stroke-width="2" stroke-linecap="round" stroke-linejoin="round"/>
</svg>
