<svg width="48" height="48" viewBox="0 0 48 48" fill="none" xmlns="http://www.w3.org/2000/svg">
<path d="M31.6093 10.0005H22.1925C21.8358 10.0005 21.4936 10.1426 21.2413 10.3956C20.989 10.6485 20.8473 10.9916 20.8473 11.3494V26.187C20.8473 26.5447 20.989 26.8878 21.2413 27.1408C21.4936 27.3937 21.8358 27.5359 22.1925 27.5359H36.9903C37.347 27.5359 37.6892 27.3937 37.9415 27.1408C38.1938 26.8878 38.3355 26.5447 38.3355 26.187V16.7449L31.6093 10.0005Z" stroke="white" stroke-linecap="round" stroke-linejoin="round"/>
<path d="M31.6097 16.0704V10.0005L38.3359 16.7449H32.2823C32.1039 16.7449 31.9328 16.6738 31.8067 16.5473C31.6805 16.4208 31.6097 16.2493 31.6097 16.0704Z" stroke="white" stroke-linecap="round" stroke-linejoin="round"/>
<path d="M24.6686 19.5793L34.2218 19.5793" stroke="white" stroke-linecap="round" stroke-linejoin="round"/>
<path d="M24.6686 15.7478L28.4899 15.7478" stroke="white" stroke-linecap="round" stroke-linejoin="round"/>
<path d="M36.527 31.5596L35.0875 30.1162L33.648 31.5596" stroke="white" stroke-linecap="round" stroke-linejoin="round"/>
<path d="M27.5345 38.2651L30.9544 38.2539C33.1942 38.2466 35.0082 36.4263 35.016 34.1782L35.0279 30.744" stroke="white" stroke-linecap="round" stroke-linejoin="round"/>
<circle cx="17.6064" cy="31.1072" r="8.60673" fill="#0B0B25" stroke="white"/>
<path d="M14.9997 32.7878C14.9997 33.7184 15.7621 34.4727 16.7025 34.4727H18.4054C19.3459 34.4727 20.1083 33.7184 20.1083 32.7878C20.1083 31.8573 19.3459 31.1029 18.4054 31.1029H16.7025C15.7621 31.1029 14.9997 30.3485 14.9997 29.418C14.9997 28.4874 15.7621 27.7331 16.7025 27.7331H18.4054C19.3459 27.7331 20.1083 28.4874 20.1083 29.418M17.554 26.8906V35.3152" stroke="white" stroke-linecap="round" stroke-linejoin="round"/>
</svg>
