<svg width="48" height="48" viewBox="0 0 48 48" fill="none" xmlns="http://www.w3.org/2000/svg">
<rect width="48" height="48" rx="4" fill="#1D1D40"/>
<path d="M31.3956 19.6C31.3956 17.5844 30.5638 15.6513 29.083 14.226C27.6023 12.8007 25.594 12 23.5 12C21.406 12 19.3977 12.8007 17.917 14.226C16.4362 15.6513 15.6044 17.5844 15.6044 19.6C15.6044 23.5142 14.5786 26.1942 13.4327 27.9669C12.4661 29.4621 11.9827 30.2097 12.0005 30.4183C12.0201 30.6492 12.0709 30.7373 12.2643 30.8753C12.4389 31 13.226 31 14.8002 31H32.1998C33.774 31 34.5611 31 34.7358 30.8753C34.9291 30.7373 34.9799 30.6492 34.9995 30.4183C35.0173 30.2097 34.534 29.4621 33.5673 27.9669C32.4214 26.1942 31.3956 23.5142 31.3956 19.6Z" fill="#7165E3"/>
<path d="M20.0183 34.7333C20.9462 35.5217 22.1651 36 23.5 36C24.8349 36 26.0538 35.5217 26.9817 34.7333M31.3956 19.6C31.3956 17.5844 30.5638 15.6513 29.083 14.226C27.6023 12.8007 25.594 12 23.5 12C21.406 12 19.3977 12.8007 17.917 14.226C16.4362 15.6513 15.6044 17.5844 15.6044 19.6C15.6044 23.5142 14.5786 26.1942 13.4327 27.9669C12.4661 29.4621 11.9827 30.2097 12.0005 30.4183C12.0201 30.6492 12.0709 30.7373 12.2643 30.8753C12.4389 31 13.226 31 14.8002 31H32.1998C33.774 31 34.5611 31 34.7358 30.8753C34.9291 30.7373 34.9799 30.6492 34.9995 30.4183C35.0173 30.2097 34.534 29.4621 33.5673 27.9669C32.4214 26.1942 31.3956 23.5142 31.3956 19.6Z" stroke="#7165E3" stroke-linecap="round" stroke-linejoin="round"/>
<path d="M25 17L22 20.3333L25 21.6667L22 25" stroke="white" stroke-linecap="round" stroke-linejoin="round"/>
</svg>
