<svg width="48" height="48" viewBox="0 0 48 48" fill="none" xmlns="http://www.w3.org/2000/svg">
<path d="M17.4998 16.2815H28.9998H40.4998M23.6331 10.5005H34.3664C36.5133 10.5005 37.5867 10.5005 38.4068 10.915C39.1281 11.2797 39.7144 11.8615 40.0819 12.5771C40.4998 13.3907 40.4998 14.4557 40.4998 16.5857V27.2349C40.4998 29.3649 40.4998 30.4299 40.0819 31.2435C39.7144 31.9591 39.1281 32.5409 38.4068 32.9055C37.5867 33.3201 36.5133 33.3201 34.3664 33.3201H23.6331C21.4862 33.3201 20.4128 33.3201 19.5928 32.9055C18.8715 32.5409 18.2851 31.9591 17.9176 31.2435C17.4998 30.4299 17.4998 29.3649 17.4998 27.2349V16.5857C17.4998 14.4557 17.4998 13.3907 17.9176 12.5771C18.2851 11.8615 18.8715 11.2797 19.5928 10.915C20.4128 10.5005 21.4862 10.5005 23.6331 10.5005Z" stroke="white" stroke-linecap="round" stroke-linejoin="round"/>
<path d="M28.4998 21.4143H35.4998" stroke="white" stroke-linecap="round" stroke-linejoin="round"/>
<path d="M28.4998 24.3906H35.4998" stroke="white" stroke-linecap="round" stroke-linejoin="round"/>
<path d="M28.4998 27.3672H35.4998" stroke="white" stroke-linecap="round" stroke-linejoin="round"/>
<circle cx="16.6065" cy="28.6072" r="8.60673" fill="#0B0B25" stroke="white"/>
<path d="M13.9998 30.2878C13.9998 31.2184 14.7621 31.9727 15.7026 31.9727H17.4055C18.3459 31.9727 19.1083 31.2184 19.1083 30.2878C19.1083 29.3573 18.3459 28.6029 17.4055 28.6029H15.7026C14.7621 28.6029 13.9998 27.8485 13.9998 26.918C13.9998 25.9874 14.7621 25.2331 15.7026 25.2331H17.4055C18.3459 25.2331 19.1083 25.9874 19.1083 26.918M16.554 24.3906V32.8152" stroke="white" stroke-linecap="round" stroke-linejoin="round"/>
</svg>
