<svg width="28" height="28" viewBox="0 0 28 28" fill="none" xmlns="http://www.w3.org/2000/svg">
<rect x="1" y="1" width="26" height="26" rx="5" fill="#141432"/>
<path d="M19.4347 12.2904L15.7096 8.5653M5 23L8.15176 22.6498C8.53683 22.607 8.72937 22.5856 8.90933 22.5274C9.06899 22.4757 9.22094 22.4027 9.36104 22.3103C9.51895 22.2061 9.65593 22.0692 9.92989 21.7952L22.2285 9.49658C23.2572 8.46792 23.2572 6.80014 22.2285 5.77149C21.1999 4.74284 19.5321 4.74284 18.5035 5.77149L6.20481 18.0701C5.93085 18.3441 5.79387 18.4811 5.68973 18.639C5.59735 18.7791 5.52432 18.931 5.47263 19.0907C5.41437 19.2706 5.39298 19.4632 5.3502 19.8482L5 23Z" stroke="#EAECEF" stroke-linecap="round" stroke-linejoin="round"/>
<rect x="1" y="1" width="26" height="26" rx="5" stroke="#1D1D40" stroke-width="2"/>
</svg>
