<svg width="80" height="80" viewBox="0 0 80 80" fill="none" xmlns="http://www.w3.org/2000/svg">
<circle cx="40" cy="40" r="39.6154" fill="#141432" stroke="#1D1D40" stroke-width="0.769231"/>
<path opacity="0.5" d="M15.0764 21.1161C15.0764 19.4168 16.454 18.0392 18.1533 18.0392H27.112C27.8203 18.0392 28.507 18.2836 29.056 18.7311L35.0445 23.6123C35.5936 24.0599 36.2802 24.3043 36.9886 24.3043H63.2413C64.9407 24.3043 66.3182 25.6818 66.3182 27.3812V38.1431C66.3182 39.8424 64.9407 41.22 63.2413 41.22H18.1533C16.454 41.22 15.0764 39.8424 15.0764 38.1431V21.1161Z" fill="#404076"/>
<rect x="18.3672" y="31.3232" width="41.7199" height="25.115" transform="rotate(-15 18.3672 31.3232)" fill="#7165E3"/>
<path d="M11.9584 34.3911C11.8553 33.4787 12.569 32.6797 13.4872 32.6797H66.6875C67.6057 32.6797 68.3194 33.4787 68.2162 34.3911L65.2527 60.5952C65.1647 61.373 64.5067 61.9608 63.7239 61.9608H16.4507C15.6679 61.9608 15.01 61.373 14.922 60.5952L11.9584 34.3911Z" fill="#3C3C70"/>
</svg>
