<svg width="84" height="80" viewBox="0 0 84 80" fill="none" xmlns="http://www.w3.org/2000/svg">
<circle cx="44" cy="40" r="39.6154" fill="#141432" stroke="#1D1D40" stroke-width="0.769231"/>
<rect x="19.3848" y="41.8462" width="64.6154" height="20" rx="2.30769" fill="#7878DF"/>
<path d="M65.4835 46.5825H41.6813C40.7528 46.5825 40 47.3353 40 48.2638C40 49.1924 40.7528 49.9452 41.6813 49.9452H65.4835C66.4121 49.9452 67.1648 49.1924 67.1648 48.2638C67.1648 47.3353 66.4121 46.5825 65.4835 46.5825Z" fill="white" fill-opacity="0.3"/>
<path d="M78.6483 53.8683H41.6813C40.7528 53.8683 40 54.621 40 55.5496C40 56.4782 40.7528 57.2309 41.6813 57.2309H78.6483C79.5769 57.2309 80.3297 56.4782 80.3297 55.5496C80.3297 54.621 79.5769 53.8683 78.6483 53.8683Z" fill="white" fill-opacity="0.7"/>
<g filter="url(#filter0_d_5383_322190)">
<rect x="4" y="18" width="64.6154" height="20" rx="2.30769" fill="#79799F"/>
<path d="M17.5 25.6667C17.5 24.7385 17.1313 23.8483 16.4749 23.1919C15.8185 22.5355 14.9283 22.1667 14 22.1667C13.0717 22.1667 12.1815 22.5355 11.5251 23.1919C10.8687 23.8483 10.5 24.7385 10.5 25.6667C10.5 29.7501 8.75 30.9167 8.75 30.9167H19.25C19.25 30.9167 17.5 29.7501 17.5 25.6667Z" fill="white" stroke="white" stroke-width="1.16667" stroke-linecap="round" stroke-linejoin="round"/>
<path d="M15.0095 33.25C14.907 33.4268 14.7598 33.5735 14.5827 33.6756C14.4056 33.7776 14.2048 33.8313 14.0004 33.8313C13.796 33.8313 13.5952 33.7776 13.4181 33.6756C13.241 33.5735 13.0938 33.4268 12.9912 33.25" stroke="white" stroke-width="1.16667" stroke-linecap="round" stroke-linejoin="round"/>
<path d="M33.5 49.6667C33.5 48.7385 33.1313 47.8483 32.4749 47.1919C31.8185 46.5355 30.9283 46.1667 30 46.1667C29.0717 46.1667 28.1815 46.5355 27.5251 47.1919C26.8687 47.8483 26.5 48.7385 26.5 49.6667C26.5 53.7501 24.75 54.9167 24.75 54.9167H35.25C35.25 54.9167 33.5 53.7501 33.5 49.6667Z" fill="white" stroke="white" stroke-width="1.16667" stroke-linecap="round" stroke-linejoin="round"/>
<path d="M31.0095 57.25C30.907 57.4268 30.7598 57.5735 30.5827 57.6756C30.4056 57.7776 30.2048 57.8313 30.0004 57.8313C29.796 57.8313 29.5952 57.7776 29.4181 57.6756C29.241 57.5735 29.0938 57.4268 28.9912 57.25" stroke="white" stroke-width="1.16667" stroke-linecap="round" stroke-linejoin="round"/>
</g>
<path d="M40.2527 22.4836H25.6813C24.7528 22.4836 24 23.2364 24 24.165C24 25.0935 24.7528 25.8463 25.6813 25.8463H40.2527C41.1813 25.8463 41.9341 25.0935 41.9341 24.165C41.9341 23.2364 41.1813 22.4836 40.2527 22.4836Z" fill="white" fill-opacity="0.3"/>
<path d="M50.3407 29.7695H25.6813C24.7528 29.7695 24 30.5223 24 31.4508C24 32.3794 24.7528 33.1322 25.6813 33.1322H50.3407C51.2692 33.1322 52.022 32.3794 52.022 31.4508C52.022 30.5223 51.2692 29.7695 50.3407 29.7695Z" fill="white" fill-opacity="0.7"/>
<defs>
<filter id="filter0_d_5383_322190" x="0.637363" y="16.3187" width="71.3405" height="47.7253" filterUnits="userSpaceOnUse" color-interpolation-filters="sRGB">
<feFlood flood-opacity="0" result="BackgroundImageFix"/>
<feColorMatrix in="SourceAlpha" type="matrix" values="0 0 0 0 0 0 0 0 0 0 0 0 0 0 0 0 0 0 127 0" result="hardAlpha"/>
<feOffset dy="1.68132"/>
<feGaussianBlur stdDeviation="1.68132"/>
<feColorMatrix type="matrix" values="0 0 0 0 0 0 0 0 0 0 0 0 0 0 0 0 0 0 0.161 0"/>
<feBlend mode="normal" in2="BackgroundImageFix" result="effect1_dropShadow_5383_322190"/>
<feBlend mode="normal" in="SourceGraphic" in2="effect1_dropShadow_5383_322190" result="shape"/>
</filter>
</defs>
</svg>
