<svg width="24" height="24" viewBox="0 0 24 24" fill="none" xmlns="http://www.w3.org/2000/svg">
<path d="M20.375 18.131L19.4443 19.1534C18.9508 19.6955 18.2814 20 17.5835 20C16.8855 20 16.2162 19.6955 15.7226 19.1534C15.2283 18.6124 14.559 18.3086 13.8613 18.3086C13.1636 18.3086 12.4943 18.6124 12 19.1534M3.625 20H5.18326C5.63847 20 5.86607 20 6.08027 19.9484C6.27017 19.9026 6.45171 19.827 6.61823 19.7246C6.80604 19.609 6.96698 19.4474 7.28887 19.1241L18.9792 7.38415C19.7501 6.60998 19.7501 5.3548 18.9792 4.58063C18.2083 3.80646 16.9584 3.80646 16.1875 4.58063L4.49717 16.3206C4.17529 16.6438 4.01435 16.8055 3.89925 16.9941C3.79721 17.1613 3.72201 17.3436 3.67642 17.5343C3.625 17.7494 3.625 17.978 3.625 18.4351V20Z" stroke="white" stroke-linecap="round" stroke-linejoin="round"/>
</svg>
