<svg width="21" height="20" viewBox="0 0 21 20" fill="none" xmlns="http://www.w3.org/2000/svg">
<path d="M11.641 3.08246L11.6435 3.07476H11.5742H4.43069C3.95879 3.07476 3.575 3.45855 3.575 3.93045V16.0695C3.575 16.5414 3.95879 16.9252 4.43069 16.9252H13.6686C14.1404 16.9252 14.5243 16.5414 14.5243 16.0695V15.3826L15.7855 16.6439C15.9727 16.8312 16.2189 16.9248 16.4648 16.9248C16.7107 16.9248 16.9568 16.8312 17.1441 16.6439L17.1441 16.6439C17.5186 16.2692 17.5186 15.6598 17.144 15.2852L15.0396 13.1807C15.3275 12.6687 15.4919 12.0782 15.4919 11.4502C15.4919 10.5102 15.1237 9.65469 14.5242 9.02011V6.02492V5.97492H14.5197C14.5096 5.91011 14.4797 5.84847 14.431 5.79972L14.431 5.79969L11.7994 3.16808C11.7549 3.12355 11.6995 3.09482 11.641 3.08246ZM16.236 16.1933L16.236 16.1933L14.2141 14.1714C14.3802 14.0331 14.5333 13.8799 14.6716 13.7139L16.6935 15.7357C16.8197 15.8619 16.8197 16.0672 16.6935 16.1933L16.6935 16.1933C16.5674 16.3195 16.3621 16.3195 16.236 16.1933ZM11.9506 14.3544C10.3493 14.3544 9.04637 13.0515 9.04637 11.4502C9.04637 9.84893 10.3493 8.54602 11.9506 8.54602C13.5518 8.54602 14.8548 9.84893 14.8548 11.4502C14.8548 13.0515 13.5518 14.3544 11.9506 14.3544ZM11.8927 5.4879V4.16247L13.4366 5.70646H12.1113C11.9908 5.70646 11.8927 5.60832 11.8927 5.4879ZM13.8872 16.0695C13.8872 16.19 13.7891 16.2881 13.6686 16.2881H4.43069C4.31017 16.2881 4.21213 16.19 4.21213 16.0695V3.93045C4.21213 3.80993 4.31017 3.71188 4.43069 3.71188H11.2556V5.4878C11.2556 5.95969 11.6394 6.34349 12.1113 6.34349H13.8871V8.48681C13.3303 8.12161 12.6648 7.90889 11.9506 7.90889C9.99779 7.90889 8.40924 9.49744 8.40924 11.4502C8.40924 11.8074 8.46267 12.1525 8.56157 12.4779H5.3479C5.17206 12.4779 5.02933 12.6205 5.02933 12.7965C5.02933 12.9723 5.17205 13.1151 5.3479 13.1151H8.77732C8.79314 13.1151 8.80866 13.1138 8.82377 13.1115C9.41989 14.229 10.5977 14.9915 11.9506 14.9915C12.5785 14.9915 13.1689 14.8271 13.6809 14.5392L13.8872 14.7455V16.0695Z" fill="#D4D5DB" stroke="#D4D5DB" stroke-width="0.1"/>
<path d="M7.65867 9.67498H5.24171C5.06587 9.67498 4.92314 9.81757 4.92314 9.99354C4.92314 10.1695 5.06587 10.3121 5.24171 10.3121H7.65867C7.83462 10.3121 7.97723 10.1695 7.97723 9.99354C7.97723 9.81759 7.83462 9.67498 7.65867 9.67498Z" fill="#D4D5DB" stroke="#D4D5DB" stroke-width="0.1"/>
<path d="M9.25568 6.89189H5.24171C5.06587 6.89189 4.92314 7.03449 4.92314 7.21046C4.92314 7.38631 5.06586 7.52902 5.24171 7.52902H9.25568C9.43164 7.52902 9.57424 7.38629 9.57424 7.21046C9.57424 7.0345 9.43163 6.89189 9.25568 6.89189Z" fill="#D4D5DB" stroke="#D4D5DB" stroke-width="0.1"/>
</svg>
