<svg width="48" height="48" viewBox="0 0 48 48" fill="none" xmlns="http://www.w3.org/2000/svg">
<path d="M17.7496 39.0008H30.2505C32.7509 39.0008 34.001 39.0008 34.9561 38.5103C35.7962 38.0788 36.4791 37.3904 36.9071 36.5436C37.3938 35.5809 37.3938 34.3208 37.3938 31.8003V19.1995C37.3938 16.6791 37.3938 15.4189 36.9071 14.4562C36.4791 13.6094 35.7962 12.921 34.9561 12.4895C34.001 11.999 32.7509 11.999 30.2505 11.999H17.7496C15.2492 11.999 13.999 11.999 13.044 12.4895C12.204 12.921 11.521 13.6094 11.0929 14.4562C10.6063 15.4189 10.6063 16.6791 10.6063 19.1995V31.8003C10.6063 34.3208 10.6063 35.5809 11.0929 36.5436C11.521 37.3904 12.204 38.0788 13.044 38.5103C13.999 39.0008 15.2492 39.0008 17.7496 39.0008Z" fill="#5E5CC2"/>
<path d="M12.6063 18.999H35.6063" stroke="white"/>
<path d="M17.6063 8.99902V14.999" stroke="white" stroke-linecap="round"/>
<path d="M30.6063 8.99902V14.999" stroke="white" stroke-linecap="round"/>
<path d="M33.6435 25.0703H27.0961M33.6435 25.0703V30.9892M33.6435 25.0703L29.1959 29.091L24.7483 33.1116C24.4242 33.4046 24.2622 33.5511 24.0752 33.606C23.9109 33.6544 23.7338 33.6544 23.5694 33.606C23.3825 33.5511 23.2204 33.4046 22.8963 33.1116L19.8377 30.3466C19.5136 30.0536 19.3515 29.9071 19.1646 29.8522C19.0003 29.8038 18.8232 29.8038 18.6588 29.8522C18.4719 29.9071 18.3099 30.0536 17.9858 30.3466L14.3566 33.6274" stroke="#EAECEF" stroke-linecap="round" stroke-linejoin="round"/>
</svg>
