<svg width="88" height="80" viewBox="0 0 88 80" fill="none" xmlns="http://www.w3.org/2000/svg">
<circle cx="44" cy="40" r="39.6154" fill="#23233B" stroke="#1D1D40" stroke-width="0.769231"/>
<g filter="url(#filter0_d_9152_587937)">
<rect x="19.3848" y="41.8457" width="64.6154" height="20" rx="2.30769" fill="#6764EA"/>
</g>
<path d="M52.5607 46.582H28.7585C27.8299 46.582 27.0771 47.3348 27.0771 48.2633C27.0771 49.1919 27.8299 49.9447 28.7585 49.9447H52.5607C53.4892 49.9447 54.242 49.1919 54.242 48.2633C54.242 47.3348 53.4892 46.582 52.5607 46.582Z" fill="#EAECEF" fill-opacity="0.3"/>
<path d="M65.7255 53.8672H28.7585C27.8299 53.8672 27.0771 54.6199 27.0771 55.5485C27.0771 56.4771 27.8299 57.2298 28.7585 57.2298H65.7255C66.6541 57.2298 67.4068 56.4771 67.4068 55.5485C67.4068 54.6199 66.6541 53.8672 65.7255 53.8672Z" fill="#EAECEF" fill-opacity="0.7"/>
<g filter="url(#filter1_d_9152_587937)">
<rect x="4" y="18" width="64.6154" height="20" rx="2.30769" fill="#404076"/>
</g>
<path d="M27.1756 22.4844H12.6042C11.6756 22.4844 10.9229 23.2371 10.9229 24.1657C10.9229 25.0943 11.6756 25.847 12.6042 25.847H27.1756C28.1042 25.847 28.8569 25.0943 28.8569 24.1657C28.8569 23.2371 28.1042 22.4844 27.1756 22.4844Z" fill="#EAECEF" fill-opacity="0.3"/>
<path d="M37.2635 29.7695H12.6042C11.6756 29.7695 10.9229 30.5223 10.9229 31.4508C10.9229 32.3794 11.6756 33.1322 12.6042 33.1322H37.2635C38.1921 33.1322 38.9448 32.3794 38.9448 31.4508C38.9448 30.5223 38.1921 29.7695 37.2635 29.7695Z" fill="#EAECEF" fill-opacity="0.7"/>
<defs>
<filter id="filter0_d_9152_587937" x="16.0221" y="40.1644" width="71.3405" height="26.7253" filterUnits="userSpaceOnUse" color-interpolation-filters="sRGB">
<feFlood flood-opacity="0" result="BackgroundImageFix"/>
<feColorMatrix in="SourceAlpha" type="matrix" values="0 0 0 0 0 0 0 0 0 0 0 0 0 0 0 0 0 0 127 0" result="hardAlpha"/>
<feOffset dy="1.68132"/>
<feGaussianBlur stdDeviation="1.68132"/>
<feColorMatrix type="matrix" values="0 0 0 0 0 0 0 0 0 0 0 0 0 0 0 0 0 0 0.161 0"/>
<feBlend mode="normal" in2="BackgroundImageFix" result="effect1_dropShadow_9152_587937"/>
<feBlend mode="normal" in="SourceGraphic" in2="effect1_dropShadow_9152_587937" result="shape"/>
</filter>
<filter id="filter1_d_9152_587937" x="0.637363" y="16.3187" width="71.3405" height="26.7253" filterUnits="userSpaceOnUse" color-interpolation-filters="sRGB">
<feFlood flood-opacity="0" result="BackgroundImageFix"/>
<feColorMatrix in="SourceAlpha" type="matrix" values="0 0 0 0 0 0 0 0 0 0 0 0 0 0 0 0 0 0 127 0" result="hardAlpha"/>
<feOffset dy="1.68132"/>
<feGaussianBlur stdDeviation="1.68132"/>
<feColorMatrix type="matrix" values="0 0 0 0 0 0 0 0 0 0 0 0 0 0 0 0 0 0 0.161 0"/>
<feBlend mode="normal" in2="BackgroundImageFix" result="effect1_dropShadow_9152_587937"/>
<feBlend mode="normal" in="SourceGraphic" in2="effect1_dropShadow_9152_587937" result="shape"/>
</filter>
</defs>
</svg>
