<svg width="24" height="24" viewBox="0 0 24 24" fill="none" xmlns="http://www.w3.org/2000/svg">
<path d="M4.94194 6.96263C4.3222 6.27716 4.01233 5.93442 4.00065 5.64313C3.99049 5.3901 4.10037 5.14689 4.29769 4.98565C4.52483 4.80005 4.98954 4.80005 5.91896 4.80005H18.081C19.0105 4.80005 19.4752 4.80005 19.7023 4.98565C19.8996 5.14689 20.0095 5.3901 19.9994 5.64313C19.9877 5.93442 19.6778 6.27716 19.0581 6.96263L14.3825 12.1342C14.2589 12.2709 14.1972 12.3392 14.1531 12.417C14.114 12.4859 14.0854 12.5602 14.068 12.6373C14.0485 12.7243 14.0485 12.816 14.0485 12.9994V17.3354C14.0485 17.4939 14.0485 17.5732 14.0226 17.6418C13.9998 17.7024 13.9626 17.7566 13.9143 17.8001C13.8596 17.8493 13.7852 17.8788 13.6364 17.9377L10.8505 19.0405C10.5493 19.1597 10.3988 19.2193 10.2779 19.1945C10.1722 19.1727 10.0794 19.1106 10.0198 19.0215C9.95154 18.9197 9.95154 18.7592 9.95154 18.4382V12.9994C9.95154 12.816 9.95154 12.7243 9.93197 12.6373C9.91462 12.5602 9.88596 12.4859 9.84689 12.417C9.80285 12.3392 9.74108 12.2709 9.61754 12.1342L4.94194 6.96263Z" stroke="white" stroke-linecap="round" stroke-linejoin="round"/>
</svg>
