<svg width="48" height="49" viewBox="0 0 48 49" fill="none" xmlns="http://www.w3.org/2000/svg">
<circle cx="22.8072" cy="25.8182" r="12.6268" fill="#5E5CC2"/>
<path d="M38.5714 25.7144C38.5714 34.4326 31.5039 41.5001 22.7857 41.5001C14.0675 41.5001 7 34.4326 7 25.7144C7 16.9962 14.0675 9.92871 22.7857 9.92871C24.9413 9.92871 26.996 10.3608 28.8678 11.143" stroke="#5E5CC2" stroke-linecap="round"/>
<path d="M41 12.3569L31.2857 12.3569" stroke="#5E5CC2" stroke-linecap="round"/>
<path d="M36.1428 7.5V17.2143" stroke="#5E5CC2" stroke-linecap="round"/>
<path d="M19.1428 28.75C19.1428 30.0913 20.2301 31.1786 21.5714 31.1786H24C25.3412 31.1786 26.4285 30.0913 26.4285 28.75C26.4285 27.4087 25.3412 26.3214 24 26.3214H21.5714C20.2301 26.3214 19.1428 25.2341 19.1428 23.8929C19.1428 22.5516 20.2301 21.4643 21.5714 21.4643H24C25.3412 21.4643 26.4285 22.5516 26.4285 23.8929M22.7857 20.25V32.3929" stroke="#EAECEF" stroke-opacity="0.9" stroke-linecap="round" stroke-linejoin="round"/>
</svg>
