<svg width="42" height="42" viewBox="0 0 42 42" fill="none" xmlns="http://www.w3.org/2000/svg">
<path d="M12.1111 1H11.6667C7.93298 1 6.06614 1 4.64006 1.72662C3.38565 2.36578 2.36578 3.38565 1.72662 4.64006C1 6.06614 1 7.93298 1 11.6667V12.1111M12.1111 41H11.6667C7.93298 41 6.06614 41 4.64006 40.2734C3.38565 39.6342 2.36578 38.6144 1.72662 37.3599C1 35.9339 1 34.067 1 30.3333V29.8889M41 12.1111V11.6667C41 7.93298 41 6.06614 40.2734 4.64006C39.6342 3.38565 38.6144 2.36578 37.3599 1.72662C35.9339 1 34.067 1 30.3333 1H29.8889M41 29.8889V30.3333C41 34.067 41 35.9339 40.2734 37.3599C39.6342 38.6144 38.6144 39.6342 37.3599 40.2734C35.9339 41 34.067 41 30.3333 41H29.8889M11 12.1111V15.4444M31 12.1111V15.4444M18.7778 22.3336C20.5556 22.3336 22.1111 20.778 22.1111 19.0002V12.1111M28.1115 28.111C24.1115 32.111 17.6671 32.111 13.6671 28.111" stroke="white" stroke-width="2" stroke-linecap="round" stroke-linejoin="round"/>
</svg>
