<svg width="40" height="40" viewBox="0 0 40 40" fill="none" xmlns="http://www.w3.org/2000/svg">
<path d="M12 2H11.6C8.23971 2 6.55954 2 5.27607 2.65396C4.14709 3.22921 3.22921 4.14709 2.65396 5.27607C2 6.55954 2 8.23971 2 11.6V12M12 38.0001H11.6C8.23971 38.0001 6.55954 38.0001 5.27607 37.3462C4.14709 36.7709 3.22921 35.853 2.65396 34.7241C2 33.4406 2 31.7604 2 28.4001V28.0001M38.0001 12V11.6C38.0001 8.23971 38.0001 6.55954 37.3462 5.27607C36.7709 4.14709 35.853 3.22921 34.7241 2.65396C33.4406 2 31.7604 2 28.4001 2H28.0001M38.0001 28.0001V28.4001C38.0001 31.7604 38.0001 33.4406 37.3462 34.7241C36.7709 35.853 35.853 36.7709 34.7241 37.3462C33.4406 38.0001 31.7604 38.0001 28.4001 38.0001H28.0001M26.4616 27.3231C22.8616 30.9231 17.0616 30.9231 13.4616 27.3231" stroke="#E7E7E9" stroke-width="2" stroke-linecap="round" stroke-linejoin="round"/>
<path d="M10.7692 12.6152V14.4614" stroke="#E7E7E9" stroke-width="2" stroke-linecap="round"/>
<path d="M29.2308 12.6152V14.4614" stroke="#E7E7E9" stroke-width="2" stroke-linecap="round"/>
<path d="M20.0001 12.1538V21.2308C20.0001 22.0804 19.3113 22.7692 18.4616 22.7692H17.6924" stroke="#E7E7E9" stroke-width="2" stroke-linecap="round"/>
</svg>
