<svg width="24" height="24" viewBox="0 0 24 24" fill="none" xmlns="http://www.w3.org/2000/svg">
<path d="M5.77778 20L5.77778 14.6667M5.77778 14.6667C6.75962 14.6667 7.55556 13.8707 7.55556 12.8889C7.55556 11.907 6.75962 11.1111 5.77778 11.1111C4.79594 11.1111 4 11.907 4 12.8889C4 13.8707 4.79594 14.6667 5.77778 14.6667ZM5.77778 7.55556V4M12 20V14.6667M12 7.55556V4M12 7.55556C11.0182 7.55556 10.2222 8.35149 10.2222 9.33333C10.2222 10.3152 11.0182 11.1111 12 11.1111C12.9818 11.1111 13.7778 10.3152 13.7778 9.33333C13.7778 8.35149 12.9818 7.55556 12 7.55556ZM18.2222 20V16.4444M18.2222 16.4444C19.2041 16.4444 20 15.6485 20 14.6667C20 13.6848 19.2041 12.8889 18.2222 12.8889C17.2404 12.8889 16.4444 13.6848 16.4444 14.6667C16.4444 15.6485 17.2404 16.4444 18.2222 16.4444ZM18.2222 9.33333V4" stroke="white" stroke-linecap="round" stroke-linejoin="round"/>
</svg>
