<svg width="32" height="33" viewBox="0 0 32 33" fill="none" xmlns="http://www.w3.org/2000/svg">
<g clip-path="url(#clip0_834_774)">
<path fill-rule="evenodd" clip-rule="evenodd" d="M32 16.9947C32 8.10605 24.8366 0.900391 16 0.900391C7.16344 0.900391 0 8.10605 0 16.9947C0 25.0278 5.85097 31.6861 13.5 32.8935V21.647H9.4375V16.9947H13.5V13.4489C13.5 9.41528 15.8887 7.18723 19.5434 7.18723C21.294 7.18723 23.125 7.50157 23.125 7.50157V11.4623H21.1074C19.1198 11.4623 18.5 12.7029 18.5 13.9757V16.9947H22.9375L22.2281 21.647H18.5V32.8935C26.149 31.6861 32 25.0278 32 16.9947Z" fill="#1877F2"/>
</g>
<defs>
<clipPath id="clip0_834_774">
<rect width="32" height="32" fill="white" transform="translate(0 0.900391)"/>
</clipPath>
</defs>
</svg>
