<svg width="48" height="48" viewBox="0 0 48 48" fill="none" xmlns="http://www.w3.org/2000/svg">
<rect x="7.51306" y="19.6665" width="6" height="13.5576" rx="2.25961" fill="#5E5CC2"/>
<path d="M20.2535 9.5H18.7727C17.5247 9.5 16.5131 10.5117 16.5131 11.7596V30.9663C16.5131 32.2142 17.5247 33.2259 18.7727 33.2259H19.8581C21.1961 33.2259 22.1856 27.4086 22.5131 24.5V11.7596C22.5131 10.5117 21.5014 9.5 20.2535 9.5Z" fill="#5E5CC2"/>
<path d="M25.5131 16.91C25.5131 15.6621 26.5247 14.6504 27.7727 14.6504H29.2535C30.5014 14.6504 31.5131 15.6621 31.5131 16.91V24.5H28.4496H25.5131V16.91Z" fill="#5E5CC2"/>
<path d="M7.51306 36.4834H17.6813" stroke="#5E5CC2" stroke-linecap="round"/>
<rect x="20.1504" y="24.5552" width="20.3361" height="13.9448" rx="1.7431" fill="#5E5CC2"/>
<line x1="20.1506" y1="29.5742" x2="40.4868" y2="29.5742" stroke="white"/>
<line x1="22.3939" y1="35.3853" x2="24.8801" y2="35.3853" stroke="white" stroke-linecap="round"/>
<line x1="26.7532" y1="35.3853" x2="29.2394" y2="35.3853" stroke="white" stroke-linecap="round"/>
</svg>
