<svg width="32" height="33" viewBox="0 0 32 33" fill="none" xmlns="http://www.w3.org/2000/svg">
<path fill-rule="evenodd" clip-rule="evenodd" d="M27.52 17.1733C27.52 16.3224 27.4436 15.5042 27.3018 14.7188H16V19.3606H22.4582C22.18 20.8606 21.3345 22.1315 20.0636 22.9824V25.9933H23.9418C26.2109 23.9042 27.52 20.8278 27.52 17.1733Z" fill="#4285F4"/>
<path fill-rule="evenodd" clip-rule="evenodd" d="M16.0002 28.9002C19.2402 28.9002 21.9566 27.8256 23.9421 25.9929L20.0639 22.982C18.9893 23.702 17.6148 24.1274 16.0002 24.1274C12.8748 24.1274 10.2293 22.0165 9.2857 19.1802H5.27661V22.2893C7.25116 26.2111 11.3093 28.9002 16.0002 28.9002Z" fill="#34A853"/>
<path fill-rule="evenodd" clip-rule="evenodd" d="M9.28545 19.1803C9.04545 18.4603 8.90909 17.6912 8.90909 16.9003C8.90909 16.1094 9.04545 15.3403 9.28545 14.6203V11.5112H5.27636C4.46364 13.1312 4 14.964 4 16.9003C4 18.8367 4.46364 20.6694 5.27636 22.2894L9.28545 19.1803Z" fill="#FBBC05"/>
<path fill-rule="evenodd" clip-rule="evenodd" d="M16.0002 9.67312C17.7621 9.67312 19.3439 10.2786 20.5875 11.4677L24.0293 8.02585C21.9512 6.08948 19.2348 4.90039 16.0002 4.90039C11.3093 4.90039 7.25116 7.58948 5.27661 11.5113L9.2857 14.6204C10.2293 11.784 12.8748 9.67312 16.0002 9.67312Z" fill="#EA4335"/>
</svg>
