<svg width="25" height="24" viewBox="0 0 25 24" fill="none" xmlns="http://www.w3.org/2000/svg">
<path fill-rule="evenodd" clip-rule="evenodd" d="M9.19648 3.5404C9.19648 3.24194 8.95628 3 8.65998 3C8.36368 3 8.12348 3.24194 8.12348 3.5404V5.59245H7.45499C6.51335 5.59245 5.75 6.36135 5.75 7.30983V14.0297C5.75 14.9782 6.51335 15.7471 7.45499 15.7471H8.12348V17.7995C8.12348 18.098 8.36368 18.3399 8.65998 18.3399C8.95628 18.3399 9.19648 18.098 9.19648 17.7995V15.7471H9.89765C10.8393 15.7471 11.6026 14.9782 11.6026 14.0297V7.30983C11.6026 6.36135 10.8393 5.59245 9.89765 5.59245H9.19648V3.5404ZM6.823 7.30983C6.823 6.95826 7.10595 6.67325 7.45499 6.67325H9.89765C10.2467 6.67325 10.5296 6.95825 10.5296 7.30983V14.0297C10.5296 14.3813 10.2467 14.6663 9.89765 14.6663H7.45499C7.10595 14.6663 6.823 14.3813 6.823 14.0297V7.30983ZM15.1024 8.25249C14.1607 8.25249 13.3974 9.02138 13.3974 9.96986V16.6898C13.3974 17.6382 14.1607 18.4071 15.1024 18.4071H15.7708V20.4596C15.7708 20.7581 16.011 21 16.3073 21C16.6036 21 16.8438 20.7581 16.8438 20.4596V18.4071H17.545C18.4867 18.4071 19.25 17.6382 19.25 16.6898V9.96986C19.25 9.02138 18.4867 8.25249 17.545 8.25249H16.8438V6.20045C16.8438 5.902 16.6036 5.66006 16.3073 5.66006C16.011 5.66006 15.7708 5.902 15.7708 6.20045V8.25249H15.1024ZM14.4704 9.96986C14.4704 9.61829 14.7533 9.33328 15.1024 9.33328H17.545C17.8941 9.33328 18.177 9.61829 18.177 9.96986V16.6898C18.177 17.0413 17.894 17.3263 17.545 17.3263H15.1024C14.7533 17.3263 14.4704 17.0413 14.4704 16.6898V9.96986Z" fill="white"/>
</svg>
