<svg width="48" height="48" viewBox="0 0 48 48" fill="none" xmlns="http://www.w3.org/2000/svg">
<rect x="7" y="19" width="6" height="13" rx="2" fill="#5E5CC2"/>
<rect x="17" y="9" width="6" height="23" rx="2" fill="#5E5CC2"/>
<path d="M31 14H29C27.8954 14 27 14.8954 27 16V24.4958C27 24.8267 27.0792 25.1557 27.2495 25.4394C29.8601 29.789 32.0576 25.6838 32.9243 22.7838C32.9762 22.61 33 22.4297 33 22.2484V16C33 14.8954 32.1046 14 31 14Z" fill="#5E5CC2"/>
<path d="M7 36L23 36" stroke="#5E5CC2" stroke-linecap="round"/>
<circle cx="32.5" cy="30.5" r="8.5" fill="#5E5CC2"/>
<path d="M30 31.8972C30 32.8278 30.7624 33.5821 31.7029 33.5821H33.4057C34.3462 33.5821 35.1086 32.8278 35.1086 31.8972C35.1086 30.9666 34.3462 30.2123 33.4057 30.2123H31.7029C30.7624 30.2123 30 29.4579 30 28.5274C30 27.5968 30.7624 26.8425 31.7029 26.8425H33.4057C34.3462 26.8425 35.1086 27.5968 35.1086 28.5274M32.5543 26V34.4246" stroke="#EAECEF" stroke-linecap="round" stroke-linejoin="round"/>
</svg>
