<svg width="24" height="24" viewBox="0 0 24 24" fill="none" xmlns="http://www.w3.org/2000/svg">
<path d="M20 17.3333V12C20 7.58172 16.4183 4 12 4C7.58172 4 4 7.58172 4 12V17.3333M6.22222 20C4.99492 20 4 19.0051 4 17.7778V16C4 14.7727 4.99492 13.7778 6.22222 13.7778C7.44952 13.7778 8.44444 14.7727 8.44444 16V17.7778C8.44444 19.0051 7.44952 20 6.22222 20ZM17.7778 20C16.5505 20 15.5556 19.0051 15.5556 17.7778V16C15.5556 14.7727 16.5505 13.7778 17.7778 13.7778C19.0051 13.7778 20 14.7727 20 16V17.7778C20 19.0051 19.0051 20 17.7778 20Z" stroke="white" stroke-linecap="round" stroke-linejoin="round"/>
</svg>
