<svg width="48" height="48" viewBox="0 0 48 48" fill="none" xmlns="http://www.w3.org/2000/svg">
<path d="M30.4642 10.3848C24.4087 10.3848 19.4998 15.3096 19.4998 21.3848C19.4217 23.4225 20.4389 28.1982 25.1327 30.999C26.7109 31.8818 28.529 32.3848 30.4642 32.3848C36.5197 32.3848 41.4287 27.4599 41.4287 21.3848C41.4287 15.3096 36.5198 10.3848 30.4642 10.3848Z" fill="#5E5CC2"/>
<path fill-rule="evenodd" clip-rule="evenodd" d="M30.5 14.499C30.7761 14.499 31 14.7229 31 14.999V18.499H34.5C34.7761 18.499 35 18.7229 35 18.999C35 19.2752 34.7761 19.499 34.5 19.499H31V22.999C31 23.2752 30.7761 23.499 30.5 23.499C30.2239 23.499 30 23.2752 30 22.999V19.499H26.5C26.2239 19.499 26 19.2752 26 18.999C26 18.7229 26.2239 18.499 26.5 18.499H30V14.999C30 14.7229 30.2239 14.499 30.5 14.499ZM26.5 25.999C26.2239 25.999 26 26.2229 26 26.499C26 26.7752 26.2239 26.999 26.5 26.999L34.5 26.999C34.7761 26.999 35 26.7752 35 26.499C35 26.2229 34.7761 25.999 34.5 25.999L26.5 25.999Z" fill="#EAECEF"/>
<circle cx="16.6067" cy="30.1067" r="9.10673" fill="#5E5CC2"/>
<path d="M14 31.9438C14 32.8817 14.7624 33.6421 15.7029 33.6421H17.4057C18.3462 33.6421 19.1086 32.8817 19.1086 31.9438C19.1086 31.0059 18.3462 30.2456 17.4057 30.2456H15.7029C14.7624 30.2456 14 29.4853 14 28.5474C14 27.6094 14.7624 26.8491 15.7029 26.8491H17.4057C18.3462 26.8491 19.1086 27.6094 19.1086 28.5474M16.5543 26V34.4912" stroke="#EAECEF" stroke-linecap="round" stroke-linejoin="round"/>
</svg>
