<svg width="24" height="24" viewBox="0 0 24 24" fill="none" xmlns="http://www.w3.org/2000/svg">
    <path d="M14.0714 10.0714C14.0714 10.8604 13.4318 11.5 12.6429 11.5C12.0117 11.5 11.5 12.0117 11.5 12.6429V13.9286C11.5 14.2047 11.7239 14.4286 12 14.4286C12.2761 14.4286 12.5 14.2047 12.5 13.9286V12.6429C12.5 12.564 12.564 12.5 12.6429 12.5C13.9841 12.5 15.0714 11.4127 15.0714 10.0714V9.94286C15.0714 8.6726 14.0417 7.64286 12.7714 7.64286H12C10.6587 7.64286 9.57143 8.73017 9.57143 10.0714C9.57143 10.3476 9.79529 10.5714 10.0714 10.5714C10.3476 10.5714 10.5714 10.3476 10.5714 10.0714C10.5714 9.28245 11.211 8.64286 12 8.64286H12.7714C13.4894 8.64286 14.0714 9.22489 14.0714 9.94286V10.0714ZM12.5 15.5C12.5 15.2239 12.2761 15 12 15C11.7239 15 11.5 15.2239 11.5 15.5V16C11.5 16.2761 11.7239 16.5 12 16.5C12.2761 16.5 12.5 16.2761 12.5 16V15.5ZM12 20.5C7.30558 20.5 3.5 16.6944 3.5 12C3.5 7.30558 7.30558 3.5 12 3.5C16.6944 3.5 20.5 7.30558 20.5 12C20.5 16.6944 16.6944 20.5 12 20.5Z" stroke="white" stroke-linecap="round"/>
</svg>
