<svg width="24" height="24" viewBox="0 0 24 24" fill="none" xmlns="http://www.w3.org/2000/svg">
<path d="M9 21.375V13.9683C9 13.4078 9 13.1275 9.10899 12.9134C9.20487 12.7251 9.35785 12.5719 9.54601 12.476C9.75992 12.3669 10.0399 12.3669 10.6 12.3669H13.4C13.9601 12.3669 14.2401 12.3669 14.454 12.476C14.6422 12.5719 14.7951 12.7251 14.891 12.9134C15 13.1275 15 13.4078 15 13.9683V21.375M11.0177 3.1226L4.23539 8.40247C3.78202 8.75541 3.55534 8.93188 3.39203 9.15288C3.24737 9.34864 3.1396 9.56918 3.07403 9.80366C3 10.0684 3 10.3558 3 10.9307V18.1721C3 19.2932 3 19.8538 3.21799 20.282C3.40973 20.6587 3.71569 20.9649 4.09202 21.1568C4.51984 21.375 5.07989 21.375 6.2 21.375H17.8C18.9201 21.375 19.4802 21.375 19.908 21.1568C20.2843 20.9649 20.5903 20.6587 20.782 20.282C21 19.8538 21 19.2932 21 18.1721V10.9307C21 10.3558 21 10.0684 20.926 9.80366C20.8604 9.56918 20.7526 9.34864 20.608 9.15288C20.4447 8.93188 20.218 8.75541 19.7646 8.40248L12.9823 3.1226C12.631 2.8491 12.4553 2.71235 12.2613 2.65979C12.0902 2.6134 11.9098 2.6134 11.7387 2.65979C11.5447 2.71235 11.369 2.8491 11.0177 3.1226Z" stroke="#EAECEF" stroke-linecap="round" stroke-linejoin="round"/>
</svg>
