<svg width="48" height="48" viewBox="0 0 48 48" fill="none" xmlns="http://www.w3.org/2000/svg">
<path d="M29.0004 30.4V26.8H12.7504C10.6793 26.8 9.00037 28.4117 9.00037 30.4M15.0004 34H25.0004C26.4005 34 27.1006 34 27.6354 33.7384C28.1057 33.5084 28.4882 33.1412 28.7279 32.6896C29.0004 32.1762 29.0004 31.5041 29.0004 30.16V13.84C29.0004 12.4959 29.0004 11.8238 28.7279 11.3104C28.4882 10.8588 28.1057 10.4917 27.6354 10.2616C27.1006 10 26.4005 10 25.0004 10H15.0004C12.9002 10 11.8501 10 11.0479 10.3924C10.3423 10.7375 9.76862 11.2882 9.40909 11.9656C9.00037 12.7357 9.00037 13.7438 9.00037 15.76V28.24C9.00037 30.2562 9.00037 31.2642 9.40909 32.0344C9.76862 32.7118 10.3423 33.2625 11.0479 33.6076C11.8501 34 12.9002 34 15.0004 34Z" stroke="#5E5CC2" stroke-linecap="round" stroke-linejoin="round"/>
<path d="M21.0004 32.1178V23.8822C21.0004 23.5345 21.0004 23.3607 21.0508 23.2057C21.0955 23.0685 21.1685 22.9426 21.265 22.8364C21.3741 22.7163 21.5238 22.6319 21.8233 22.4631L29.2234 18.2919L29.2234 18.2919C29.507 18.1321 29.6488 18.0521 29.7989 18.0208C29.9319 17.9931 30.0689 17.9931 30.2019 18.0208C30.352 18.0521 30.4937 18.1321 30.7773 18.2919L30.7774 18.2919L38.1774 22.4631C38.477 22.6319 38.6267 22.7163 38.7358 22.8364C38.8322 22.9426 38.9053 23.0685 38.9499 23.2057C39.0004 23.3607 39.0004 23.5345 39.0004 23.8822V32.1178C39.0004 32.4655 39.0004 32.6393 38.9499 32.7944C38.9053 32.9316 38.8322 33.0574 38.7358 33.1636C38.6267 33.2837 38.477 33.3681 38.1774 33.537L30.7774 37.7081L30.7766 37.7086C30.4935 37.8681 30.3518 37.9479 30.2019 37.9792C30.0689 38.0069 29.9319 38.0069 29.7989 37.9792C29.6489 37.9479 29.5072 37.8681 29.2241 37.7086L29.2234 37.7081L21.8233 33.537L21.8233 33.537C21.5238 33.3681 21.3741 33.2837 21.265 33.1636C21.1685 33.0574 21.0955 32.9316 21.0508 32.7944C21.0004 32.6393 21.0004 32.4655 21.0004 32.1178Z" fill="#5E5CC2"/>
<path d="M27 25.0338C27.2351 24.3557 27.6992 23.7839 28.3099 23.4196C28.9207 23.0554 29.6389 22.9223 30.3371 23.0438C31.0354 23.1653 31.6688 23.5337 32.125 24.0836C32.5813 24.6335 32.831 25.3295 32.83 26.0484C32.83 28.0776 29.83 29.0922 29.83 29.0922V30.5776M29.91 33.1507H29.92" stroke="#EAECEF" stroke-linecap="round" stroke-linejoin="round"/>
</svg>
