<svg width="60" height="60" viewBox="0 0 60 60" fill="none" xmlns="http://www.w3.org/2000/svg">
<rect x="0.25" y="0.25" width="59.5" height="59.5" rx="3.08333" fill="#404076"/>
<path d="M42.7911 16.4377L18.1581 10.0566C17.9411 10.0022 17.7097 9.98674 17.483 10.0114C17.2563 10.036 17.0408 10.1001 16.8541 10.1984C16.6664 10.2957 16.5134 10.4253 16.4081 10.5759C16.303 10.7266 16.2487 10.8938 16.25 11.0634V23.5987C16.25 23.8807 16.4015 24.1513 16.6712 24.3507C16.941 24.5501 17.3069 24.6622 17.6883 24.6622V51.25H41.9282V31.9366C42.0534 31.9616 42.1821 31.9759 42.3117 31.9791C42.6931 31.9791 43.0589 31.8671 43.3287 31.6677C43.5984 31.4682 43.75 31.1977 43.75 30.9156V17.4445C43.7511 17.2238 43.6595 17.0084 43.4876 16.828C43.3158 16.6476 43.0725 16.5112 42.7911 16.4377Z" fill="#5D5FEF"/>
<path d="M27.5182 21.25H12.4818C11.8015 21.25 11.25 21.7376 11.25 22.3391V50.1609C11.25 50.7624 11.8015 51.25 12.4818 51.25H27.5182C28.1985 51.25 28.75 50.7624 28.75 50.1609V22.3391C28.75 21.7376 28.1985 21.25 27.5182 21.25Z" fill="#5E5CC2"/>
<path opacity="0.7" d="M15 43.75C15 43.0596 15.5596 42.5 16.25 42.5H23.75C24.4404 42.5 25 43.0596 25 43.75V48.75H15V43.75Z" fill="white"/>
<rect opacity="0.7" x="15" y="35" width="10" height="2.5" rx="1.25" fill="white"/>
<rect opacity="0.7" x="15" y="28.75" width="10" height="2.5" rx="1.25" fill="white"/>
<path d="M48.7195 27.5H33.7805C33.0733 27.5 32.5 27.9875 32.5 28.5887V48.9113C32.5 49.5125 33.0733 50 33.7805 50H48.7195C49.4268 50 50 49.5125 50 48.9113V28.5887C50 27.9875 49.4268 27.5 48.7195 27.5Z" fill="#5E5CC2"/>
<rect opacity="0.7" x="37.5" y="36.25" width="7.5" height="1.25" rx="0.625" fill="white"/>
<path opacity="0.7" d="M37.5 43.75C37.5 43.0596 38.0596 42.5 38.75 42.5H43.75C44.4404 42.5 45 43.0596 45 43.75V48.75H37.5V43.75Z" fill="white"/>
<path d="M53.7606 51.25H7.48941C7.1607 51.25 6.84544 51.1183 6.61301 50.8839C6.38058 50.6495 6.25 50.3315 6.25 50C6.25 49.6685 6.38058 49.3505 6.61301 49.1161C6.84544 48.8817 7.1607 48.75 7.48941 48.75H53.7606C54.0893 48.75 54.4046 48.8817 54.637 49.1161C54.8694 49.3505 55 49.6685 55 50C55 50.3315 54.8694 50.6495 54.637 50.8839C54.4046 51.1183 54.0893 51.25 53.7606 51.25Z" fill="#5D5FEF"/>
<rect x="0.25" y="0.25" width="59.5" height="59.5" rx="3.08333" stroke="#5E5CC2" stroke-width="0.5"/>
</svg>
