<svg width="48" height="48" viewBox="0 0 48 48" fill="none" xmlns="http://www.w3.org/2000/svg">
<rect x="7" y="18.999" width="8" height="13" rx="2.25961" fill="#5E5CC2"/>
<path d="M23.7404 8.99902H20.2596C19.0117 8.99902 18 10.0107 18 11.2586V29.7394C18 30.9874 19.0117 31.999 20.2596 31.999H22C25.2 31.999 26 26.6822 26 24.0239V11.2586C26 10.0107 24.9883 8.99902 23.7404 8.99902Z" fill="#5E5CC2"/>
<rect x="29" y="8.99902" width="8" height="12" rx="2.25961" fill="#5E5CC2"/>
<path d="M8 34.999L17 34.999" stroke="#5E5CC2" stroke-linecap="round"/>
<rect x="21" y="23.999" width="20" height="16" rx="4" fill="#5E5CC2"/>
<path d="M37 28.999H32.9263M37 28.999V32.4515M37 28.999L34.2328 31.3443L31.4655 33.6895C31.2639 33.8604 31.1631 33.9458 31.0468 33.9779C30.9445 34.0061 30.8343 34.0061 30.7321 33.9779C30.6158 33.9458 30.5149 33.8604 30.3133 33.6895L28.4102 32.0767C28.2086 31.9058 28.1078 31.8203 27.9915 31.7883C27.8892 31.7601 27.779 31.7601 27.6768 31.7883C27.5605 31.8203 27.4597 31.9058 27.258 32.0767L25 33.9903" stroke="#EAECEF" stroke-linecap="round" stroke-linejoin="round"/>
</svg>
