<svg width="24" height="24" viewBox="0 0 24 24" fill="none" xmlns="http://www.w3.org/2000/svg">
<path fill-rule="evenodd" clip-rule="evenodd" d="M6.17651 5.64709C6.17651 5.3547 6.41354 5.11768 6.70593 5.11768H20.4706C20.763 5.11768 21 5.3547 21 5.64709C21 5.93947 20.763 6.1765 20.4706 6.1765H6.70593C6.41354 6.1765 6.17651 5.93947 6.17651 5.64709Z" fill="white"/>
<path fill-rule="evenodd" clip-rule="evenodd" d="M6.17651 12.0001C6.17651 11.7077 6.41354 11.4707 6.70593 11.4707H20.4706C20.763 11.4707 21 11.7077 21 12.0001C21 12.2925 20.763 12.5295 20.4706 12.5295H6.70593C6.41354 12.5295 6.17651 12.2925 6.17651 12.0001Z" fill="white"/>
<path fill-rule="evenodd" clip-rule="evenodd" d="M6.17651 18.3529C6.17651 18.0605 6.41354 17.8235 6.70593 17.8235H20.4706C20.763 17.8235 21 18.0605 21 18.3529C21 18.6453 20.763 18.8823 20.4706 18.8823H6.70593C6.41354 18.8823 6.17651 18.6453 6.17651 18.3529Z" fill="white"/>
<path fill-rule="evenodd" clip-rule="evenodd" d="M3 5.64709C3 5.3547 3.23703 5.11768 3.52941 5.11768H3.54C3.83239 5.11768 4.06941 5.3547 4.06941 5.64709C4.06941 5.93947 3.83239 6.1765 3.54 6.1765H3.52941C3.23703 6.1765 3 5.93947 3 5.64709Z" fill="white"/>
<path fill-rule="evenodd" clip-rule="evenodd" d="M3 12.0001C3 11.7077 3.23703 11.4707 3.52941 11.4707H3.54C3.83239 11.4707 4.06941 11.7077 4.06941 12.0001C4.06941 12.2925 3.83239 12.5295 3.54 12.5295H3.52941C3.23703 12.5295 3 12.2925 3 12.0001Z" fill="white"/>
<path fill-rule="evenodd" clip-rule="evenodd" d="M3 18.3529C3 18.0605 3.23703 17.8235 3.52941 17.8235H3.54C3.83239 17.8235 4.06941 18.0605 4.06941 18.3529C4.06941 18.6453 3.83239 18.8823 3.54 18.8823H3.52941C3.23703 18.8823 3 18.6453 3 18.3529Z" fill="white"/>
</svg>
