<svg width="24" height="24" viewBox="0 0 24 24" fill="none" xmlns="http://www.w3.org/2000/svg">
<path d="M3.75 12H20.25M3.75 12C3.75 16.5563 7.44365 20.25 12 20.25M3.75 12C3.75 7.44365 7.44365 3.75 12 3.75M20.25 12C20.25 16.5563 16.5563 20.25 12 20.25M20.25 12C20.25 7.44365 16.5563 3.75 12 3.75M12 3.75C14.0636 6.00914 15.2363 8.94093 15.3 12C15.2363 15.0591 14.0636 17.9909 12 20.25M12 3.75C9.93644 6.00914 8.76373 8.94093 8.7 12C8.76373 15.0591 9.93644 17.9909 12 20.25" stroke="#7165E3" stroke-linecap="round" stroke-linejoin="round"/>
</svg>
