<svg width="18" height="18" viewBox="0 0 18 18" fill="none" xmlns="http://www.w3.org/2000/svg">
<path fill-rule="evenodd" clip-rule="evenodd" d="M0 0.473684C0 0.212076 0.212076 0 0.473684 0H7.10526C7.36687 0 7.57895 0.212076 7.57895 0.473684V7.10526C7.57895 7.36687 7.36687 7.57895 7.10526 7.57895H0.473684C0.212076 7.57895 0 7.36687 0 7.10526V0.473684ZM0.947368 0.947368V6.63158H6.63158V0.947368H0.947368Z" fill="white" fill-opacity="0.7"/>
<path fill-rule="evenodd" clip-rule="evenodd" d="M10.4209 0.473684C10.4209 0.212076 10.633 0 10.8946 0H17.5262C17.7878 0 17.9998 0.212076 17.9998 0.473684V7.10526C17.9998 7.36687 17.7878 7.57895 17.5262 7.57895H10.8946C10.633 7.57895 10.4209 7.36687 10.4209 7.10526V0.473684ZM11.3683 0.947368V6.63158H17.0525V0.947368H11.3683Z" fill="white" fill-opacity="0.7"/>
<path fill-rule="evenodd" clip-rule="evenodd" d="M10.4209 10.8947C10.4209 10.6331 10.633 10.421 10.8946 10.421H17.5262C17.7878 10.421 17.9998 10.6331 17.9998 10.8947V17.5263C17.9998 17.7879 17.7878 18 17.5262 18H10.8946C10.633 18 10.4209 17.7879 10.4209 17.5263V10.8947ZM11.3683 11.3684V17.0526H17.0525V11.3684H11.3683Z" fill="white" fill-opacity="0.7"/>
<path fill-rule="evenodd" clip-rule="evenodd" d="M0 10.8947C0 10.6331 0.212076 10.421 0.473684 10.421H7.10526C7.36687 10.421 7.57895 10.6331 7.57895 10.8947V17.5263C7.57895 17.7879 7.36687 18 7.10526 18H0.473684C0.212076 18 0 17.7879 0 17.5263V10.8947ZM0.947368 11.3684V17.0526H6.63158V11.3684H0.947368Z" fill="white" fill-opacity="0.7"/>
</svg>
