<svg width="48" height="48" viewBox="0 0 48 48" fill="none" xmlns="http://www.w3.org/2000/svg">
<path d="M14.4 36.9287H18.5765C19.121 36.9287 19.6622 36.9937 20.1901 37.1238L24.603 38.2001C25.5606 38.4342 26.558 38.457 27.5256 38.2684L32.4048 37.3156C33.6937 37.0636 34.8793 36.4442 35.8085 35.5369L39.2606 32.1665C40.2465 31.2056 40.2465 29.6464 39.2606 28.6839C38.373 27.8173 36.9676 27.7198 35.9634 28.4546L31.9402 31.4007C31.364 31.8234 30.6629 32.0511 29.9418 32.0511H26.0568L28.5297 32.051C29.9235 32.051 31.0526 30.9486 31.0526 29.5878V29.0951C31.0526 27.9652 30.2649 26.9799 29.1425 26.7067L25.3258 25.7751C24.7046 25.6239 24.0685 25.5475 23.429 25.5475C21.8853 25.5475 19.091 26.8303 19.091 26.8303L14.4 28.7992M8 28.1169L8 37.4311C8 38.3305 8 38.7801 8.17439 39.1237C8.32779 39.4258 8.57256 39.6715 8.87361 39.8255C9.21587 40.0005 9.66392 40.0005 10.56 40.0005H11.84C12.7361 40.0005 13.1841 40.0005 13.5264 39.8255C13.8274 39.6715 14.0722 39.4258 14.2256 39.1237C14.4 38.7801 14.4 38.3305 14.4 37.4311V28.1169C14.4 27.2175 14.4 26.7678 14.2256 26.4243C14.0722 26.1222 13.8274 25.8765 13.5264 25.7225C13.1841 25.5475 12.7361 25.5475 11.84 25.5475H10.56C9.66392 25.5475 9.21587 25.5475 8.87362 25.7225C8.57256 25.8765 8.32779 26.1221 8.17439 26.4243C8 26.7678 8 27.2175 8 28.1169ZM32.3062 10.4397C31.3513 8.43416 29.1497 7.37168 27.0087 8.39718C24.8677 9.42269 23.9555 11.8547 24.8519 13.9896C25.4059 15.3091 26.9932 17.8713 28.1249 19.6363C28.5431 20.2884 28.7522 20.6144 29.0576 20.8052C29.3195 20.9688 29.6475 21.057 29.9558 21.0467C30.3153 21.0348 30.6588 20.8574 31.3458 20.5025C33.2052 19.542 35.8562 18.1195 36.9933 17.2549C38.8332 15.8558 39.2889 13.2842 37.9115 11.3293C36.534 9.37442 34.1323 9.18206 32.3062 10.4397Z" stroke="white" stroke-linecap="round" stroke-linejoin="round"/>
</svg>
