<svg width="18" height="18" viewBox="0 0 18 18" fill="none" xmlns="http://www.w3.org/2000/svg">
<path fill-rule="evenodd" clip-rule="evenodd" d="M0.473684 18C0.212076 18 -9.27012e-09 17.7879 -2.07054e-08 17.5263L-7.661e-07 0.473684C-7.77535e-07 0.212076 0.212075 -9.27012e-09 0.473683 -2.07054e-08L7.10526 -3.10581e-07C7.36687 -3.22016e-07 7.57895 0.212076 7.57895 0.473684L7.57895 17.5263C7.57895 17.7879 7.36687 18 7.10526 18L0.473684 18ZM0.947368 17.0526L6.63158 17.0526L6.63158 0.947368L0.947368 0.947369L0.947368 17.0526Z" fill="white" fill-opacity="1.0"/>
<path fill-rule="evenodd" clip-rule="evenodd" d="M10.8946 18C10.633 18 10.4209 17.7879 10.4209 17.5263L10.4209 0.526316C10.4209 0.264708 10.633 0.0526314 10.8946 0.0526314L17.5262 0.0526311C17.7878 0.0526311 17.9998 0.264707 17.9998 0.526315L17.9998 17.5263C17.9998 17.7879 17.7878 18 17.5262 18L10.8946 18ZM11.3683 17.0526L17.0525 17.0526L17.0525 1L11.3683 1L11.3683 17.0526Z" fill="white" fill-opacity="1.0"/>
</svg>
