<svg width="48" height="48" viewBox="0 0 48 48" fill="none" xmlns="http://www.w3.org/2000/svg">
<path d="M15.293 37.7687H17.9033C18.2436 37.7687 18.5819 37.8137 18.9118 37.9037L21.6699 38.6484C22.2683 38.8103 22.8917 38.8261 23.4964 38.6956L26.5459 38.0364C27.3515 37.862 28.0926 37.4334 28.6733 36.8057L30.8309 34.4737C31.447 33.8089 31.447 32.7301 30.8309 32.0641C30.2761 31.4645 29.3977 31.397 28.7701 31.9055L26.2556 33.9439C25.8955 34.2364 25.4573 34.3939 25.0066 34.3939H22.5785L24.124 34.3938C24.9952 34.3938 25.7008 33.6311 25.7008 32.6895V32.3486C25.7008 31.5668 25.2085 30.8851 24.507 30.6961L22.1216 30.0515C21.7334 29.9469 21.3358 29.894 20.9361 29.894C19.9713 29.894 18.2249 30.7816 18.2249 30.7816L15.293 32.1439M11.293 31.6718L11.293 38.1163C11.293 38.7385 11.293 39.0497 11.402 39.2874C11.4978 39.4964 11.6508 39.6664 11.839 39.7729C12.0529 39.894 12.3329 39.894 12.893 39.894H13.693C14.253 39.894 14.533 39.894 14.747 39.7729C14.9351 39.6664 15.0881 39.4964 15.184 39.2874C15.293 39.0497 15.293 38.7385 15.293 38.1163V31.6718C15.293 31.0495 15.293 30.7384 15.184 30.5007C15.0881 30.2917 14.9351 30.1217 14.747 30.0151C14.533 29.894 14.253 29.894 13.693 29.894H12.893C12.3329 29.894 12.0529 29.894 11.839 30.0151C11.6508 30.1217 11.4978 30.2917 11.402 30.5007C11.293 30.7384 11.293 31.0495 11.293 31.6718Z" stroke="#EAECEF" stroke-opacity="0.9" stroke-linecap="round" stroke-linejoin="round"/>
<path d="M10.7015 16.6001L13.9337 19.5403L18.2697 19.0004L15.3295 22.2327L15.8694 26.5686L12.6371 23.6285L8.30122 24.1683L11.2414 20.9361L10.7015 16.6001Z" stroke="#EAECEF" stroke-opacity="0.9" stroke-linejoin="round"/>
<path fill-rule="evenodd" clip-rule="evenodd" d="M32.7294 13.8018C32.0017 10.67 29.2777 8.52917 26.0237 9.38369C22.7698 10.2382 20.7973 13.4479 21.4064 16.7477C21.7828 18.787 23.219 22.8925 24.2613 25.7313C24.6464 26.7803 24.839 27.3047 25.2041 27.6635C25.5173 27.9713 25.9436 28.1902 26.3719 28.2632C26.8712 28.3483 27.397 28.1928 28.4487 27.8818C31.2952 27.0399 35.3691 25.7641 37.1913 24.8538C40.1397 23.3809 41.5236 19.8425 40.1983 16.6629C38.873 13.4833 35.6172 12.5267 32.7294 13.8018Z" stroke="#EAECEF" stroke-opacity="0.9" stroke-linecap="round" stroke-linejoin="round"/>
</svg>
