<svg width="48" height="48" viewBox="0 0 48 48" fill="none" xmlns="http://www.w3.org/2000/svg">
<path d="M42 21.8324L39.5641 19.3879L37.1269 21.8324M39.9289 19.999C39.9289 26.0742 35.02 30.999 28.9645 30.999C27.1776 30.999 25.4905 30.5702 24 29.8095M18 19.999C18 13.9239 22.909 8.99902 28.9645 8.99902C32.9871 8.99902 36.5038 11.1723 38.4116 14.4124M28.9645 13.8879V19.999L32.6193 22.4435" stroke="#5E5CC2" stroke-linecap="round" stroke-linejoin="round"/>
<circle cx="14" cy="28.999" r="10" fill="#5E5CC2"/>
<path d="M11 31.299C11 32.2931 11.8954 33.099 13 33.099H15C16.1046 33.099 17 32.2931 17 31.299C17 30.3049 16.1046 29.499 15 29.499H13C11.8954 29.499 11 28.6931 11 27.699C11 26.7049 11.8954 25.899 13 25.899H15C16.1046 25.899 17 26.7049 17 27.699M14 24.999V33.999" stroke="#EAECEF" stroke-linecap="round" stroke-linejoin="round"/>
</svg>
