<svg width="24" height="24" viewBox="0 0 24 24" fill="none" xmlns="http://www.w3.org/2000/svg">
<path fill-rule="evenodd" clip-rule="evenodd" d="M6.17627 5.64709C6.17627 5.3547 6.4133 5.11768 6.70568 5.11768H20.4704C20.7628 5.11768 20.9998 5.3547 20.9998 5.64709C20.9998 5.93947 20.7628 6.1765 20.4704 6.1765H6.70568C6.4133 6.1765 6.17627 5.93947 6.17627 5.64709Z" fill="white" fill-opacity="0.7"/>
<path fill-rule="evenodd" clip-rule="evenodd" d="M6.17627 12C6.17627 11.7076 6.4133 11.4706 6.70568 11.4706H20.4704C20.7628 11.4706 20.9998 11.7076 20.9998 12C20.9998 12.2924 20.7628 12.5294 20.4704 12.5294H6.70568C6.4133 12.5294 6.17627 12.2924 6.17627 12Z" fill="white" fill-opacity="0.7"/>
<path fill-rule="evenodd" clip-rule="evenodd" d="M6.17627 18.353C6.17627 18.0606 6.4133 17.8236 6.70568 17.8236H20.4704C20.7628 17.8236 20.9998 18.0606 20.9998 18.353C20.9998 18.6454 20.7628 18.8824 20.4704 18.8824H6.70568C6.4133 18.8824 6.17627 18.6454 6.17627 18.353Z" fill="white" fill-opacity="0.7"/>
<path fill-rule="evenodd" clip-rule="evenodd" d="M3 5.64709C3 5.3547 3.23703 5.11768 3.52941 5.11768H3.54C3.83239 5.11768 4.06941 5.3547 4.06941 5.64709C4.06941 5.93947 3.83239 6.1765 3.54 6.1765H3.52941C3.23703 6.1765 3 5.93947 3 5.64709Z" fill="white" fill-opacity="0.7"/>
<path fill-rule="evenodd" clip-rule="evenodd" d="M3 12C3 11.7076 3.23703 11.4706 3.52941 11.4706H3.54C3.83239 11.4706 4.06941 11.7076 4.06941 12C4.06941 12.2924 3.83239 12.5294 3.54 12.5294H3.52941C3.23703 12.5294 3 12.2924 3 12Z" fill="white" fill-opacity="0.7"/>
<path fill-rule="evenodd" clip-rule="evenodd" d="M3 18.353C3 18.0606 3.23703 17.8236 3.52941 17.8236H3.54C3.83239 17.8236 4.06941 18.0606 4.06941 18.353C4.06941 18.6454 3.83239 18.8824 3.54 18.8824H3.52941C3.23703 18.8824 3 18.6454 3 18.353Z" fill="white" fill-opacity="0.7"/>
</svg>
