<svg width="18" height="18" viewBox="0 0 18 18" fill="none" xmlns="http://www.w3.org/2000/svg">
<path fill-rule="evenodd" clip-rule="evenodd" d="M0 0.473684C0 0.212076 0.212076 0 0.473684 0H17.5263C17.7879 0 18 0.212076 18 0.473684V7.10526C18 7.36687 17.7879 7.57895 17.5263 7.57895H0.473684C0.212076 7.57895 0 7.36687 0 7.10526V0.473684ZM0.947368 0.947368V6.63158H17.0526V0.947368H0.947368Z" fill="#E7E7E9"/>
<path fill-rule="evenodd" clip-rule="evenodd" d="M0 10.8947C0 10.6331 0.212076 10.4211 0.473684 10.4211H17.4737C17.7353 10.4211 17.9474 10.6331 17.9474 10.8947V17.5263C17.9474 17.7879 17.7353 18 17.4737 18H0.473684C0.212076 18 0 17.7879 0 17.5263V10.8947ZM0.947368 11.3684V17.0526H17V11.3684L0.947368 11.3684Z" fill="#E7E7E9"/>
</svg>
