<svg width="48" height="49" viewBox="0 0 48 49" fill="none" xmlns="http://www.w3.org/2000/svg">
<g clip-path="url(#clip0_7351_7116)">
<path d="M37.3782 18.1699V21.9199V18.1699Z" fill="#EAECEF" fill-opacity="0.9"/>
<path d="M37.3782 18.1699V21.9199" stroke="#EAECEF" stroke-opacity="0.9" stroke-miterlimit="10" stroke-linecap="round" stroke-linejoin="round"/>
<path d="M35.5032 20.0449H39.2532H35.5032Z" fill="#EAECEF" fill-opacity="0.9"/>
<path d="M35.5032 20.0449H39.2532" stroke="#EAECEF" stroke-opacity="0.9" stroke-miterlimit="10" stroke-linecap="round" stroke-linejoin="round"/>
<path d="M35.4407 15.3574C34.9229 15.3574 34.5032 14.9377 34.5032 14.4199C34.5032 13.9022 34.9229 13.4824 35.4407 13.4824C35.9584 13.4824 36.3782 13.9022 36.3782 14.4199C36.3782 14.9377 35.9584 15.3574 35.4407 15.3574Z" fill="#EAECEF" fill-opacity="0.9"/>
<path d="M31.6907 20.9824C31.1729 20.9824 30.7532 20.5627 30.7532 20.0449C30.7532 19.5272 31.1729 19.1074 31.6907 19.1074C32.2084 19.1074 32.6282 19.5272 32.6282 20.0449C32.6282 20.5627 32.2084 20.9824 31.6907 20.9824Z" fill="#EAECEF" fill-opacity="0.9"/>
<path d="M23.3371 31.3371C23.7033 30.9709 24.2966 30.9709 24.6628 31.3371L24.9375 31.6118V23.5625H23.0625V31.6118L23.3371 31.3371Z" fill="#EAECEF" fill-opacity="0.9"/>
<path d="M33.3749 23.5625H26.8124V33.8749C26.8124 34.2539 26.5845 34.5964 26.2338 34.741C26.1176 34.7895 25.9957 34.8124 25.8749 34.8124C25.6314 34.8124 25.3916 34.7172 25.2121 34.5377L23.9999 33.3256L22.7878 34.5377C22.5186 34.8069 22.1176 34.8866 21.766 34.741C21.4154 34.5964 21.1874 34.2539 21.1874 33.8749V23.5625H20.6618L13.6875 27.5892V39.5624C13.6875 40.0806 14.1068 40.4999 14.625 40.4999H33.3749C33.8931 40.4999 34.3124 40.0806 34.3124 39.5624V24.5C34.3124 23.9818 33.8931 23.5625 33.3749 23.5625Z" fill="#5E5CC2"/>
<path d="M31.1719 14.2463L29.2971 10.9988C29.1726 10.7837 28.9675 10.6262 28.7276 10.5621C28.4887 10.499 28.2315 10.532 28.0163 10.6555L25.132 12.3208C25.1344 11.6666 24.9793 10.9573 24.6435 10.3761C24.1427 9.50815 23.3343 8.88746 22.3666 8.62834C21.4007 8.37109 20.389 8.5029 19.5211 9.00277C18.3191 9.69765 17.6004 10.9913 17.648 12.3792L17.6544 12.5769C17.6544 12.5843 17.6544 12.5907 17.6553 12.598L17.7469 15.3671L15.4352 13.9267C15.4343 13.9257 15.4325 13.9249 15.4315 13.9239L15.2631 13.8186C14.0839 13.0853 12.6062 13.0578 11.4024 13.7527C10.5344 14.2535 9.91375 15.0619 9.65463 16.0296C9.39551 16.9974 9.52832 18.008 10.0291 18.876C10.3713 19.4675 10.8529 19.9275 11.4068 20.2453L8.46895 21.9055C8.02045 22.1644 7.86689 22.7378 8.12577 23.1863L10.0629 26.434C10.3218 26.8824 10.8951 27.036 11.3436 26.7772L30.8289 15.527C31.2773 15.2682 31.4308 14.6948 31.1719 14.2463ZM14.2137 18.6246C13.3175 19.14 12.1692 18.8336 11.6531 17.9385C11.1359 17.0432 11.4444 15.8932 12.3397 15.3769C12.9412 15.0281 13.6819 15.0427 14.2706 15.4099L16.9207 17.0617L14.2137 18.6246ZM23.2071 12.7988C23.0781 13.2817 22.7679 13.686 22.3346 13.9359L19.6268 15.4993L19.5211 12.3151C19.4983 11.6202 19.8581 10.9738 20.4586 10.6268C20.8908 10.3751 21.3961 10.3101 21.8814 10.4391C22.3647 10.5691 22.7694 10.8795 23.0194 11.3134C23.2702 11.7475 23.3371 12.3144 23.2071 12.7988Z" fill="#5E5CC2"/>
</g>
<defs>
<clipPath id="clip0_7351_7116">
<rect width="32" height="32" fill="white" transform="translate(8 8.5)"/>
</clipPath>
</defs>
</svg>
