<svg width="48" height="48" viewBox="0 0 48 48" fill="none" xmlns="http://www.w3.org/2000/svg">
<rect x="7.51318" y="19.6665" width="6" height="13.5576" rx="2.25961" fill="#5E5CC2"/>
<path d="M20.2536 9.5H18.7728C17.5248 9.5 16.5132 10.5117 16.5132 11.7596V30.9663C16.5132 32.2142 17.5248 33.2259 18.7728 33.2259H19.8582C21.9512 33.2259 22.5003 27.4086 22.5132 24.5V11.7596C22.5132 10.5117 21.5015 9.5 20.2536 9.5Z" fill="#5E5CC2"/>
<path d="M25.5132 17.41C25.5132 16.1621 26.5248 15.1504 27.7728 15.1504H29.2536C30.5015 15.1504 31.5132 16.1621 31.5132 17.41V24.499H28.4497H25.5132V17.41Z" fill="#5E5CC2"/>
<path d="M7.51318 36.4834H17.6814" stroke="#5E5CC2" stroke-linecap="round"/>
<rect x="20.1506" y="24.5552" width="20.3361" height="13.9448" rx="1.7431" fill="#5E5CC2"/>
<path d="M30.5 32.489C31.0523 32.489 31.5 32.0457 31.5 31.499C31.5 30.9523 31.0523 30.5091 30.5 30.5091C29.9477 30.5091 29.5 30.9523 29.5 31.499C29.5 32.0457 29.9477 32.489 30.5 32.489Z" fill="#5E5CC2"/>
<path d="M32.6213 29.399C33.7929 30.5588 33.7929 32.4392 32.6213 33.599M28.3787 33.599C27.2071 32.4392 27.2071 30.5588 28.3787 29.399M26.9645 34.999C25.0118 33.066 25.0118 29.932 26.9645 27.999M34.0355 27.999C35.9882 29.932 35.9882 33.066 34.0355 34.999M31.5 31.499C31.5 32.0457 31.0523 32.489 30.5 32.489C29.9477 32.489 29.5 32.0457 29.5 31.499C29.5 30.9523 29.9477 30.5091 30.5 30.5091C31.0523 30.5091 31.5 30.9523 31.5 31.499Z" stroke="#EAECEF" stroke-linecap="round" stroke-linejoin="round"/>
</svg>
