<svg width="48" height="49" viewBox="0 0 48 49" fill="none" xmlns="http://www.w3.org/2000/svg">
<path d="M17.4211 26.6011C17.5078 26.4704 17.5971 26.342 17.6924 26.2168L17.8866 25.9616L17.6591 25.8289C16.8795 25.3744 15.9829 25.1343 15.0654 25.1343C12.2724 25.1341 10 27.3476 10 30.068V31.584C10 31.8643 10.2351 32.0925 10.5242 32.0925H16.1918V30.6592C16.1918 30.4941 16.1993 30.3194 16.2149 30.1097L16.2226 30.0089C16.2392 29.8208 16.2626 29.6367 16.291 29.4627L16.2954 29.4387C16.3269 29.2504 16.3671 29.0603 16.4165 28.8627C16.4632 28.6795 16.5186 28.4927 16.5816 28.3079L16.3585 28.2342L16.5951 28.2684C16.7181 27.9134 16.8698 27.5648 17.046 27.2322L17.0846 27.1592C17.1671 27.0071 17.256 26.8565 17.3488 26.7114L17.4211 26.6011Z" fill="#7165E3"/>
<path d="M15.0653 23.8747C16.5423 23.8747 17.7438 22.7049 17.7438 21.267C17.7438 19.829 16.5423 18.6592 15.0653 18.6592C13.5883 18.6592 12.3867 19.829 12.3867 21.2672C12.3867 22.7049 13.5883 23.8747 15.0653 23.8747Z" fill="#7165E3"/>
<path d="M31.0846 30.2043C31.08 30.1335 31.0751 30.0625 31.0679 29.9922C31.0632 29.945 31.0566 29.8982 31.0509 29.8513C31.0434 29.7884 31.0359 29.7256 31.0264 29.6636C31.0191 29.6153 31.0101 29.567 31.0017 29.5187C30.9911 29.4581 30.9805 29.3974 30.9684 29.3372C30.9589 29.2905 30.9481 29.244 30.9375 29.1972C30.9239 29.1359 30.9095 29.0744 30.8941 29.0138C30.8831 28.9703 30.871 28.9271 30.859 28.8841C30.8412 28.8197 30.8227 28.7555 30.8028 28.692C30.7909 28.6539 30.7783 28.6157 30.766 28.5778C30.7433 28.509 30.7195 28.4406 30.6948 28.3727C30.6829 28.341 30.6712 28.3094 30.659 28.2777C30.6304 28.2034 30.6006 28.1297 30.5691 28.0565C30.5587 28.032 30.5483 28.0078 30.5375 27.9833C30.5018 27.9026 30.4648 27.823 30.4262 27.744C30.418 27.7275 30.4101 27.711 30.4019 27.6947C30.3589 27.6082 30.3137 27.5227 30.267 27.4382C30.2621 27.4292 30.257 27.4201 30.2522 27.4111C30.2006 27.3191 30.147 27.2285 30.0912 27.1392C30.0901 27.1374 30.0892 27.1359 30.0881 27.1341C28.8616 25.1715 26.644 23.8584 24.1171 23.8584C21.9581 23.8584 20.0251 24.8176 18.7428 26.3209C18.7331 26.3323 18.7236 26.3436 18.7141 26.3548C18.6552 26.4247 18.5981 26.4959 18.5421 26.5681C18.5295 26.5842 18.5167 26.6007 18.5042 26.6172C18.4537 26.6836 18.4043 26.7513 18.3562 26.8194C18.3399 26.8426 18.3236 26.8655 18.3077 26.8891C18.266 26.95 18.2255 27.0122 18.1855 27.0744C18.1657 27.1057 18.1454 27.1365 18.1262 27.1681C18.0936 27.221 18.0625 27.2748 18.0314 27.3284C18.0074 27.3701 17.9827 27.4113 17.9597 27.4534C17.9379 27.4929 17.9176 27.5332 17.8964 27.5736C17.8669 27.63 17.8369 27.6861 17.8089 27.7434C17.8069 27.7471 17.8054 27.7511 17.8034 27.7551C17.6336 28.1046 17.4953 28.4678 17.3888 28.84C17.3851 28.8532 17.3811 28.8662 17.3774 28.8792C17.3555 28.958 17.3357 29.0369 17.3167 29.1161C17.3108 29.1406 17.3048 29.165 17.2993 29.1893C17.2828 29.2618 17.2678 29.3346 17.2537 29.4074C17.247 29.4411 17.2411 29.4748 17.2351 29.5086C17.2234 29.575 17.2126 29.6413 17.2029 29.7081C17.1965 29.7525 17.1908 29.797 17.1855 29.8418C17.1782 29.9002 17.171 29.9584 17.1652 30.0171C17.1593 30.0771 17.1553 30.1373 17.1509 30.1975C17.1478 30.2429 17.1436 30.2883 17.1414 30.334C17.1361 30.4418 17.1328 30.5503 17.1328 30.6592V32.7916C17.1328 33.11 17.4012 33.3689 17.7306 33.3689H30.5042C30.8337 33.3689 31.102 33.11 31.102 32.7916V30.6597C31.102 30.5472 31.099 30.4352 31.0932 30.324C31.0912 30.2841 31.0873 30.2442 31.0846 30.2043Z" fill="#7165E3"/>
<path d="M23.9539 22.3889C25.8333 22.3889 27.3621 20.9011 27.3621 19.0726C27.3621 17.2441 25.8333 15.7563 23.9539 15.7563C22.0745 15.7563 20.5457 17.2441 20.5457 19.0726C20.5457 20.9011 22.0747 22.3889 23.9539 22.3889Z" fill="#7165E3"/>
<path d="M32.9344 24.7837C31.9406 24.7837 30.9758 25.0657 30.1451 25.5996L29.9253 25.7407L30.0916 25.9405C30.4629 26.3862 30.7833 26.8781 31.0433 27.4021L31.0548 27.4256C31.1026 27.5231 31.1485 27.6219 31.1932 27.7233L31.2098 27.7613C31.2517 27.859 31.2916 27.9573 31.3364 28.0742L31.345 28.096C31.4301 28.3238 31.5035 28.554 31.5635 28.7809L31.5774 28.8374C31.6012 28.9293 31.6232 29.0217 31.6433 29.1154L31.6673 29.2356C31.6821 29.3095 31.6958 29.3834 31.7081 29.4581C31.7156 29.5035 31.7225 29.5487 31.7293 29.5942C31.7399 29.6663 31.7496 29.7384 31.7578 29.8116C31.7628 29.857 31.7683 29.9022 31.7727 29.9476C31.7805 30.0259 31.786 30.1047 31.7908 30.1836L31.7988 30.3022C31.8045 30.4206 31.8082 30.5395 31.8082 30.6588V31.7415H37.4759C37.7649 31.7415 38 31.5133 38 31.2328V29.7168C37.9998 26.997 35.7274 24.7837 32.9344 24.7837Z" fill="#7165E3"/>
<path d="M32.9344 23.6457C34.4114 23.6457 35.613 22.4759 35.613 21.038C35.613 19.6 34.4114 18.4302 32.9344 18.4302C31.4574 18.4302 30.2559 19.6 30.2559 21.038C30.2559 22.4759 31.4574 23.6457 32.9344 23.6457Z" fill="#7165E3"/>
</svg>
