<svg width="24" height="24" viewBox="0 0 24 24" fill="none" xmlns="http://www.w3.org/2000/svg">
<path d="M2.00001 15.6922C1.99903 15.5151 2.06 15.3432 2.17238 15.2062C2.28475 15.0693 2.44146 14.9759 2.61539 14.9422C3.30723 14.7953 3.92764 14.4153 4.37279 13.8657C4.81795 13.3161 5.06085 12.6303 5.06085 11.923C5.06085 11.2158 4.81795 10.53 4.37279 9.98036C3.92764 9.43076 3.30723 9.05072 2.61539 8.90382C2.44146 8.87019 2.28475 8.77682 2.17238 8.63986C2.06 8.50291 1.99903 8.33098 2.00001 8.15383V5.76923C2.00001 5.56521 2.08105 5.36956 2.22531 5.2253C2.36957 5.08104 2.56523 5 2.76924 5H21.2307C21.4347 5 21.6303 5.08104 21.7746 5.2253C21.9188 5.36956 21.9999 5.56521 21.9999 5.76923V8.15383C22.0009 8.33098 21.9399 8.50291 21.8275 8.63986C21.7151 8.77682 21.5584 8.87019 21.3845 8.90382C20.6927 9.05072 20.0723 9.43076 19.6271 9.98036C19.1819 10.53 18.939 11.2158 18.939 11.923C18.939 12.6303 19.1819 13.3161 19.6271 13.8657C20.0723 14.4153 20.6927 14.7953 21.3845 14.9422C21.5584 14.9759 21.7151 15.0693 21.8275 15.2062C21.9399 15.3432 22.0009 15.5151 21.9999 15.6922V18.0768C21.9999 18.2809 21.9188 18.4765 21.7746 18.6208C21.6303 18.765 21.4347 18.8461 21.2307 18.8461H2.76924C2.56523 18.8461 2.36957 18.765 2.22531 18.6208C2.08105 18.4765 2.00001 18.2809 2.00001 18.0768V15.6922Z" fill="#7165E3" stroke="#7165E3" stroke-linecap="round" stroke-linejoin="round"/>
<path d="M9.41919 7.08423L9.41919 16.7616" stroke="#0B0B25" stroke-linecap="round" stroke-linejoin="round"/>
</svg>
