<svg width="24" height="24" viewBox="0 0 24 24" fill="none" xmlns="http://www.w3.org/2000/svg">
<path d="M17 19V16.3333C17 15.4493 16.6576 14.6014 16.0481 13.9763C15.4386 13.3512 14.612 13 13.75 13H7.25C6.38805 13 5.5614 13.3512 4.9519 13.9763C4.34241 14.6014 4 15.4493 4 16.3333V19" stroke="#7165E3" stroke-linecap="round" stroke-linejoin="round"/>
<path d="M10.5 11C12.433 11 14 9.433 14 7.5C14 5.567 12.433 4 10.5 4C8.567 4 7 5.567 7 7.5C7 9.433 8.567 11 10.5 11Z" stroke="#7165E3" stroke-linecap="round" stroke-linejoin="round"/>
<path d="M18.8418 6V11.6837" stroke="#7165E3" stroke-linecap="round"/>
<path d="M21.6838 8.84204L16.0001 8.84204" stroke="#7165E3" stroke-linecap="round"/>
</svg>
