<svg width="24" height="24" viewBox="0 0 24 24" fill="none" xmlns="http://www.w3.org/2000/svg">
<path d="M9.42654 20.05C10.1124 20.6412 11.0133 21 12 21C12.9867 21 13.8876 20.6412 14.5735 20.05M17.8359 8.7C17.8359 7.18827 17.221 5.73845 16.1266 4.66949C15.0322 3.60053 13.5478 3 12 3C10.4522 3 8.96785 3.60053 7.8734 4.66949C6.77896 5.73845 6.16411 7.18827 6.16411 8.7C6.16411 11.6357 5.40591 13.6457 4.55892 14.9751C3.84447 16.0966 3.48725 16.6573 3.50035 16.8137C3.51485 16.9869 3.55242 17.053 3.69532 17.1565C3.82437 17.25 4.40614 17.25 5.56968 17.25H18.4303C19.5939 17.25 20.1756 17.25 20.3047 17.1565C20.4476 17.053 20.4851 16.9869 20.4997 16.8137C20.5127 16.6573 20.1555 16.0966 19.4411 14.9751C18.5941 13.6457 17.8359 11.6357 17.8359 8.7Z" stroke="white" stroke-opacity="0.7" stroke-linecap="round" stroke-linejoin="round"/>
<path d="M13 7L10.5 9.5L13 10.5L10.5 13" stroke="white" stroke-opacity="0.7" stroke-linecap="round" stroke-linejoin="round"/>
</svg>
