<svg width="24" height="24" viewBox="0 0 24 24" fill="none" xmlns="http://www.w3.org/2000/svg">
<path d="M9.42654 20.55C10.1124 21.1412 11.0133 21.5 12 21.5C12.9867 21.5 13.8876 21.1412 14.5735 20.55M17.8359 8.2C17.8359 6.68827 17.221 5.23845 16.1266 4.16949C15.0322 3.10053 13.5478 2.5 12 2.5C10.4522 2.5 8.96785 3.10053 7.8734 4.16949C6.77896 5.23845 6.16411 6.68827 6.16411 8.2C6.16411 11.1357 5.40591 13.1457 4.55892 14.4751C3.84447 15.5966 3.48725 16.1573 3.50035 16.3137C3.51485 16.4869 3.55242 16.553 3.69532 16.6565C3.82437 16.75 4.40614 16.75 5.56968 16.75H18.4303C19.5939 16.75 20.1756 16.75 20.3047 16.6565C20.4476 16.553 20.4851 16.4869 20.4997 16.3137C20.5127 16.1573 20.1555 15.5966 19.4411 14.4751C18.5941 13.1457 17.8359 11.1357 17.8359 8.2Z" stroke="#EAECEF" stroke-linecap="round" stroke-linejoin="round"/>
</svg>
