<svg width="390" height="844" viewBox="0 0 390 844" fill="none" xmlns="http://www.w3.org/2000/svg">
    <defs>
        <linearGradient id="paint0_linear_10366_656810" x1="266.123" y1="119.561" x2="120.079"
            y2="102.371" gradientUnits="userSpaceOnUse">
            <stop stop-color="white" stop-opacity="0.6" />
            <stop offset="0.447917" stop-color="white" />
            <stop offset="1" stop-color="white" />
        </linearGradient>
        <linearGradient id="paint1_linear_10366_656810" x1="273.434" y1="137.664" x2="127.39"
            y2="120.475" gradientUnits="userSpaceOnUse">
            <stop stop-color="white" stop-opacity="0.6" />
            <stop offset="0.447917" stop-color="white" />
            <stop offset="1" stop-color="white" />
        </linearGradient>
        <linearGradient id="paint2_linear_10366_656810" x1="280.746" y1="155.767" x2="134.702"
            y2="138.578" gradientUnits="userSpaceOnUse">
            <stop stop-color="white" stop-opacity="0.6" />
            <stop offset="0.447917" stop-color="white" />
            <stop offset="1" stop-color="white" />
        </linearGradient>
        <linearGradient id="paint3_linear_10366_656810" x1="288.057" y1="173.871" x2="142.013"
            y2="156.681" gradientUnits="userSpaceOnUse">
            <stop stop-color="white" stop-opacity="0.6" />
            <stop offset="0.447917" stop-color="white" />
            <stop offset="1" stop-color="white" />
        </linearGradient>
        <linearGradient id="paint4_linear_10366_656810" x1="295.368" y1="191.974" x2="149.324"
            y2="174.784" gradientUnits="userSpaceOnUse">
            <stop stop-color="white" stop-opacity="0.6" />
            <stop offset="0.447917" stop-color="white" />
            <stop offset="1" stop-color="white" />
        </linearGradient>
        <linearGradient id="paint5_linear_10366_656810" x1="302.679" y1="210.077" x2="156.635"
            y2="192.887" gradientUnits="userSpaceOnUse">
            <stop stop-color="white" stop-opacity="0.6" />
            <stop offset="0.447917" stop-color="white" />
            <stop offset="1" stop-color="white" />
        </linearGradient>
        <linearGradient id="paint6_linear_10366_656810" x1="309.99" y1="228.18" x2="163.946"
            y2="210.991" gradientUnits="userSpaceOnUse">
            <stop stop-color="white" stop-opacity="0.6" />
            <stop offset="0.447917" stop-color="white" />
            <stop offset="1" stop-color="white" />
        </linearGradient>
        <linearGradient id="paint7_linear_10366_656810" x1="317.302" y1="246.284" x2="171.258"
            y2="229.094" gradientUnits="userSpaceOnUse">
            <stop stop-color="white" stop-opacity="0.6" />
            <stop offset="0.447917" stop-color="white" />
            <stop offset="1" stop-color="white" />
        </linearGradient>
        <linearGradient id="paint8_linear_10366_656810" x1="324.613" y1="264.387" x2="178.569"
            y2="247.198" gradientUnits="userSpaceOnUse">
            <stop stop-color="white" stop-opacity="0.6" />
            <stop offset="0.447917" stop-color="white" />
            <stop offset="1" stop-color="white" />
        </linearGradient>
    </defs>
    <g opacity="0.2">
        <path
            d="M177.115 564.025L176.874 563.784L177.115 564.025ZM-471.17 784.622C-471.137 784.766 -471.315 784.88 -471.568 784.875C-471.821 784.87 -472.053 784.75 -472.085 784.606L-471.17 784.622ZM286.781 82.905C230.764 81.7504 190.262 87.6002 161.846 98.7974C133.433 109.993 117.064 126.55 109.368 146.858C93.9694 187.493 113.314 243.1 140.361 300.658C167.393 358.185 202.122 417.661 217.372 465.925C224.998 490.061 227.764 511.424 222.247 528.362C216.727 545.307 202.909 557.838 177.357 564.267L176.874 563.784C202.146 557.425 215.851 545.033 221.338 528.19C226.827 511.339 224.082 490.049 216.463 465.935C201.223 417.7 166.528 358.294 139.47 300.713C112.427 243.164 93.0152 187.439 108.463 146.673C116.191 126.281 132.645 109.622 161.241 98.3538C189.833 87.0873 230.524 81.2263 286.667 82.3836L286.781 82.905ZM681.244 -21.8156C704.79 -20.1339 723.337 -17.0951 736.875 -13.0698C750.416 -9.04397 758.993 -4.0164 762.494 1.64352C765.994 7.3013 764.381 13.5235 757.792 19.9122C751.203 26.3012 739.615 32.8806 723.072 39.2725C656.908 64.8368 511.146 87.5298 286.781 82.905L286.667 82.3836C510.943 87.0064 656.502 64.3162 722.472 38.8267C738.962 32.4552 750.459 25.9167 756.975 19.5985C763.492 13.2799 765.006 7.20545 761.627 1.74215C758.248 -3.71899 749.937 -8.63691 736.554 -12.6159C723.169 -16.5955 704.754 -19.621 681.275 -21.298L681.244 -21.8156ZM177.357 564.267C162.414 568.026 139.975 569.53 112.344 569.891C84.7013 570.252 51.8014 569.47 15.9072 568.64C-55.8974 566.981 -139.717 565.131 -217.654 571.837C-295.589 578.542 -367.591 593.8 -415.797 626.334C-463.996 658.863 -488.454 708.696 -471.17 784.622L-472.085 784.606C-489.392 708.583 -464.916 658.609 -416.543 625.963C-368.176 593.321 -295.966 578.035 -217.932 571.32C-139.901 564.606 -55.9959 566.46 15.7969 568.119C51.7012 568.949 84.5683 569.73 112.176 569.369C139.794 569.008 162.087 567.504 176.874 563.784L177.357 564.267Z"
            fill="url(#paint0_linear_10366_656810)" />
        <path
            d="M184.426 582.129L184.185 581.888L184.426 582.129ZM-463.859 802.726C-463.826 802.87 -464.004 802.983 -464.257 802.979C-464.51 802.974 -464.742 802.854 -464.775 802.71L-463.859 802.726ZM294.092 101.009C238.075 99.8541 197.573 105.704 169.157 116.901C140.744 128.097 124.375 144.654 116.679 164.962C101.28 205.596 120.625 261.204 147.672 318.761C174.704 376.288 209.433 435.765 224.683 484.029C232.309 508.165 235.075 529.528 229.558 546.466C224.038 563.411 210.22 575.941 184.668 582.371L184.185 581.888C209.457 575.529 223.162 563.137 228.649 546.294C234.138 529.443 231.393 508.152 223.774 484.039C208.534 435.803 173.839 376.398 146.781 318.817C119.738 261.267 100.326 205.542 115.774 164.777C123.502 144.385 139.956 127.726 168.552 116.458C197.144 105.191 237.835 99.3301 293.978 100.487L294.092 101.009ZM688.555 -3.71185C712.101 -2.03011 730.648 1.00867 744.186 5.03391C757.727 9.0598 766.304 14.0874 769.805 19.7473C773.305 25.4051 771.692 31.6272 765.103 38.0159C758.514 44.405 746.926 50.9843 730.383 57.3763C664.219 82.9406 518.457 105.634 294.092 101.009L293.978 100.487C518.254 105.11 663.813 82.4199 729.783 56.9305C746.273 50.559 757.77 44.0205 764.286 37.7023C770.803 31.3837 772.317 25.3092 768.938 19.8459C765.559 14.3848 757.248 9.46685 743.865 5.48786C730.48 1.50824 712.065 -1.51726 688.586 -3.19419L688.555 -3.71185ZM184.668 582.371C169.725 586.13 147.286 587.633 119.655 587.994C92.0123 588.355 59.1124 587.574 23.2181 586.744C-48.5864 585.085 -132.406 583.235 -210.343 589.94C-288.278 596.646 -360.28 611.904 -408.486 644.437C-456.685 676.967 -481.143 726.8 -463.859 802.726L-464.775 802.71C-482.081 726.687 -457.605 676.713 -409.232 644.067C-360.865 611.424 -288.655 596.138 -210.621 589.424C-132.59 582.71 -48.6849 584.563 23.1079 586.223C59.0122 587.052 91.8793 587.833 119.487 587.473C147.105 587.112 169.398 585.608 184.185 581.888L184.668 582.371Z"
            fill="url(#paint1_linear_10366_656810)" />
        <path
            d="M191.739 600.232L191.497 599.991L191.739 600.232ZM-456.547 820.829C-456.514 820.973 -456.692 821.086 -456.945 821.082C-457.198 821.077 -457.43 820.957 -457.462 820.813L-456.547 820.829ZM301.404 119.112C245.387 117.957 204.885 123.807 176.469 135.004C148.057 146.2 131.687 162.757 123.991 183.065C108.593 223.699 127.937 279.307 154.984 336.865C182.017 394.391 216.746 453.868 231.995 502.132C239.621 526.268 242.387 547.631 236.87 564.569C231.35 581.514 217.532 594.044 191.98 600.474L191.497 599.991C216.769 593.632 230.474 581.24 235.961 564.397C241.45 547.546 238.705 526.255 231.086 502.142C215.846 453.907 181.151 394.501 154.093 336.92C127.05 279.37 107.638 223.645 123.086 182.88C130.814 162.488 147.268 145.829 175.864 134.561C204.456 123.294 245.147 117.433 301.29 118.59L301.404 119.112ZM695.867 14.3912C719.414 16.0729 737.96 19.1117 751.499 23.1369C765.039 27.1628 773.616 32.1904 777.117 37.8503C780.617 43.5081 779.004 49.7303 772.415 56.119C765.826 62.508 754.238 69.0874 737.695 75.4793C671.531 101.044 525.769 123.737 301.404 119.112L301.29 118.59C525.567 123.213 671.125 100.523 737.095 75.0335C753.585 68.662 765.082 62.1235 771.598 55.8053C778.115 49.4867 779.63 43.4122 776.25 37.9489C772.871 32.4878 764.56 27.5699 751.177 23.5909C737.792 19.6113 719.377 16.5858 695.898 14.9088L695.867 14.3912ZM191.98 600.474C177.037 604.233 154.598 605.736 126.967 606.097C99.3245 606.459 66.4246 605.677 30.5304 604.847C-41.2742 603.188 -125.094 601.338 -203.031 608.043C-280.965 614.749 -352.968 630.007 -401.174 662.54C-449.373 695.07 -473.831 744.903 -456.547 820.829L-457.462 820.813C-474.768 744.79 -450.293 694.816 -401.92 662.17C-353.553 629.527 -281.343 614.241 -203.309 607.527C-125.277 600.813 -41.3727 602.667 30.4201 604.326C66.3244 605.155 99.1915 605.936 126.799 605.576C154.417 605.215 176.71 603.711 191.497 599.991L191.98 600.474Z"
            fill="url(#paint2_linear_10366_656810)" />
        <path
            d="M199.05 618.336L198.808 618.094L199.05 618.336ZM-449.235 838.933C-449.203 839.077 -449.381 839.19 -449.634 839.185C-449.887 839.181 -450.118 839.06 -450.151 838.916L-449.235 838.933ZM308.715 137.215C252.698 136.061 212.196 141.91 183.78 153.108C155.368 164.303 138.998 180.861 131.302 201.168C115.904 241.803 135.248 297.41 162.295 354.968C189.328 412.495 224.057 471.971 239.306 520.235C246.932 544.371 249.698 565.735 244.181 582.672C238.661 599.618 224.843 612.148 199.291 618.577L198.808 618.094C224.08 611.736 237.786 599.343 243.272 582.5C248.761 565.65 246.016 544.359 238.397 520.245C223.157 472.01 188.462 412.604 161.404 355.024C134.361 297.474 114.949 241.749 130.397 200.984C138.125 180.591 154.579 163.932 183.175 152.664C211.767 141.398 252.458 135.537 308.601 136.694L308.715 137.215ZM703.178 32.4947C726.725 34.1764 745.271 37.2152 758.81 41.2405C772.35 45.2663 780.927 50.2939 784.428 55.9538C787.928 61.6116 786.315 67.8338 779.726 74.2225C773.137 80.6115 761.549 87.1909 745.006 93.5828C678.842 119.147 533.08 141.84 308.715 137.215L308.601 136.694C532.878 141.317 678.436 118.626 744.406 93.137C760.896 86.7655 772.393 80.227 778.909 73.9088C785.426 67.5902 786.941 61.5158 783.561 56.0525C780.182 50.5913 771.871 45.6734 758.488 41.6944C745.103 37.7148 726.688 34.6893 703.209 33.0123L703.178 32.4947ZM199.291 618.577C184.348 622.337 161.909 623.84 134.278 624.201C106.636 624.562 73.7356 623.78 37.8414 622.951C-33.9632 621.291 -117.783 619.441 -195.72 626.147C-273.654 632.853 -345.657 648.11 -393.863 680.644C-442.062 713.173 -466.52 763.007 -449.235 838.933L-450.151 838.916C-467.457 762.894 -442.982 712.92 -394.609 680.273C-346.242 647.631 -274.032 632.345 -195.998 625.631C-117.966 618.917 -34.0616 620.77 37.7312 622.429C73.6355 623.259 106.503 624.04 134.11 623.679C161.728 623.318 184.021 621.815 198.808 618.094L199.291 618.577Z"
            fill="url(#paint3_linear_10366_656810)" />
        <path
            d="M206.36 636.439L206.119 636.197L206.36 636.439ZM-441.925 857.036C-441.892 857.18 -442.07 857.293 -442.323 857.288C-442.576 857.284 -442.808 857.163 -442.84 857.019L-441.925 857.036ZM316.026 155.318C260.009 154.164 219.507 160.014 191.091 171.211C162.679 182.406 146.309 198.964 138.613 219.271C123.215 259.906 142.559 315.513 169.606 373.071C196.638 430.598 231.368 490.074 246.617 538.338C254.243 562.474 257.009 583.838 251.492 600.775C245.972 617.721 232.154 630.251 206.602 636.68L206.119 636.197C231.391 629.839 245.096 617.446 250.583 600.604C256.072 583.753 253.327 562.462 245.708 538.348C230.468 490.113 195.773 430.707 168.715 373.127C141.672 315.577 122.26 259.852 137.708 219.087C145.436 198.695 161.89 182.035 190.486 170.767C219.078 159.501 259.769 153.64 315.912 154.797L316.026 155.318ZM710.489 50.5977C734.035 52.2795 752.582 55.3182 766.12 59.3435C779.661 63.3694 788.238 68.3969 791.739 74.0569C795.239 79.7146 793.626 85.9368 787.037 92.3255C780.448 98.7145 768.86 105.294 752.317 111.686C686.153 137.25 540.391 159.943 316.026 155.318L315.912 154.797C540.189 159.42 685.747 136.73 751.717 111.24C768.207 104.869 779.704 98.3301 786.22 92.0118C792.737 85.6933 794.252 79.6188 790.872 74.1555C787.493 68.6943 779.182 63.7764 765.799 59.7974C752.414 55.8178 733.999 52.7923 710.52 51.1154L710.489 50.5977ZM206.602 636.68C191.659 640.44 169.22 641.943 141.589 642.304C113.946 642.665 81.0465 641.883 45.1523 641.054C-26.6523 639.394 -110.472 637.544 -188.409 644.25C-266.344 650.956 -338.346 666.213 -386.552 698.747C-434.751 731.276 -459.209 781.11 -441.925 857.036L-442.84 857.019C-460.146 780.997 -435.671 731.023 -387.298 698.376C-338.931 665.734 -266.721 650.448 -188.687 643.734C-110.655 637.02 -26.7508 638.873 45.0421 640.532C80.9464 641.362 113.813 642.143 141.421 641.782C169.039 641.421 191.332 639.918 206.119 636.197L206.602 636.68Z"
            fill="url(#paint4_linear_10366_656810)" />
        <path
            d="M213.671 654.542L213.43 654.3L213.671 654.542ZM-434.614 875.139C-434.581 875.283 -434.759 875.396 -435.012 875.391C-435.265 875.387 -435.497 875.266 -435.529 875.122L-434.614 875.139ZM323.337 173.421C267.319 172.267 226.818 178.117 198.402 189.314C169.989 200.51 153.62 217.067 145.924 237.374C130.525 278.009 149.87 333.616 176.917 391.174C203.949 448.701 238.678 508.177 253.928 556.441C261.554 580.577 264.32 601.941 258.803 618.878C253.283 635.824 239.465 648.354 213.913 654.783L213.43 654.3C238.702 647.942 252.407 635.549 257.894 618.707C263.383 601.856 260.638 580.565 253.019 556.451C237.779 508.216 203.084 448.81 176.026 391.23C148.983 333.68 129.571 277.955 145.019 237.19C152.747 216.798 169.201 200.138 197.797 188.87C226.389 177.604 267.08 171.743 323.223 172.9L323.337 173.421ZM717.8 68.7007C741.346 70.3825 759.893 73.4213 773.431 77.4465C786.972 81.4724 795.548 86.5 799.05 92.1599C802.55 97.8177 800.937 104.04 794.348 110.429C787.759 116.818 776.171 123.397 759.628 129.789C693.464 155.353 547.702 178.046 323.337 173.421L323.223 172.9C547.499 177.523 693.058 154.833 759.028 129.343C775.518 122.972 787.014 116.433 793.531 110.115C800.048 103.796 801.562 97.7218 798.183 92.2585C794.804 86.7974 786.493 81.8794 773.11 77.9005C759.725 73.9208 741.31 70.8953 717.831 69.2184L717.8 68.7007ZM213.913 654.783C198.97 658.543 176.531 660.046 148.9 660.407C121.257 660.768 88.3573 659.986 52.4631 659.157C-19.3415 657.497 -103.161 655.647 -181.098 662.353C-259.033 669.059 -331.035 684.316 -379.241 716.85C-427.44 749.379 -451.898 799.213 -434.614 875.139L-435.529 875.122C-452.836 799.1 -428.36 749.126 -379.987 716.479C-331.62 683.837 -259.41 668.551 -181.376 661.837C-103.345 655.123 -19.4399 656.976 52.3529 658.635C88.2572 659.465 121.124 660.246 148.731 659.885C176.35 659.524 198.643 658.021 213.43 654.3L213.913 654.783Z"
            fill="url(#paint5_linear_10366_656810)" />
        <path
            d="M220.982 672.645L220.741 672.404L220.982 672.645ZM-427.303 893.242C-427.27 893.386 -427.448 893.499 -427.701 893.495C-427.954 893.49 -428.186 893.37 -428.218 893.226L-427.303 893.242ZM330.648 191.525C274.631 190.37 234.129 196.22 205.713 207.417C177.301 218.613 160.931 235.17 153.235 255.478C137.836 296.112 157.181 351.72 184.228 409.278C211.26 466.805 245.99 526.281 261.239 574.545C268.865 598.681 271.631 620.044 266.114 636.982C260.594 653.927 246.776 666.458 221.224 672.887L220.741 672.404C246.013 666.045 259.718 653.653 265.205 636.81C270.694 619.959 267.949 598.668 260.33 574.555C245.09 526.32 210.395 466.914 183.337 409.333C156.294 351.784 136.882 296.058 152.33 255.293C160.058 234.901 176.512 218.242 205.108 206.974C233.7 195.707 274.391 189.846 330.534 191.003L330.648 191.525ZM725.111 86.8043C748.657 88.486 767.204 91.5248 780.742 95.55C794.283 99.5759 802.86 104.603 806.361 110.263C809.861 115.921 808.248 122.143 801.659 128.532C795.07 134.921 783.482 141.5 766.939 147.892C700.775 173.457 555.013 196.15 330.648 191.525L330.534 191.003C554.811 195.626 700.369 172.936 766.339 147.447C782.829 141.075 794.326 134.537 800.842 128.218C807.359 121.9 808.873 115.825 805.494 110.362C802.115 104.901 793.804 99.983 780.421 96.004C767.036 92.0244 748.621 88.9989 725.142 87.3219L725.111 86.8043ZM221.224 672.887C206.281 676.646 183.842 678.149 156.211 678.51C128.568 678.872 95.6684 678.09 59.7742 677.26C-12.0304 675.601 -95.8504 673.751 -173.787 680.457C-251.722 687.162 -323.724 702.42 -371.93 734.953C-420.129 767.483 -444.587 817.316 -427.303 893.242L-428.218 893.226C-445.525 817.203 -421.049 767.229 -372.676 734.583C-324.309 701.941 -252.099 686.655 -174.065 679.94C-96.0335 673.226 -12.1289 675.08 59.664 676.739C95.5683 677.568 128.435 678.349 156.043 677.989C183.661 677.628 205.954 676.124 220.741 672.404L221.224 672.887Z"
            fill="url(#paint6_linear_10366_656810)" />
        <path
            d="M228.294 690.748L228.053 690.507L228.294 690.748ZM-419.991 911.345C-419.958 911.489 -420.136 911.602 -420.389 911.598C-420.642 911.593 -420.874 911.473 -420.906 911.329L-419.991 911.345ZM337.96 209.628C281.943 208.473 241.441 214.323 213.025 225.52C184.613 236.716 168.243 253.273 160.547 273.581C145.149 314.216 164.493 369.823 191.54 427.381C218.573 484.908 253.302 544.384 268.551 592.648C276.177 616.784 278.943 638.147 273.426 655.085C267.906 672.03 254.088 684.561 228.536 690.99L228.053 690.507C253.325 684.148 267.03 671.756 272.517 654.913C278.006 638.062 275.261 616.772 267.642 592.658C252.402 544.423 217.707 485.017 190.649 427.436C163.606 369.887 144.194 314.161 159.642 273.396C167.37 253.004 183.824 236.345 212.42 225.077C241.012 213.81 281.703 207.949 337.846 209.106L337.96 209.628ZM732.423 104.907C755.97 106.589 774.516 109.628 788.055 113.653C801.595 117.679 810.172 122.706 813.673 128.366C817.173 134.024 815.56 140.246 808.971 146.635C802.382 153.024 790.794 159.603 774.251 165.995C708.087 191.56 562.325 214.253 337.96 209.628L337.846 209.106C562.123 213.729 707.681 191.039 773.651 165.55C790.141 159.178 801.638 152.64 808.154 146.321C814.671 140.003 816.186 133.928 812.806 128.465C809.427 123.004 801.116 118.086 787.733 114.107C774.348 110.127 755.933 107.102 732.454 105.425L732.423 104.907ZM228.536 690.99C213.593 694.749 191.154 696.252 163.523 696.613C135.88 696.975 102.981 696.193 67.0863 695.363C-4.71827 693.704 -88.5383 691.854 -166.475 698.56C-244.41 705.265 -316.412 720.523 -364.618 753.056C-412.817 785.586 -437.275 835.419 -419.991 911.345L-420.906 911.329C-438.212 835.306 -413.737 785.332 -365.364 752.686C-316.997 720.044 -244.787 704.758 -166.753 698.043C-88.7214 691.329 -4.81673 693.183 66.9761 694.842C102.88 695.671 135.747 696.452 163.355 696.092C190.973 695.731 213.266 694.227 228.053 690.507L228.536 690.99Z"
            fill="url(#paint7_linear_10366_656810)" />
        <path
            d="M235.606 708.852L235.364 708.611L235.606 708.852ZM-412.679 929.449C-412.647 929.593 -412.825 929.706 -413.078 929.702C-413.331 929.697 -413.562 929.577 -413.595 929.433L-412.679 929.449ZM345.271 227.732C289.254 226.577 248.752 232.427 220.336 243.624C191.924 254.82 175.554 271.377 167.858 291.685C152.46 332.319 171.804 387.927 198.851 445.484C225.884 503.011 260.613 562.488 275.862 610.752C283.488 634.888 286.254 656.251 280.737 673.188C275.217 690.134 261.399 702.664 235.847 709.093L235.364 708.611C260.636 702.252 274.341 689.86 279.828 673.017C285.317 656.166 282.572 634.875 274.953 610.762C259.713 562.526 225.018 503.12 197.96 445.54C170.917 387.99 151.505 332.265 166.953 291.5C174.681 271.108 191.135 254.448 219.731 243.18C248.323 231.914 289.014 226.053 345.157 227.21L345.271 227.732ZM739.734 123.011C763.281 124.693 781.827 127.731 795.366 131.757C808.906 135.783 817.483 140.81 820.984 146.47C824.484 152.128 822.871 158.35 816.282 164.739C809.693 171.128 798.105 177.707 781.562 184.099C715.398 209.663 569.636 232.356 345.271 227.732L345.157 227.21C569.434 231.833 714.992 209.143 780.962 183.653C797.452 177.282 808.949 170.743 815.465 164.425C821.982 158.106 823.497 152.032 820.117 146.569C816.738 141.108 808.427 136.19 795.044 132.211C781.659 128.231 763.244 125.206 739.765 123.529L739.734 123.011ZM235.847 709.093C220.904 712.853 198.465 714.356 170.834 714.717C143.191 715.078 110.292 714.296 74.3974 713.467C2.5928 711.807 -81.2272 709.957 -159.164 716.663C-237.098 723.369 -309.101 738.627 -357.307 771.16C-405.506 803.689 -429.964 853.523 -412.679 929.449L-413.595 929.433C-430.901 853.41 -406.426 803.436 -358.053 770.789C-309.686 738.147 -237.476 722.861 -159.442 716.147C-81.4103 709.433 2.49431 711.286 74.2872 712.945C110.191 713.775 143.059 714.556 170.666 714.195C198.284 713.835 220.577 712.331 235.364 708.611L235.847 709.093Z"
            fill="url(#paint8_linear_10366_656810)" />
    </g>
</svg>
