<svg width="25" height="20" viewBox="0 0 25 20" fill="none" xmlns="http://www.w3.org/2000/svg">
<path fill-rule="evenodd" clip-rule="evenodd" d="M13.7948 1.59312C13.335 0.882696 12.2956 0.882696 11.8358 1.59312L10.743 3.28187C10.7001 3.34811 10.6167 3.37522 10.5431 3.34682L8.66632 2.62296C7.8768 2.31844 7.03588 2.92941 7.08152 3.77439L7.19 5.78298C7.19426 5.86176 7.1427 5.93272 7.06646 5.95302L5.12265 6.47053C4.30493 6.68824 3.98372 7.67681 4.51731 8.33358L5.7857 9.8948C5.83544 9.95603 5.83544 10.0438 5.7857 10.105L4.51731 11.6662C3.98372 12.323 4.30493 13.3115 5.12265 13.5293L7.06646 14.0468C7.1427 14.0671 7.19426 14.138 7.19 14.2168L7.08152 16.2254C7.03588 17.0704 7.8768 17.6813 8.66632 17.3768L10.5431 16.653C10.6167 16.6246 10.7001 16.6517 10.743 16.7179L11.8358 18.4067C12.2956 19.1171 13.335 19.1171 13.7948 18.4067L14.8876 16.7179C14.9305 16.6517 15.0139 16.6246 15.0875 16.653L16.9643 17.3768C17.7538 17.6813 18.5947 17.0704 18.5491 16.2254L18.4406 14.2168C18.4363 14.138 18.4879 14.0671 18.5641 14.0468L20.5079 13.5293C21.3257 13.3115 21.6469 12.323 21.1133 11.6662L19.8449 10.105C19.7951 10.0438 19.7951 9.95603 19.8449 9.8948L21.1133 8.33358C21.6469 7.67681 21.3257 6.68824 20.5079 6.47053L18.5641 5.95302C18.4879 5.93272 18.4363 5.86175 18.4406 5.78298L18.5491 3.77439C18.5947 2.92941 17.7538 2.31844 16.9643 2.62296L15.0875 3.34682C15.0139 3.37522 14.9305 3.34811 14.8876 3.28187L13.7948 1.59312ZM12.6754 2.13642C12.741 2.03493 12.8895 2.03493 12.9552 2.13642L14.0481 3.82517C14.3481 4.28881 14.9321 4.47856 15.4474 4.27983L17.3241 3.55596C17.4369 3.51246 17.557 3.59974 17.5505 3.72045L17.442 5.72904C17.4123 6.28049 17.7732 6.77728 18.3069 6.91936L20.2507 7.43687C20.3675 7.46797 20.4134 7.6092 20.3371 7.70302L19.0688 9.26424C18.7205 9.69286 18.7205 10.3069 19.0688 10.7355L20.3371 12.2968C20.4134 12.3906 20.3675 12.5318 20.2507 12.5629L18.3069 13.0804C17.7732 13.2225 17.4123 13.7193 17.442 14.2707L17.5505 16.2793C17.557 16.4 17.4369 16.4873 17.3241 16.4438L15.4474 15.72C14.9321 15.5212 14.3481 15.711 14.0481 16.1746L12.9552 17.8634C12.8895 17.9649 12.741 17.9649 12.6754 17.8634L11.5825 16.1746C11.2825 15.711 10.6985 15.5212 10.1832 15.72L8.30646 16.4438C8.19367 16.4873 8.07354 16.4 8.08006 16.2793L8.18855 14.2707C8.21833 13.7193 7.85739 13.2225 7.32373 13.0804L5.37993 12.5629C5.26311 12.5318 5.21722 12.3906 5.29345 12.2968L6.56184 10.7355C6.91006 10.3069 6.91007 9.69286 6.56184 9.26424L5.29345 7.70302C5.21722 7.6092 5.26311 7.46797 5.37993 7.43687L7.32373 6.91936C7.85739 6.77728 8.21833 6.28049 8.18855 5.72904L8.08006 3.72045C8.07354 3.59974 8.19367 3.51246 8.30646 3.55596L10.1832 4.27983C10.6985 4.47856 11.2825 4.28881 11.5825 3.82517L12.6754 2.13642ZM10.3153 9.99989C10.3153 8.61918 11.4346 7.49989 12.8153 7.49989C14.196 7.49989 15.3153 8.61918 15.3153 9.99989C15.3153 11.3806 14.196 12.4999 12.8153 12.4999C11.4346 12.4999 10.3153 11.3806 10.3153 9.99989ZM12.8153 6.49989C10.8823 6.49989 9.31529 8.0669 9.31529 9.99989C9.31529 11.9329 10.8823 13.4999 12.8153 13.4999C14.7483 13.4999 16.3153 11.9329 16.3153 9.99989C16.3153 8.0669 14.7483 6.49989 12.8153 6.49989Z" fill="white"/>
</svg>
