<svg width="40" height="40" viewBox="0 0 40 40" fill="none" xmlns="http://www.w3.org/2000/svg">
<circle cx="20" cy="20" r="19.5" stroke="#404076"/>
<path fill-rule="evenodd" clip-rule="evenodd" d="M11 11.4737C11 11.2121 11.2121 11 11.4737 11H28.5263C28.7879 11 29 11.2121 29 11.4737V18.1053C29 18.3669 28.7879 18.5789 28.5263 18.5789H11.4737C11.2121 18.5789 11 18.3669 11 18.1053V11.4737ZM11.9474 11.9474V17.6316H28.0526V11.9474H11.9474Z" fill="white"/>
<path fill-rule="evenodd" clip-rule="evenodd" d="M11 21.8948C11 21.6332 11.2121 21.4211 11.4737 21.4211H28.4737C28.7353 21.4211 28.9474 21.6332 28.9474 21.8948V28.5263C28.9474 28.788 28.7353 29 28.4737 29H11.4737C11.2121 29 11 28.788 11 28.5263V21.8948ZM11.9474 22.3684V28.0527H28V22.3684L11.9474 22.3684Z" fill="white"/>
</svg>
