<svg width="40" height="40" viewBox="0 0 40 40" fill="none" xmlns="http://www.w3.org/2000/svg">
<circle cx="20" cy="20" r="20" fill="#404076"/>
<path d="M17.0094 19.5531C16.7114 18.822 16.5595 18.0395 16.5625 17.25C16.5625 16.0262 16.9254 14.8299 17.6053 13.8124C18.2852 12.7949 19.2515 12.0018 20.3821 11.5335C21.5128 11.0652 22.7569 10.9426 23.9571 11.1814C25.1574 11.4201 26.2599 12.0094 27.1252 12.8748C27.9906 13.7401 28.5799 14.8426 28.8186 16.0429C29.0574 17.2431 28.9348 18.4872 28.4665 19.6179C27.9982 20.7485 27.2051 21.7148 26.1876 22.3947C25.1701 23.0746 23.9738 23.4375 22.75 23.4375C21.9605 23.4405 21.178 23.2887 20.4469 22.9906L19.3125 24.125H17.25V26.1875H15.1875V28.25H11.75V24.8125L17.0094 19.5531Z" fill="#7165E3" stroke="white" stroke-linecap="round" stroke-linejoin="round"/>
<path d="M24.4688 16.5625C25.0383 16.5625 25.5 16.1008 25.5 15.5312C25.5 14.9617 25.0383 14.5 24.4688 14.5C23.8992 14.5 23.4375 14.9617 23.4375 15.5312C23.4375 16.1008 23.8992 16.5625 24.4688 16.5625Z" fill="white"/>
<rect x="26" y="26" width="14" height="14" rx="7" fill="#01C27F"/>
<path d="M36.5 30.8125L31.6875 35.625L29.5 33.4375" stroke="white" stroke-linecap="round" stroke-linejoin="round"/>
</svg>
