<svg width="40" height="40" viewBox="0 0 40 40" fill="none" xmlns="http://www.w3.org/2000/svg">
<circle cx="20" cy="20" r="20" fill="#404076"/>
<path d="M12 13H28C29.1 13 30 13.8438 30 14.875V26.125C30 27.1562 29.1 28 28 28H12C10.9 28 10 27.1562 10 26.125V14.875C10 13.8438 10.9 13 12 13Z" fill="#7165E3" stroke="white" stroke-linecap="round" stroke-linejoin="round"/>
<path d="M19.7725 24.572V22.7731C19.7725 22.324 19.5941 21.8934 19.2766 21.5758C18.9591 21.2583 18.5284 21.0799 18.0794 21.0799H14.6931C14.2441 21.0799 13.8134 21.2583 13.4959 21.5758C13.1784 21.8934 13 22.324 13 22.7731V24.572" stroke="white" stroke-linecap="round" stroke-linejoin="round"/>
<path d="M16.3862 19.3867C17.3213 19.3867 18.0794 18.6286 18.0794 17.6935C18.0794 16.7584 17.3213 16.0004 16.3862 16.0004C15.4512 16.0004 14.6931 16.7584 14.6931 17.6935C14.6931 18.6286 15.4512 19.3867 16.3862 19.3867Z" stroke="white" stroke-linecap="round" stroke-linejoin="round"/>
<path d="M22.5237 17.9052H27.2856" stroke="white" stroke-linecap="round"/>
<path d="M22.5237 20.7623H27.2856" stroke="white" stroke-linecap="round"/>
<path d="M22.5237 23.6195H26.3332" stroke="white" stroke-linecap="round"/>
</svg>
