<svg width="48" height="48" viewBox="0 0 48 48" fill="none" xmlns="http://www.w3.org/2000/svg">
<path d="M9.19922 11.4992C9.19922 10.5711 9.56788 9.68112 10.2241 9.02489C10.8803 8.36866 11.7704 8 12.6984 8H19.3142V15.3841C19.3142 15.8436 19.4047 16.2986 19.5806 16.7232C19.7564 17.1477 20.0142 17.5334 20.3391 17.8584C20.9953 18.5146 21.8854 18.8833 22.8134 18.8833H30.1944V31.7168C30.1944 32.6448 29.8257 33.5348 29.1695 34.1911C28.5133 34.8473 27.6232 35.2159 26.6952 35.2159H12.6984C11.7704 35.2159 10.8803 34.8473 10.2241 34.1911C9.56788 33.5348 9.19922 32.6448 9.19922 31.7168V11.4992ZM21.647 15.3841V12.056V8.72783C21.7652 8.81803 21.8803 8.91757 21.986 9.02487L29.1695 16.2083C29.2784 16.3172 29.3779 16.4307 29.4697 16.5505H22.8134C22.5041 16.5505 22.2074 16.4276 21.9886 16.2088C21.7699 15.9901 21.647 15.6934 21.647 15.3841Z" fill="#5E5CC2"/>
<path d="M24.3481 21.6079H12.4412" stroke="white" stroke-linecap="round" stroke-linejoin="round"/>
<path d="M19.2451 25.0098H12.4412" stroke="white" stroke-linecap="round" stroke-linejoin="round"/>
<path d="M17.5424 18.2061H13.7327H12.4395" stroke="white" stroke-linecap="round" stroke-linejoin="round"/>
<circle cx="30.3007" cy="31.5" r="8" fill="#5E5CC2" stroke="#141432"/>
<path fill-rule="evenodd" clip-rule="evenodd" d="M28.0424 26.3302C28.0424 26.1479 27.9 26 27.7244 26C27.5488 26 27.4065 26.1479 27.4065 26.3302V27.5843H27.0104C26.4524 27.5843 26 28.0542 26 28.6338V32.7404C26 33.32 26.4524 33.7899 27.0104 33.7899H27.4065V35.0442C27.4065 35.2266 27.5488 35.3744 27.7244 35.3744C27.9 35.3744 28.0424 35.2266 28.0424 35.0442V33.7899H28.4579C29.0159 33.7899 29.4682 33.32 29.4682 32.7404V28.6338C29.4682 28.0542 29.0159 27.5843 28.4579 27.5843H28.0424V26.3302ZM26.6359 28.6338C26.6359 28.4189 26.8035 28.2448 27.0104 28.2448H28.4579C28.6647 28.2448 28.8324 28.4189 28.8324 28.6338V32.7404C28.8324 32.9552 28.6647 33.1294 28.4579 33.1294H27.0104C26.8035 33.1294 26.6359 32.9552 26.6359 32.7404V28.6338ZM31.5421 29.2099C30.9841 29.2099 30.5318 29.6797 30.5318 30.2594V34.366C30.5318 34.9456 30.9841 35.4155 31.5421 35.4155H31.9383V36.6698C31.9383 36.8521 32.0806 37 32.2562 37C32.4318 37 32.5741 36.8521 32.5741 36.6698V35.4155H32.9896C33.5476 35.4155 34 34.9456 34 34.366V30.2594C34 29.6797 33.5476 29.2099 32.9896 29.2099H32.5741V27.9558C32.5741 27.7734 32.4318 27.6256 32.2562 27.6256C32.0806 27.6256 31.9383 27.7734 31.9383 27.9558V29.2099H31.5421ZM31.1676 30.2594C31.1676 30.0445 31.3353 29.8703 31.5421 29.8703H32.9896C33.1965 29.8703 33.3641 30.0445 33.3641 30.2594V34.366C33.3641 34.5808 33.1965 34.755 32.9896 34.755H31.5421C31.3353 34.755 31.1676 34.5808 31.1676 34.366V30.2594Z" fill="white"/>
</svg>
