<svg width="16" height="10" viewBox="0 0 16 10" fill="none" xmlns="http://www.w3.org/2000/svg">
<path fill-rule="evenodd" clip-rule="evenodd" d="M0.587891 0.941178C0.587891 0.648792 0.824916 0.411766 1.1173 0.411766H14.882C15.1744 0.411766 15.4114 0.648792 15.4114 0.941178C15.4114 1.23356 15.1744 1.47059 14.882 1.47059H1.1173C0.824916 1.47059 0.587891 1.23356 0.587891 0.941178Z" fill="white" fill-opacity="0.5"/>
<path fill-rule="evenodd" clip-rule="evenodd" d="M0.587891 5C0.587891 4.70761 0.824916 4.47059 1.1173 4.47059H14.882C15.1744 4.47059 15.4114 4.70761 15.4114 5C15.4114 5.29239 15.1744 5.52941 14.882 5.52941H1.1173C0.824916 5.52941 0.587891 5.29239 0.587891 5Z" fill="white" fill-opacity="0.5"/>
<path fill-rule="evenodd" clip-rule="evenodd" d="M0.587891 9.05882C0.587891 8.76644 0.824916 8.52941 1.1173 8.52941H14.882C15.1744 8.52941 15.4114 8.76644 15.4114 9.05882C15.4114 9.35121 15.1744 9.58823 14.882 9.58823H1.1173C0.824916 9.58823 0.587891 9.35121 0.587891 9.05882Z" fill="white" fill-opacity="0.5"/>
</svg>
