<svg width="48" height="48" viewBox="0 0 48 48" fill="none" xmlns="http://www.w3.org/2000/svg">
<g clip-path="url(#clip0_6161_141761)">
<path d="M11.6666 13.021C11.6666 12.1756 12.0025 11.3649 12.6002 10.7671C13.198 10.1693 14.0087 9.8335 14.8541 9.8335H20.8806V16.5598C20.8806 16.9784 20.9631 17.3929 21.1233 17.7796C21.2834 18.1664 21.5182 18.5177 21.8142 18.8137C22.412 19.4115 23.2227 19.7473 24.0681 19.7473H30.7916V31.4377C30.7916 32.283 30.4558 33.0938 29.858 33.6916C29.2603 34.2893 28.4495 34.6252 27.6041 34.6252H14.8541C14.0087 34.6252 13.198 34.2893 12.6002 33.6916C12.0025 33.0938 11.6666 32.283 11.6666 31.4377V13.021ZM23.0056 16.5598V10.4965C23.1133 10.5787 23.2181 10.6693 23.3145 10.7671L29.858 17.3107C29.9572 17.4098 30.0479 17.5132 30.1315 17.6223H24.0681C23.7863 17.6223 23.5161 17.5104 23.3168 17.3111C23.1176 17.1119 23.0056 16.8416 23.0056 16.5598ZM15.391 36.0418C15.6107 36.6632 16.0176 37.2012 16.5558 37.5818C17.0939 37.9623 17.7367 38.1667 18.3958 38.1668H27.6041C28.4878 38.1668 29.3628 37.9928 30.1793 37.6546C30.9957 37.3164 31.7375 36.8208 32.3624 36.1959C32.9872 35.571 33.4829 34.8292 33.8211 34.0128C34.1592 33.1964 34.3333 32.3213 34.3333 31.4377V23.1062C34.3331 22.6876 34.2504 22.273 34.09 21.8863C33.9296 21.4995 33.6945 21.1482 33.3983 20.8523L32.2083 19.6609V31.4377C32.2083 32.6588 31.7232 33.8299 30.8598 34.6933C29.9963 35.5567 28.8252 36.0418 27.6041 36.0418H15.391Z" fill="#5E5CC2"/>
<path d="M16 23.999H26" stroke="#EAECEF" stroke-linecap="round"/>
<path d="M16 27H21" stroke="#EAECEF" stroke-linecap="round"/>
<path d="M16 29.999H26" stroke="#EAECEF" stroke-linecap="round"/>
</g>
<defs>
<clipPath id="clip0_6161_141761">
<rect width="33" height="33" fill="white" transform="translate(7.5 7.5)"/>
</clipPath>
</defs>
</svg>
