<svg width="358" height="187" viewBox="0 0 358 187" fill="none" xmlns="http://www.w3.org/2000/svg">
    <path d="M2.3291 19H3.39844V11.9541H2.31934L0.463867 13.2725V14.3467L2.30469 13.0381H2.3291V19ZM7.68555 19.1318C9.375 19.1318 10.3662 17.7109 10.3662 15.4648C10.3662 13.2334 9.37012 11.8223 7.68555 11.8223C6.00586 11.8223 4.99512 13.2383 4.99512 15.4697C4.99512 17.7158 5.99609 19.1318 7.68555 19.1318ZM7.68555 18.2139C6.67969 18.2139 6.10352 17.1689 6.10352 15.4697C6.10352 13.7949 6.68945 12.7402 7.68555 12.7402C8.68164 12.7402 9.2627 13.79 9.2627 15.4697C9.2627 17.1738 8.69141 18.2139 7.68555 18.2139ZM13.8525 19.1318C15.3711 19.1318 16.4355 18.1309 16.4355 16.6855C16.4355 15.3184 15.4639 14.3271 14.1113 14.3271C13.4229 14.3271 12.8467 14.5957 12.5391 15.04H12.5146L12.71 12.877H16.0254V11.9541H11.8311L11.46 15.9385H12.4609C12.7344 15.4746 13.2617 15.1963 13.8721 15.1963C14.751 15.1963 15.3662 15.8311 15.3662 16.7148C15.3662 17.5986 14.751 18.2188 13.8623 18.2188C13.0762 18.2188 12.4756 17.7402 12.3975 17.042H11.3525C11.416 18.2725 12.4463 19.1318 13.8525 19.1318ZM19.8926 19.1318C21.582 19.1318 22.5732 17.7109 22.5732 15.4648C22.5732 13.2334 21.5771 11.8223 19.8926 11.8223C18.2129 11.8223 17.2021 13.2383 17.2021 15.4697C17.2021 17.7158 18.2031 19.1318 19.8926 19.1318ZM19.8926 18.2139C18.8867 18.2139 18.3105 17.1689 18.3105 15.4697C18.3105 13.7949 18.8965 12.7402 19.8926 12.7402C20.8887 12.7402 21.4697 13.79 21.4697 15.4697C21.4697 17.1738 20.8984 18.2139 19.8926 18.2139Z" fill="white" fill-opacity="0.5"/>
    <path d="M2.3291 52.25H3.39844V45.2041H2.31934L0.463867 46.5225V47.5967L2.30469 46.2881H2.3291V52.25ZM7.68555 52.3818C9.375 52.3818 10.3662 50.9609 10.3662 48.7148C10.3662 46.4834 9.37012 45.0723 7.68555 45.0723C6.00586 45.0723 4.99512 46.4883 4.99512 48.7197C4.99512 50.9658 5.99609 52.3818 7.68555 52.3818ZM7.68555 51.4639C6.67969 51.4639 6.10352 50.4189 6.10352 48.7197C6.10352 47.0449 6.68945 45.9902 7.68555 45.9902C8.68164 45.9902 9.2627 47.04 9.2627 48.7197C9.2627 50.4238 8.69141 51.4639 7.68555 51.4639ZM14.6973 52.25H15.7471V50.8584H16.7139V49.9404H15.7471V45.2041H14.165C12.5781 47.499 11.7773 48.7637 11.1719 49.9014V50.8584H14.6973V52.25ZM12.1924 49.9307C12.7539 48.9102 13.4668 47.8115 14.6875 46.0488H14.707V49.9551H12.1924V49.9307ZM20.127 52.3818C21.8164 52.3818 22.8076 50.9609 22.8076 48.7148C22.8076 46.4834 21.8115 45.0723 20.127 45.0723C18.4473 45.0723 17.4365 46.4883 17.4365 48.7197C17.4365 50.9658 18.4375 52.3818 20.127 52.3818ZM20.127 51.4639C19.1211 51.4639 18.5449 50.4189 18.5449 48.7197C18.5449 47.0449 19.1309 45.9902 20.127 45.9902C21.123 45.9902 21.7041 47.04 21.7041 48.7197C21.7041 50.4238 21.1328 51.4639 20.127 51.4639Z" fill="white" fill-opacity="0.5"/>
    <path d="M2.3291 85.5H3.39844V78.4541H2.31934L0.463867 79.7725V80.8467L2.30469 79.5381H2.3291V85.5ZM7.68555 85.6318C9.375 85.6318 10.3662 84.2109 10.3662 81.9648C10.3662 79.7334 9.37012 78.3223 7.68555 78.3223C6.00586 78.3223 4.99512 79.7383 4.99512 81.9697C4.99512 84.2158 5.99609 85.6318 7.68555 85.6318ZM7.68555 84.7139C6.67969 84.7139 6.10352 83.6689 6.10352 81.9697C6.10352 80.2949 6.68945 79.2402 7.68555 79.2402C8.68164 79.2402 9.2627 80.29 9.2627 81.9697C9.2627 83.6738 8.69141 84.7139 7.68555 84.7139ZM12.8809 82.3115H13.7598C14.6875 82.3115 15.2637 82.7803 15.2637 83.542C15.2637 84.2305 14.6484 84.7188 13.7891 84.7188C12.9004 84.7188 12.3438 84.2549 12.2754 83.5811H11.2256C11.2939 84.7969 12.2705 85.6318 13.7891 85.6318C15.2588 85.6318 16.377 84.7871 16.377 83.5566C16.377 82.5703 15.6934 81.9209 14.6338 81.8477V81.8281C15.5078 81.6719 16.084 81.042 16.084 80.1631C16.084 79.0791 15.1123 78.3223 13.7793 78.3223C12.3828 78.3223 11.4502 79.1182 11.3672 80.3535H12.3975C12.4609 79.6602 12.9688 79.2207 13.7305 79.2207C14.5654 79.2207 15.0146 79.6553 15.0146 80.3096C15.0146 80.9736 14.4922 81.4521 13.7305 81.4521H12.8809V82.3115ZM19.9707 85.6318C21.6602 85.6318 22.6514 84.2109 22.6514 81.9648C22.6514 79.7334 21.6553 78.3223 19.9707 78.3223C18.291 78.3223 17.2803 79.7383 17.2803 81.9697C17.2803 84.2158 18.2812 85.6318 19.9707 85.6318ZM19.9707 84.7139C18.9648 84.7139 18.3887 83.6689 18.3887 81.9697C18.3887 80.2949 18.9746 79.2402 19.9707 79.2402C20.9668 79.2402 21.5479 80.29 21.5479 81.9697C21.5479 83.6738 20.9766 84.7139 19.9707 84.7139Z" fill="white" fill-opacity="0.5"/>
    <path d="M2.3291 118.75H3.39844V111.704H2.31934L0.463867 113.022V114.097L2.30469 112.788H2.3291V118.75ZM7.68555 118.882C9.375 118.882 10.3662 117.461 10.3662 115.215C10.3662 112.983 9.37012 111.572 7.68555 111.572C6.00586 111.572 4.99512 112.988 4.99512 115.22C4.99512 117.466 5.99609 118.882 7.68555 118.882ZM7.68555 117.964C6.67969 117.964 6.10352 116.919 6.10352 115.22C6.10352 113.545 6.68945 112.49 7.68555 112.49C8.68164 112.49 9.2627 113.54 9.2627 115.22C9.2627 116.924 8.69141 117.964 7.68555 117.964ZM11.2109 113.77V113.779H12.2461V113.765C12.2461 113.032 12.8271 112.476 13.5986 112.476C14.3311 112.476 14.8975 112.974 14.8975 113.599C14.8975 114.15 14.6729 114.521 13.8135 115.415L11.2695 118.008V118.75H16.0889V117.827H12.7441V117.803L14.5068 116.03C15.5371 114.976 15.9766 114.365 15.9766 113.545C15.9766 112.427 14.9756 111.572 13.6328 111.572C12.2314 111.572 11.2109 112.5 11.2109 113.77ZM19.6289 118.882C21.3184 118.882 22.3096 117.461 22.3096 115.215C22.3096 112.983 21.3135 111.572 19.6289 111.572C17.9492 111.572 16.9385 112.988 16.9385 115.22C16.9385 117.466 17.9395 118.882 19.6289 118.882ZM19.6289 117.964C18.623 117.964 18.0469 116.919 18.0469 115.22C18.0469 113.545 18.6328 112.49 19.6289 112.49C20.625 112.49 21.2061 113.54 21.2061 115.22C21.2061 116.924 20.6348 117.964 19.6289 117.964Z" fill="white" fill-opacity="0.5"/>
    <path d="M3.45881 144.727V152H2.35795V145.828H2.31534L0.575284 146.964V145.913L2.38991 144.727H3.45881ZM7.9581 152.121C7.39702 152.118 6.91761 151.97 6.51989 151.677C6.12216 151.383 5.81795 150.956 5.60724 150.395C5.39654 149.834 5.29119 149.158 5.29119 148.367C5.29119 147.579 5.39654 146.905 5.60724 146.347C5.82031 145.788 6.12571 145.362 6.52344 145.068C6.92353 144.775 7.40175 144.628 7.9581 144.628C8.51444 144.628 8.99148 144.776 9.3892 145.072C9.78693 145.365 10.0911 145.791 10.3018 146.35C10.5149 146.906 10.6214 147.579 10.6214 148.367C10.6214 149.16 10.5161 149.837 10.3054 150.398C10.0947 150.957 9.79048 151.384 9.39276 151.68C8.99503 151.974 8.51681 152.121 7.9581 152.121ZM7.9581 151.173C8.45052 151.173 8.83523 150.932 9.11222 150.452C9.39157 149.971 9.53125 149.276 9.53125 148.367C9.53125 147.763 9.46733 147.253 9.33949 146.837C9.21402 146.418 9.03291 146.1 8.79616 145.885C8.56179 145.667 8.28243 145.558 7.9581 145.558C7.46804 145.558 7.08333 145.8 6.80398 146.283C6.52462 146.766 6.38376 147.46 6.38139 148.367C6.38139 148.973 6.44413 149.486 6.5696 149.905C6.69744 150.321 6.87855 150.638 7.11293 150.853C7.3473 151.066 7.62902 151.173 7.9581 151.173ZM14.6404 144.727V152H13.5396V145.828H13.497L11.7569 146.964V145.913L13.5716 144.727H14.6404ZM19.1397 152.121C18.5787 152.118 18.0993 151.97 17.7015 151.677C17.3038 151.383 16.9996 150.956 16.7889 150.395C16.5782 149.834 16.4728 149.158 16.4728 148.367C16.4728 147.579 16.5782 146.905 16.7889 146.347C17.002 145.788 17.3074 145.362 17.7051 145.068C18.1052 144.775 18.5834 144.628 19.1397 144.628C19.6961 144.628 20.1731 144.776 20.5708 145.072C20.9686 145.365 21.2728 145.791 21.4835 146.35C21.6966 146.906 21.8031 147.579 21.8031 148.367C21.8031 149.16 21.6977 149.837 21.487 150.398C21.2763 150.957 20.9721 151.384 20.5744 151.68C20.1767 151.974 19.6984 152.121 19.1397 152.121ZM19.1397 151.173C19.6322 151.173 20.0169 150.932 20.2939 150.452C20.5732 149.971 20.7129 149.276 20.7129 148.367C20.7129 147.763 20.649 147.253 20.5211 146.837C20.3957 146.418 20.2145 146.1 19.9778 145.885C19.7434 145.667 19.4641 145.558 19.1397 145.558C18.6497 145.558 18.265 145.8 17.9856 146.283C17.7063 146.766 17.5654 147.46 17.563 148.367C17.563 148.973 17.6258 149.486 17.7512 149.905C17.8791 150.321 18.0602 150.638 18.2946 150.853C18.5289 151.066 18.8107 151.173 19.1397 151.173Z" fill="white" fill-opacity="0.5"/>
    <line x1="32" y1="148.25" x2="358" y2="148.25" stroke="white" stroke-opacity="0.3" stroke-width="0.5" stroke-dasharray="4 4"/>
    <line x1="32" y1="115.25" x2="358" y2="115.25" stroke="white" stroke-opacity="0.3" stroke-width="0.5" stroke-dasharray="4 4"/>
    <line x1="32" y1="82.25" x2="358" y2="82.25" stroke="white" stroke-opacity="0.3" stroke-width="0.5" stroke-dasharray="4 4"/>
    <line x1="32" y1="49.25" x2="358" y2="49.25" stroke="white" stroke-opacity="0.3" stroke-width="0.5" stroke-dasharray="4 4"/>
    <line x1="32" y1="16.25" x2="358" y2="16.25" stroke="white" stroke-opacity="0.3" stroke-width="0.5" stroke-dasharray="4 4"/>
    <path d="M51 149L87.0351 99.8667L123.526 133.119L160.018 82L196.509 99.8667L233 82" stroke="#7165E3" stroke-width="2" stroke-linecap="round"/>
    <path d="M233 82L340 149" stroke="#7165E3" stroke-width="2" stroke-linecap="round" stroke-dasharray="6 6"/>
    <path d="M233 82L340 16" stroke="#7165E3" stroke-width="2" stroke-linecap="round" stroke-dasharray="6 6"/>
    <path d="M51 50H338" stroke="#01C27F" stroke-width="2" stroke-linecap="round"/>
    <path d="M51 116H338" stroke="#EE3F3F" stroke-width="2" stroke-linecap="round"/>
    <path d="M187.479 83H189.793L184.705 68.9082H182.342L177.254 83H179.529L180.818 79.1914H186.189L187.479 83ZM183.475 71.252H183.533L185.633 77.4336H181.375L183.475 71.252Z" fill="white"/>
    <circle cx="195.5" cy="98" r="7" fill="#7165E3" stroke="#0B0B25" stroke-width="2"/>
    <path d="M272.09 36C275.098 36 276.904 34.4961 276.904 32.0156C276.904 30.1406 275.605 28.7832 273.701 28.5684V28.4902C275.107 28.2559 276.201 26.918 276.201 25.4238C276.201 23.2949 274.561 21.9082 272.07 21.9082H266.299V36H272.09ZM268.486 23.6953H271.533C273.125 23.6953 274.023 24.418 274.023 25.7266C274.023 27.123 272.979 27.9043 271.074 27.9043H268.486V23.6953ZM268.486 34.2129V29.5742H271.523C273.584 29.5742 274.668 30.3555 274.668 31.8789C274.668 33.4023 273.623 34.2129 271.65 34.2129H268.486Z" fill="white"/>
    <circle cx="283.5" cy="51" r="7" fill="#01C27F" stroke="#0B0B25" stroke-width="2"/>
    <path d="M275.246 101.234C278.488 101.234 280.695 99.5254 281.232 96.6152H279.055C278.615 98.3145 277.219 99.3203 275.256 99.3203C272.668 99.3203 271.027 97.2402 271.027 93.9492C271.027 90.6875 272.688 88.5879 275.246 88.5879C277.16 88.5879 278.664 89.7695 279.055 91.5762H281.223C280.852 88.6367 278.439 86.6738 275.246 86.6738C271.311 86.6738 268.791 89.4863 268.791 93.9492C268.791 98.4414 271.291 101.234 275.246 101.234Z" fill="white"/>
    <circle cx="286.5" cy="116" r="7" fill="#EE3F3F" stroke="#0B0B25" stroke-width="2"/>
    <path d="M303.299 107.908V122H308.348C312.547 122 315.018 119.383 315.018 114.93C315.018 110.486 312.547 107.908 308.348 107.908H303.299ZM305.486 109.793H308.143C311.131 109.793 312.791 111.629 312.791 114.949C312.791 118.279 311.131 120.105 308.143 120.105H305.486V109.793Z" fill="white"/>
    <circle cx="320.5" cy="137" r="7" fill="#7165E3" stroke="#0B0B25" stroke-width="2"/>
    <path d="M49.9404 176H51.0098V168.954H49.9307L48.0752 170.272V171.347L49.916 170.038H49.9404V176Z" fill="white" fill-opacity="0.5"/>
    <path d="M83.8223 171.02V171.029H84.8574V171.015C84.8574 170.282 85.4385 169.726 86.21 169.726C86.9424 169.726 87.5088 170.224 87.5088 170.849C87.5088 171.4 87.2842 171.771 86.4248 172.665L83.8809 175.258V176H88.7002V175.077H85.3555V175.053L87.1182 173.28C88.1484 172.226 88.5879 171.615 88.5879 170.795C88.5879 169.677 87.5869 168.822 86.2441 168.822C84.8428 168.822 83.8223 169.75 83.8223 171.02Z" fill="white" fill-opacity="0.5"/>
    <path d="M121.136 172.812H122.015C122.942 172.812 123.519 173.28 123.519 174.042C123.519 174.73 122.903 175.219 122.044 175.219C121.155 175.219 120.599 174.755 120.53 174.081H119.48C119.549 175.297 120.525 176.132 122.044 176.132C123.514 176.132 124.632 175.287 124.632 174.057C124.632 173.07 123.948 172.421 122.889 172.348V172.328C123.763 172.172 124.339 171.542 124.339 170.663C124.339 169.579 123.367 168.822 122.034 168.822C120.638 168.822 119.705 169.618 119.622 170.854H120.652C120.716 170.16 121.224 169.721 121.985 169.721C122.82 169.721 123.27 170.155 123.27 170.81C123.27 171.474 122.747 171.952 121.985 171.952H121.136V172.812Z" fill="white" fill-opacity="0.5"/>
    <path d="M159.175 176H160.225V174.608H161.191V173.69H160.225V168.954H158.643C157.056 171.249 156.255 172.514 155.649 173.651V174.608H159.175V176ZM156.67 173.681C157.231 172.66 157.944 171.562 159.165 169.799H159.185V173.705H156.67V173.681Z" fill="white" fill-opacity="0.5"/>
    <path d="M195.071 176.132C196.59 176.132 197.654 175.131 197.654 173.686C197.654 172.318 196.683 171.327 195.33 171.327C194.642 171.327 194.065 171.596 193.758 172.04H193.733L193.929 169.877H197.244V168.954H193.05L192.679 172.938H193.68C193.953 172.475 194.48 172.196 195.091 172.196C195.97 172.196 196.585 172.831 196.585 173.715C196.585 174.599 195.97 175.219 195.081 175.219C194.295 175.219 193.694 174.74 193.616 174.042H192.571C192.635 175.272 193.665 176.132 195.071 176.132Z" fill="white" fill-opacity="0.5"/>
    <path d="M230.921 176.137C232.415 176.137 233.494 175.111 233.494 173.7C233.494 172.362 232.498 171.371 231.155 171.371C230.276 171.371 229.529 171.83 229.222 172.514H229.202C229.207 170.741 229.852 169.735 230.96 169.735C231.604 169.735 232.132 170.111 232.303 170.688H233.396C233.182 169.564 232.215 168.817 230.97 168.817C229.207 168.817 228.152 170.214 228.152 172.572C228.152 173.397 228.299 174.091 228.587 174.652C229.046 175.604 229.881 176.137 230.921 176.137ZM230.911 175.214C230.071 175.214 229.422 174.55 229.422 173.715C229.422 172.88 230.062 172.265 230.921 172.265C231.785 172.265 232.405 172.88 232.405 173.734C232.405 174.56 231.741 175.214 230.911 175.214Z" fill="white" fill-opacity="0.5"/>
    <path d="M265.382 176H266.529L269.591 169.901V168.954H264.796V169.877H268.512V169.901L265.382 176Z" fill="white" fill-opacity="0.5"/>
    <path d="M303.258 176.132C304.82 176.132 305.924 175.292 305.924 174.096C305.924 173.202 305.294 172.479 304.356 172.284V172.26C305.138 172.035 305.636 171.43 305.636 170.683C305.636 169.604 304.645 168.822 303.258 168.822C301.876 168.822 300.875 169.608 300.875 170.678C300.875 171.435 301.378 172.045 302.159 172.26V172.284C301.227 172.479 300.592 173.197 300.592 174.096C300.592 175.287 301.686 176.132 303.258 176.132ZM303.258 175.253C302.359 175.253 301.72 174.735 301.72 174.018C301.72 173.295 302.359 172.772 303.258 172.772C304.156 172.772 304.791 173.29 304.791 174.018C304.791 174.735 304.156 175.253 303.258 175.253ZM303.258 171.894C302.491 171.894 301.959 171.435 301.959 170.795C301.959 170.15 302.491 169.691 303.258 169.691C304.02 169.691 304.557 170.15 304.557 170.795C304.557 171.435 304.015 171.894 303.258 171.894Z" fill="white" fill-opacity="0.5"/>
    <path d="M339.299 176.132C341.066 176.132 342.111 174.735 342.111 172.377C342.111 171.552 341.965 170.858 341.677 170.297C341.223 169.35 340.383 168.817 339.338 168.817C337.849 168.817 336.765 169.843 336.765 171.254C336.765 172.592 337.766 173.583 339.104 173.583C340.012 173.583 340.754 173.124 341.037 172.431H341.042H341.047C341.052 172.431 341.057 172.431 341.057 172.431C341.057 174.208 340.412 175.224 339.313 175.224C338.664 175.224 338.127 174.838 337.961 174.262H336.862C337.072 175.38 338.044 176.132 339.299 176.132ZM339.338 172.689C338.483 172.689 337.854 172.064 337.854 171.22C337.854 170.399 338.513 169.75 339.353 169.75C340.192 169.75 340.847 170.404 340.847 171.239C340.847 172.069 340.202 172.689 339.338 172.689Z" fill="white" fill-opacity="0.5"/>
</svg>
