<svg width="40" height="40" viewBox="0 0 40 40" fill="none" xmlns="http://www.w3.org/2000/svg">
<circle cx="20" cy="20" r="20" fill="#404076"/>
<path d="M20 10.8333L28.25 13.5833L27.7917 16.7917L27.4769 21.1991C27.2493 24.3843 25.204 27.1522 22.226 28.305L20 29.1667L17.774 28.305C14.796 27.1522 12.7507 24.3843 12.5231 21.1991L12.2083 16.7917L11.75 13.5833L20 10.8333Z" fill="#7165E3" stroke="white" stroke-width="0.916667" stroke-linecap="round" stroke-linejoin="round"/>
<rect x="9.45833" y="15.875" width="21.0833" height="8.25" rx="0.458333" fill="#7165E3" stroke="white" stroke-width="0.916667"/>
<path d="M15.7574 21.2819L16.1569 20.5608L14.9353 20.0047L16.1569 19.4486L15.7574 18.7228L14.669 19.5523L14.8159 18.1667H14.0076L14.1546 19.5523L13.0616 18.7228L12.6666 19.4486L13.8882 20.0047L12.6666 20.5608L13.0616 21.2819L14.15 20.4666L14.0076 21.8333H14.8159L14.6736 20.4713L15.7574 21.2819Z" fill="white"/>
<path d="M21.3456 21.2819L21.7451 20.5608L20.5235 20.0047L21.7451 19.4486L21.3456 18.7228L20.2571 19.5523L20.4041 18.1667H19.5958L19.7428 19.5523L18.6498 18.7228L18.2548 19.4486L19.4764 20.0047L18.2548 20.5608L18.6498 21.2819L19.7382 20.4666L19.5958 21.8333H20.4041L20.2617 20.4713L21.3456 21.2819Z" fill="white"/>
<path d="M26.9337 21.2819L27.3333 20.5608L26.1117 20.0047L27.3333 19.4486L26.9337 18.7228L25.8453 19.5523L25.9923 18.1667H25.184L25.331 19.5523L24.2379 18.7228L23.843 19.4486L25.0646 20.0047L23.843 20.5608L24.2379 21.2819L25.3264 20.4666L25.184 21.8333H25.9923L25.8499 20.4713L26.9337 21.2819Z" fill="white"/>
<rect x="26" y="26" width="14" height="14" rx="7" fill="#01C27F"/>
<path d="M36.5 30.8125L31.6875 35.625L29.5 33.4375" stroke="white" stroke-linecap="round" stroke-linejoin="round"/>
</svg>
