<svg width="64" height="64" viewBox="0 0 64 64" fill="none" xmlns="http://www.w3.org/2000/svg">
<circle opacity="0.1" cx="32" cy="32" r="23" fill="#6764EA"/>
<circle opacity="0.1" cx="32" cy="32" r="32" fill="#6764EA"/>
<path d="M35.9258 21C37.622 21.4552 39.1686 22.3486 40.4104 23.5904C41.6522 24.8322 42.5456 26.3788 43.0008 28.075" stroke="#01C27F" stroke-width="2" stroke-linecap="round" stroke-linejoin="round"/>
<path d="M34.8867 24.8625C35.9069 25.1335 36.8373 25.6693 37.5836 26.4156C38.33 27.162 38.8658 28.0924 39.1367 29.1125" stroke="#01C27F" stroke-width="2" stroke-linecap="round" stroke-linejoin="round"/>
<path d="M26.1992 32.6489C27.2282 34.7739 28.9466 36.4878 31.0742 37.5114C31.2312 37.5857 31.4048 37.6178 31.5779 37.6047C31.7511 37.5915 31.9178 37.5335 32.0617 37.4364L35.1867 35.3489C35.3248 35.2552 35.4843 35.1981 35.6505 35.1828C35.8166 35.1675 35.9839 35.1945 36.1367 35.2614L41.9867 37.7739C42.1867 37.8571 42.3537 38.0037 42.4621 38.1912C42.5705 38.3787 42.6143 38.5966 42.5867 38.8114C42.4013 40.2585 41.6949 41.5886 40.5998 42.5526C39.5046 43.5166 38.0957 44.0485 36.6367 44.0489C32.128 44.0489 27.804 42.2578 24.6159 39.0697C21.4278 35.8816 19.6367 31.5575 19.6367 27.0489C19.637 25.5899 20.169 24.181 21.133 23.0858C22.097 21.9907 23.427 21.2843 24.8742 21.0989C25.089 21.0713 25.3069 21.1151 25.4944 21.2235C25.6819 21.3319 25.8285 21.4989 25.9117 21.6989L28.4242 27.5614C28.4896 27.7118 28.5169 27.876 28.5038 28.0395C28.4907 28.203 28.4376 28.3607 28.3492 28.4989L26.2617 31.6739C26.1688 31.8175 26.1142 31.9825 26.1033 32.1532C26.0924 32.3239 26.1254 32.4946 26.1992 32.6489Z" fill="#01C27F"/>
</svg>
