<svg width="24" height="24" viewBox="0 0 24 24" fill="none" xmlns="http://www.w3.org/2000/svg">
<path d="M13.6 4H7.19998C6.77563 4 6.36866 4.16857 6.06861 4.46863C5.76855 4.76869 5.59998 5.17566 5.59998 5.6V18.4C5.59998 18.8244 5.76855 19.2313 6.06861 19.5314C6.36866 19.8315 6.77563 20 7.19998 20H16.8C17.2243 20 17.6313 19.8315 17.9314 19.5314C18.2314 19.2313 18.4 18.8244 18.4 18.4V8.80001L13.6 4Z" stroke="white" stroke-width="0.872728" stroke-linecap="round" stroke-linejoin="round"/>
<path d="M13.6 4V8.80001H18.4" stroke="white" stroke-width="0.872728" stroke-linecap="round" stroke-linejoin="round"/>
<path d="M15.1999 12.8H8.79993" stroke="white" stroke-width="0.872728" stroke-linecap="round" stroke-linejoin="round"/>
<path d="M15.1999 16H8.79993" stroke="white" stroke-width="0.872728" stroke-linecap="round" stroke-linejoin="round"/>
<path d="M10.3999 9.6001H9.59993H8.79993" stroke="white" stroke-width="0.872728" stroke-linecap="round" stroke-linejoin="round"/>
</svg>
