<svg width="48" height="48" viewBox="0 0 48 48" fill="none" xmlns="http://www.w3.org/2000/svg">
<path d="M22.1929 10H31.6096L38.3359 16.7444V26.1865C38.3359 26.5442 38.1941 26.8873 37.9419 27.1403C37.6896 27.3933 37.3474 27.5354 36.9906 27.5354H29.5918H25.8923L20.8477 23V11.3489C20.8477 10.9911 20.9894 10.648 21.2417 10.3951C21.494 10.1421 21.8361 10 22.1929 10Z" fill="#5E5CC2"/>
<path d="M24.6689 19.5791L34.2222 19.5791" stroke="#EAECEF" stroke-linecap="round" stroke-linejoin="round"/>
<path d="M24.6689 15.7476L28.4902 15.7476" stroke="#EAECEF" stroke-linecap="round" stroke-linejoin="round"/>
<path d="M36.5274 31.5591L35.0879 30.1157L33.6484 31.5591" stroke="#EAECEF" stroke-linecap="round" stroke-linejoin="round"/>
<path d="M27.5349 38.2646L30.9548 38.2535C33.1946 38.2461 35.0086 36.4258 35.0164 34.1777L35.0283 30.7435" stroke="#EAECEF" stroke-linecap="round" stroke-linejoin="round"/>
<circle cx="17.6067" cy="31.1067" r="9.10673" fill="#5E5CC2"/>
<path d="M15 32.7873C15 33.7179 15.7624 34.4723 16.7029 34.4723H18.4057C19.3462 34.4723 20.1086 33.7179 20.1086 32.7873C20.1086 31.8568 19.3462 31.1024 18.4057 31.1024H16.7029C15.7624 31.1024 15 30.3481 15 29.4175C15 28.487 15.7624 27.7326 16.7029 27.7326H18.4057C19.3462 27.7326 20.1086 28.487 20.1086 29.4175M17.5543 26.8901V35.3147" stroke="#EAECEF" stroke-linecap="round" stroke-linejoin="round"/>
</svg>
