<svg width="80" height="80" viewBox="0 0 80 80" fill="none" xmlns="http://www.w3.org/2000/svg">
<path fill-rule="evenodd" clip-rule="evenodd" d="M31.25 33C31.2424 35.0097 31.6289 37.0014 32.3875 38.8625L19 52.25V61H27.75V55.75H33V50.5H38.25L41.1375 47.6125C42.9986 48.3711 44.9903 48.7576 47 48.75C50.1151 48.75 53.1602 47.8263 55.7502 46.0957C58.3403 44.365 60.359 41.9052 61.5511 39.0273C62.7432 36.1493 63.0551 32.9825 62.4474 29.9273C61.8397 26.8721 60.3396 24.0658 58.1369 21.8631C55.9343 19.6604 53.1279 18.1604 50.0727 17.5526C47.0175 16.9449 43.8507 17.2568 40.9727 18.4489C38.0948 19.641 35.635 21.6597 33.9044 24.2498C32.1737 26.8399 31.25 29.885 31.25 33ZM54 28.625C54 30.0747 52.8247 31.25 51.375 31.25C49.9253 31.25 48.75 30.0747 48.75 28.625C48.75 27.1753 49.9253 26 51.375 26C52.8247 26 54 27.1753 54 28.625Z" fill="#7165E3"/>
<rect x="0.5" y="0.5" width="79" height="79" rx="39.5" stroke="#7165E3"/>
<rect x="48" y="48" width="32" height="32" rx="16" fill="#01C27F"/>
<path d="M72 59L61 70L56 65" stroke="white" stroke-width="2" stroke-linecap="round" stroke-linejoin="round"/>
</svg>
