<svg width="12" height="12" viewBox="0 0 12 12" fill="none" xmlns="http://www.w3.org/2000/svg">
<path fill-rule="evenodd" clip-rule="evenodd" d="M5.23077 6.76923V11.2308C5.23077 11.6562 5.575 12 6.00024 12C6.42548 12 6.76923 11.656 6.76923 11.2308V6.76923H11.2308C11.6562 6.76923 12 6.425 12 5.99976C12 5.57452 11.656 5.23077 11.2308 5.23077H6.76923V0.769231C6.76923 0.34399 6.42548 0 6.00024 0C5.575 0 5.23077 0.34399 5.23077 0.769231V5.23077H0.769231C0.34399 5.23077 0 5.57452 0 5.99976C0 6.425 0.34399 6.76923 0.769231 6.76923H5.23077Z" fill="#EAECEF" fill-opacity="0.7"/>
</svg>
