<svg width="14" height="14" viewBox="0 0 14 14" fill="none" xmlns="http://www.w3.org/2000/svg">
<path d="M7.50012 7.49898C8.46718 7.46483 9.24067 6.6701 9.24067 5.69471V5.60769C9.24067 4.65865 8.47133 3.8893 7.52229 3.8893H7.00012C6.00302 3.8893 5.19471 4.69761 5.19471 5.69471C5.19471 5.97086 5.41857 6.19471 5.69471 6.19471C5.97086 6.19471 6.19471 5.97086 6.19471 5.69471C6.19471 5.2499 6.55531 4.8893 7.00012 4.8893H7.52229C7.91904 4.8893 8.24067 5.21093 8.24067 5.60769V5.69471C8.24067 6.13953 7.88008 6.50012 7.43526 6.50012C6.9188 6.50012 6.50012 6.9188 6.50012 7.43526V8.30554C6.50012 8.58168 6.72398 8.80554 7.00012 8.80554C7.27627 8.80554 7.50012 8.58168 7.50012 8.30554V7.49898ZM7.50012 9.36921C7.50012 9.09306 7.27627 8.86921 7.00012 8.86921C6.72398 8.86921 6.50012 9.09306 6.50012 9.36921V9.70765C6.50012 9.98379 6.72398 10.2076 7.00012 10.2076C7.27627 10.2076 7.50012 9.98379 7.50012 9.70765V9.36921ZM7.00012 12.592C3.91179 12.592 1.4082 10.0885 1.4082 7.00012C1.4082 3.91179 3.91179 1.4082 7.00012 1.4082C10.0885 1.4082 12.592 3.91179 12.592 7.00012C12.592 10.0885 10.0885 12.592 7.00012 12.592Z" stroke="#7878DF" stroke-linecap="round"/>
</svg>
