<svg width="24" height="24" viewBox="0 0 24 24" fill="none" xmlns="http://www.w3.org/2000/svg">
<path d="M4 7H5.77778H20" stroke="white" stroke-linecap="round" stroke-linejoin="round"/>
<path d="M8.57143 7.1V5.3C8.57143 4.82261 8.75204 4.36477 9.07353 4.02721C9.39502 3.68964 9.83106 3.5 10.2857 3.5H13.7143C14.1689 3.5 14.605 3.68964 14.9265 4.02721C15.248 4.36477 15.4286 4.82261 15.4286 5.3V7.1M18 7.1V18.7C18 19.1774 17.8194 19.6352 17.4979 19.9728C17.1764 20.3104 16.7404 20.5 16.2857 20.5H7.71429C7.25963 20.5 6.82359 20.3104 6.5021 19.9728C6.18061 19.6352 6 19.1774 6 18.7V7.1H18Z" stroke="white" stroke-linecap="round" stroke-linejoin="round"/>
<path d="M10 11V17" stroke="white" stroke-linecap="round" stroke-linejoin="round"/>
<path d="M14 11V17" stroke="white" stroke-linecap="round" stroke-linejoin="round"/>
</svg>
