<svg width="48" height="49" viewBox="0 0 48 49" fill="none" xmlns="http://www.w3.org/2000/svg">
<g clip-path="url(#clip0_13305_708068)">
<circle cx="31.0603" cy="28.1677" r="7.38063" fill="#5E5CC2"/>
<path d="M28.9478 29.5294C28.9478 30.2836 29.5656 30.895 30.3278 30.895H31.7079C32.4701 30.895 33.088 30.2836 33.088 29.5294C33.088 28.7753 32.4701 28.1639 31.7079 28.1639H30.3278C29.5656 28.1639 28.9478 27.5525 28.9478 26.7983C28.9478 26.0442 29.5656 25.4328 30.3278 25.4328H31.7079C32.4701 25.4328 33.088 26.0442 33.088 26.7983M31.0179 24.75V31.5778" stroke="#EAECEF" stroke-opacity="0.9" stroke-width="0.875" stroke-linecap="round" stroke-linejoin="round"/>
<path d="M10.3203 28.8262C9.8669 28.8262 9.5 29.1931 9.5 29.6465V37.9042C9.5 38.3576 9.8669 38.7245 10.3203 38.7245H12.7812V28.8262H10.3203Z" fill="#5E5CC2"/>
<path d="M29.9552 15.8447L24.213 10.9229C23.907 10.6585 23.452 10.6585 23.146 10.9229L17.4039 15.8447C17.1428 16.0674 17.049 16.4295 17.1684 16.7515C17.2869 17.0736 17.5937 17.2875 17.9374 17.2875H20.3983C20.3983 24.3793 20.3983 31.6324 20.3983 38.7247C22.5115 38.7247 23.9725 38.7247 26.1404 38.7247C26.5939 38.7247 26.9608 38.3578 26.9608 37.9044V36.0333C24.0436 34.5366 22.0389 31.5041 22.0389 28.0061C22.0389 24.5081 24.0437 21.4757 26.9608 19.9789V17.2875H29.4216C29.7653 17.2875 30.0722 17.0736 30.1907 16.7516C30.3101 16.4295 30.2164 16.0674 29.9552 15.8447Z" fill="#5E5CC2"/>
<path d="M15.8203 22.2637C15.3669 22.2637 15 22.6306 15 23.084V28.8261V38.7243C16.1982 38.7243 17.1178 38.7243 18.2812 38.7243V22.2637H15.8203Z" fill="#5E5CC2"/>
</g>
<defs>
<clipPath id="clip0_13305_708068">
<rect width="30" height="29" fill="white" transform="translate(9 10.0996)"/>
</clipPath>
</defs>
</svg>
