<svg width="48" height="48" viewBox="0 0 48 48" fill="none" xmlns="http://www.w3.org/2000/svg">
<path d="M30.6723 37.7876V38.2543C30.6723 38.581 30.6723 38.7443 30.735 38.8691C30.7901 38.9789 30.8781 39.0681 30.9863 39.124C31.1093 39.1876 31.2703 39.1876 31.5923 39.1876H33.7774C34.0994 39.1876 34.2604 39.1876 34.3834 39.124C34.4916 39.0681 34.5796 38.9789 34.6347 38.8691C34.6974 38.7443 34.6974 38.581 34.6974 38.2543V37.116C34.6974 36.8802 34.6974 36.7624 34.7305 36.6678C34.7622 36.5771 34.8021 36.5136 34.8698 36.4462C34.9405 36.3759 35.0602 36.3196 35.2996 36.2068C36.4292 35.6748 37.393 34.8418 38.0912 33.8095C38.2139 33.6279 38.2753 33.5372 38.3409 33.4835C38.4036 33.4323 38.4598 33.4022 38.5369 33.3788C38.6176 33.3543 38.7134 33.3543 38.9049 33.3543H39.5274C39.8494 33.3543 40.0104 33.3543 40.1334 33.2907C40.2416 33.2348 40.3296 33.1455 40.3847 33.0358C40.4474 32.911 40.4474 32.7476 40.4474 32.4209V28.4376C40.4474 28.1266 40.4474 27.9711 40.3904 27.8511C40.3339 27.7321 40.2392 27.6361 40.1219 27.5787C40.0036 27.5209 39.8504 27.5209 39.5438 27.5209C39.3219 27.5209 39.2109 27.5209 39.1215 27.4904C39.0252 27.4574 38.9576 27.4136 38.8877 27.3387C38.8228 27.2692 38.7699 27.153 38.664 26.9207C38.3243 26.1749 37.8589 25.5 37.2955 24.924L37.2955 24.924C37.1762 24.802 37.1165 24.741 37.0813 24.6823C37.0477 24.6263 37.0281 24.5781 37.0131 24.5144C36.9974 24.4476 36.9974 24.3715 36.9974 24.2195V22.9249C36.9974 22.5049 36.9974 22.2949 36.9112 22.1537C36.8356 22.03 36.7173 21.9395 36.5793 21.8998C36.4218 21.8544 36.2228 21.9121 35.8246 22.0275L33.0962 22.8184L33.0962 22.8184C33.0498 22.8318 33.0266 22.8385 33.0031 22.8432C32.9821 22.8474 32.961 22.8504 32.9397 22.8522C32.9158 22.8543 32.8917 22.8543 32.8435 22.8543H32.4663C32.4231 22.8543 32.4015 22.8543 32.381 22.8526C32.3619 22.851 32.3455 22.8487 32.3266 22.8451C32.3064 22.8411 32.2843 22.8349 32.2402 22.8225L32.2402 22.8225C30.4794 22.3263 26.6973 21.8371 24.6559 23.5939L24.6558 23.5939C24.6229 23.6223 24.6064 23.6364 24.5942 23.6457C24.5812 23.6556 24.5744 23.6603 24.5606 23.6691C24.5476 23.6774 24.5302 23.687 24.4954 23.7063C22.3516 24.8938 20.8973 27.2017 20.8973 29.8543C20.8973 31.7774 21.6617 33.5194 22.8992 34.7846L22.8992 34.7846C23.0185 34.9066 23.0782 34.9676 23.1134 35.0263C23.147 35.0822 23.1666 35.1304 23.1816 35.1942C23.1973 35.261 23.1973 35.337 23.1973 35.4891V38.2543C23.1973 38.581 23.1973 38.7443 23.26 38.8691C23.3151 38.9789 23.4031 39.0681 23.5113 39.124C23.6343 39.1876 23.7953 39.1876 24.1173 39.1876H26.3023C26.6243 39.1876 26.7854 39.1876 26.9084 39.124C27.0165 39.0681 27.1045 38.9789 27.1596 38.8691C27.2223 38.7443 27.2223 38.581 27.2223 38.2543V37.7876V37.7876C27.2223 37.4609 27.2223 37.2976 27.285 37.1728C27.3401 37.063 27.4281 36.9738 27.5363 36.9179C27.6593 36.8543 27.8203 36.8543 28.1423 36.8543H29.7523C30.0743 36.8543 30.2354 36.8543 30.3584 36.9179C30.4665 36.9738 30.5545 37.063 30.6096 37.1728C30.6723 37.2976 30.6723 37.4609 30.6723 37.7876V37.7876Z" fill="#5E5CC2"/>
<path d="M20.8973 29.8543C20.8973 31.7774 21.6617 33.5194 22.8992 34.7846C23.0185 34.9066 23.0782 34.9676 23.1134 35.0263C23.147 35.0822 23.1666 35.1304 23.1816 35.1942C23.1973 35.261 23.1973 35.337 23.1973 35.4891V38.2543C23.1973 38.581 23.1973 38.7443 23.26 38.8691C23.3151 38.9789 23.4031 39.0681 23.5113 39.124C23.6343 39.1876 23.7953 39.1876 24.1173 39.1876H26.3023C26.6243 39.1876 26.7854 39.1876 26.9084 39.124C27.0165 39.0681 27.1045 38.9789 27.1596 38.8691C27.2223 38.7443 27.2223 38.581 27.2223 38.2543V37.7876C27.2223 37.4609 27.2223 37.2976 27.285 37.1728C27.3401 37.063 27.4281 36.9738 27.5363 36.9179C27.6593 36.8543 27.8203 36.8543 28.1423 36.8543H29.7523C30.0743 36.8543 30.2354 36.8543 30.3584 36.9179C30.4665 36.9738 30.5545 37.063 30.6096 37.1728C30.6723 37.2976 30.6723 37.4609 30.6723 37.7876V38.2543C30.6723 38.581 30.6723 38.7443 30.735 38.8691C30.7901 38.9789 30.8781 39.0681 30.9863 39.124C31.1093 39.1876 31.2703 39.1876 31.5923 39.1876H33.7774C34.0994 39.1876 34.2604 39.1876 34.3834 39.124C34.4916 39.0681 34.5796 38.9789 34.6347 38.8691C34.6974 38.7443 34.6974 38.581 34.6974 38.2543V37.116C34.6974 36.8802 34.6974 36.7624 34.7305 36.6678C34.7622 36.5771 34.8021 36.5136 34.8698 36.4462C34.9405 36.3759 35.0602 36.3196 35.2996 36.2068C36.4292 35.6748 37.393 34.8418 38.0912 33.8095C38.2139 33.6279 38.2753 33.5372 38.3409 33.4835C38.4036 33.4323 38.4598 33.4022 38.5369 33.3788C38.6176 33.3543 38.7134 33.3543 38.9049 33.3543H39.5274C39.8494 33.3543 40.0104 33.3543 40.1334 33.2907C40.2416 33.2348 40.3296 33.1455 40.3847 33.0358C40.4474 32.911 40.4474 32.7476 40.4474 32.4209V28.4376C40.4474 28.1266 40.4474 27.9711 40.3904 27.8511C40.3339 27.7321 40.2392 27.6361 40.1219 27.5787C40.0036 27.5209 39.8504 27.5209 39.5438 27.5209C39.3219 27.5209 39.2109 27.5209 39.1215 27.4904C39.0252 27.4574 38.9576 27.4136 38.8877 27.3387C38.8228 27.2692 38.7699 27.153 38.664 26.9207C38.3243 26.1749 37.8589 25.5 37.2955 24.924C37.1762 24.802 37.1165 24.741 37.0813 24.6823C37.0477 24.6263 37.0281 24.5781 37.0131 24.5144C36.9974 24.4476 36.9974 24.3715 36.9974 24.2195V22.9249C36.9974 22.5049 36.9974 22.2949 36.9112 22.1537C36.8356 22.03 36.7173 21.9395 36.5793 21.8998C36.4218 21.8544 36.2228 21.9121 35.8246 22.0275L33.0962 22.8184C33.0498 22.8318 33.0266 22.8385 33.0031 22.8432C32.9821 22.8474 32.961 22.8504 32.9397 22.8522C32.9158 22.8543 32.8917 22.8543 32.8435 22.8543H32.4663C32.4231 22.8543 32.4015 22.8543 32.381 22.8526C32.3619 22.851 32.3455 22.8487 32.3266 22.8451C32.3064 22.8411 32.2843 22.8349 32.2402 22.8225C30.4794 22.3263 26.6973 21.8371 24.6559 23.5939C24.6229 23.6222 24.6064 23.6364 24.5942 23.6457C24.5812 23.6556 24.5744 23.6603 24.5606 23.6691C24.5476 23.6774 24.5302 23.687 24.4954 23.7063C22.3516 24.8938 20.8973 27.2017 20.8973 29.8543ZM20.8973 29.8543H19.7474C18.4771 29.8543 17.4474 28.8096 17.4474 27.5209C17.4474 26.6573 17.9099 25.9032 18.5974 25.4998" stroke="#5E5CC2" stroke-linecap="round" stroke-linejoin="round"/>
<path d="M29 20C31.2091 20 33 18.2091 33 16C33 13.7909 31.2091 12 29 12C26.7909 12 25 13.7909 25 16C25 18.2091 26.7909 20 29 20Z" fill="#5E5CC2"/>
<rect x="16.0526" y="11.2227" width="5" height="8.55194" rx="0.5" stroke="white"/>
<path d="M18.5525 8.8125L18.5525 10.7229" stroke="white" stroke-linecap="round"/>
<path d="M18.5525 20.2754V22.1858" stroke="white" stroke-linecap="round"/>
<path d="M8.05249 20.1157C8.05249 19.8396 8.27635 19.6157 8.55249 19.6157H12.5525C12.8286 19.6157 13.0525 19.8396 13.0525 20.1157V32.1456C13.0525 32.4217 12.8286 32.6456 12.5525 32.6456H8.55249C8.27635 32.6456 8.05249 32.4217 8.05249 32.1456V20.1157Z" stroke="#5E5CC2"/>
<path d="M10.4474 16.1875L10.4474 19.1875" stroke="#5E5CC2" stroke-linecap="round"/>
<path d="M10.4474 33.1875L10.4474 36.1875" stroke="#5E5CC2" stroke-linecap="round"/>
</svg>
