<svg width="48" height="48" viewBox="0 0 48 48" fill="none" xmlns="http://www.w3.org/2000/svg">
<rect x="7.51331" y="19.6665" width="6" height="13.5576" rx="2.25961" fill="#5E5CC2"/>
<path d="M20.2537 9.5H18.7729C17.525 9.5 16.5133 10.5117 16.5133 11.7596V30.9663C16.5133 32.2142 17.525 33.2259 18.7729 33.2259H20.8583C22.3449 33.2259 22.5811 27.4086 22.5133 24.5V11.7596C22.5133 10.5117 21.5016 9.5 20.2537 9.5Z" fill="#5E5CC2"/>
<path d="M25.5133 17.41C25.5133 16.1621 26.525 15.1504 27.7729 15.1504H29.2537C30.5016 15.1504 31.5133 16.1621 31.5133 17.41V24.499H28.4498H25.5133V17.41Z" fill="#5E5CC2"/>
<path d="M7.51331 36.4834H17.6815" stroke="#5E5CC2" stroke-linecap="round"/>
<path d="M20.5 27.3267C20.5 26.3669 20.5 25.887 20.6838 25.5191C20.8525 25.1815 21.1263 24.9077 21.464 24.739C21.8318 24.5552 22.3117 24.5552 23.2715 24.5552H37.7152C38.675 24.5552 39.1549 24.5552 39.5228 24.739C39.8605 24.9077 40.1342 25.1815 40.3029 25.5191C40.4868 25.887 40.4868 26.3669 40.4868 27.3267V35.7284C40.4868 36.6882 40.4868 37.1681 40.3029 37.536C40.1342 37.8736 39.8605 38.1474 39.5228 38.3161C39.1549 38.4999 38.675 38.4999 37.7152 38.4999H23.2715C22.3117 38.4999 21.8318 38.4999 21.464 38.3161C21.1263 38.1474 20.8525 37.8736 20.6838 37.536C20.5 37.1681 20.5 36.6882 20.5 35.7284V27.3267Z" fill="#5E5CC2"/>
<rect x="23" y="28.999" width="4.28571" height="1" rx="0.5" fill="#EAECEF"/>
<rect x="28.3572" y="28.999" width="4.28571" height="1" rx="0.5" fill="#EAECEF"/>
<rect x="23" y="32.999" width="15" height="1" rx="0.5" fill="#EAECEF"/>
<rect x="33.7142" y="28.999" width="4.28571" height="1" rx="0.5" fill="#EAECEF"/>
</svg>
