<svg width="48" height="48" viewBox="0 0 48 48" fill="none" xmlns="http://www.w3.org/2000/svg">
<path d="M33 13C34.6569 13 36 11.6569 36 10C36 8.34315 34.6569 7 33 7C31.3431 7 30 8.34315 30 10C30 11.6569 31.3431 13 33 13Z" fill="#5E5CC2"/>
<path d="M21.7501 39.2001V39.8001C21.7501 40.2201 21.7501 40.4301 21.6684 40.5906C21.5965 40.7317 21.4817 40.8464 21.3406 40.9183C21.1802 41.0001 20.9701 41.0001 20.5501 41.0001H17.7C17.28 41.0001 17.0699 41.0001 16.9095 40.9183C16.7684 40.8464 16.6537 40.7317 16.5817 40.5906C16.5 40.4301 16.5 40.2201 16.5 39.8001V38.3366C16.5 38.0335 16.5 37.8819 16.4569 37.7603C16.4155 37.6437 16.3634 37.562 16.2751 37.4754C16.1829 37.3851 16.0268 37.3126 15.7145 37.1676L15.7145 37.1676C14.2411 36.4836 12.9839 35.4127 12.0733 34.0853C11.9132 33.8519 11.8331 33.7352 11.7476 33.6662C11.6659 33.6003 11.5925 33.5617 11.4919 33.5316C11.3867 33.5001 11.2617 33.5001 11.0119 33.5001H10.2C9.77996 33.5001 9.56994 33.5001 9.4095 33.4183C9.26838 33.3464 9.15365 33.2317 9.08175 33.0906C9 32.9301 9 32.7201 9 32.3001V27.1787C9 26.7788 9 26.5789 9.07429 26.4246C9.14801 26.2716 9.2715 26.1481 9.42455 26.0744C9.57879 26.0001 9.77874 26.0001 10.1786 26.0001H10.1786C10.4681 26.0001 10.6128 26.0001 10.7294 25.9608C10.8551 25.9184 10.9432 25.862 11.0344 25.7657C11.119 25.6764 11.188 25.527 11.3261 25.2283C11.7693 24.2694 12.3763 23.4017 13.1111 22.6611L13.1112 22.6611C13.2668 22.5042 13.3446 22.4258 13.3906 22.3504C13.4344 22.2784 13.4599 22.2164 13.4795 22.1345C13.5 22.0486 13.5 21.9508 13.5 21.7553V20.0909C13.5 19.5509 13.5 19.2808 13.6125 19.0993C13.711 18.9403 13.8654 18.8239 14.0453 18.7728C14.2507 18.7146 14.5104 18.7887 15.0297 18.9371L18.5885 19.9539C18.649 19.9712 18.6792 19.9798 18.71 19.9859C18.7373 19.9913 18.7649 19.9951 18.7926 19.9975C18.8064 19.9986 18.8203 19.9993 18.8369 19.9996C18.8609 20.0001 18.8728 20.0004 18.8892 19.9997C18.9027 19.9991 18.9193 19.9976 18.9327 19.9959C18.9489 19.9937 18.9645 19.9906 18.9959 19.9844C21.36 19.5135 26.6827 19.0845 29.694 21.0349C32.552 22.5429 34.5001 25.544 34.5001 29.0001C34.5001 31.4726 33.503 33.7123 31.889 35.339C31.7333 35.4959 31.6555 35.5743 31.6096 35.6498C31.5657 35.7217 31.5402 35.7837 31.5206 35.8657C31.5001 35.9516 31.5001 36.0493 31.5001 36.2448V39.8001C31.5001 40.2201 31.5001 40.4301 31.4184 40.5906C31.3465 40.7317 31.2317 40.8464 31.0906 40.9183C30.9302 41.0001 30.7201 41.0001 30.3001 41.0001H27.4501C27.0301 41.0001 26.82 41.0001 26.6596 40.9183C26.5185 40.8464 26.4038 40.7317 26.3318 40.5906C26.2501 40.4301 26.2501 40.2201 26.2501 39.8001V39.2001V39.2C26.2501 38.78 26.2501 38.57 26.1684 38.4096C26.0965 38.2685 25.9817 38.1537 25.8406 38.0818C25.6802 38.0001 25.4701 38.0001 25.0501 38.0001H22.9501C22.5301 38.0001 22.32 38.0001 22.1596 38.0818C22.0185 38.1537 21.9038 38.2685 21.8319 38.4096C21.7501 38.57 21.7501 38.78 21.7501 39.2001Z" fill="#5E5CC2"/>
<path d="M34.5 29.0001H36.5C37.3333 28.8335 39 28.0001 39 26.0001C39 24.2675 38.5 23.5 37.5 23.5" stroke="#5E5CC2" stroke-linecap="round"/>
<path d="M19.8635 28.7407H26.9544" stroke="#EAECEF" stroke-linecap="round"/>
<path d="M15.7272 28.7407H16.909" stroke="#EAECEF" stroke-linecap="round"/>
<path d="M24 18C26.2091 18 28 16.2091 28 14C28 11.7909 26.2091 10 24 10C21.7909 10 20 11.7909 20 14C20 16.2091 21.7909 18 24 18Z" fill="#5E5CC2"/>
</svg>
