<svg width="48" height="48" viewBox="0 0 48 48" fill="none" xmlns="http://www.w3.org/2000/svg">
<path d="M7.22852 28.1807C7.22852 27.6284 7.67623 27.1807 8.22852 27.1807H20.9311C21.4834 27.1807 21.9311 27.6284 21.9311 28.1807V29.8382C21.9311 30.3905 21.4834 30.8382 20.9311 30.8382H8.22852C7.67623 30.8382 7.22852 30.3905 7.22852 29.8382V28.1807Z" fill="#5E5CC2"/>
<path d="M7.22852 32.8384C7.22852 32.2861 7.67623 31.8384 8.22852 31.8384H20.9311C21.4834 31.8384 21.9311 32.2861 21.9311 32.8384V34.496C21.9311 35.0482 21.4834 35.496 20.9311 35.496H8.22852C7.67623 35.496 7.22852 35.0482 7.22852 34.496V32.8384Z" fill="#5E5CC2"/>
<path d="M7.22852 37.4956C7.22852 36.9433 7.67623 36.4956 8.22852 36.4956H20.9311C21.4834 36.4956 21.9311 36.9433 21.9311 37.4956V39.1532C21.9311 39.7055 21.4834 40.1532 20.9311 40.1532H8.22852C7.67623 40.1532 7.22852 39.7055 7.22852 39.1532V37.4956Z" fill="#5E5CC2"/>
<path d="M24.6608 36.9429C24.6608 36.3906 25.1085 35.9429 25.6608 35.9429H38.3634C38.9157 35.9429 39.3634 36.3906 39.3634 36.9429V39.2672C39.3634 39.8195 38.9157 40.2672 38.3634 40.2672H25.6608C25.1085 40.2672 24.6608 39.8195 24.6608 39.2672V36.9429Z" fill="#5E5CC2"/>
<circle cx="15.2161" cy="16.5909" r="7.8067" fill="#5E5CC2"/>
<path d="M12.0935 18.4644C12.0935 19.4991 13.0256 20.338 14.1753 20.338H16.2571C17.4068 20.338 18.3389 19.4991 18.3389 18.4644C18.3389 17.4296 17.4068 16.5908 16.2571 16.5908H14.1753C13.0256 16.5908 12.0935 15.7519 12.0935 14.7172C12.0935 13.6824 13.0256 12.8435 14.1753 12.8435H16.2571C17.4068 12.8435 18.3389 13.6824 18.3389 14.7172M15.2162 11.9067V21.2748" stroke="white" stroke-linecap="round" stroke-linejoin="round"/>
<path d="M38.7912 27.415L38.4287 24.1351L34.9973 24.4922M38.3293 24.8087C34.5169 29.3292 27.6046 30.0494 22.8901 26.4175C21.4989 25.3457 20.4546 24.0148 19.7715 22.5548M21.2567 11.6562C25.0691 7.13569 31.9815 6.41541 36.696 10.0474C39.8278 12.46 41.2018 16.1864 40.6538 19.7416M29.793 13.0284V18.2324L33.8531 20.6742" stroke="#5E5CC2" stroke-linecap="round" stroke-linejoin="round"/>
</svg>
