<svg width="48" height="48" viewBox="0 0 48 48" fill="none" xmlns="http://www.w3.org/2000/svg">
<g clip-path="url(#clip0_6161_141799)">
<path d="M26.8452 13.4067L28.6646 13.4127C30.9074 13.42 32.7238 15.2379 32.7316 17.483L32.738 19.3054" stroke="#5E5CC2" stroke-linecap="round" stroke-linejoin="round"/>
<path d="M33.9169 18.6658L32.7849 19.7979L31.6529 18.6658" stroke="#5E5CC2" stroke-linecap="round" stroke-linejoin="round"/>
<path d="M23.3622 34.8989L21.5428 34.893C19.3 34.8857 17.4836 33.0678 17.4758 30.8227L17.4694 29.0002" stroke="#5E5CC2" stroke-linecap="round" stroke-linejoin="round"/>
<path d="M16.2905 29.6398L17.4225 28.5078L18.5545 29.6398" stroke="#5E5CC2" stroke-linecap="round" stroke-linejoin="round"/>
<path d="M11.5378 25.803V11.6793C11.5378 11.5597 11.5853 11.4451 11.6699 11.3605C11.7544 11.276 11.8691 11.2285 11.9886 11.2285H20.7423C20.8618 11.2286 20.9764 11.2762 21.0608 11.3607L23.4258 13.7257C23.4679 13.7677 23.5012 13.8176 23.5239 13.8725C23.5466 13.9275 23.5582 13.9863 23.558 14.0458V25.803C23.558 25.8622 23.5464 25.9208 23.5237 25.9755C23.5011 26.0302 23.4679 26.0799 23.426 26.1217C23.3842 26.1636 23.3345 26.1968 23.2798 26.2195C23.2251 26.2421 23.1665 26.2538 23.1073 26.2538H11.9886C11.9294 26.2538 11.8708 26.2421 11.8161 26.2195C11.7614 26.1968 11.7117 26.1636 11.6699 26.1217C11.628 26.0799 11.5948 26.0302 11.5722 25.9755C11.5495 25.9208 11.5378 25.8622 11.5378 25.803Z" fill="#5E5CC2" stroke="#5E5CC2" stroke-linecap="round" stroke-linejoin="round"/>
<path d="M20.553 11.2285V13.7828C20.553 13.9024 20.6005 14.017 20.685 14.1015C20.7695 14.1861 20.8842 14.2336 21.0037 14.2336H23.558" fill="#5E5CC2"/>
<path d="M20.553 11.2285V13.7828C20.553 13.9024 20.6005 14.017 20.685 14.1015C20.7695 14.1861 20.8842 14.2336 21.0037 14.2336H23.558" stroke="#5E5CC2" stroke-linecap="round" stroke-linejoin="round"/>
<path d="M26.5631 36.3206V22.1969C26.5631 22.0773 26.6106 21.9627 26.6951 21.8781C26.7797 21.7936 26.8943 21.7461 27.0139 21.7461H35.7676C35.8871 21.7462 36.0017 21.7938 36.0861 21.8783L38.4511 24.2433C38.4931 24.2853 38.5265 24.3352 38.5492 24.3901C38.5719 24.445 38.5835 24.5039 38.5833 24.5633V36.3206C38.5833 36.3798 38.5717 36.4384 38.549 36.4931C38.5263 36.5478 38.4931 36.5975 38.4513 36.6393C38.4094 36.6812 38.3597 36.7144 38.3051 36.737C38.2504 36.7597 38.1917 36.7713 38.1326 36.7713H27.0139C26.9547 36.7713 26.8961 36.7597 26.8414 36.737C26.7867 36.7144 26.737 36.6812 26.6951 36.6393C26.6533 36.5975 26.6201 36.5478 26.5974 36.4931C26.5748 36.4384 26.5631 36.3798 26.5631 36.3206Z" fill="#5E5CC2"/>
<path d="M35.5782 21.7461V24.3004C35.5782 24.4199 35.6257 24.5346 35.7103 24.6191C35.7948 24.7037 35.9095 24.7511 36.029 24.7511H38.5833" fill="#5E5CC2"/>
<mask id="path-10-inside-1_6161_141799" fill="white">
<path d="M15.459 21.6494C16.0747 22.0533 16.7842 22.2916 17.519 22.3412H17.5539C17.9325 22.3657 18.3063 22.2448 18.5988 22.0032C18.6991 21.908 18.7788 21.7934 18.8332 21.6663C18.8875 21.5392 18.9153 21.4024 18.9148 21.2641C18.9058 20.3927 17.9927 19.9883 17.1686 19.5269C16.3287 19.0667 15.5649 18.5778 15.5655 17.7126V17.6872C15.5807 16.5708 16.5614 16.0091 17.8665 16.0086H17.8907C18.4991 16.0347 19.1031 16.1232 19.6933 16.2728L19.713 16.2767V15.999H19.7006C19.1103 15.8508 18.5062 15.7636 17.8981 15.7388H17.8446C17.2314 15.7151 16.624 15.8642 16.0916 16.1691C15.8416 16.3352 15.6375 16.5616 15.4982 16.8274C15.3588 17.0933 15.2888 17.3899 15.2945 17.69V17.7024C15.2945 18.7659 16.2042 19.3118 17.0407 19.7714C17.8857 20.2265 18.6501 20.6304 18.6472 21.236V21.2641C18.6292 21.6511 18.4259 22.0685 17.528 22.073C16.7947 22.0122 16.0899 21.7618 15.4827 21.3464H15.4776L15.4641 21.3593V21.6562L15.459 21.6494Z"/>
</mask>
<path d="M15.459 21.6494C16.0747 22.0533 16.7842 22.2916 17.519 22.3412H17.5539C17.9325 22.3657 18.3063 22.2448 18.5988 22.0032C18.6991 21.908 18.7788 21.7934 18.8332 21.6663C18.8875 21.5392 18.9153 21.4024 18.9148 21.2641C18.9058 20.3927 17.9927 19.9883 17.1686 19.5269C16.3287 19.0667 15.5649 18.5778 15.5655 17.7126V17.6872C15.5807 16.5708 16.5614 16.0091 17.8665 16.0086H17.8907C18.4991 16.0347 19.1031 16.1232 19.6933 16.2728L19.713 16.2767V15.999H19.7006C19.1103 15.8508 18.5062 15.7636 17.8981 15.7388H17.8446C17.2314 15.7151 16.624 15.8642 16.0916 16.1691C15.8416 16.3352 15.6375 16.5616 15.4982 16.8274C15.3588 17.0933 15.2888 17.3899 15.2945 17.69V17.7024C15.2945 18.7659 16.2042 19.3118 17.0407 19.7714C17.8857 20.2265 18.6501 20.6304 18.6472 21.236V21.2641C18.6292 21.6511 18.4259 22.0685 17.528 22.073C16.7947 22.0122 16.0899 21.7618 15.4827 21.3464H15.4776L15.4641 21.3593V21.6562L15.459 21.6494Z" fill="white"/>
<path d="M15.459 21.6494L16.0075 20.8133L14.659 22.2494L15.459 21.6494ZM17.519 22.3412L17.4517 23.3389L17.4853 23.3412H17.519V22.3412ZM17.5539 22.3412L17.6186 21.3433L17.5863 21.3412H17.5539V22.3412ZM18.5988 22.0032L19.2357 22.7742L19.2622 22.7523L19.2871 22.7286L18.5988 22.0032ZM18.9148 21.2641L19.9148 21.2606L19.9148 21.2538L18.9148 21.2641ZM17.1686 19.5269L17.6571 18.6543L17.6491 18.65L17.1686 19.5269ZM15.5655 17.7126L16.5655 17.7132V17.7126H15.5655ZM15.5655 17.6872L14.5655 17.6736V17.6872H15.5655ZM17.8665 16.0086V15.0086L17.8661 15.0086L17.8665 16.0086ZM17.8907 16.0086L17.9336 15.0095L17.9122 15.0086H17.8907V16.0086ZM19.6933 16.2728L19.4477 17.2421L19.4723 17.2484L19.4972 17.2534L19.6933 16.2728ZM19.713 16.2767L19.5169 17.2573L20.713 17.4965V16.2767H19.713ZM19.713 15.999H20.713V14.999H19.713V15.999ZM19.7006 15.999L19.4571 16.9689L19.577 16.999H19.7006V15.999ZM17.8981 15.7388L17.9389 14.7396L17.9185 14.7388H17.8981V15.7388ZM17.8446 15.7388L17.806 16.738L17.8253 16.7388H17.8446V15.7388ZM16.0916 16.1691L15.5946 15.3013L15.5659 15.3178L15.5383 15.3361L16.0916 16.1691ZM15.2945 17.69H16.2945V17.6805L16.2943 17.671L15.2945 17.69ZM17.0407 19.7714L16.5591 20.6478L16.5665 20.6518L17.0407 19.7714ZM18.6472 21.236L17.6472 21.2313V21.236H18.6472ZM18.6472 21.2641L19.6462 21.3107L19.6473 21.2874V21.2641H18.6472ZM17.528 22.073L17.4453 23.0696L17.4891 23.0732L17.533 23.073L17.528 22.073ZM15.4827 21.3464L16.0473 20.521L15.792 20.3464H15.4827V21.3464ZM15.4776 21.3464V20.3464H15.0757L14.7856 20.6244L15.4776 21.3464ZM15.4641 21.3593L14.7721 20.6374L14.4641 20.9326V21.3593H15.4641ZM15.4641 21.6562L14.6641 22.2562L16.4641 24.6562V21.6562H15.4641ZM14.9105 22.4856C15.6701 22.9838 16.5453 23.2777 17.4517 23.3389L17.5863 21.3434C17.0232 21.3054 16.4794 21.1228 16.0075 20.8133L14.9105 22.4856ZM17.519 23.3412H17.5539V21.3412H17.519V23.3412ZM17.4892 23.3391C18.122 23.3801 18.7467 23.1781 19.2357 22.7742L17.9619 21.2322C17.8658 21.3116 17.743 21.3513 17.6186 21.3433L17.4892 23.3391ZM19.2871 22.7286C19.4863 22.5396 19.6447 22.3119 19.7526 22.0595L17.9137 21.2732C17.913 21.2749 17.9119 21.2765 17.9105 21.2778L19.2871 22.7286ZM19.7526 22.0595C19.8606 21.807 19.9158 21.5352 19.9148 21.2606L17.9148 21.2676C17.9148 21.2695 17.9144 21.2714 17.9137 21.2732L19.7526 22.0595ZM19.9148 21.2538C19.906 20.4051 19.4335 19.8325 18.9746 19.4629C18.556 19.1258 18.001 18.8469 17.6571 18.6544L16.6801 20.3995C17.1603 20.6683 17.4739 20.8223 17.7201 21.0206C17.9261 21.1864 17.9146 21.2518 17.9149 21.2745L19.9148 21.2538ZM17.6491 18.65C17.2266 18.4184 16.9368 18.2374 16.7493 18.0549C16.5897 17.8997 16.5654 17.805 16.5655 17.7132L14.5655 17.7119C14.565 18.4853 14.9222 19.0677 15.3545 19.4883C15.7587 19.8816 16.2708 20.1752 16.6881 20.4039L17.6491 18.65ZM16.5655 17.7126V17.6872H14.5655V17.7126H16.5655ZM16.5654 17.7008C16.5684 17.4787 16.646 17.3578 16.7961 17.2554C16.9869 17.1251 17.3392 17.0088 17.867 17.0086L17.8661 15.0086C17.0887 15.0089 16.2981 15.1737 15.6685 15.6035C14.9981 16.0612 14.5777 16.7792 14.5656 17.6736L16.5654 17.7008ZM17.8665 17.0086H17.8907V15.0086H17.8665V17.0086ZM17.8479 17.0077C18.3878 17.0308 18.9238 17.1094 19.4477 17.2421L19.9389 15.3034C19.2823 15.137 18.6103 15.0385 17.9336 15.0095L17.8479 17.0077ZM19.4972 17.2534L19.5169 17.2573L19.9091 15.2961L19.8894 15.2922L19.4972 17.2534ZM20.713 16.2767V15.999H18.713V16.2767H20.713ZM19.713 14.999H19.7006V16.999H19.713V14.999ZM19.9441 15.0291C19.2874 14.8642 18.6154 14.7672 17.9389 14.7396L17.8573 16.7379C18.3971 16.76 18.9332 16.8374 19.4571 16.9689L19.9441 15.0291ZM17.8981 14.7388H17.8446V16.7388H17.8981V14.7388ZM17.8831 14.7395C17.0827 14.7086 16.2897 14.9033 15.5946 15.3013L16.5885 17.0369C16.9583 16.8251 17.3802 16.7216 17.806 16.738L17.8831 14.7395ZM15.5383 15.3361C15.1482 15.5952 14.8298 15.9485 14.6124 16.3633L16.3839 17.2916C16.4452 17.1747 16.5349 17.0751 16.6449 17.0021L15.5383 15.3361ZM14.6124 16.3633C14.3951 16.778 14.2858 17.2409 14.2947 17.7091L16.2943 17.671C16.2918 17.539 16.3226 17.4085 16.3839 17.2916L14.6124 16.3633ZM14.2945 17.69V17.7024H16.2945V17.69H14.2945ZM14.2945 17.7024C14.2945 18.564 14.6786 19.2095 15.1524 19.676C15.5958 20.1126 16.1496 20.4227 16.5592 20.6478L17.5223 18.895C17.0954 18.6604 16.776 18.4679 16.5555 18.2508C16.3653 18.0635 16.2945 17.9044 16.2945 17.7024H14.2945ZM16.5665 20.6518C17.0172 20.8946 17.3301 21.065 17.5429 21.2327C17.7633 21.4064 17.6465 21.3993 17.6473 21.2313L19.6472 21.2406C19.6508 20.4671 19.1532 19.9553 18.7809 19.6619C18.4009 19.3624 17.9092 19.1034 17.515 18.891L16.5665 20.6518ZM17.6472 21.236V21.2641H19.6473V21.236H17.6472ZM17.6483 21.2176C17.6474 21.2382 17.6451 21.2273 17.6564 21.1975C17.6698 21.1623 17.6963 21.117 17.7377 21.0787C17.7779 21.0414 17.803 21.0377 17.779 21.0453C17.7508 21.0541 17.6732 21.0723 17.523 21.073L17.533 23.073C18.1207 23.0701 18.6804 22.932 19.0975 22.5453C19.5237 22.1501 19.6301 21.6547 19.6462 21.3107L17.6483 21.2176ZM17.6106 21.0765C17.0502 21.03 16.5114 20.8386 16.0473 20.521L14.918 22.1717C15.6684 22.6851 16.5393 22.9945 17.4453 23.0696L17.6106 21.0765ZM15.4827 20.3464H15.4776V22.3464H15.4827V20.3464ZM14.7856 20.6244L14.7721 20.6374L16.156 22.0813L16.1695 22.0683L14.7856 20.6244ZM14.4641 21.3593V21.6562H16.4641V21.3593H14.4641ZM16.2641 21.0562L16.259 21.0494L14.659 22.2494L14.6641 22.2562L16.2641 21.0562Z" fill="white" mask="url(#path-10-inside-1_6161_141799)"/>
<mask id="path-12-inside-2_6161_141799" fill="white">
<path d="M17.9113 16.4156C18.5269 16.4535 19.1333 16.5842 19.7099 16.8031V16.588C19.1327 16.3775 18.5271 16.2554 17.9135 16.2258H17.873C17.4221 16.2045 16.9746 16.313 16.5836 16.5384C16.3979 16.6559 16.2451 16.8188 16.1396 17.0116C16.0342 17.2045 15.9796 17.421 15.9808 17.6408C15.9842 18.542 16.8945 18.9882 17.7243 19.4523C18.5658 19.912 19.333 20.3801 19.3325 21.1586V21.1833C19.3161 21.968 18.7275 22.5645 17.522 22.5657H17.5125C16.8015 22.524 16.1066 22.3379 15.4699 22.0187L15.4564 22.0119V22.2412H15.4609C16.1037 22.5466 16.801 22.7206 17.5119 22.7532H17.5626C18.0818 22.785 18.5971 22.6465 19.0305 22.3589C19.2085 22.2192 19.3518 22.0404 19.4495 21.8363C19.5472 21.6322 19.5966 21.4084 19.5938 21.1822V21.1766C19.5938 20.1886 18.6852 19.6833 17.8521 19.2219C17.0072 18.7634 16.2405 18.3331 16.2428 17.6667V17.6396C16.2529 16.8279 16.9672 16.4117 17.9107 16.4111L17.9113 16.4156Z"/>
</mask>
<path d="M17.9113 16.4156C18.5269 16.4535 19.1333 16.5842 19.7099 16.8031V16.588C19.1327 16.3775 18.5271 16.2554 17.9135 16.2258H17.873C17.4221 16.2045 16.9746 16.313 16.5836 16.5384C16.3979 16.6559 16.2451 16.8188 16.1396 17.0116C16.0342 17.2045 15.9796 17.421 15.9808 17.6408C15.9842 18.542 16.8945 18.9882 17.7243 19.4523C18.5658 19.912 19.333 20.3801 19.3325 21.1586V21.1833C19.3161 21.968 18.7275 22.5645 17.522 22.5657H17.5125C16.8015 22.524 16.1066 22.3379 15.4699 22.0187L15.4564 22.0119V22.2412H15.4609C16.1037 22.5466 16.801 22.7206 17.5119 22.7532H17.5626C18.0818 22.785 18.5971 22.6465 19.0305 22.3589C19.2085 22.2192 19.3518 22.0404 19.4495 21.8363C19.5472 21.6322 19.5966 21.4084 19.5938 21.1822V21.1766C19.5938 20.1886 18.6852 19.6833 17.8521 19.2219C17.0072 18.7634 16.2405 18.3331 16.2428 17.6667V17.6396C16.2529 16.8279 16.9672 16.4117 17.9107 16.4111L17.9113 16.4156Z" fill="white"/>
<path d="M17.9113 16.4156L16.919 16.5396L17.0218 17.3627L17.8498 17.4137L17.9113 16.4156ZM19.7099 16.588H20.7099V15.8882L20.0524 15.6485L19.7099 16.588ZM17.9135 16.2258L17.9618 15.2269L17.9377 15.2258H17.9135V16.2258ZM17.873 16.2258L17.8258 17.2247L17.8494 17.2258H17.873V16.2258ZM16.5836 16.5384L16.0842 15.672L16.0663 15.6823L16.0488 15.6934L16.5836 16.5384ZM15.9808 17.6408L16.9808 17.637L16.9808 17.6349L15.9808 17.6408ZM17.7243 19.4523L17.236 20.3251L17.2449 20.33L17.7243 19.4523ZM19.3325 21.1586L18.3325 21.1578V21.1586H19.3325ZM19.3325 21.1833L20.3322 21.2042L20.3325 21.1937V21.1833H19.3325ZM17.522 22.5657V23.5657L17.523 23.5657L17.522 22.5657ZM17.5125 22.5657L17.4539 23.564L17.4832 23.5657H17.5125V22.5657ZM15.4699 22.0187L15.9181 21.1248L15.9171 21.1243L15.4699 22.0187ZM15.4564 22.0119L15.9036 21.1175L14.4564 20.394V22.0119H15.4564ZM15.4564 22.2412H14.4564V23.2412H15.4564V22.2412ZM15.4609 22.2412L15.89 21.3379L15.6864 21.2412H15.4609V22.2412ZM17.5119 22.7532L17.4661 23.7522L17.489 23.7532H17.5119V22.7532ZM17.5626 22.7532L17.6236 21.7551L17.5931 21.7532H17.5626V22.7532ZM19.0305 22.3589L19.5834 23.1922L19.6168 23.1701L19.6482 23.1454L19.0305 22.3589ZM19.5938 21.1822H18.5938L18.5939 21.1943L19.5938 21.1822ZM17.8521 19.2219L18.3366 18.3471L18.3291 18.343L17.8521 19.2219ZM16.2428 17.6667L17.2428 17.6701V17.6667H16.2428ZM16.2428 17.6396L15.2428 17.6272V17.6396H16.2428ZM17.9107 16.4111L18.903 16.2871L18.7935 15.4106L17.9101 15.4111L17.9107 16.4111ZM17.8498 17.4137C18.3649 17.4454 18.8723 17.5548 19.3549 17.738L20.0649 15.8683C19.3942 15.6136 18.6888 15.4616 17.9728 15.4175L17.8498 17.4137ZM20.7099 16.8031V16.588H18.7099V16.8031H20.7099ZM20.0524 15.6485C19.3807 15.4035 18.6759 15.2614 17.9618 15.2269L17.8653 17.2246C18.3783 17.2494 18.8847 17.3515 19.3673 17.5275L20.0524 15.6485ZM17.9135 15.2258H17.873V17.2258H17.9135V15.2258ZM17.9201 15.2269C17.2781 15.1966 16.641 15.3511 16.0842 15.672L17.083 17.4048C17.3083 17.2749 17.5661 17.2124 17.8258 17.2247L17.9201 15.2269ZM16.0488 15.6934C15.7197 15.9017 15.4491 16.1902 15.2622 16.5319L17.0171 17.4914C17.0411 17.4474 17.076 17.4102 17.1183 17.3834L16.0488 15.6934ZM15.2622 16.5319C15.0754 16.8736 14.9786 17.2572 14.9809 17.6466L16.9808 17.6349C16.9805 17.5848 16.993 17.5354 17.0171 17.4914L15.2622 16.5319ZM14.9809 17.6445C14.984 18.4906 15.4339 19.0801 15.8947 19.4721C16.3209 19.8347 16.8701 20.1204 17.236 20.3251L18.2125 18.5796C17.7486 18.3201 17.4279 18.1506 17.1907 17.9488C16.988 17.7764 16.981 17.6922 16.9808 17.637L14.9809 17.6445ZM17.2449 20.33C17.675 20.5649 17.9737 20.7448 18.169 20.9235C18.343 21.0828 18.3325 21.1463 18.3325 21.1578L20.3325 21.1593C20.333 20.3924 19.9391 19.8325 19.5193 19.4482C19.1207 19.0834 18.6151 18.7994 18.2036 18.5747L17.2449 20.33ZM18.3325 21.1586V21.1833H20.3325V21.1586H18.3325ZM18.3327 21.1625C18.3299 21.2947 18.2892 21.3537 18.2369 21.3969C18.167 21.4545 17.9683 21.5652 17.5211 21.5657L17.523 23.5657C18.2812 23.565 18.9795 23.3769 19.5095 22.9398C20.0569 22.4882 20.3187 21.8567 20.3322 21.2042L18.3327 21.1625ZM17.522 21.5657H17.5125V23.5657H17.522V21.5657ZM17.571 21.5674C16.9957 21.5336 16.4333 21.383 15.9181 21.1248L15.0218 22.9126C15.7798 23.2927 16.6074 23.5143 17.4539 23.564L17.571 21.5674ZM15.9171 21.1243L15.9036 21.1175L15.0092 22.9064L15.0228 22.9131L15.9171 21.1243ZM14.4564 22.0119V22.2412H16.4564V22.0119H14.4564ZM15.4564 23.2412H15.4609V21.2412H15.4564V23.2412ZM15.0318 23.1445C15.7948 23.5069 16.6223 23.7135 17.4661 23.7522L17.5577 21.7543C16.9797 21.7278 16.4127 21.5862 15.89 21.3379L15.0318 23.1445ZM17.5119 23.7532H17.5626V21.7532H17.5119V23.7532ZM17.5016 23.7514C18.2379 23.7964 18.9688 23.6 19.5834 23.1922L18.4776 21.5257C18.2255 21.693 17.9256 21.7736 17.6236 21.7551L17.5016 23.7514ZM19.6482 23.1454C19.9469 22.9108 20.1875 22.6106 20.3515 22.2681L18.5475 21.4045C18.5161 21.4701 18.4701 21.5276 18.4129 21.5725L19.6482 23.1454ZM20.3515 22.2681C20.5155 21.9255 20.5984 21.5498 20.5938 21.1701L18.5939 21.1943C18.5948 21.267 18.5789 21.339 18.5475 21.4045L20.3515 22.2681ZM20.5938 21.1822V21.1766H18.5938V21.1822H20.5938ZM20.5938 21.1766C20.5938 20.3254 20.1846 19.7041 19.7157 19.2688C19.2787 18.8632 18.729 18.5644 18.3366 18.3471L17.3677 20.0968C17.8084 20.3408 18.1295 20.5253 18.3551 20.7347C18.5488 20.9144 18.5938 21.0398 18.5938 21.1766H20.5938ZM18.3291 18.343C17.886 18.1026 17.5771 17.9271 17.371 17.7549C17.1707 17.5875 17.2431 17.5688 17.2428 17.6701L15.2428 17.6633C15.2402 18.431 15.6948 18.9606 16.0885 19.2896C16.4764 19.6138 16.9733 19.8828 17.3752 20.1009L18.3291 18.343ZM17.2428 17.6667V17.6396H15.2428V17.6667H17.2428ZM17.2427 17.6521C17.2431 17.6238 17.2463 17.6063 17.2486 17.5972C17.2508 17.5883 17.2529 17.5841 17.2539 17.5823C17.2544 17.5814 17.2614 17.5672 17.2949 17.5441C17.3741 17.4894 17.5688 17.4113 17.9113 17.4111L17.9101 15.4111C17.3091 15.4115 16.6749 15.5418 16.1585 15.8983C15.6036 16.2814 15.2521 16.8856 15.2429 17.6272L17.2427 17.6521ZM16.9184 16.5351L16.919 16.5396L18.9035 16.2916L18.903 16.2871L16.9184 16.5351Z" fill="white" mask="url(#path-12-inside-2_6161_141799)"/>
<mask id="path-14-inside-3_6161_141799" fill="white">
<path d="M18.5437 18.9153C17.6988 18.4646 16.9276 18.081 16.9338 17.6326V17.605C16.9457 17.1082 17.3084 16.9094 17.8779 16.9026C18.5073 16.9581 19.1215 17.1266 19.6912 17.4L19.6974 17.4034L19.7131 17.3882V17.1127H19.7036C19.1307 16.8415 18.5128 16.6783 17.8807 16.6311H17.8582C17.5687 16.6191 17.2824 16.6958 17.0375 16.8508C16.9175 16.935 16.8203 17.0476 16.7544 17.1785C16.6886 17.3094 16.6562 17.4546 16.6601 17.6011C16.6826 18.3531 17.589 18.6849 18.4097 19.153C19.2445 19.6154 20.0123 20.15 20.0117 21.0834V21.1082C19.9948 22.2911 19.0378 22.9732 17.5332 22.9749H17.5095C16.8176 22.9375 16.133 22.8142 15.4715 22.6077L15.458 22.6037V22.8854H15.462C16.1255 23.0917 16.8126 23.2128 17.5067 23.2459H17.5687C18.2415 23.2761 18.9079 23.1026 19.4805 22.7479C19.7359 22.5596 19.9423 22.3128 20.0825 22.0281C20.2226 21.7435 20.2924 21.4293 20.286 21.1121V21.0941C20.286 19.9799 19.3814 19.3789 18.5437 18.9158V18.9153Z"/>
</mask>
<path d="M18.5437 18.9153C17.6988 18.4646 16.9276 18.081 16.9338 17.6326V17.605C16.9457 17.1082 17.3084 16.9094 17.8779 16.9026C18.5073 16.9581 19.1215 17.1266 19.6912 17.4L19.6974 17.4034L19.7131 17.3882V17.1127H19.7036C19.1307 16.8415 18.5128 16.6783 17.8807 16.6311H17.8582C17.5687 16.6191 17.2824 16.6958 17.0375 16.8508C16.9175 16.935 16.8203 17.0476 16.7544 17.1785C16.6886 17.3094 16.6562 17.4546 16.6601 17.6011C16.6826 18.3531 17.589 18.6849 18.4097 19.153C19.2445 19.6154 20.0123 20.15 20.0117 21.0834V21.1082C19.9948 22.2911 19.0378 22.9732 17.5332 22.9749H17.5095C16.8176 22.9375 16.133 22.8142 15.4715 22.6077L15.458 22.6037V22.8854H15.462C16.1255 23.0917 16.8126 23.2128 17.5067 23.2459H17.5687C18.2415 23.2761 18.9079 23.1026 19.4805 22.7479C19.7359 22.5596 19.9423 22.3128 20.0825 22.0281C20.2226 21.7435 20.2924 21.4293 20.286 21.1121V21.0941C20.286 19.9799 19.3814 19.3789 18.5437 18.9158V18.9153Z" fill="white"/>
<path d="M18.5437 18.9153H19.5437V18.3153L19.0143 18.0329L18.5437 18.9153ZM16.9338 17.6326L17.9338 17.6465V17.6326H16.9338ZM16.9338 17.605L15.9341 17.5812L15.9338 17.5931V17.605H16.9338ZM17.8779 16.9026L17.9658 15.9065L17.916 15.9021L17.8661 15.9027L17.8779 16.9026ZM19.6912 17.4L20.1701 16.5221L20.1473 16.5097L20.1238 16.4984L19.6912 17.4ZM19.6974 17.4034L19.2185 18.2812L19.863 18.6329L20.3915 18.1232L19.6974 17.4034ZM19.7131 17.3882L20.4073 18.108L20.7131 17.8131V17.3882H19.7131ZM19.7131 17.1127H20.7131V16.1127H19.7131V17.1127ZM19.7036 17.1127L19.2757 18.0166L19.4788 18.1127H19.7036V17.1127ZM17.8807 16.6311L17.9552 15.6339L17.918 15.6311H17.8807V16.6311ZM17.8582 16.6311L17.817 17.6302L17.8376 17.6311H17.8582V16.6311ZM17.0375 16.8508L16.5026 16.0058L16.4825 16.0186L16.463 16.0323L17.0375 16.8508ZM16.6601 17.6011L15.6604 17.6278L15.6605 17.631L16.6601 17.6011ZM18.4097 19.153L17.9142 20.0217L17.9251 20.0277L18.4097 19.153ZM20.0117 21.0834L19.0117 21.0828V21.0834H20.0117ZM20.0117 21.1082L21.0116 21.1225L21.0117 21.1153V21.1082H20.0117ZM17.5332 22.9749V23.9749L17.5343 23.9749L17.5332 22.9749ZM17.5095 22.9749L17.4556 23.9735L17.4825 23.9749H17.5095V22.9749ZM15.4715 22.6077L15.7695 21.6531L15.7606 21.6503L15.7515 21.6477L15.4715 22.6077ZM15.458 22.6037L15.738 21.6437L14.458 21.2704V22.6037H15.458ZM15.458 22.8854H14.458V23.8854H15.458V22.8854ZM15.462 22.8854L15.7589 21.9305L15.6138 21.8854H15.462V22.8854ZM17.5067 23.2459L17.4592 24.2448L17.4829 24.2459H17.5067V23.2459ZM17.5687 23.2459L17.6136 22.2469L17.5911 22.2459H17.5687V23.2459ZM19.4805 22.7479L20.007 23.5981L20.0415 23.5768L20.0741 23.5527L19.4805 22.7479ZM20.286 21.1121H19.286V21.1222L19.2862 21.1323L20.286 21.1121ZM18.5437 18.9158H17.5437V19.5057L18.06 19.791L18.5437 18.9158ZM19.0143 18.0329C18.5601 17.7906 18.2276 17.618 17.993 17.4538C17.8794 17.3743 17.8448 17.3341 17.8456 17.3351C17.8505 17.3412 17.9364 17.4524 17.9337 17.6465L15.9339 17.6188C15.9282 18.0371 16.1082 18.3644 16.2823 18.5825C16.4524 18.7957 16.6622 18.9636 16.8463 19.0924C17.2069 19.3448 17.6825 19.5893 18.0732 19.7976L19.0143 18.0329ZM17.9338 17.6326V17.605H15.9338V17.6326H17.9338ZM17.9336 17.6288C17.9337 17.6251 17.9329 17.6698 17.8996 17.736C17.8643 17.8062 17.8127 17.86 17.7645 17.8933C17.7222 17.9224 17.7004 17.9237 17.7246 17.9179C17.7489 17.912 17.8013 17.9036 17.8898 17.9025L17.8661 15.9027C17.4962 15.9071 17.0295 15.9706 16.629 16.2468C16.1668 16.5656 15.9466 17.0578 15.9341 17.5812L17.9336 17.6288ZM17.79 17.8987C18.2998 17.9437 18.7972 18.0802 19.2585 18.3016L20.1238 16.4984C19.4459 16.1731 18.7149 15.9726 17.9658 15.9065L17.79 17.8987ZM19.2123 18.2779L19.2185 18.2812L20.1763 16.5255L20.1701 16.5221L19.2123 18.2779ZM20.3915 18.1232L20.4073 18.108L19.019 16.6683L19.0032 16.6835L20.3915 18.1232ZM20.7131 17.3882V17.1127H18.7131V17.3882H20.7131ZM19.7131 16.1127H19.7036V18.1127H19.7131V16.1127ZM20.1314 16.2089C19.4475 15.8851 18.7098 15.6902 17.9552 15.6339L17.8063 17.6283C18.3158 17.6664 18.8139 17.798 19.2757 18.0166L20.1314 16.2089ZM17.8807 15.6311H17.8582V17.6311H17.8807V15.6311ZM17.8995 15.6319C17.4067 15.6116 16.9194 15.742 16.5026 16.0058L17.5724 17.6957C17.6453 17.6495 17.7307 17.6267 17.817 17.6302L17.8995 15.6319ZM16.463 16.0323C16.2079 16.2113 16.0011 16.4507 15.8611 16.7291L17.6478 17.6278C17.6395 17.6444 17.6272 17.6586 17.612 17.6693L16.463 16.0323ZM15.8611 16.7291C15.7211 17.0075 15.6521 17.3163 15.6604 17.6278L17.6597 17.5744C17.6602 17.5929 17.6561 17.6113 17.6478 17.6278L15.8611 16.7291ZM15.6605 17.631C15.6859 18.4761 16.2308 18.9968 16.6571 19.2992C17.0373 19.5688 17.6179 19.8526 17.9142 20.0216L18.9051 18.2843C18.6883 18.1607 18.4449 18.0344 18.2693 17.9394C18.0749 17.8341 17.9283 17.7488 17.8141 17.6678C17.5764 17.4992 17.6568 17.4781 17.6596 17.5711L15.6605 17.631ZM17.9251 20.0277C18.3315 20.2529 18.618 20.4421 18.8031 20.6346C18.9626 20.8005 19.0118 20.9301 19.0117 21.0828L21.0117 21.084C21.0126 19.4998 19.6716 18.7089 18.8943 18.2782L17.9251 20.0277ZM19.0117 21.0834V21.1082H21.0117V21.0834H19.0117ZM19.0118 21.0939C19.0076 21.3861 18.904 21.5556 18.7345 21.6814C18.5312 21.8322 18.1491 21.9742 17.5321 21.9749L17.5343 23.9749C18.4218 23.9739 19.2706 23.774 19.9262 23.2876C20.6155 22.7762 20.9989 22.0132 21.0116 21.1225L19.0118 21.0939ZM17.5332 21.9749H17.5095V23.9749H17.5332V21.9749ZM17.5635 21.9764C16.9544 21.9435 16.3518 21.8349 15.7695 21.6531L15.1735 23.5622C15.9142 23.7935 16.6808 23.9316 17.4556 23.9735L17.5635 21.9764ZM15.7515 21.6477L15.738 21.6437L15.178 23.5637L15.1915 23.5677L15.7515 21.6477ZM14.458 22.6037V22.8854H16.458V22.6037H14.458ZM15.458 23.8854H15.462V21.8854H15.458V23.8854ZM15.165 23.8403C15.9095 24.0718 16.6804 24.2077 17.4592 24.2448L17.5543 22.247C16.9448 22.218 16.3415 22.1116 15.7589 21.9305L15.165 23.8403ZM17.5067 24.2459H17.5687V22.2459H17.5067V24.2459ZM17.5238 24.2449C18.3978 24.2841 19.2632 24.0587 20.007 23.5981L18.954 21.8978C18.5525 22.1464 18.0853 22.2681 17.6136 22.2469L17.5238 24.2449ZM20.0741 23.5527C20.4582 23.2694 20.7687 22.8981 20.9796 22.4699L19.1853 21.5863C19.1158 21.7274 19.0135 21.8498 18.887 21.9431L20.0741 23.5527ZM20.9796 22.4699C21.1904 22.0417 21.2955 21.5691 21.2858 21.0919L19.2862 21.1323C19.2894 21.2896 19.2548 21.4453 19.1853 21.5863L20.9796 22.4699ZM21.286 21.1121V21.0941H19.286V21.1121H21.286ZM21.286 21.0941C21.286 19.3339 19.8178 18.4775 19.0275 18.0406L18.06 19.791C18.9449 20.2802 19.286 20.6259 19.286 21.0941H21.286ZM19.5437 18.9158V18.9153H17.5437V18.9158H19.5437Z" fill="white" mask="url(#path-14-inside-3_6161_141799)"/>
<mask id="path-16-inside-4_6161_141799" fill="white">
<path d="M30.4843 32.167C31.1 32.5709 31.8095 32.8092 32.5442 32.8587H32.5792C32.9578 32.8833 33.3315 32.7624 33.6241 32.5208C33.7243 32.4256 33.8041 32.311 33.8584 32.1839C33.9128 32.0568 33.9406 31.9199 33.9401 31.7817C33.9311 30.9103 33.018 30.5059 32.1939 30.0445C31.354 29.5843 30.5902 29.0954 30.5907 28.2301V28.2048C30.6059 27.0883 31.5866 26.5267 32.8918 26.5262H32.916C33.5243 26.5523 34.1283 26.6408 34.7186 26.7903L34.7383 26.7943V26.5166H34.7259C34.1355 26.3684 33.5315 26.2812 32.9233 26.2563H32.8698C32.2567 26.2327 31.6493 26.3818 31.1168 26.6867C30.8668 26.8528 30.6627 27.0792 30.5234 27.345C30.3841 27.6109 30.3141 27.9075 30.3198 28.2076V28.22C30.3198 29.2835 31.2295 29.8293 32.066 30.289C32.9109 30.7441 33.6753 31.148 33.6725 31.7536V31.7817C33.6545 32.1687 33.4511 32.5861 32.5532 32.5906C31.82 32.5298 31.1152 32.2794 30.5079 31.864H30.5029L30.4893 31.8769V32.1738L30.4843 32.167Z"/>
</mask>
<path d="M30.4843 32.167C31.1 32.5709 31.8095 32.8092 32.5442 32.8587H32.5792C32.9578 32.8833 33.3315 32.7624 33.6241 32.5208C33.7243 32.4256 33.8041 32.311 33.8584 32.1839C33.9128 32.0568 33.9406 31.9199 33.9401 31.7817C33.9311 30.9103 33.018 30.5059 32.1939 30.0445C31.354 29.5843 30.5902 29.0954 30.5907 28.2301V28.2048C30.6059 27.0883 31.5866 26.5267 32.8918 26.5262H32.916C33.5243 26.5523 34.1283 26.6408 34.7186 26.7903L34.7383 26.7943V26.5166H34.7259C34.1355 26.3684 33.5315 26.2812 32.9233 26.2563H32.8698C32.2567 26.2327 31.6493 26.3818 31.1168 26.6867C30.8668 26.8528 30.6627 27.0792 30.5234 27.345C30.3841 27.6109 30.3141 27.9075 30.3198 28.2076V28.22C30.3198 29.2835 31.2295 29.8293 32.066 30.289C32.9109 30.7441 33.6753 31.148 33.6725 31.7536V31.7817C33.6545 32.1687 33.4511 32.5861 32.5532 32.5906C31.82 32.5298 31.1152 32.2794 30.5079 31.864H30.5029L30.4893 31.8769V32.1738L30.4843 32.167Z" fill="white"/>
<path d="M30.4843 32.167L31.0328 31.3309L29.6843 32.767L30.4843 32.167ZM32.5442 32.8587L32.4769 33.8565L32.5105 33.8587H32.5442V32.8587ZM32.5792 32.8587L32.6439 31.8608L32.6116 31.8587H32.5792V32.8587ZM33.6241 32.5208L34.2609 33.2917L34.2875 33.2698L34.3124 33.2462L33.6241 32.5208ZM33.9401 31.7817L34.9401 31.7782L34.94 31.7714L33.9401 31.7817ZM32.1939 30.0445L32.6824 29.1719L32.6744 29.1675L32.1939 30.0445ZM30.5907 28.2301L31.5907 28.2308V28.2301H30.5907ZM30.5907 28.2048L29.5907 28.1912V28.2048H30.5907ZM32.8918 26.5262V25.5262L32.8914 25.5262L32.8918 26.5262ZM32.916 26.5262L32.9589 25.5271L32.9375 25.5262H32.916V26.5262ZM34.7186 26.7903L34.4729 27.7597L34.4975 27.7659L34.5224 27.7709L34.7186 26.7903ZM34.7383 26.7943L34.5422 27.7749L35.7383 28.0141V26.7943H34.7383ZM34.7383 26.5166H35.7383V25.5166H34.7383V26.5166ZM34.7259 26.5166L34.4824 27.4865L34.6023 27.5166H34.7259V26.5166ZM32.9233 26.2563L32.9641 25.2572L32.9437 25.2563H32.9233V26.2563ZM32.8698 26.2563L32.8312 27.2556L32.8505 27.2563H32.8698V26.2563ZM31.1168 26.6867L30.6199 25.8189L30.5911 25.8354L30.5635 25.8537L31.1168 26.6867ZM30.3198 28.2076H31.3198V28.1981L31.3196 28.1886L30.3198 28.2076ZM32.066 30.289L31.5844 31.1654L31.5918 31.1694L32.066 30.289ZM33.6725 31.7536L32.6725 31.7489V31.7536H33.6725ZM33.6725 31.7817L34.6714 31.8282L34.6725 31.805V31.7817H33.6725ZM32.5532 32.5906L32.4706 33.5872L32.5144 33.5908L32.5583 33.5906L32.5532 32.5906ZM30.5079 31.864L31.0726 31.0386L30.8173 30.864H30.5079V31.864ZM30.5029 31.864V30.864H30.101L29.8109 31.142L30.5029 31.864ZM30.4893 31.8769L29.7974 31.155L29.4893 31.4502V31.8769H30.4893ZM30.4893 32.1738L29.6893 32.7738L31.4893 35.1738V32.1738H30.4893ZM29.9358 33.0032C30.6953 33.5014 31.5706 33.7953 32.4769 33.8565L32.6115 31.861C32.0484 31.823 31.5047 31.6404 31.0328 31.3309L29.9358 33.0032ZM32.5442 33.8587H32.5792V31.8587H32.5442V33.8587ZM32.5144 33.8566C33.1473 33.8977 33.772 33.6956 34.2609 33.2917L32.9872 31.7498C32.8911 31.8292 32.7683 31.8689 32.6439 31.8608L32.5144 33.8566ZM34.3124 33.2462C34.5116 33.0572 34.67 32.8295 34.7779 32.577L32.939 31.7907C32.9382 31.7925 32.9371 31.7941 32.9357 31.7954L34.3124 33.2462ZM34.7779 32.577C34.8858 32.3246 34.941 32.0528 34.9401 31.7782L32.9401 31.7852C32.9401 31.7871 32.9397 31.789 32.939 31.7907L34.7779 32.577ZM34.94 31.7714C34.9313 30.9226 34.4588 30.3501 33.9999 29.9805C33.5813 29.6434 33.0262 29.3645 32.6823 29.1719L31.7054 30.9171C32.1856 31.1859 32.4992 31.3399 32.7454 31.5382C32.9513 31.704 32.9399 31.7694 32.9401 31.7921L34.94 31.7714ZM32.6744 29.1675C32.2518 28.936 31.9621 28.755 31.7745 28.5725C31.615 28.4173 31.5907 28.3226 31.5907 28.2308L29.5907 28.2295C29.5902 29.0029 29.9475 29.5853 30.3797 30.0059C30.7839 30.3992 31.296 30.6928 31.7133 30.9215L32.6744 29.1675ZM31.5907 28.2301V28.2048H29.5907V28.2301H31.5907ZM31.5906 28.2184C31.5937 27.9963 31.6713 27.8754 31.8213 27.7729C32.0121 27.6427 32.3645 27.5264 32.8922 27.5262L32.8914 25.5262C32.1139 25.5265 31.3234 25.6913 30.6937 26.1211C30.0233 26.5787 29.603 27.2968 29.5908 28.1912L31.5906 28.2184ZM32.8918 27.5262H32.916V25.5262H32.8918V27.5262ZM32.8731 27.5252C33.413 27.5484 33.9491 27.627 34.4729 27.7597L34.9642 25.821C34.3076 25.6546 33.6356 25.5561 32.9589 25.5271L32.8731 27.5252ZM34.5224 27.7709L34.5422 27.7749L34.9344 25.8137L34.9147 25.8098L34.5224 27.7709ZM35.7383 26.7943V26.5166H33.7383V26.7943H35.7383ZM34.7383 25.5166H34.7259V27.5166H34.7383V25.5166ZM34.9694 25.5467C34.3126 25.3818 33.6407 25.2848 32.9641 25.2572L32.8825 27.2555C33.4223 27.2776 33.9584 27.355 34.4824 27.4865L34.9694 25.5467ZM32.9233 25.2563H32.8698V27.2563H32.9233V25.2563ZM32.9084 25.2571C32.108 25.2262 31.315 25.4209 30.6199 25.8189L31.6138 27.5545C31.9836 27.3427 32.4054 27.2392 32.8312 27.2556L32.9084 25.2571ZM30.5635 25.8537C30.1735 26.1128 29.8551 26.4661 29.6377 26.8808L31.4092 27.8092C31.4704 27.6923 31.5602 27.5927 31.6702 27.5197L30.5635 25.8537ZM29.6377 26.8808C29.4203 27.2956 29.3111 27.7585 29.32 28.2266L31.3196 28.1886C31.3171 28.0566 31.3479 27.9261 31.4092 27.8092L29.6377 26.8808ZM29.3198 28.2076V28.22H31.3198V28.2076H29.3198ZM29.3198 28.22C29.3198 29.0816 29.7039 29.7271 30.1776 30.1935C30.6211 30.6301 31.1748 30.9403 31.5844 31.1654L32.5476 29.4126C32.1207 29.178 31.8013 28.9854 31.5808 28.7683C31.3906 28.5811 31.3198 28.4219 31.3198 28.22H29.3198ZM31.5918 31.1694C32.0424 31.4121 32.3554 31.5826 32.5682 31.7503C32.7886 31.924 32.6717 31.9169 32.6725 31.7489L34.6725 31.7582C34.6761 30.9847 34.1785 30.4729 33.8061 30.1794C33.4262 29.88 32.9345 29.621 32.5402 29.4086L31.5918 31.1694ZM32.6725 31.7536V31.7817H34.6725V31.7536H32.6725ZM32.6736 31.7352C32.6726 31.7558 32.6704 31.7448 32.6817 31.7151C32.6951 31.6799 32.7216 31.6346 32.7629 31.5963C32.8032 31.559 32.8283 31.5553 32.8043 31.5628C32.7761 31.5717 32.6985 31.5899 32.5482 31.5906L32.5583 33.5906C33.146 33.5876 33.7057 33.4496 34.1227 33.0629C34.5489 32.6677 34.6554 32.1723 34.6714 31.8282L32.6736 31.7352ZM32.6359 31.594C32.0754 31.5476 31.5367 31.3562 31.0726 31.0386L29.9433 32.6893C30.6936 33.2026 31.5646 33.5121 32.4706 33.5872L32.6359 31.594ZM30.5079 30.864H30.5029V32.864H30.5079V30.864ZM29.8109 31.142L29.7974 31.155L31.1813 32.5989L31.1948 32.5859L29.8109 31.142ZM29.4893 31.8769V32.1738H31.4893V31.8769H29.4893ZM31.2893 31.5738L31.2843 31.567L29.6843 32.767L29.6893 32.7738L31.2893 31.5738Z" fill="white" mask="url(#path-16-inside-4_6161_141799)"/>
<mask id="path-18-inside-5_6161_141799" fill="white">
<path d="M32.9365 26.9332C33.5522 26.9711 34.1585 27.1018 34.7351 27.3207V27.1055C34.158 26.8951 33.5524 26.773 32.9388 26.7433H32.8982C32.4474 26.7221 31.9999 26.8306 31.6088 27.056C31.4231 27.1735 31.2704 27.3364 31.1649 27.5292C31.0595 27.7221 31.0048 27.9386 31.0061 28.1583C31.0095 29.0596 31.9198 29.5058 32.7495 29.9699C33.5911 30.4296 34.3583 30.8977 34.3577 31.6761V31.7009C34.3414 32.4856 33.7527 33.0821 32.5473 33.0832H32.5377C31.8268 33.0416 31.1318 32.8555 30.4952 32.5363L30.4817 32.5295V32.7588H30.4862C31.129 33.0641 31.8263 33.2382 32.5372 33.2708H32.5879C33.107 33.3025 33.6224 33.1641 34.0558 32.8765C34.2337 32.7368 34.3771 32.5579 34.4748 32.3539C34.5725 32.1498 34.6218 31.926 34.6191 31.6998V31.6942C34.6191 30.7061 33.7105 30.2009 32.8774 29.7395C32.0324 29.281 31.2658 28.8506 31.2681 28.1843V28.1572C31.2782 27.3455 31.9924 26.9292 32.936 26.9287L32.9365 26.9332Z"/>
</mask>
<path d="M32.9365 26.9332C33.5522 26.9711 34.1585 27.1018 34.7351 27.3207V27.1055C34.158 26.8951 33.5524 26.773 32.9388 26.7433H32.8982C32.4474 26.7221 31.9999 26.8306 31.6088 27.056C31.4231 27.1735 31.2704 27.3364 31.1649 27.5292C31.0595 27.7221 31.0048 27.9386 31.0061 28.1583C31.0095 29.0596 31.9198 29.5058 32.7495 29.9699C33.5911 30.4296 34.3583 30.8977 34.3577 31.6761V31.7009C34.3414 32.4856 33.7527 33.0821 32.5473 33.0832H32.5377C31.8268 33.0416 31.1318 32.8555 30.4952 32.5363L30.4817 32.5295V32.7588H30.4862C31.129 33.0641 31.8263 33.2382 32.5372 33.2708H32.5879C33.107 33.3025 33.6224 33.1641 34.0558 32.8765C34.2337 32.7368 34.3771 32.5579 34.4748 32.3539C34.5725 32.1498 34.6218 31.926 34.6191 31.6998V31.6942C34.6191 30.7061 33.7105 30.2009 32.8774 29.7395C32.0324 29.281 31.2658 28.8506 31.2681 28.1843V28.1572C31.2782 27.3455 31.9924 26.9292 32.936 26.9287L32.9365 26.9332Z" fill="white"/>
<path d="M32.9365 26.9332L31.9442 27.0572L32.0471 27.8803L32.875 27.9313L32.9365 26.9332ZM34.7351 27.1055H35.7351V26.4058L35.0777 26.1661L34.7351 27.1055ZM32.9388 26.7433L32.987 25.7445L32.9629 25.7433H32.9388V26.7433ZM32.8982 26.7433L32.8511 27.7422L32.8746 27.7433H32.8982V26.7433ZM31.6088 27.056L31.1094 26.1896L31.0915 26.1999L31.0741 26.211L31.6088 27.056ZM31.0061 28.1583L32.0061 28.1546L32.0061 28.1525L31.0061 28.1583ZM32.7495 29.9699L32.2613 30.8427L32.2702 30.8475L32.7495 29.9699ZM34.3577 31.6761L33.3577 31.6754V31.6761H34.3577ZM34.3577 31.7009L35.3575 31.7217L35.3577 31.7113V31.7009H34.3577ZM32.5473 33.0832V34.0832L32.5482 34.0832L32.5473 33.0832ZM32.5377 33.0832L32.4792 34.0815L32.5084 34.0832H32.5377V33.0832ZM30.4952 32.5363L30.9434 31.6423L30.9424 31.6418L30.4952 32.5363ZM30.4817 32.5295L30.9289 31.6351L29.4817 30.9115V32.5295H30.4817ZM30.4817 32.7588H29.4817V33.7588H30.4817V32.7588ZM30.4862 32.7588L30.9153 31.8555L30.7116 31.7588H30.4862V32.7588ZM32.5372 33.2708L32.4913 34.2698L32.5142 34.2708H32.5372V33.2708ZM32.5879 33.2708L32.6488 32.2727L32.6184 32.2708H32.5879V33.2708ZM34.0558 32.8765L34.6087 33.7098L34.642 33.6876L34.6735 33.663L34.0558 32.8765ZM34.6191 31.6998H33.619L33.6192 31.7119L34.6191 31.6998ZM32.8774 29.7395L33.3618 28.8647L33.3544 28.8606L32.8774 29.7395ZM31.2681 28.1843L32.2681 28.1876V28.1843H31.2681ZM31.2681 28.1572L30.2681 28.1447V28.1572H31.2681ZM32.936 26.9287L33.9283 26.8047L33.8187 25.9281L32.9354 25.9287L32.936 26.9287ZM32.875 27.9313C33.3902 27.963 33.8976 28.0724 34.3801 28.2556L35.0901 26.3859C34.4194 26.1312 33.7141 25.9792 32.998 25.9351L32.875 27.9313ZM35.7351 27.3207V27.1055H33.7351V27.3207H35.7351ZM35.0777 26.1661C34.406 25.9211 33.7012 25.779 32.987 25.7445L32.8905 27.7422C33.4036 27.767 33.91 27.8691 34.3926 28.045L35.0777 26.1661ZM32.9388 25.7433H32.8982V27.7433H32.9388V25.7433ZM32.9454 25.7445C32.3034 25.7142 31.6662 25.8687 31.1094 26.1896L32.1083 27.9223C32.3335 27.7925 32.5913 27.73 32.8511 27.7422L32.9454 25.7445ZM31.0741 26.211C30.745 26.4192 30.4743 26.7078 30.2875 27.0495L32.0423 28.0089C32.0664 27.9649 32.1012 27.9278 32.1436 27.901L31.0741 26.211ZM30.2875 27.0495C30.1007 27.3912 30.0038 27.7748 30.0061 28.1642L32.0061 28.1525C32.0058 28.1023 32.0183 28.0529 32.0423 28.0089L30.2875 27.0495ZM30.0061 28.1621C30.0093 29.0082 30.4592 29.5977 30.9199 29.9897C31.3462 30.3523 31.8954 30.6379 32.2613 30.8426L33.2377 29.0972C32.7739 28.8377 32.4531 28.6682 32.2159 28.4664C32.0133 28.294 32.0063 28.2098 32.0061 28.1546L30.0061 28.1621ZM32.2702 30.8475C32.7003 31.0825 32.999 31.2624 33.1942 31.4411C33.3683 31.6004 33.3577 31.6638 33.3577 31.6754L35.3577 31.6769C35.3583 30.9099 34.9644 30.3501 34.5446 29.9658C34.146 29.601 33.6403 29.317 33.2289 29.0923L32.2702 30.8475ZM33.3577 31.6761V31.7009H35.3577V31.6761H33.3577ZM33.3579 31.6801C33.3552 31.8122 33.3144 31.8713 33.2621 31.9145C33.1923 31.9721 32.9935 32.0828 32.5464 32.0832L32.5482 34.0832C33.3065 34.0825 34.0048 33.8944 34.5347 33.4573C35.0822 33.0058 35.3439 32.3743 35.3575 31.7217L33.3579 31.6801ZM32.5473 32.0832H32.5377V34.0832H32.5473V32.0832ZM32.5963 32.085C32.021 32.0512 31.4586 31.9006 30.9434 31.6423L30.047 33.4302C30.8051 33.8103 31.6326 34.0319 32.4792 34.0815L32.5963 32.085ZM30.9424 31.6418L30.9289 31.6351L30.0345 33.424L30.048 33.4307L30.9424 31.6418ZM29.4817 32.5295V32.7588H31.4817V32.5295H29.4817ZM30.4817 33.7588H30.4862V31.7588H30.4817V33.7588ZM30.0571 33.6621C30.82 34.0245 31.6476 34.2311 32.4913 34.2698L32.583 32.2719C32.0049 32.2454 31.438 32.1038 30.9153 31.8555L30.0571 33.6621ZM32.5372 34.2708H32.5879V32.2708H32.5372V34.2708ZM32.5269 34.269C33.2632 34.3139 33.9941 34.1176 34.6087 33.7098L33.5029 32.0433C33.2507 32.2106 32.9509 32.2911 32.6488 32.2727L32.5269 34.269ZM34.6735 33.663C34.9721 33.4284 35.2128 33.1282 35.3767 32.7857L33.5728 31.9221C33.5414 31.9877 33.4953 32.0452 33.4381 32.0901L34.6735 33.663ZM35.3767 32.7857C35.5407 32.4431 35.6236 32.0674 35.619 31.6877L33.6192 31.7119C33.6201 31.7846 33.6042 31.8565 33.5728 31.9221L35.3767 32.7857ZM35.6191 31.6998V31.6942H33.6191V31.6998H35.6191ZM35.6191 31.6942C35.6191 30.843 35.2099 30.2216 34.741 29.7864C34.3039 29.3808 33.7543 29.082 33.3618 28.8647L32.393 30.6143C32.8336 30.8584 33.1548 31.0429 33.3804 31.2523C33.574 31.432 33.6191 31.5573 33.6191 31.6942H35.6191ZM33.3544 28.8606C32.9112 28.6201 32.6023 28.4447 32.3963 28.2725C32.1959 28.1051 32.2684 28.0863 32.268 28.1876L30.2681 28.1809C30.2655 28.9486 30.7201 29.4782 31.1138 29.8072C31.5017 30.1314 31.9986 30.4004 32.4004 30.6184L33.3544 28.8606ZM32.2681 28.1843V28.1572H30.2681V28.1843H32.2681ZM32.268 28.1697C32.2683 28.1414 32.2716 28.1238 32.2739 28.1147C32.2761 28.1059 32.2782 28.1016 32.2792 28.0999C32.2797 28.099 32.2867 28.0848 32.3202 28.0617C32.3994 28.007 32.5941 27.9289 32.9366 27.9287L32.9354 25.9287C32.3344 25.929 31.7001 26.0594 31.1838 26.4159C30.6289 26.799 30.2774 27.4032 30.2681 28.1447L32.268 28.1697ZM31.9437 27.0526L31.9442 27.0572L33.9288 26.8092L33.9283 26.8047L31.9437 27.0526Z" fill="white" mask="url(#path-18-inside-5_6161_141799)"/>
<mask id="path-20-inside-6_6161_141799" fill="white">
<path d="M33.569 29.4328C32.7241 28.9822 31.9529 28.5986 31.9591 28.1502V28.1226C31.9709 27.6258 32.3337 27.4269 32.9032 27.4202C33.5326 27.4757 34.1468 27.6442 34.7164 27.9176L34.7226 27.921L34.7384 27.9057V27.6303H34.7288C34.156 27.3591 33.5381 27.1959 32.906 27.1487H32.8835C32.5939 27.1367 32.3076 27.2134 32.0628 27.3684C31.9428 27.4526 31.8456 27.5651 31.7797 27.6961C31.7139 27.827 31.6814 27.9722 31.6854 28.1187C31.7079 28.8707 32.6142 29.2025 33.4349 29.6706C34.2698 30.133 35.0375 30.6676 35.037 31.601V31.6258C35.0201 32.8087 34.063 33.4908 32.5585 33.4925H32.5348C31.8429 33.4551 31.1583 33.3318 30.4968 33.1252L30.4833 33.1213V33.403H30.4872C31.1508 33.6093 31.8379 33.7304 32.532 33.7635H32.5939C33.2668 33.7937 33.9331 33.6201 34.5058 33.2655C34.7611 33.0772 34.9676 32.8303 35.1077 32.5457C35.2479 32.261 35.3177 31.9469 35.3113 31.6297V31.6117C35.3113 30.4975 34.4066 29.8964 33.569 29.4334V29.4328Z"/>
</mask>
<path d="M33.569 29.4328C32.7241 28.9822 31.9529 28.5986 31.9591 28.1502V28.1226C31.9709 27.6258 32.3337 27.4269 32.9032 27.4202C33.5326 27.4757 34.1468 27.6442 34.7164 27.9176L34.7226 27.921L34.7384 27.9057V27.6303H34.7288C34.156 27.3591 33.5381 27.1959 32.906 27.1487H32.8835C32.5939 27.1367 32.3076 27.2134 32.0628 27.3684C31.9428 27.4526 31.8456 27.5651 31.7797 27.6961C31.7139 27.827 31.6814 27.9722 31.6854 28.1187C31.7079 28.8707 32.6142 29.2025 33.4349 29.6706C34.2698 30.133 35.0375 30.6676 35.037 31.601V31.6258C35.0201 32.8087 34.063 33.4908 32.5585 33.4925H32.5348C31.8429 33.4551 31.1583 33.3318 30.4968 33.1252L30.4833 33.1213V33.403H30.4872C31.1508 33.6093 31.8379 33.7304 32.532 33.7635H32.5939C33.2668 33.7937 33.9331 33.6201 34.5058 33.2655C34.7611 33.0772 34.9676 32.8303 35.1077 32.5457C35.2479 32.261 35.3177 31.9469 35.3113 31.6297V31.6117C35.3113 30.4975 34.4066 29.8964 33.569 29.4334V29.4328Z" fill="white"/>
<path d="M33.569 29.4328H34.569V28.8328L34.0396 28.5505L33.569 29.4328ZM31.9591 28.1502L32.9591 28.164V28.1502H31.9591ZM31.9591 28.1226L30.9594 28.0988L30.9591 28.1107V28.1226H31.9591ZM32.9032 27.4202L32.9911 26.4241L32.9413 26.4197L32.8913 26.4203L32.9032 27.4202ZM34.7164 27.9176L35.1953 27.0397L35.1725 27.0273L35.1491 27.016L34.7164 27.9176ZM34.7226 27.921L34.2437 28.7988L34.8883 29.1504L35.4168 28.6408L34.7226 27.921ZM34.7384 27.9057L35.4326 28.6256L35.7384 28.3306V27.9057H34.7384ZM34.7384 27.6303H35.7384V26.6303H34.7384V27.6303ZM34.7288 27.6303L34.301 28.5341L34.5041 28.6303H34.7288V27.6303ZM32.906 27.1487L32.9805 26.1514L32.9433 26.1487H32.906V27.1487ZM32.8835 27.1487L32.8422 28.1478L32.8628 28.1487H32.8835V27.1487ZM32.0628 27.3684L31.5279 26.5234L31.5078 26.5362L31.4882 26.5499L32.0628 27.3684ZM31.6854 28.1187L30.6857 28.1454L30.6858 28.1486L31.6854 28.1187ZM33.4349 29.6706L32.9395 30.5393L32.9504 30.5453L33.4349 29.6706ZM35.037 31.601L34.037 31.6004V31.601H35.037ZM35.037 31.6258L36.0369 31.64L36.037 31.6329V31.6258H35.037ZM32.5585 33.4925V34.4925L32.5596 34.4925L32.5585 33.4925ZM32.5348 33.4925L32.4808 34.4911L32.5078 34.4925H32.5348V33.4925ZM30.4968 33.1252L30.7948 32.1707L30.7858 32.1679L30.7768 32.1652L30.4968 33.1252ZM30.4833 33.1213L30.7633 32.1613L29.4833 31.788V33.1213H30.4833ZM30.4833 33.403H29.4833V34.403H30.4833V33.403ZM30.4872 33.403L30.7841 32.448L30.6391 32.403H30.4872V33.403ZM32.532 33.7635L32.4844 34.7623L32.5082 34.7635H32.532V33.7635ZM32.5939 33.7635L32.6388 32.7645L32.6164 32.7635H32.5939V33.7635ZM34.5058 33.2655L35.0323 34.1157L35.0667 34.0944L35.0993 34.0703L34.5058 33.2655ZM35.3113 31.6297H34.3113V31.6398L34.3115 31.6499L35.3113 31.6297ZM33.569 29.4334H32.569V30.0232L33.0852 30.3086L33.569 29.4334ZM34.0396 28.5505C33.5853 28.3082 33.2528 28.1355 33.0182 27.9714C32.9047 27.8919 32.87 27.8516 32.8709 27.8527C32.8757 27.8588 32.9617 27.9699 32.959 28.164L30.9592 28.1364C30.9534 28.5547 31.1335 28.8819 31.3076 29.1001C31.4777 29.3133 31.6874 29.4812 31.8715 29.61C32.2322 29.8624 32.7078 30.1068 33.0984 30.3152L34.0396 28.5505ZM32.9591 28.1502V28.1226H30.9591V28.1502H32.9591ZM32.9588 28.1464C32.9589 28.1427 32.9582 28.1874 32.9249 28.2536C32.8896 28.3237 32.8379 28.3776 32.7898 28.4108C32.7475 28.44 32.7257 28.4412 32.7499 28.4354C32.7742 28.4296 32.8266 28.4212 32.9151 28.4201L32.8913 26.4203C32.5214 26.4246 32.0548 26.4882 31.6543 26.7644C31.192 27.0832 30.9719 27.5754 30.9594 28.0988L32.9588 28.1464ZM32.8153 28.4163C33.325 28.4613 33.8225 28.5977 34.2838 28.8191L35.1491 27.016C34.4712 26.6907 33.7401 26.4901 32.9911 26.4241L32.8153 28.4163ZM34.2376 28.7954L34.2437 28.7988L35.2015 27.0431L35.1953 27.0397L34.2376 28.7954ZM35.4168 28.6408L35.4326 28.6256L34.0443 27.1859L34.0285 27.2011L35.4168 28.6408ZM35.7384 27.9057V27.6303H33.7384V27.9057H35.7384ZM34.7384 26.6303H34.7288V28.6303H34.7384V26.6303ZM35.1567 26.7264C34.4728 26.4027 33.735 26.2078 32.9805 26.1514L32.8316 28.1459C33.3411 28.1839 33.8392 28.3156 34.301 28.5341L35.1567 26.7264ZM32.906 26.1487H32.8835V28.1487H32.906V26.1487ZM32.9247 26.1495C32.4319 26.1292 31.9446 26.2596 31.5279 26.5234L32.5976 28.2133C32.6706 28.1671 32.7559 28.1443 32.8422 28.1478L32.9247 26.1495ZM31.4882 26.5499C31.2332 26.7289 31.0264 26.9683 30.8864 27.2467L32.6731 28.1454C32.6647 28.162 32.6524 28.1762 32.6373 28.1869L31.4882 26.5499ZM30.8864 27.2467C30.7463 27.5251 30.6774 27.8338 30.6857 28.1454L32.685 28.092C32.6855 28.1105 32.6814 28.1289 32.6731 28.1454L30.8864 27.2467ZM30.6858 28.1486C30.7111 28.9937 31.256 29.5144 31.6823 29.8168C32.0626 30.0864 32.6432 30.3702 32.9395 30.5392L33.9304 28.8019C33.7136 28.6782 33.4702 28.552 33.2946 28.457C33.1001 28.3517 32.9535 28.2664 32.8393 28.1854C32.6016 28.0168 32.6821 27.9957 32.6849 28.0887L30.6858 28.1486ZM32.9504 30.5453C33.3568 30.7704 33.6432 30.9597 33.8283 31.1522C33.9878 31.3181 34.0371 31.4477 34.037 31.6004L36.037 31.6016C36.0379 30.0174 34.6969 29.2264 33.9195 28.7958L32.9504 30.5453ZM34.037 31.601V31.6258H36.037V31.601H34.037ZM34.0371 31.6115C34.0329 31.9037 33.9293 32.0732 33.7597 32.199C33.5565 32.3498 33.1744 32.4918 32.5573 32.4925L32.5596 34.4925C33.4471 34.4915 34.2958 34.2916 34.9514 33.8052C35.6408 33.2937 36.0241 32.5307 36.0369 31.64L34.0371 31.6115ZM32.5585 32.4925H32.5348V34.4925H32.5585V32.4925ZM32.5888 32.494C31.9797 32.4611 31.3771 32.3525 30.7948 32.1707L30.1988 34.0798C30.9395 34.311 31.706 34.4492 32.4808 34.4911L32.5888 32.494ZM30.7768 32.1652L30.7633 32.1613L30.2033 34.0813L30.2168 34.0852L30.7768 32.1652ZM29.4833 33.1213V33.403H31.4833V33.1213H29.4833ZM30.4833 34.403H30.4872V32.403H30.4833V34.403ZM30.1903 34.3579C30.9348 34.5893 31.7057 34.7252 32.4844 34.7623L32.5795 32.7646C31.9701 32.7356 31.3668 32.6292 30.7841 32.448L30.1903 34.3579ZM32.532 34.7635H32.5939V32.7635H32.532V34.7635ZM32.5491 34.7625C33.423 34.8017 34.2885 34.5763 35.0323 34.1157L33.9793 32.4153C33.5778 32.664 33.1106 32.7857 32.6388 32.7645L32.5491 34.7625ZM35.0993 34.0703C35.4835 33.787 35.794 33.4157 36.0048 32.9875L34.2106 32.1039C34.1411 32.245 34.0388 32.3674 33.9122 32.4607L35.0993 34.0703ZM36.0048 32.9875C36.2157 32.5593 36.3207 32.0867 36.3111 31.6095L34.3115 31.6499C34.3147 31.8071 34.2801 31.9628 34.2106 32.1039L36.0048 32.9875ZM36.3113 31.6297V31.6117H34.3113V31.6297H36.3113ZM36.3113 31.6117C36.3113 29.8515 34.8431 28.9951 34.0528 28.5582L33.0852 30.3086C33.9702 30.7978 34.3113 31.1435 34.3113 31.6117H36.3113ZM34.569 29.4334V29.4328H32.569V29.4334H34.569Z" fill="white" mask="url(#path-20-inside-6_6161_141799)"/>
</g>
<defs>
<clipPath id="clip0_6161_141799">
<rect width="35" height="35" fill="white" transform="translate(6.5 6.5)"/>
</clipPath>
</defs>
</svg>
