<svg width="24" height="24" viewBox="0 0 24 24" fill="none" xmlns="http://www.w3.org/2000/svg">
<mask id="path-1-inside-1_4058_61491" fill="white">
<path fill-rule="evenodd" clip-rule="evenodd" d="M12.1147 2.16342C12.04 2.13938 11.9597 2.13938 11.8849 2.16342L3.46934 4.87188C3.29475 4.92807 3.18642 5.1023 3.21327 5.28374L3.47231 7.03448H1.7793C1.22701 7.03448 0.779297 7.4822 0.779297 8.03449V15.0627C0.779297 15.615 1.22701 16.0627 1.7793 16.0627H5.13807C6.20324 17.9499 7.91171 19.4492 10.0211 20.2376L11.8685 20.9281C11.9532 20.9597 12.0465 20.9597 12.1311 20.9281L13.9785 20.2376C16.0879 19.4492 17.7964 17.9499 18.8616 16.0627H22.2209C22.7731 16.0627 23.2209 15.615 23.2209 15.0627V8.03448C23.2209 7.4822 22.7731 7.03448 22.2209 7.03448H20.5273L20.7864 5.28374C20.8132 5.1023 20.7049 4.92807 20.5303 4.87188L12.1147 2.16342ZM19.7692 7.03448L19.9979 5.48843L11.9998 2.91433L4.00172 5.48843L4.23047 7.03448H19.7692ZM6.01156 16.0627C6.99898 17.6252 8.48245 18.8619 10.2837 19.5351L11.9998 20.1765L13.7159 19.5351C15.5172 18.8619 17.0007 17.6252 17.9881 16.0627H6.01156Z"/>
</mask>
<path d="M11.8849 2.16342L11.6552 1.44948L11.6552 1.44948L11.8849 2.16342ZM12.1147 2.16342L12.3445 1.44948L12.3445 1.44948L12.1147 2.16342ZM3.46934 4.87188L3.69911 5.58582L3.46934 4.87188ZM3.21327 5.28374L3.95519 5.17396L3.95519 5.17396L3.21327 5.28374ZM3.47231 7.03448V7.78448H4.34144L4.21423 6.92471L3.47231 7.03448ZM5.13807 16.0627L5.79121 15.694L5.57597 15.3127H5.13807V16.0627ZM10.0211 20.2376L9.75856 20.9401L9.75856 20.9401L10.0211 20.2376ZM11.8685 20.9281L12.1311 20.2255L12.1311 20.2255L11.8685 20.9281ZM12.1311 20.9281L11.8685 20.2255L11.8685 20.2255L12.1311 20.9281ZM13.9785 20.2376L14.2411 20.9402L14.2411 20.9402L13.9785 20.2376ZM18.8616 16.0627V15.3127H18.4237L18.2084 15.694L18.8616 16.0627ZM20.5273 7.03448L19.7854 6.92471L19.6582 7.78448H20.5273V7.03448ZM20.7864 5.28374L21.5283 5.39351L21.5283 5.39351L20.7864 5.28374ZM20.5303 4.87188L20.7601 4.15795L20.7601 4.15795L20.5303 4.87188ZM19.7692 7.03448V7.78448H20.4164L20.5111 7.14426L19.7692 7.03448ZM19.9979 5.48843L20.7398 5.5982L20.8329 4.96927L20.2277 4.77449L19.9979 5.48843ZM11.9998 2.91433L12.2296 2.20039L11.9998 2.12644L11.7701 2.20039L11.9998 2.91433ZM4.00172 5.48843L3.77195 4.77449L3.16674 4.96927L3.2598 5.5982L4.00172 5.48843ZM4.23047 7.03448L3.48855 7.14426L3.58328 7.78448H4.23047V7.03448ZM6.01156 16.0627V15.3127H4.65038L5.37756 16.4634L6.01156 16.0627ZM10.2837 19.5351L10.0211 20.2376L10.0211 20.2376L10.2837 19.5351ZM11.9998 20.1765L11.7373 20.879L11.9998 20.9771L12.2624 20.879L11.9998 20.1765ZM13.7159 19.5351L13.9785 20.2376L13.9785 20.2376L13.7159 19.5351ZM17.9881 16.0627L18.6221 16.4634L19.3492 15.3127H17.9881V16.0627ZM12.1147 2.87735C12.04 2.9014 11.9597 2.9014 11.8849 2.87735L12.3445 1.44948C12.1204 1.37735 11.8793 1.37735 11.6552 1.44948L12.1147 2.87735ZM3.69911 5.58582L12.1147 2.87735L11.6552 1.44948L3.23957 4.15795L3.69911 5.58582ZM3.95519 5.17396C3.98203 5.3554 3.87371 5.52963 3.69911 5.58582L3.23957 4.15795C2.7158 4.32652 2.39081 4.84921 2.47134 5.39351L3.95519 5.17396ZM4.21423 6.92471L3.95519 5.17396L2.47134 5.39351L2.73038 7.14426L4.21423 6.92471ZM1.7793 7.78448H3.47231V6.28448H1.7793V7.78448ZM1.5293 8.03449C1.5293 7.89641 1.64123 7.78448 1.7793 7.78448V6.28448C0.812798 6.28448 0.0292969 7.06799 0.0292969 8.03449H1.5293ZM1.5293 15.0627V8.03449H0.0292969V15.0627H1.5293ZM1.7793 15.3127C1.64123 15.3127 1.5293 15.2008 1.5293 15.0627H0.0292969C0.0292969 16.0292 0.812801 16.8127 1.7793 16.8127V15.3127ZM5.13807 15.3127H1.7793V16.8127H5.13807V15.3127ZM10.2837 19.5351C8.34314 18.8098 6.77138 17.4306 5.79121 15.694L4.48493 16.4313C5.63511 18.4691 7.48027 20.0886 9.75856 20.9401L10.2837 19.5351ZM12.1311 20.2255L10.2837 19.5351L9.75856 20.9401L11.606 21.6306L12.1311 20.2255ZM11.8685 20.2255C11.9532 20.1939 12.0465 20.1939 12.1311 20.2255L11.606 21.6306C11.86 21.7255 12.1397 21.7255 12.3937 21.6306L11.8685 20.2255ZM13.7159 19.5351L11.8685 20.2255L12.3937 21.6306L14.2411 20.9402L13.7159 19.5351ZM18.2084 15.694C17.2283 17.4306 15.6565 18.8098 13.7159 19.5351L14.2411 20.9402C16.5194 20.0886 18.3645 18.4691 19.5147 16.4313L18.2084 15.694ZM22.2209 15.3127H18.8616V16.8127H22.2209V15.3127ZM22.4709 15.0627C22.4709 15.2008 22.3589 15.3127 22.2209 15.3127V16.8127C23.1874 16.8127 23.9709 16.0292 23.9709 15.0627H22.4709ZM22.4709 8.03448V15.0627H23.9709V8.03448H22.4709ZM22.2209 7.78448C22.3589 7.78448 22.4709 7.89642 22.4709 8.03448H23.9709C23.9709 7.06798 23.1873 6.28448 22.2209 6.28448V7.78448ZM20.5273 7.78448H22.2209V6.28448H20.5273V7.78448ZM20.0444 5.17396L19.7854 6.92471L21.2692 7.14426L21.5283 5.39351L20.0444 5.17396ZM20.3005 5.58582C20.1259 5.52963 20.0176 5.3554 20.0444 5.17397L21.5283 5.39351C21.6088 4.84921 21.2838 4.32652 20.7601 4.15795L20.3005 5.58582ZM11.8849 2.87735L20.3005 5.58582L20.7601 4.15795L12.3445 1.44948L11.8849 2.87735ZM20.5111 7.14426L20.7398 5.5982L19.256 5.37865L19.0272 6.92471L20.5111 7.14426ZM20.2277 4.77449L12.2296 2.20039L11.7701 3.62826L19.7681 6.20236L20.2277 4.77449ZM11.7701 2.20039L3.77195 4.77449L4.23149 6.20236L12.2296 3.62826L11.7701 2.20039ZM3.2598 5.5982L3.48855 7.14426L4.97239 6.92471L4.74364 5.37865L3.2598 5.5982ZM4.23047 7.78448H19.7692V6.28448H4.23047V7.78448ZM5.37756 16.4634C6.45063 18.1614 8.06319 19.5058 10.0211 20.2376L10.5463 18.8325C8.90171 18.2179 7.54733 17.089 6.64557 15.662L5.37756 16.4634ZM10.0211 20.2376L11.7373 20.879L12.2624 19.4739L10.5463 18.8325L10.0211 20.2376ZM12.2624 20.879L13.9785 20.2376L13.4534 18.8325L11.7373 19.4739L12.2624 20.879ZM13.9785 20.2376C15.9365 19.5058 17.549 18.1614 18.6221 16.4634L17.3541 15.662C16.4523 17.089 15.0979 18.2179 13.4534 18.8325L13.9785 20.2376ZM17.9881 15.3127H6.01156V16.8127H17.9881V15.3127Z" fill="#EAECEF" mask="url(#path-1-inside-1_4058_61491)"/>
<path d="M7.37174 12.8985L7.80762 12.1118L6.47495 11.5051L7.80762 10.8985L7.37174 10.1067L6.18437 11.0116L6.34469 9.5H5.46293L5.62325 11.0116L4.43086 10.1067L4 10.8985L5.33267 11.5051L4 12.1118L4.43086 12.8985L5.61824 12.009L5.46293 13.5H6.34469L6.18938 12.0141L7.37174 12.8985Z" fill="#EAECEF"/>
<path d="M13.4679 12.8985L13.9038 12.1118L12.5711 11.5051L13.9038 10.8985L13.4679 10.1067L12.2806 11.0116L12.4409 9.5H11.5591L11.7194 11.0116L10.5271 10.1067L10.0962 10.8985L11.4289 11.5051L10.0962 12.1118L10.5271 12.8985L11.7144 12.009L11.5591 13.5H12.4409L12.2856 12.0141L13.4679 12.8985Z" fill="#EAECEF"/>
<path d="M19.5641 12.8985L20 12.1118L18.6673 11.5051L20 10.8985L19.5641 10.1067L18.3768 11.0116L18.5371 9.5H17.6553L17.8156 11.0116L16.6232 10.1067L16.1924 10.8985L17.5251 11.5051L16.1924 12.1118L16.6232 12.8985L17.8106 12.009L17.6553 13.5H18.5371L18.3818 12.0141L19.5641 12.8985Z" fill="#EAECEF"/>
</svg>
