<svg width="80" height="80" viewBox="0 0 80 80" fill="none" xmlns="http://www.w3.org/2000/svg">
<rect x="0.5" y="0.5" width="79" height="79" rx="39.5" stroke="#7165E3"/>
<rect x="11" y="30" width="58" height="20" rx="2.41667" fill="#7165E3"/>
<path fill-rule="evenodd" clip-rule="evenodd" d="M40.0001 15.833L61.75 23.083L61.0595 27.9163H18.9405L18.25 23.083L40.0001 15.833ZM22.9195 52.0829C25.3406 56.4887 29.2633 60.0102 34.1314 61.8946L40.0001 64.1663L45.8686 61.8946C50.7367 60.0102 54.6595 56.4887 57.0805 52.0829H22.9195Z" fill="#7165E3"/>
<path d="M28.8144 43.3799L29.8678 41.4789L26.6471 40.0128L29.8678 38.5466L28.8144 36.6331L25.9449 38.8199L26.3323 35.167H24.2014L24.5889 38.8199L21.7073 36.6331L20.666 38.5466L23.8866 40.0128L20.666 41.4789L21.7073 43.3799L24.5768 41.2304L24.2014 44.8337H26.3323L25.957 41.2428L28.8144 43.3799Z" fill="white"/>
<path d="M43.5469 43.3799L44.6002 41.4789L41.3796 40.0128L44.6002 38.5466L43.5469 36.6331L40.6774 38.8199L41.0648 35.167H38.9339L39.3213 38.8199L36.4397 36.6331L35.3985 38.5466L38.6191 40.0128L35.3985 41.4789L36.4397 43.3799L39.3092 41.2304L38.9339 44.8337H41.0648L40.6895 41.2428L43.5469 43.3799Z" fill="white"/>
<path d="M58.2793 43.3799L59.3327 41.4789L56.1121 40.0128L59.3327 38.5466L58.2793 36.6331L55.4098 38.8199L55.7973 35.167H53.6664L54.0538 38.8199L51.1722 36.6331L50.1309 38.5466L53.3516 40.0128L50.1309 41.4789L51.1722 43.3799L54.0417 41.2304L53.6664 44.8337H55.7973L55.4219 41.2428L58.2793 43.3799Z" fill="white"/>
<rect x="48" y="48" width="32" height="32" rx="16" fill="#01C27F"/>
<path d="M72 59L61 70L56 65" stroke="#EAECEF" stroke-width="2" stroke-linecap="round" stroke-linejoin="round"/>
</svg>
