<svg width="40" height="40" viewBox="0 0 40 40" fill="none" xmlns="http://www.w3.org/2000/svg">
<circle cx="20" cy="20" r="19.5" stroke="#404076"/>
<path fill-rule="evenodd" clip-rule="evenodd" d="M24.3125 18.8977L24.558 19.0281L24.557 19.0287C26.145 19.9068 27.8607 21.0467 27.8616 23.1606V23.1941C27.8511 24.485 27.2816 25.649 26.3369 26.299C25.4162 26.936 24.1619 27.2442 22.7107 27.2442L22.5909 27.2434C21.0821 27.227 19.5263 26.7888 18.8397 26.5954L18.7148 26.5603L18.7056 26.5581V26.0242L18.7323 26.0321C18.7955 26.0487 18.8769 26.0715 18.9741 26.0987L18.9742 26.0987L18.9743 26.0988C19.6691 26.2933 21.1713 26.7139 22.5973 26.7291H22.6409C25.4919 26.726 27.309 25.4366 27.3421 23.1886V23.1416C27.3427 21.3707 25.8859 20.3569 24.3038 19.4798C24.04 19.3294 23.7716 19.1864 23.5075 19.0457L23.5074 19.0457C22.2119 18.3554 21.02 17.7203 20.9849 16.5359C20.9862 15.9084 21.2651 15.4116 21.7003 15.1121C22.1233 14.8181 22.6701 14.6951 23.2575 14.6951H23.2998C24.5458 14.712 25.7459 15.1984 26.6214 15.5531L26.7575 15.6082L26.7745 15.6146V16.1308L26.7461 16.1595L26.7332 16.1537C26.6543 16.1221 26.5724 16.0889 26.4879 16.0546L26.4878 16.0545C25.6055 15.6966 24.4326 15.2208 23.2947 15.2105C22.2142 15.2234 21.5267 15.5998 21.5056 16.5421L21.5029 16.5949C21.4935 17.4019 22.8075 18.0992 24.3125 18.8977ZM12.2231 25.5295C10.6116 25.5072 9.17472 24.7274 8.31633 24.217V23.6546L8.3411 23.6295L8.35074 23.6353C9.15084 24.1225 10.6515 24.9984 12.231 25.0132C13.9338 25.0052 14.32 24.2128 14.3536 23.4793L14.3559 23.4252C14.3613 22.2853 12.9438 21.5225 11.3599 20.6701L11.3093 20.6428C9.72492 19.7713 8 18.7355 8 16.7186V16.6948C8.00964 15.4525 8.60108 14.3908 9.51226 13.8157C10.3976 13.2509 11.5686 13 12.8375 13L12.9367 13.0009C14.2351 13.015 15.5597 13.3133 16.2305 13.4643L16.3614 13.4937L16.3844 13.4993V14.0266L16.3471 14.0186C16.2884 14.0057 16.2201 13.9903 16.1433 13.9729L16.1432 13.9729L16.1432 13.9729C15.4795 13.823 14.1808 13.5298 12.9308 13.5171H12.8854C10.4095 13.5183 8.54991 14.584 8.52025 16.7018V16.7499C8.51847 18.3914 9.96829 19.3182 11.5605 20.1914C11.7141 20.2772 11.8694 20.3621 12.0245 20.4468C13.4499 21.2253 14.8609 21.996 14.8763 23.486C14.8702 23.9669 14.7026 24.4924 14.2713 24.8918C13.8503 25.2819 13.2 25.5295 12.2892 25.5295H12.2231ZM18.7079 24.217C19.568 24.7274 21.0032 25.5072 22.6155 25.5295H22.6818C23.5924 25.5295 24.2423 25.2819 24.6639 24.8918C25.095 24.4924 25.2626 23.9669 25.2682 23.486C25.2533 21.9967 23.8427 21.226 22.4184 20.4479C22.2626 20.3628 22.1067 20.2776 21.9525 20.1914C20.3607 19.3182 18.9112 18.3914 18.9112 16.7499L18.9125 16.7018C18.9406 14.584 20.8024 13.5183 23.2782 13.5171H23.3213C24.5707 13.5297 25.8675 13.8223 26.5324 13.9724L26.5326 13.9724L26.5329 13.9725L26.5332 13.9725C26.6108 13.9901 26.6797 14.0056 26.739 14.0186L26.7762 14.0266V13.4993L26.7532 13.4937L26.6206 13.464C25.9489 13.3128 24.6259 13.015 23.3274 13.0009L23.2291 13C21.9593 13 20.789 13.2509 19.9028 13.8157C18.9926 14.3908 18.401 15.4525 18.3921 16.6948V16.7186C18.3921 18.7355 20.1171 19.7713 21.7023 20.6428L21.7562 20.6719C23.3378 21.5235 24.7539 22.2861 24.7499 23.4252L24.7471 23.4793C24.7131 24.2128 24.3261 25.0052 22.6244 25.0132C21.0443 24.9984 19.543 24.1225 18.7429 23.6353L18.7334 23.6295L18.7085 23.6546V24.217H18.7079ZM23.3591 14.2892H23.361C24.5993 14.3019 25.8628 14.7221 26.6146 14.9722C26.6699 14.9905 26.7225 15.008 26.772 15.0244H26.7743V14.6161C26.0179 14.366 24.7094 13.9448 23.3658 13.929H23.2896C22.3655 13.929 21.4935 14.0952 20.8426 14.5222H20.8434C20.1747 14.9551 19.7059 15.6819 19.7015 16.6133C19.7066 18.2195 21.2226 19.0596 22.7082 19.8829C22.8083 19.9384 22.9083 19.9938 23.0076 20.0493C24.6049 20.9215 26.0615 21.8088 26.0583 23.2853V23.3331C26.0286 24.8215 24.9111 25.9526 22.6255 25.9549H22.6071C20.9888 25.9401 19.3511 25.2134 18.7325 24.9168L18.7067 24.9039V25.3384L18.7159 25.3433C19.4632 25.6876 21.002 26.2949 22.6057 26.3146H22.7021C23.8768 26.3146 24.8207 26.0783 25.4865 25.571C26.1717 25.0501 26.5445 24.2239 26.5506 23.3383V23.3277C26.5487 21.4538 24.8275 20.4951 23.2464 19.6201C21.6468 18.7502 20.1913 17.9339 20.1948 16.6701V16.6191C20.2151 15.0798 21.5691 14.2902 23.3591 14.2892ZM12.9681 14.2892H12.9713C14.2089 14.3019 15.4757 14.7231 16.2274 14.973L16.3823 15.0244H16.3838V14.6161C15.6274 14.366 14.3198 13.9448 12.9762 13.929H12.8995C11.9755 13.929 11.1028 14.0952 10.454 14.5222C9.7853 14.9551 9.31651 15.6819 9.31058 16.6133C9.31697 18.2193 10.8326 19.0594 12.3179 19.8826L12.318 19.8827C12.4182 19.9382 12.5183 19.9937 12.6178 20.0493C14.2137 20.9218 15.6685 21.8091 15.6676 23.2856V23.3334C15.638 24.8218 14.5201 25.9529 12.2339 25.9552H12.2156C10.598 25.9404 8.96043 25.2137 8.34186 24.9171L8.31561 24.9042V25.3387L8.32436 25.3436C9.07151 25.6878 10.61 26.2952 12.2141 26.3149H12.312C13.4862 26.3149 14.429 26.0786 15.0959 25.5713C15.7802 25.0504 16.1539 24.2242 16.1598 23.3386V23.328C16.1581 21.4541 14.4369 20.4954 12.8562 19.6204C11.2565 18.7508 9.80013 17.9345 9.80413 16.6707V16.6197C9.82341 15.0804 11.1773 14.2902 12.9675 14.2892H12.9681ZM13.9193 18.8948C14.0014 18.9384 14.0841 18.9823 14.1672 19.0265L14.1674 19.0259C15.7568 19.904 17.4712 21.0439 17.472 23.1578V23.1913C17.4615 24.4828 16.8937 25.6468 15.9475 26.2965C15.0271 26.9335 13.7742 27.2417 12.3208 27.2417L12.2022 27.2409C10.6931 27.2245 9.1355 26.7861 8.44875 26.5927C8.4034 26.58 8.36184 26.5683 8.32435 26.5578L8.31694 26.5556V26.0217L8.34274 26.0296C8.40578 26.0462 8.48704 26.0689 8.58408 26.0961C9.2788 26.2905 10.7828 26.7114 12.2077 26.7266H12.2522C15.1035 26.7235 16.9193 25.4341 16.9515 23.1861V23.1391C16.953 21.3682 15.4962 20.3544 13.9127 19.4774C13.6488 19.3268 13.3802 19.1836 13.1159 19.0428C11.8211 18.3527 10.6298 17.7178 10.5943 16.5343C10.5984 15.9068 10.8749 15.41 11.3103 15.1105C11.7337 14.8165 12.2798 14.6935 12.8666 14.6935H12.9099C14.1581 14.7105 15.3618 15.1991 16.2364 15.5541C16.2804 15.572 16.3236 15.5895 16.366 15.6066L16.3848 15.613V16.1292L16.3552 16.1579L16.3432 16.1521C16.2643 16.1205 16.1826 16.0874 16.0981 16.0531C15.2154 15.6952 14.0413 15.2192 12.9043 15.2089C11.8242 15.2218 11.1362 15.5982 11.1142 16.5405L11.1134 16.5933C11.1028 17.3999 12.4158 18.0968 13.9193 18.8948ZM30.9191 27.103H30.4501V13.2045H30.9191V27.103ZM29.3721 27.0582C29.3816 26.3012 29.5091 16.1188 29.3718 13.2335H29.3722L29.4012 13.2054H29.9023V27.1045H29.3906L29.3718 27.0851L29.3721 27.0582ZM31.9992 27.0202C31.9867 26.0127 31.8631 16.0777 31.9983 13.2335L31.9707 13.2054H31.4702V27.1045H31.9803L32 27.0851C31.9999 27.0713 31.9996 27.0495 31.9992 27.0202Z" fill="white" fill-opacity="0.5"/>
</svg>
