<svg width="48" height="48" viewBox="0 0 48 48" fill="none" xmlns="http://www.w3.org/2000/svg">
<line x1="40.2139" y1="9.50098" x2="40.2139" y2="20.2343" stroke="#EAECEF" stroke-linecap="round"/>
<line x1="45.6138" y1="14.8359" x2="34.8804" y2="14.8359" stroke="#EAECEF" stroke-linecap="round"/>
<path fill-rule="evenodd" clip-rule="evenodd" d="M26.7243 26.3114C26.6009 26.2437 26.4781 26.1766 26.3561 26.11C24.0985 24.8766 22.1274 23.7998 22.1416 22.5533L22.1456 22.4717C22.1772 21.0163 23.2085 20.435 24.8294 20.415C26.5362 20.4309 28.2956 21.1659 29.619 21.7186C29.7458 21.7716 29.8687 21.823 29.9871 21.8718L30.0065 21.8808L30.0492 21.8365V21.0392L30.0236 21.0294L29.8874 20.9726L29.8194 20.9442C28.5062 20.3963 26.706 19.6452 24.8369 19.6191H24.7735C23.8924 19.6191 23.0722 19.809 22.4377 20.2632C21.7848 20.7256 21.3665 21.493 21.3645 22.4621C21.4172 24.2915 23.2054 25.2725 25.1487 26.3386C25.5448 26.5559 25.9474 26.7768 26.343 27.0091C28.7162 28.3637 30.9014 29.9295 30.9006 32.6646V32.7373C30.8509 36.2093 28.1251 38.2007 23.8485 38.2055H23.7831C21.6442 38.182 19.3908 37.5324 18.3486 37.2319C18.2028 37.1899 18.0803 37.1546 17.9856 37.1289L17.9455 37.1168V37.9414L17.9593 37.9448C18.0146 37.9607 18.0758 37.9784 18.1425 37.9977L18.1466 37.9989C19.1766 38.2977 21.5104 38.9745 23.7736 38.9998L23.9533 39.001C26.1301 39.001 28.0117 38.525 29.3927 37.5412C30.8098 36.5373 31.664 34.7394 31.6798 32.7457V32.694C31.6785 29.429 29.1048 27.6685 26.7227 26.3123L26.7243 26.3114ZM2.36122 34.3255C3.64883 35.1139 5.80426 36.3183 8.22153 36.3526H8.32075C9.68687 36.3526 10.6624 35.9704 11.2939 35.3677C11.9409 34.7509 12.1922 33.9393 12.2014 33.1965C12.1783 30.8953 10.0617 29.7049 7.92365 28.5025C7.69099 28.3716 7.45807 28.2406 7.22757 28.1081C4.83922 26.7594 2.66444 25.328 2.66712 22.7926V22.7184C2.71161 19.4475 5.50104 17.8015 9.21504 17.7997H9.28311C11.1582 17.8192 13.1062 18.2721 14.1017 18.5036L14.2823 18.5455C14.3268 18.5558 14.3687 18.5653 14.4077 18.5741L14.4636 18.5865V17.7722L14.4291 17.7635L14.328 17.7402L14.2328 17.7181C13.2265 17.4848 11.2396 17.0242 9.29201 17.0023L9.14318 17.001C7.2398 17.001 5.48325 17.3885 4.15515 18.2608C2.78836 19.1491 1.90118 20.7889 1.88672 22.7076V22.7443C1.88672 25.8594 4.47417 27.4592 6.85072 28.8053L6.92668 28.8474C9.3026 30.1639 11.4289 31.342 11.4207 33.1026L11.4174 33.1862C11.3669 34.3191 10.7876 35.5429 8.23332 35.5553C5.8641 35.5324 3.61301 34.1796 2.41284 33.4272L2.39838 33.4182L2.36122 33.4569V34.3255ZM23.8087 36.3526C21.3901 36.3183 19.2374 35.1139 17.9471 34.3255L17.948 33.4569L17.9854 33.4182L17.9996 33.4272C19.1998 34.1796 21.4517 35.5324 23.8221 35.5553C26.3746 35.5429 26.9552 34.3191 27.0061 33.1862L27.0104 33.1026C27.0163 31.3433 24.8921 30.1655 22.5197 28.8502L22.4388 28.8053C20.0609 27.4592 17.4735 25.8594 17.4735 22.7443V22.7076C17.4868 20.7889 18.3742 19.1491 19.7395 18.2608C21.0689 17.3885 22.8243 17.001 24.729 17.001L24.8765 17.0023C26.8244 17.0242 28.809 17.4841 29.8164 17.7175L29.8216 17.7187L29.8959 17.736L30.0154 17.7635L30.0499 17.7722V18.5865L29.994 18.5741C29.9543 18.5652 29.9116 18.5554 29.8662 18.545L29.6899 18.5041L29.6842 18.5028C28.6868 18.2711 26.7415 17.8192 24.8674 17.7997H24.8027C21.0889 17.8015 18.2961 19.4475 18.2541 22.7184L18.2521 22.7926C18.2521 25.328 20.4264 26.7594 22.8141 28.1081C23.0454 28.2412 23.2792 28.3727 23.5127 28.5041C25.6493 29.7059 27.7654 30.8963 27.7879 33.1965C27.7794 33.9393 27.528 34.7509 26.8813 35.3677C26.2489 35.9704 25.2741 36.3526 23.9081 36.3526H23.8087ZM24.9288 18.9935H24.9259C22.2408 18.9951 20.2097 20.2146 20.1793 22.592V22.6708C20.1741 24.6228 22.3574 25.8835 24.7568 27.2271C27.1285 28.5785 29.7104 30.0592 29.7133 32.9535V32.9698C29.7042 34.3377 29.1449 35.6137 28.1171 36.4182C27.1183 37.2018 25.7025 37.5666 23.9404 37.5666H23.7958C21.3901 37.5362 19.0819 36.5982 17.9609 36.0666L17.9471 36.059V35.3879L17.9858 35.4078C18.9137 35.8659 21.3703 36.9883 23.7978 37.0112H23.8254C27.254 37.0075 28.9302 35.2605 28.9747 32.9617V32.888C28.9796 30.6075 26.7946 29.2371 24.3987 27.89C24.3322 27.8518 24.2656 27.8136 24.1989 27.7754L24.0631 27.6978L23.9496 27.633C21.721 26.3613 19.4471 25.0638 19.4394 22.583C19.446 21.1446 20.1492 20.022 21.1523 19.3534H21.151C22.1274 18.6939 23.4354 18.4372 24.8216 18.4372H24.9359C26.9514 18.4617 28.9142 19.1122 30.0488 19.4984V20.1289H30.0454L29.9822 20.1074L29.8982 20.0788L29.8092 20.0483C28.6815 19.6622 26.7862 19.0131 24.9288 18.9935ZM9.34384 18.9935H9.33894C6.65361 18.9951 4.62188 20.2155 4.59297 22.5929V22.6717C4.58695 24.6237 6.77152 25.8844 9.17122 27.2276C11.5422 28.579 14.1241 30.0596 14.1268 32.9539V32.9702C14.1179 34.3381 13.5573 35.6142 12.5308 36.4186C11.5304 37.2022 10.1162 37.5671 8.35478 37.5671H8.20796C5.80182 37.5366 3.494 36.5987 2.37325 36.067L2.36012 36.0595V35.3883L2.3995 35.4083C3.32738 35.8664 5.7838 36.9887 8.21018 37.0116H8.23777C11.667 37.008 13.3439 35.261 13.3884 32.9622V32.8884C13.3897 30.608 11.2074 29.2375 8.81349 27.89C8.66425 27.8041 8.51409 27.7184 8.36372 27.6326C6.13576 26.361 3.8622 25.0635 3.85261 22.583C3.86151 21.1446 4.56471 20.022 5.56779 19.3534C6.54105 18.6939 7.85001 18.4372 9.23618 18.4372H9.35118C11.3667 18.4617 13.3281 19.1122 14.4627 19.4984V20.1289H14.4605L14.3939 20.1063L14.2281 20.0496C13.1005 19.6636 11.2003 19.0132 9.34384 18.9935ZM11.1369 26.3114C11.0122 26.243 10.8881 26.1752 10.7649 26.1079C8.50958 24.8753 6.54014 23.799 6.55595 22.5533L6.55728 22.4717C6.59021 21.0163 7.62221 20.435 9.24239 20.415C10.9479 20.4309 12.7091 21.1661 14.0332 21.719L14.036 21.7201C14.1617 21.7726 14.2834 21.8234 14.4008 21.8718L14.4188 21.8808L14.4633 21.8365V21.0392L14.4351 21.0294L14.2407 20.9482C12.9288 20.3999 11.1231 19.6452 9.25085 19.6191H9.18589C8.30561 19.6191 7.48651 19.809 6.85138 20.2632C6.19823 20.7256 5.78357 21.493 5.77734 22.4621C5.83056 24.29 7.61757 25.2706 9.55984 26.3365C9.95624 26.554 10.3592 26.7751 10.7551 27.0077C13.1303 28.3623 15.3156 29.9281 15.3134 32.6633V32.7359C15.2651 36.2079 12.5413 38.1993 8.26423 38.2041H8.1975C6.06013 38.1806 3.80407 37.5305 2.76196 37.2302C2.61659 37.1884 2.4944 37.1531 2.39993 37.1275L2.36122 37.1154V37.94L2.37235 37.9434C2.42802 37.9594 2.48967 37.9773 2.55691 37.9968L2.55897 37.9973C3.58919 38.2959 5.92557 38.9731 8.18926 38.9985L8.36723 38.9996C10.5473 38.9996 12.4267 38.5236 13.8073 37.5398C15.2266 36.5364 16.0784 34.7385 16.0942 32.7439V32.6921C16.0929 29.4272 13.521 27.6676 11.1369 26.3114ZM35.5618 38.7854H36.2652V17.3194H35.5618V38.7854ZM33.9448 38.7151L33.9443 38.7577L33.9725 38.7877H34.74V17.3207H33.9883L33.9449 17.364C34.1507 21.8178 33.9592 37.5298 33.9448 38.7151ZM37.8855 38.6537L37.8855 38.6564L37.8867 38.7577L37.8571 38.7877H37.0919V17.3207H37.8427L37.8841 17.364C37.6814 21.7533 37.8664 37.0759 37.8855 38.6537Z" fill="#EAECEF"/>
</svg>
