<svg width="24" height="24" viewBox="0 0 24 24" fill="none" xmlns="http://www.w3.org/2000/svg">
<path d="M12 2V11V22M8.54737 20H14.4526C16.0444 20 16.8402 20 17.4482 19.673C17.983 19.3854 18.4177 18.9265 18.6902 18.362C19 17.7202 19 16.8802 19 15.2V8.8C19 7.11984 19 6.27976 18.6902 5.63803C18.4177 5.07354 17.983 4.6146 17.4482 4.32698C16.8402 4 16.0444 4 14.4526 4H8.54737C6.95564 4 7.15978 4 6.55182 4.32698C6.01704 4.6146 5.58225 5.07354 5.30977 5.63803C5 6.27976 5 7.11984 5 8.8V15.2C5 16.8802 5 17.7202 5.30977 18.362C5.58225 18.9265 6.01704 19.3854 6.55182 19.673C7.15978 20 6.95564 20 8.54737 20Z" stroke="white" stroke-opacity="0.7" stroke-linecap="round" stroke-linejoin="round"/>
</svg>
