<svg width="25" height="24" viewBox="0 0 25 24" fill="none" xmlns="http://www.w3.org/2000/svg">
<path fill-rule="evenodd" clip-rule="evenodd" d="M13.2295 3.59312C12.7697 2.8827 11.7303 2.8827 11.2705 3.59312L10.1777 5.28187C10.1348 5.34811 10.0514 5.37522 9.97777 5.34682L8.10101 4.62296C7.3115 4.31844 6.47057 4.92941 6.51621 5.77439L6.6247 7.78298C6.62895 7.86176 6.57739 7.93272 6.50115 7.95302L4.55734 8.47053C3.73962 8.68824 3.41841 9.67681 3.952 10.3336L5.22039 11.8948C5.27014 11.956 5.27014 12.0438 5.22039 12.105L3.952 13.6662C3.41841 14.323 3.73962 15.3115 4.55734 15.5293L6.50115 16.0468C6.57739 16.0671 6.62895 16.138 6.6247 16.2168L6.51621 18.2254C6.47057 19.0704 7.3115 19.6813 8.10101 19.3768L9.97777 18.653C10.0514 18.6246 10.1348 18.6517 10.1777 18.7179L11.2705 20.4067C11.7303 21.1171 12.7697 21.1171 13.2295 20.4067L14.3223 18.7179C14.3652 18.6517 14.4486 18.6246 14.5222 18.653L16.399 19.3768C17.1885 19.6813 18.0294 19.0704 17.9838 18.2254L17.8753 16.2168C17.871 16.138 17.9226 16.0671 17.9988 16.0468L19.9426 15.5293C20.7604 15.3115 21.0816 14.323 20.548 13.6662L19.2796 12.105C19.2298 12.0438 19.2298 11.956 19.2796 11.8948L20.548 10.3336C21.0816 9.67681 20.7604 8.68824 19.9426 8.47053L17.9988 7.95302C17.9226 7.93272 17.871 7.86175 17.8753 7.78298L17.9838 5.77439C18.0294 4.92941 17.1885 4.31844 16.399 4.62296L14.5222 5.34682C14.4486 5.37522 14.3652 5.34811 14.3223 5.28187L13.2295 3.59312ZM12.1101 4.13642C12.1757 4.03493 12.3242 4.03493 12.3899 4.13642L13.4828 5.82517C13.7828 6.28881 14.3668 6.47856 14.8821 6.27983L16.7588 5.55596C16.8716 5.51246 16.9917 5.59974 16.9852 5.72045L16.8767 7.72904C16.8469 8.28049 17.2079 8.77728 17.7415 8.91936L19.6854 9.43687C19.8022 9.46797 19.8481 9.6092 19.7718 9.70302L18.5034 11.2642C18.1552 11.6929 18.1552 12.3069 18.5034 12.7355L19.7718 14.2968C19.8481 14.3906 19.8022 14.5318 19.6854 14.5629L17.7415 15.0804C17.2079 15.2225 16.8469 15.7193 16.8767 16.2707L16.9852 18.2793C16.9917 18.4 16.8716 18.4873 16.7588 18.4438L14.8821 17.72C14.3668 17.5212 13.7828 17.711 13.4828 18.1746L12.3899 19.8634C12.3242 19.9649 12.1757 19.9649 12.1101 19.8634L11.0172 18.1746C10.7172 17.711 10.1332 17.5212 9.61791 17.72L7.74115 18.4438C7.62837 18.4873 7.50823 18.4 7.51475 18.2793L7.62324 16.2707C7.65303 15.7193 7.29209 15.2225 6.75842 15.0804L4.81462 14.5629C4.6978 14.5318 4.65191 14.3906 4.72814 14.2968L5.99653 12.7355C6.34476 12.3069 6.34476 11.6929 5.99653 11.2642L4.72814 9.70302C4.65191 9.6092 4.6978 9.46797 4.81462 9.43687L6.75842 8.91936C7.29209 8.77728 7.65303 8.28049 7.62324 7.72904L7.51475 5.72045C7.50823 5.59974 7.62837 5.51246 7.74115 5.55596L9.61791 6.27983C10.1332 6.47856 10.7172 6.28881 11.0172 5.82517L12.1101 4.13642ZM9.74999 11.9999C9.74999 10.6192 10.8693 9.49989 12.25 9.49989C13.6307 9.49989 14.75 10.6192 14.75 11.9999C14.75 13.3806 13.6307 14.4999 12.25 14.4999C10.8693 14.4999 9.74999 13.3806 9.74999 11.9999ZM12.25 8.49989C10.317 8.49989 8.74999 10.0669 8.74999 11.9999C8.74999 13.9329 10.317 15.4999 12.25 15.4999C14.183 15.4999 15.75 13.9329 15.75 11.9999C15.75 10.0669 14.183 8.49989 12.25 8.49989Z" fill="white"/>
</svg>
