<svg width="48" height="48" viewBox="0 0 48 48" fill="none" xmlns="http://www.w3.org/2000/svg">
<path d="M25.2099 22.0975C25.4893 22.1976 25.6994 22.3824 25.8699 22.6255L25.8903 22.6805C26.0623 22.9212 26.1548 23.2097 26.1548 23.5055C26.1548 23.8014 26.0623 24.0898 25.8903 24.3305C25.7164 24.5827 25.4656 24.7717 25.1753 24.8695L24.3393 25.1335C24.2456 25.1675 24.1596 25.2199 24.0863 25.2875C24.0211 25.3585 23.9689 25.4404 23.9323 25.5295L23.6573 26.3985C23.557 26.6785 23.3726 26.9206 23.1293 27.0915C22.8886 27.2635 22.6001 27.356 22.3043 27.356C22.0084 27.356 21.72 27.2635 21.4793 27.0915C21.2303 26.9143 21.0421 26.6647 20.9403 26.3765L20.6763 25.5405C20.6451 25.4455 20.5924 25.3589 20.5223 25.2875C20.4514 25.2223 20.3694 25.1702 20.2803 25.1335L19.6874 24.9465L16.2334 28.4005C15.7863 28.8477 15.4722 29.4101 15.3259 30.0252L14.1203 35.0863C14.0877 35.2235 14.0907 35.3666 14.1292 35.5022C14.1676 35.6378 14.2401 35.7613 14.3399 35.8609C14.4396 35.9605 14.5631 36.0329 14.6988 36.0712C14.8344 36.1095 14.9776 36.1124 15.1147 36.0796L20.1758 34.8751C20.791 34.7285 21.3535 34.4139 21.8005 33.9665L32.7983 22.9676C33.1569 23.3292 33.3577 23.818 33.3567 24.3273C33.3557 24.8365 33.1529 25.3246 32.7928 25.6846L30.8315 27.647C30.6858 27.8034 30.6064 28.0103 30.6102 28.224C30.614 28.4377 30.7006 28.6417 30.8517 28.7928C31.0029 28.944 31.2068 29.0306 31.4205 29.0343C31.6342 29.0381 31.8411 28.9588 31.9975 28.813L33.9599 26.8517C34.6292 26.1821 35.0055 25.2743 35.0063 24.3276C35.0072 23.3808 34.6324 22.4724 33.9643 21.8016L34.9444 20.8204C35.6768 20.0811 36.0865 19.0819 36.0841 18.0413C36.0816 17.0007 35.6672 16.0033 34.9313 15.2675C34.1955 14.5317 33.1982 14.1172 32.1576 14.1148C31.1169 14.1123 30.1177 14.5221 29.3784 15.2544L23.8036 20.8281L23.9972 21.4155C24.0187 21.5043 24.0601 21.587 24.1182 21.6575C24.1851 21.7254 24.2685 21.7746 24.3602 21.8005L25.1632 22.0975H25.2099Z" fill="#5E5CC2"/>
<path d="M22.157 21.417C22.2101 21.2196 22.4901 21.2196 22.5432 21.417L22.9035 22.7552C22.9221 22.824 22.9758 22.8777 23.0446 22.8963L24.3828 23.2566C24.5802 23.3097 24.5802 23.5897 24.3828 23.6428L23.0446 24.0031C22.9758 24.0217 22.9221 24.0754 22.9035 24.1443L22.5432 25.4824C22.4901 25.6798 22.2101 25.6798 22.157 25.4824L21.7967 24.1443C21.7781 24.0754 21.7244 24.0217 21.6555 24.0031L20.3174 23.6428C20.12 23.5897 20.12 23.3097 20.3174 23.2566L21.6555 22.8963C21.7244 22.8777 21.7781 22.824 21.7967 22.7552L22.157 21.417Z" fill="white"/>
<path d="M17.7569 12.6172C17.81 12.4198 18.09 12.4198 18.1431 12.6172L18.9701 15.6887C18.9886 15.7575 19.0424 15.8113 19.1112 15.8298L22.1827 16.6568C22.3801 16.7099 22.3801 16.9899 22.1827 17.043L19.1112 17.87C19.0424 17.8886 18.9886 17.9423 18.9701 18.0111L18.1431 21.0826C18.09 21.28 17.81 21.28 17.7569 21.0826L16.9299 18.0111C16.9114 17.9423 16.8576 17.8886 16.7888 17.87L13.7173 17.043C13.5199 16.9899 13.5199 16.7099 13.7173 16.6568L16.7888 15.8298C16.8576 15.8113 16.9114 15.7575 16.9299 15.6887L17.7569 12.6172Z" fill="white"/>
</svg>
