<svg width="24" height="24" viewBox="0 0 24 24" fill="none" xmlns="http://www.w3.org/2000/svg">
<path fill-rule="evenodd" clip-rule="evenodd" d="M12.9795 3.59325C12.5197 2.88282 11.4803 2.88282 11.0205 3.59325L9.92767 5.282C9.88481 5.34823 9.80138 5.37534 9.72777 5.34695L7.85101 4.62308C7.0615 4.31856 6.22057 4.92953 6.26621 5.77451L6.3747 7.7831C6.37895 7.86188 6.32739 7.93285 6.25115 7.95314L4.30734 8.47065C3.48962 8.68836 3.16841 9.67693 3.702 10.3337L4.97039 11.8949C5.02014 11.9562 5.02014 12.0439 4.97039 12.1051L3.702 13.6663C3.16841 14.3231 3.48962 15.3117 4.30734 15.5294L6.25115 16.0469C6.32739 16.0672 6.37895 16.1382 6.3747 16.2169L6.26621 18.2255C6.22057 19.0705 7.0615 19.6815 7.85101 19.3769L9.72777 18.6531C9.80138 18.6247 9.88481 18.6518 9.92767 18.718L11.0205 20.4068C11.4803 21.1172 12.5197 21.1172 12.9795 20.4068L14.0723 18.718C14.1152 18.6518 14.1986 18.6247 14.2722 18.6531L16.149 19.3769C16.9385 19.6815 17.7794 19.0705 17.7338 18.2255L17.6253 16.2169C17.621 16.1382 17.6726 16.0672 17.7488 16.0469L19.6926 15.5294C20.5104 15.3117 20.8316 14.3231 20.298 13.6663L19.0296 12.1051C18.9798 12.0439 18.9798 11.9562 19.0296 11.8949L20.298 10.3337C20.8316 9.67693 20.5104 8.68836 19.6926 8.47065L17.7488 7.95314C17.6726 7.93285 17.621 7.86188 17.6253 7.7831L17.7338 5.77451C17.7794 4.92953 16.9385 4.31856 16.149 4.62308L14.2722 5.34695C14.1986 5.37534 14.1152 5.34823 14.0723 5.282L12.9795 3.59325ZM11.8601 4.13654C11.9257 4.03505 12.0742 4.03505 12.1399 4.13654L13.2328 5.82529C13.5328 6.28893 14.1168 6.47869 14.6321 6.27995L16.5088 5.55609C16.6216 5.51258 16.7417 5.59987 16.7352 5.72058L16.6267 7.72917C16.5969 8.28061 16.9579 8.7774 17.4915 8.91948L19.4354 9.43699C19.5522 9.46809 19.5981 9.60932 19.5218 9.70314L18.2534 11.2644C17.9052 11.693 17.9052 12.307 18.2534 12.7357L19.5218 14.2969C19.5981 14.3907 19.5522 14.5319 19.4354 14.563L17.4915 15.0805C16.9579 15.2226 16.5969 15.7194 16.6267 16.2709L16.7352 18.2795C16.7417 18.4002 16.6216 18.4874 16.5088 18.4439L14.6321 17.7201C14.1168 17.5213 13.5328 17.7111 13.2328 18.1747L12.1399 19.8635C12.0742 19.965 11.9257 19.965 11.8601 19.8635L10.7672 18.1747C10.4672 17.7111 9.88316 17.5213 9.36791 17.7201L7.49115 18.4439C7.37837 18.4874 7.25823 18.4002 7.26475 18.2795L7.37324 16.2709C7.40303 15.7194 7.04209 15.2226 6.50842 15.0805L4.56462 14.563C4.4478 14.5319 4.40191 14.3907 4.47814 14.2969L5.74653 12.7357C6.09476 12.307 6.09476 11.693 5.74653 11.2644L4.47814 9.70314C4.40191 9.60932 4.4478 9.46809 4.56462 9.43699L6.50842 8.91948C7.04209 8.7774 7.40303 8.28061 7.37324 7.72917L7.26475 5.72058C7.25823 5.59987 7.37837 5.51258 7.49115 5.55609L9.36791 6.27995C9.88316 6.47869 10.4672 6.28893 10.7672 5.82529L11.8601 4.13654ZM9.49999 12C9.49999 10.6193 10.6193 9.50001 12 9.50001C13.3807 9.50001 14.5 10.6193 14.5 12C14.5 13.3807 13.3807 14.5 12 14.5C10.6193 14.5 9.49999 13.3807 9.49999 12ZM12 8.50001C10.067 8.50001 8.49999 10.067 8.49999 12C8.49999 13.933 10.067 15.5 12 15.5C13.933 15.5 15.5 13.933 15.5 12C15.5 10.067 13.933 8.50001 12 8.50001Z" fill="white" fill-opacity="0.7"/>
</svg>
