<svg width="24" height="25" viewBox="0 0 24 25" fill="none" xmlns="http://www.w3.org/2000/svg">
<path d="M2 2.43164L2 22.4316" stroke="#EAECEF" stroke-opacity="0.7" stroke-miterlimit="10" stroke-linecap="round" stroke-linejoin="round"/>
<path d="M20 10.1816L2 10.1816V14.6816H20C21.1 14.6816 22 14.2316 22 12.8816V11.9816C22 10.6316 21.1 10.1816 20 10.1816Z" stroke="#EAECEF" stroke-opacity="0.7" stroke-linecap="round" stroke-linejoin="round"/>
<path d="M14 3.43164L2 3.43164V7.43164L14 7.43164C15.1 7.43164 16 7.03164 16 5.83164V5.03164C16 3.83164 15.1 3.43164 14 3.43164Z" stroke="#EAECEF" stroke-opacity="0.7" stroke-linecap="round" stroke-linejoin="round"/>
<path d="M9 17.4316H2V21.4316H9C10.1 21.4316 11 21.0316 11 19.8316V19.0316C11 17.8316 10.1 17.4316 9 17.4316Z" stroke="#EAECEF" stroke-opacity="0.7" stroke-linecap="round" stroke-linejoin="round"/>
</svg>
