<svg width="48" height="48" viewBox="0 0 48 48" fill="none" xmlns="http://www.w3.org/2000/svg">
<rect width="48" height="48" rx="4" fill="#1D1D40"/>
<circle cx="23.0176" cy="25.0854" r="9.89851" fill="#7165E3" stroke="#7165E3"/>
<path d="M36 25C36 32.1797 30.1797 38 23 38C15.8203 38 10 32.1797 10 25C10 17.8203 15.8203 12 23 12C24.7752 12 26.4673 12.3558 28.0088 13" stroke="#7165E3" stroke-linecap="round"/>
<path d="M38 16L32 16" stroke="#7165E3" stroke-linecap="round"/>
<path d="M35 13V19" stroke="#7165E3" stroke-linecap="round"/>
<path d="M20 27.5C20 28.6046 20.8954 29.5 22 29.5H24C25.1046 29.5 26 28.6046 26 27.5C26 26.3954 25.1046 25.5 24 25.5H22C20.8954 25.5 20 24.6046 20 23.5C20 22.3954 20.8954 21.5 22 21.5H24C25.1046 21.5 26 22.3954 26 23.5M23 20.5V30.5" stroke="white" stroke-linecap="round" stroke-linejoin="round"/>
</svg>
