<svg width="24" height="24" viewBox="0 0 24 24" fill="none" xmlns="http://www.w3.org/2000/svg">
<path fill-rule="evenodd" clip-rule="evenodd" d="M15.2347 11.4325C15.2957 11.4661 15.3571 11.4999 15.4188 11.5339L15.418 11.5344C16.609 12.2172 17.8959 13.1037 17.8965 14.7475V14.7736C17.8886 15.7774 17.4615 16.6826 16.753 17.1881C16.0624 17.6834 15.1217 17.9231 14.0333 17.9231L13.9434 17.9225C12.8118 17.9098 11.6449 17.569 11.1299 17.4186L11.1279 17.418C11.0945 17.4082 11.0639 17.3993 11.0363 17.3913L11.0294 17.3896V16.9744L11.0494 16.9805C11.0968 16.9934 11.1578 17.0112 11.2307 17.0323L11.2309 17.0324C11.752 17.1837 12.8787 17.5107 13.9482 17.5226H13.9809C16.1192 17.5201 17.4821 16.5175 17.5069 14.7693V14.7328C17.5073 13.3556 16.4147 12.5673 15.2281 11.8852C15.0303 11.7682 14.829 11.6571 14.631 11.5476C13.6593 11.0109 12.7652 10.5169 12.7389 9.59584C12.7399 9.10789 12.949 8.72154 13.2755 8.48869C13.5927 8.26 14.0028 8.16439 14.4434 8.16439H14.4751C15.4096 8.17753 16.3097 8.55573 16.9663 8.83161L17.0003 8.84589C17.0233 8.85556 17.046 8.86509 17.0684 8.87446L17.0812 8.87942V9.28088L17.0599 9.30314L17.0502 9.29864C16.991 9.27404 16.9295 9.2482 16.8661 9.22151C16.2044 8.94319 15.3247 8.57315 14.4713 8.56515C13.6609 8.57519 13.1452 8.86789 13.1294 9.60068L13.1274 9.64174C13.1203 10.2693 14.1059 10.8115 15.2347 11.4325ZM6.1674 16.5897C4.95877 16.5724 3.88106 15.966 3.23725 15.569V15.1317L3.25583 15.1122L3.26306 15.1167C3.86314 15.4956 4.98869 16.1767 6.17329 16.1882C7.45044 16.182 7.74008 15.5658 7.76533 14.9954L7.767 14.9533C7.77107 14.0668 6.70793 13.4737 5.51997 12.8108L5.48199 12.7896C4.29372 12.1118 3 11.3064 3 9.73792V9.71947C3.00723 8.75337 3.45082 7.92774 4.13422 7.4805C4.79826 7.04133 5.67653 6.84619 6.62822 6.84619L6.70264 6.84688C7.67645 6.85788 8.6699 7.08981 9.17302 7.20728L9.22063 7.21838C9.23819 7.22248 9.25505 7.22639 9.27117 7.23012L9.28841 7.2345V7.64449L9.26049 7.63826C9.24097 7.63383 9.22003 7.62901 9.19776 7.62384C9.16975 7.61734 9.13962 7.61029 9.1075 7.60277C8.60973 7.48622 7.63574 7.25816 6.69819 7.24834H6.66415C4.80716 7.24926 3.41244 8.07801 3.3902 9.72489V9.76226C3.38886 11.0388 4.47625 11.7595 5.67042 12.4386C5.78567 12.5053 5.90213 12.5713 6.01846 12.6372C7.0875 13.2426 8.14577 13.8419 8.1573 15.0006C8.15275 15.3746 8.02705 15.7832 7.7036 16.0938C7.38781 16.3972 6.90007 16.5897 6.21701 16.5897H6.1674ZM11.0302 15.569C11.6753 15.966 12.7517 16.5724 13.961 16.5897H14.0107C14.6936 16.5897 15.1811 16.3972 15.4973 16.0938C15.8206 15.7832 15.9463 15.3746 15.9505 15.0006C15.9393 13.8424 14.8813 13.2431 13.8131 12.638C13.6963 12.5718 13.5794 12.5056 13.4637 12.4386C12.2698 11.7595 11.1827 11.0388 11.1827 9.76226L11.1837 9.72489C11.2047 8.07801 12.6011 7.24926 14.458 7.24834H14.4903C15.4274 7.25815 16.4 7.48569 16.8987 7.60236L16.9016 7.60303C16.9328 7.61035 16.9623 7.61724 16.9897 7.62359C17.0124 7.62886 17.0337 7.63377 17.0536 7.63826L17.0815 7.64449V7.2345L17.0643 7.23012C17.0454 7.22575 17.0255 7.22112 17.0046 7.21625L16.9674 7.20759L16.9648 7.20698C16.4611 7.08943 15.4688 6.85787 14.4949 6.84688L14.4211 6.84619C13.4688 6.84619 12.5911 7.04133 11.9263 7.4805C11.2437 7.92774 10.8 8.75337 10.7934 9.71947V9.73792C10.7934 11.3064 12.0871 12.1118 13.276 12.7896L13.3165 12.8122C14.5027 13.4745 15.5648 14.0675 15.5618 14.9533L15.5597 14.9954C15.5342 15.5658 15.2439 16.182 13.9676 16.1882C12.7825 16.1767 11.6565 15.4956 11.0564 15.1167L11.0493 15.1122L11.0306 15.1317V15.569H11.0302ZM14.5196 7.84943H14.521C15.4497 7.85931 16.3974 8.18609 16.9612 8.38052L17.0057 8.39585C17.02 8.40076 17.034 8.40558 17.0477 8.41028C17.0584 8.41396 17.069 8.41757 17.0793 8.42111H17.081V8.10361C16.5137 7.90917 15.5323 7.58164 14.5246 7.5693H14.4674C13.7743 7.5693 13.1203 7.69858 12.6321 8.03061H12.6328C12.1312 8.36725 11.7796 8.93247 11.7763 9.65673C11.7802 10.9058 12.9171 11.5591 14.0314 12.1994L14.0882 12.232C14.1108 12.245 14.1334 12.258 14.1561 12.271C14.1894 12.2903 14.2227 12.3095 14.256 12.3288C15.4539 13.007 16.5464 13.697 16.544 14.8452V14.8824C16.5217 16.0398 15.6836 16.9194 13.9693 16.9212H13.9555C12.7418 16.9097 11.5135 16.3446 11.0495 16.1139L11.0302 16.1039V16.4418L11.0371 16.4456C11.5976 16.7133 12.7517 17.1856 13.9545 17.2009H14.0268C14.9079 17.2009 15.6157 17.0172 16.1152 16.6227C16.6291 16.2176 16.9087 15.5751 16.9132 14.8864V14.8782C16.9118 13.4209 15.6209 12.6754 14.435 11.995C13.2353 11.3185 12.1437 10.6837 12.1463 9.7009V9.66123C12.1615 8.46424 13.177 7.85024 14.5196 7.84943ZM6.7261 7.84943H6.72855C7.65678 7.85932 8.60686 8.18683 9.17066 8.38118C9.19931 8.39105 9.22696 8.40058 9.25356 8.40971C9.26485 8.41358 9.27595 8.41738 9.28685 8.42111H9.28796V8.10361C8.72069 7.90917 7.73997 7.58164 6.73222 7.5693H6.67472C5.98164 7.5693 5.32716 7.69858 4.84053 8.03061C4.33899 8.36725 3.98739 8.93247 3.98294 9.65673C3.98774 10.9056 5.12451 11.5589 6.23849 12.1991C6.31368 12.2424 6.38876 12.2855 6.46338 12.3288C7.66033 13.0072 8.7515 13.6972 8.75084 14.8455V14.8826C8.72859 16.04 7.89013 16.9196 6.17552 16.9215H6.16172C4.94854 16.9099 3.72033 16.3448 3.25639 16.1142L3.2367 16.1041V16.4421L3.24326 16.4459C3.80364 16.7135 4.95755 17.1858 6.16061 17.2011H6.23403C7.11475 17.2011 7.82184 17.0174 8.32204 16.6229C8.83526 16.2179 9.11556 15.5754 9.12 14.8866V14.8784C9.11867 13.4212 7.82773 12.6757 6.64224 11.9952C5.44239 11.319 4.35011 10.6842 4.35312 9.70137V9.66169C4.36758 8.4647 5.383 7.85024 6.72566 7.84943H6.7261ZM7.43907 11.4315C7.50069 11.4654 7.56273 11.4995 7.62507 11.5339L7.62518 11.5335C8.81723 12.2163 10.1031 13.1027 10.1037 14.7466V14.7727C10.0958 15.777 9.66993 16.6822 8.96028 17.1874C8.26998 17.6827 7.33031 17.9224 6.24025 17.9224L6.15127 17.9218C5.0194 17.9091 3.85122 17.5681 3.33613 17.4178C3.30211 17.4078 3.27094 17.3987 3.24281 17.3906L3.23725 17.3889V16.9737L3.25661 16.9798C3.30389 16.9927 3.36484 17.0104 3.43762 17.0315C3.95867 17.1827 5.0867 17.51 6.15538 17.5219H6.18875C8.32726 17.5194 9.68917 16.5168 9.71331 14.7686V14.7321C9.71442 13.355 8.6218 12.5666 7.43419 11.8845C7.23622 11.7674 7.03477 11.6561 6.83655 11.5466C5.86542 11.0099 4.97191 10.5162 4.94531 9.59584C4.94842 9.10789 5.15575 8.72154 5.48233 8.48869C5.79989 8.26 6.20944 8.16439 6.64958 8.16439H6.68206C7.61818 8.17756 8.52103 8.55754 9.17696 8.8336C9.20999 8.84751 9.24241 8.86115 9.27417 8.87446L9.2883 8.87942V9.28088L9.26605 9.30314L9.25704 9.29864C9.19792 9.27409 9.13658 9.24831 9.07325 9.22168C8.41116 8.94334 7.53059 8.57315 6.67783 8.56515C5.86774 8.57519 5.35174 8.86789 5.33528 9.60068L5.33461 9.64174C5.3267 10.269 6.31142 10.8109 7.43907 11.4315ZM20.1892 17.8146H19.8375V7.0065H20.1892V17.8146ZM19.029 17.7791C19.0362 17.1855 19.1317 9.27195 19.0287 7.02898H19.0291L19.0508 7.00719H19.4266V17.8157H19.0429L19.0287 17.8006L19.029 17.7791ZM20.9993 17.7496C20.9899 16.9628 20.8973 9.24024 20.9986 7.02898L20.9779 7.00719H20.6025V17.8157H20.9852L21 17.8006L20.9993 17.7496Z" fill="white"/>
</svg>
