<svg width="48" height="48" viewBox="0 0 48 48" fill="none" xmlns="http://www.w3.org/2000/svg">
<rect width="48" height="48" rx="4" fill="#1D1D40"/>
<path d="M18.6816 11.5771L14.918 11.5894C12.6752 11.5968 10.8587 13.4147 10.8509 15.6597L10.8378 19.4289" stroke="#5E5CC2" stroke-linecap="round" stroke-linejoin="round"/>
<path d="M9.26855 18.5771L10.7754 20.084L12.2822 18.5771" stroke="#5E5CC2" stroke-linecap="round" stroke-linejoin="round"/>
<path d="M29.3174 36.4238L33.081 36.4115C35.3238 36.4042 37.1403 34.5863 37.1481 32.3413L37.1612 28.5721" stroke="#5E5CC2" stroke-linecap="round" stroke-linejoin="round"/>
<path d="M38.7305 29.4233L37.2236 27.9165L35.7168 29.4233" stroke="#5E5CC2" stroke-linecap="round" stroke-linejoin="round"/>
<circle cx="20.1067" cy="27.7845" r="9.10673" fill="#7165E3"/>
<path fill-rule="evenodd" clip-rule="evenodd" d="M30.1968 28.3691C34.0043 27.5562 36.86 24.1701 36.86 20.1162C36.86 15.4558 33.0857 11.6777 28.43 11.6777C24.6201 11.6777 21.4006 14.2077 20.3564 17.6808C25.8228 17.8133 30.2135 22.2861 30.2135 27.7845C30.2135 27.9807 30.2079 28.1756 30.1968 28.3691ZM29.1841 28.5214C29.2035 28.2783 29.2135 28.0326 29.2135 27.7845C29.2135 22.76 25.1445 18.686 20.122 18.6777C20.0418 19.1452 20 19.6258 20 20.1162C20 24.7767 23.7742 28.5547 28.43 28.5547C28.6841 28.5547 28.9357 28.5435 29.1841 28.5214Z" fill="#5E5CC2"/>
<path d="M17.5 29.4651C17.5 30.3956 18.2624 31.15 19.2029 31.15H20.9057C21.8462 31.15 22.6086 30.3956 22.6086 29.4651C22.6086 28.5345 21.8462 27.7802 20.9057 27.7802H19.2029C18.2624 27.7802 17.5 27.0258 17.5 26.0952C17.5 25.1647 18.2624 24.4103 19.2029 24.4103H20.9057C21.8462 24.4103 22.6086 25.1647 22.6086 26.0952M20.0543 23.5679V31.9924" stroke="white" stroke-linecap="round" stroke-linejoin="round"/>
</svg>
