<svg width="48" height="48" viewBox="0 0 48 48" fill="none" xmlns="http://www.w3.org/2000/svg">
<path d="M28.1072 12.8516H18.2501C17.8766 12.8516 17.5184 12.9999 17.2544 13.264C16.9903 13.5281 16.8419 13.8863 16.8419 14.2597V29.7495C16.8419 30.123 16.9903 30.4812 17.2544 30.7452C17.5184 31.0093 17.8766 31.1577 18.2501 31.1577H33.7399C34.1133 31.1577 34.4715 31.0093 34.7356 30.7452C34.9997 30.4812 35.148 30.123 35.148 29.7495V19.8924L28.1072 12.8516Z" stroke="white" stroke-linecap="round" stroke-linejoin="round"/>
<path d="M28.1077 19.1883V12.8516L35.1485 19.8924H28.8117C28.625 19.8924 28.4459 19.8182 28.3139 19.6862C28.1818 19.5541 28.1077 19.375 28.1077 19.1883Z" stroke="white" stroke-linecap="round" stroke-linejoin="round"/>
<path d="M19.4227 24.1975L32.5656 24.1975" stroke="white" stroke-linecap="round" stroke-linejoin="round"/>
<path d="M19.4227 19.8167L23.8037 19.8167" stroke="white" stroke-linecap="round" stroke-linejoin="round"/>
<path d="M12.8514 18.7207V30.7683C12.8514 33.1878 14.8129 35.1493 17.2324 35.1493H29.28" stroke="white" stroke-linecap="round" stroke-linejoin="round"/>
</svg>
