<svg width="49" height="48" viewBox="0 0 49 48" fill="none" xmlns="http://www.w3.org/2000/svg">
<path d="M10.1127 11.4992C10.1127 10.5711 10.4813 9.68112 11.1376 9.02489C11.7938 8.36866 12.6838 8 13.6119 8H20.2277V15.3841C20.2277 15.8436 20.3182 16.2986 20.494 16.7232C20.6699 17.1477 20.9276 17.5334 21.2526 17.8584C21.9088 18.5146 22.7988 18.8833 23.7269 18.8833H31.1078V31.7168C31.1078 32.6448 30.7392 33.5348 30.0829 34.1911C29.4267 34.8473 28.5367 35.2159 27.6086 35.2159H13.6119C12.6838 35.2159 11.7938 34.8473 11.1376 34.1911C10.4813 33.5348 10.1127 32.6448 10.1127 31.7168V11.4992ZM22.5605 15.3841V12.056V8.72783C22.6787 8.81803 22.7937 8.91757 22.8995 9.02487L30.083 16.2083C30.1918 16.3172 30.2913 16.4307 30.3831 16.5505H23.7269C23.4175 16.5505 23.1208 16.4276 22.9021 16.2088C22.6834 15.9901 22.5605 15.6934 22.5605 15.3841Z" fill="#5E5CC2"/>
<path d="M25.2616 21.6079H13.3546" stroke="white" stroke-linecap="round" stroke-linejoin="round"/>
<path d="M20.1586 25.0098H13.3546" stroke="white" stroke-linecap="round" stroke-linejoin="round"/>
<path d="M18.4559 18.2061H14.6461H13.3529" stroke="white" stroke-linecap="round" stroke-linejoin="round"/>
<g clip-path="url(#clip0_7215_49422)">
<path d="M37.3912 24.0059H24.1613C23.7959 24.0059 23.4998 24.302 23.4998 24.6674V37.8973C23.4998 38.2627 23.7959 38.5588 24.1613 38.5588H37.3912C37.7566 38.5588 38.0527 38.2627 38.0527 37.8973V24.6674C38.0527 24.302 37.7566 24.0059 37.3912 24.0059Z" fill="#5E5CC2" stroke="#0B0B25" stroke-linecap="round" stroke-linejoin="round"/>
<path d="M23.4998 28.1641H38.0527" stroke="#0B0B25" stroke-linecap="round" stroke-linejoin="round"/>
<rect x="26.0579" y="22.0649" width="1.8505" height="3.92571" rx="0.925249" fill="#5E5CC2" stroke="#0B0B25"/>
<rect x="33.7124" y="22.0649" width="1.8505" height="3.92571" rx="0.925249" fill="#5E5CC2" stroke="#0B0B25"/>
</g>
<defs>
<clipPath id="clip0_7215_49422">
<rect width="17.01" height="18.711" fill="white" transform="translate(22.3054 21.2891)"/>
</clipPath>
</defs>
</svg>
