<svg width="48" height="48" viewBox="0 0 48 48" fill="none" xmlns="http://www.w3.org/2000/svg">
<path d="M29 29C33.9706 29 38 24.9706 38 20C38 15.0294 33.9706 11 29 11C24.0294 11 20 15.0294 20 20" stroke="#5E5CC2"/>
<path d="M18.1355 9.2998L13.5688 9.31471C11.3261 9.32203 9.50959 11.1399 9.50179 13.385L9.4859 17.9581" stroke="#5E5CC2" stroke-linecap="round" stroke-linejoin="round"/>
<path d="M7.7556 17.02L9.41724 18.6816L11.0789 17.02" stroke="#5E5CC2" stroke-linecap="round" stroke-linejoin="round"/>
<path d="M29.8645 39.7002L34.4312 39.6853C36.6739 39.678 38.4904 37.8601 38.4982 35.615L38.5141 31.0419" stroke="#5E5CC2" stroke-linecap="round" stroke-linejoin="round"/>
<path d="M40.2444 31.9795L38.5828 30.3179L36.9211 31.9795" stroke="#5E5CC2" stroke-linecap="round" stroke-linejoin="round"/>
<circle cx="20" cy="29" r="10" fill="#5E5CC2"/>
<path d="M17 31C17 32.1046 17.8954 33 19 33H21C22.1046 33 23 32.1046 23 31C23 29.8954 22.1046 29 21 29H19C17.8954 29 17 28.1046 17 27C17 25.8954 17.8954 25 19 25H21C22.1046 25 23 25.8954 23 27M20 24V34" stroke="#EAECEF" stroke-linecap="round" stroke-linejoin="round"/>
</svg>
