<svg width="48" height="48" viewBox="0 0 48 48" fill="none" xmlns="http://www.w3.org/2000/svg">
<path d="M33.8275 22.5755H33.839M18.3103 12.2865C18.3103 11.0237 19.3395 10 20.6092 10H34.4023M18.3103 12.2865C18.3103 13.5492 19.3395 14.5729 20.6092 14.5729L36.7011 14.5729C37.9707 14.5729 39 15.5966 39 16.8594V28.2916C39 29.5544 37.9707 30.5781 36.7011 30.5781H28.6551M18.3103 12.2865V19.289M34.4023 22.5755C34.4023 22.8912 34.1449 23.1471 33.8275 23.1471C33.5101 23.1471 33.2528 22.8912 33.2528 22.5755C33.2528 22.2598 33.5101 22.0039 33.8275 22.0039C34.1449 22.0039 34.4023 22.2598 34.4023 22.5755Z" stroke="#5E5CC2" stroke-linecap="round" stroke-linejoin="round"/>
<circle cx="18" cy="29.999" r="11" fill="#5E5CC2"/>
<path d="M14 32.799C14 34.3454 15.1939 35.599 16.6667 35.599H19.3333C20.8061 35.599 22 34.3454 22 32.799C22 31.2526 20.8061 29.999 19.3333 29.999H16.6667C15.1939 29.999 14 28.7454 14 27.199C14 25.6526 15.1939 24.399 16.6667 24.399H19.3333C20.8061 24.399 22 25.6526 22 27.199M18 22.999V36.999" stroke="#EAECEF" stroke-linecap="round" stroke-linejoin="round"/>
</svg>
