<svg width="36" height="40" viewBox="0 0 36 40" fill="none" xmlns="http://www.w3.org/2000/svg">
<path d="M29.6324 4.94C29.4723 4.94 29.3123 4.9 29.1723 4.82C25.3315 2.84 22.0108 2 18.03 2C14.0692 2 10.3084 2.94 6.88773 4.82C6.40763 5.08 5.80751 4.9 5.52745 4.42C5.2674 3.94 5.44743 3.32 5.92753 3.06C9.64829 1.04 13.7291 0 18.03 0C22.2909 0 26.0116 0.94 30.0925 3.04C30.5926 3.3 30.7726 3.9 30.5126 4.38C30.3325 4.74 29.9925 4.94 29.6324 4.94ZM1.00652 15.44C0.806483 15.44 0.606442 15.38 0.426405 15.26C-0.0336892 14.94 -0.13371 14.32 0.186356 13.86C2.16676 11.06 4.68728 8.86 7.68789 7.32C13.9692 4.08 22.0108 4.06 28.3121 7.3C31.3127 8.84 33.8332 11.02 35.8136 13.8C36.1337 14.24 36.0337 14.88 35.5736 15.2C35.1135 15.52 34.4934 15.42 34.1733 14.96C32.3729 12.44 30.0925 10.46 27.3919 9.08C21.6507 6.14 14.3092 6.14 8.58808 9.1C5.86752 10.5 3.58705 12.5 1.78668 15.02C1.62665 15.3 1.32659 15.44 1.00652 15.44ZM13.5091 39.58C13.249 39.58 12.989 39.48 12.8089 39.28C11.0686 37.54 10.1284 36.42 8.78812 34C7.40783 31.54 6.68769 28.54 6.68769 25.32C6.68769 19.38 11.7687 14.54 18.01 14.54C24.2513 14.54 29.3323 19.38 29.3323 25.32C29.3323 25.88 28.8922 26.32 28.3321 26.32C27.772 26.32 27.3319 25.88 27.3319 25.32C27.3319 20.48 23.1511 16.54 18.01 16.54C12.869 16.54 8.6881 20.48 8.6881 25.32C8.6881 28.2 9.32823 30.86 10.5485 33.02C11.8287 35.32 12.7089 36.3 14.2492 37.86C14.6293 38.26 14.6293 38.88 14.2492 39.28C14.0292 39.48 13.7691 39.58 13.5091 39.58ZM27.852 35.88C25.4715 35.88 23.3711 35.28 21.6507 34.1C18.6701 32.08 16.8898 28.8 16.8898 25.32C16.8898 24.76 17.3299 24.32 17.89 24.32C18.4501 24.32 18.8902 24.76 18.8902 25.32C18.8902 28.14 20.3305 30.8 22.771 32.44C24.1913 33.4 25.8516 33.86 27.852 33.86C28.3321 33.86 29.1323 33.8 29.9324 33.66C30.4726 33.56 30.9927 33.92 31.0927 34.48C31.1927 35.02 30.8326 35.54 30.2725 35.64C29.1323 35.86 28.1321 35.88 27.852 35.88ZM23.8312 40C23.7512 40 23.6512 39.98 23.5711 39.96C20.3905 39.08 18.3101 37.9 16.1296 35.76C13.329 32.98 11.7887 29.28 11.7887 25.32C11.7887 22.08 14.5493 19.44 17.95 19.44C21.3507 19.44 24.1113 22.08 24.1113 25.32C24.1113 27.46 25.9716 29.2 28.2721 29.2C30.5726 29.2 32.433 27.46 32.433 25.32C32.433 17.78 25.9316 11.66 17.93 11.66C12.2488 11.66 7.04776 14.82 4.70728 19.72C3.92712 21.34 3.52704 23.24 3.52704 25.32C3.52704 26.88 3.66707 29.34 4.86731 32.54C5.06735 33.06 4.8073 33.64 4.28719 33.82C3.76709 34.02 3.18697 33.74 3.00693 33.24C2.02673 30.62 1.54663 28.02 1.54663 25.32C1.54663 22.92 2.00673 20.74 2.90691 18.84C5.56746 13.26 11.4687 9.64 17.93 9.64C27.0318 9.64 34.4334 16.66 34.4334 25.3C34.4334 28.54 31.6728 31.18 28.2721 31.18C24.8714 31.18 22.1108 28.54 22.1108 25.3C22.1108 23.16 20.2505 21.42 17.95 21.42C15.6495 21.42 13.7891 23.16 13.7891 25.3C13.7891 28.72 15.1094 31.92 17.5299 34.32C19.4303 36.2 21.2507 37.24 24.0712 38.02C24.6114 38.16 24.9114 38.72 24.7714 39.24C24.6714 39.7 24.2513 40 23.8312 40Z" fill="#1C1939"/>
</svg>
