<svg width="48" height="48" viewBox="0 0 48 48" fill="none" xmlns="http://www.w3.org/2000/svg">
<path d="M35.4922 27.6289V21.001M12.4922 27.6289V21.001M22.9922 10.1289C17.1932 10.1289 12.4922 14.8299 12.4922 20.6289V21.001M22.9922 10.1289C23.1088 10.1289 25.2249 10.1308 25.3405 10.1346M22.9922 10.1289L25.3405 10.1346M12.4922 23.8789V28.2122V29.0791C12.4922 30.1405 13.3526 31.001 14.4141 31.001V31.001C15.4755 31.001 16.3359 30.1405 16.3359 29.0791V24.201C16.3359 23.0809 16.3359 22.5208 16.118 22.093C15.9262 21.7167 15.6202 21.4107 15.2439 21.219C14.8161 21.001 14.256 21.001 13.1359 21.001H12.4922M35.4922 23.8789V28.2122V29.1729C35.4922 30.1825 34.6737 31.001 33.6641 31.001V31.001C32.6544 31.001 31.8359 30.1825 31.8359 29.1729V24.201C31.8359 23.0809 31.8359 22.5208 32.0539 22.093C32.2457 21.7167 32.5516 21.4107 32.928 21.219C33.3558 21.001 33.9158 21.001 35.0359 21.001H35.4922M35.4922 21.001V20.6289C35.4922 14.9465 30.9783 10.3184 25.3405 10.1346" stroke="#EAECEF" stroke-linecap="round" stroke-linejoin="round"/>
<path d="M38.5 24.001C38.5 23.1725 37.8284 22.501 37 22.501H36C35.7239 22.501 35.5 22.7248 35.5 23.001V29.001C35.5 29.2771 35.7239 29.501 36 29.501H37C37.8284 29.501 38.5 28.8294 38.5 28.001V24.001Z" stroke="white"/>
<path d="M10.7422 30.001V30.3731C10.7422 34.5152 14.1001 37.8731 18.2422 37.8731H23.2241C24.6148 37.8731 25.7422 36.7457 25.7422 35.355V34.8956C25.7422 33.7586 24.8204 32.8368 23.6834 32.8368V32.8368C22.5463 32.8368 21.6245 33.7586 21.6245 34.8956V37.3187" stroke="white" stroke-linecap="round"/>
<line x1="19.5" y1="25.501" x2="19.5" y2="27.8343" stroke="white" stroke-linecap="round"/>
<line x1="22.5" y1="26.3345" x2="22.5" y2="27.0011" stroke="white" stroke-linecap="round"/>
<line x1="28.5" y1="25.501" x2="28.5" y2="27.501" stroke="white" stroke-linecap="round"/>
<line x1="25.5" y1="24.501" x2="25.5" y2="28.501" stroke="white" stroke-linecap="round"/>
<path d="M9.5 24.001C9.5 23.1725 10.1716 22.501 11 22.501H12C12.2761 22.501 12.5 22.7248 12.5 23.001V29.001C12.5 29.2771 12.2761 29.501 12 29.501H11C10.1716 29.501 9.5 28.8294 9.5 28.001V24.001Z" stroke="white"/>
</svg>
