<svg width="49" height="48" viewBox="0 0 49 48" fill="none" xmlns="http://www.w3.org/2000/svg">
<path d="M33.982 16.6486V11C33.982 8.79086 32.1911 7 29.9819 7H13.1711C10.962 7 9.17114 8.79086 9.17114 11V30.5676C9.17114 32.7767 10.962 34.5676 13.1711 34.5676H25.099" stroke="#5E5CC2"/>
<path d="M17.4414 11.1353H24.7928" stroke="#5E5CC2" stroke-linecap="round"/>
<path d="M14.6846 14.3516L27.5494 14.3516" stroke="#5E5CC2" stroke-linecap="round"/>
<path d="M14.6846 18.0269L22.9548 18.0269" stroke="#5E5CC2" stroke-linecap="round"/>
<path d="M24.7927 40.0179V34.1484C24.7927 33.8723 25.0166 33.6484 25.2927 33.6484H33.4819C33.7581 33.6484 33.9819 33.8723 33.9819 34.1484V40.0179C33.9819 40.4265 33.5183 40.6626 33.1878 40.4223L29.6814 37.8721C29.5061 37.7446 29.2686 37.7446 29.0932 37.8721L25.5868 40.4223C25.2563 40.6626 24.7927 40.4265 24.7927 40.0179Z" stroke="#5E5CC2"/>
<ellipse cx="29.3874" cy="25.3786" rx="10.1081" ry="10.1081" fill="#5E5CC2"/>
<path d="M23.8738 25.3783L26.8693 27.9994C27.2556 28.3374 27.8349 28.3281 28.2101 27.9779L34.4413 22.1621" stroke="#EAECEF" stroke-linecap="round"/>
</svg>
