<svg width="372" height="187" viewBox="0 0 372 187" fill="none" xmlns="http://www.w3.org/2000/svg">
<path d="M2.3291 19H3.39844V11.9541H2.31934L0.463867 13.2725V14.3467L2.30469 13.0381H2.3291V19ZM7.68555 19.1318C9.375 19.1318 10.3662 17.7109 10.3662 15.4648C10.3662 13.2334 9.37012 11.8223 7.68555 11.8223C6.00586 11.8223 4.99512 13.2383 4.99512 15.4697C4.99512 17.7158 5.99609 19.1318 7.68555 19.1318ZM7.68555 18.2139C6.67969 18.2139 6.10352 17.1689 6.10352 15.4697C6.10352 13.7949 6.68945 12.7402 7.68555 12.7402C8.68164 12.7402 9.2627 13.79 9.2627 15.4697C9.2627 17.1738 8.69141 18.2139 7.68555 18.2139ZM13.8525 19.1318C15.3711 19.1318 16.4355 18.1309 16.4355 16.6855C16.4355 15.3184 15.4639 14.3271 14.1113 14.3271C13.4229 14.3271 12.8467 14.5957 12.5391 15.04H12.5146L12.71 12.877H16.0254V11.9541H11.8311L11.46 15.9385H12.4609C12.7344 15.4746 13.2617 15.1963 13.8721 15.1963C14.751 15.1963 15.3662 15.8311 15.3662 16.7148C15.3662 17.5986 14.751 18.2188 13.8623 18.2188C13.0762 18.2188 12.4756 17.7402 12.3975 17.042H11.3525C11.416 18.2725 12.4463 19.1318 13.8525 19.1318ZM19.8926 19.1318C21.582 19.1318 22.5732 17.7109 22.5732 15.4648C22.5732 13.2334 21.5771 11.8223 19.8926 11.8223C18.2129 11.8223 17.2021 13.2383 17.2021 15.4697C17.2021 17.7158 18.2031 19.1318 19.8926 19.1318ZM19.8926 18.2139C18.8867 18.2139 18.3105 17.1689 18.3105 15.4697C18.3105 13.7949 18.8965 12.7402 19.8926 12.7402C20.8887 12.7402 21.4697 13.79 21.4697 15.4697C21.4697 17.1738 20.8984 18.2139 19.8926 18.2139Z" fill="white" fill-opacity="0.5"/>
<path d="M2.3291 52.25H3.39844V45.2041H2.31934L0.463867 46.5225V47.5967L2.30469 46.2881H2.3291V52.25ZM7.68555 52.3818C9.375 52.3818 10.3662 50.9609 10.3662 48.7148C10.3662 46.4834 9.37012 45.0723 7.68555 45.0723C6.00586 45.0723 4.99512 46.4883 4.99512 48.7197C4.99512 50.9658 5.99609 52.3818 7.68555 52.3818ZM7.68555 51.4639C6.67969 51.4639 6.10352 50.4189 6.10352 48.7197C6.10352 47.0449 6.68945 45.9902 7.68555 45.9902C8.68164 45.9902 9.2627 47.04 9.2627 48.7197C9.2627 50.4238 8.69141 51.4639 7.68555 51.4639ZM14.6973 52.25H15.7471V50.8584H16.7139V49.9404H15.7471V45.2041H14.165C12.5781 47.499 11.7773 48.7637 11.1719 49.9014V50.8584H14.6973V52.25ZM12.1924 49.9307C12.7539 48.9102 13.4668 47.8115 14.6875 46.0488H14.707V49.9551H12.1924V49.9307ZM20.127 52.3818C21.8164 52.3818 22.8076 50.9609 22.8076 48.7148C22.8076 46.4834 21.8115 45.0723 20.127 45.0723C18.4473 45.0723 17.4365 46.4883 17.4365 48.7197C17.4365 50.9658 18.4375 52.3818 20.127 52.3818ZM20.127 51.4639C19.1211 51.4639 18.5449 50.4189 18.5449 48.7197C18.5449 47.0449 19.1309 45.9902 20.127 45.9902C21.123 45.9902 21.7041 47.04 21.7041 48.7197C21.7041 50.4238 21.1328 51.4639 20.127 51.4639Z" fill="white" fill-opacity="0.5"/>
<path d="M2.3291 85.5H3.39844V78.4541H2.31934L0.463867 79.7725V80.8467L2.30469 79.5381H2.3291V85.5ZM7.68555 85.6318C9.375 85.6318 10.3662 84.2109 10.3662 81.9648C10.3662 79.7334 9.37012 78.3223 7.68555 78.3223C6.00586 78.3223 4.99512 79.7383 4.99512 81.9697C4.99512 84.2158 5.99609 85.6318 7.68555 85.6318ZM7.68555 84.7139C6.67969 84.7139 6.10352 83.6689 6.10352 81.9697C6.10352 80.2949 6.68945 79.2402 7.68555 79.2402C8.68164 79.2402 9.2627 80.29 9.2627 81.9697C9.2627 83.6738 8.69141 84.7139 7.68555 84.7139ZM12.8809 82.3115H13.7598C14.6875 82.3115 15.2637 82.7803 15.2637 83.542C15.2637 84.2305 14.6484 84.7188 13.7891 84.7188C12.9004 84.7188 12.3438 84.2549 12.2754 83.5811H11.2256C11.2939 84.7969 12.2705 85.6318 13.7891 85.6318C15.2588 85.6318 16.377 84.7871 16.377 83.5566C16.377 82.5703 15.6934 81.9209 14.6338 81.8477V81.8281C15.5078 81.6719 16.084 81.042 16.084 80.1631C16.084 79.0791 15.1123 78.3223 13.7793 78.3223C12.3828 78.3223 11.4502 79.1182 11.3672 80.3535H12.3975C12.4609 79.6602 12.9688 79.2207 13.7305 79.2207C14.5654 79.2207 15.0146 79.6553 15.0146 80.3096C15.0146 80.9736 14.4922 81.4521 13.7305 81.4521H12.8809V82.3115ZM19.9707 85.6318C21.6602 85.6318 22.6514 84.2109 22.6514 81.9648C22.6514 79.7334 21.6553 78.3223 19.9707 78.3223C18.291 78.3223 17.2803 79.7383 17.2803 81.9697C17.2803 84.2158 18.2812 85.6318 19.9707 85.6318ZM19.9707 84.7139C18.9648 84.7139 18.3887 83.6689 18.3887 81.9697C18.3887 80.2949 18.9746 79.2402 19.9707 79.2402C20.9668 79.2402 21.5479 80.29 21.5479 81.9697C21.5479 83.6738 20.9766 84.7139 19.9707 84.7139Z" fill="white" fill-opacity="0.5"/>
<path d="M2.3291 118.75H3.39844V111.704H2.31934L0.463867 113.022V114.097L2.30469 112.788H2.3291V118.75ZM7.68555 118.882C9.375 118.882 10.3662 117.461 10.3662 115.215C10.3662 112.983 9.37012 111.572 7.68555 111.572C6.00586 111.572 4.99512 112.988 4.99512 115.22C4.99512 117.466 5.99609 118.882 7.68555 118.882ZM7.68555 117.964C6.67969 117.964 6.10352 116.919 6.10352 115.22C6.10352 113.545 6.68945 112.49 7.68555 112.49C8.68164 112.49 9.2627 113.54 9.2627 115.22C9.2627 116.924 8.69141 117.964 7.68555 117.964ZM11.2109 113.77V113.779H12.2461V113.765C12.2461 113.032 12.8271 112.476 13.5986 112.476C14.3311 112.476 14.8975 112.974 14.8975 113.599C14.8975 114.15 14.6729 114.521 13.8135 115.415L11.2695 118.008V118.75H16.0889V117.827H12.7441V117.803L14.5068 116.03C15.5371 114.976 15.9766 114.365 15.9766 113.545C15.9766 112.427 14.9756 111.572 13.6328 111.572C12.2314 111.572 11.2109 112.5 11.2109 113.77ZM19.6289 118.882C21.3184 118.882 22.3096 117.461 22.3096 115.215C22.3096 112.983 21.3135 111.572 19.6289 111.572C17.9492 111.572 16.9385 112.988 16.9385 115.22C16.9385 117.466 17.9395 118.882 19.6289 118.882ZM19.6289 117.964C18.623 117.964 18.0469 116.919 18.0469 115.22C18.0469 113.545 18.6328 112.49 19.6289 112.49C20.625 112.49 21.2061 113.54 21.2061 115.22C21.2061 116.924 20.6348 117.964 19.6289 117.964Z" fill="white" fill-opacity="0.5"/>
<path d="M3.45881 144.727V152H2.35795V145.828H2.31534L0.575284 146.964V145.913L2.38991 144.727H3.45881ZM7.9581 152.121C7.39702 152.118 6.91761 151.97 6.51989 151.677C6.12216 151.383 5.81795 150.956 5.60724 150.395C5.39654 149.834 5.29119 149.158 5.29119 148.367C5.29119 147.579 5.39654 146.905 5.60724 146.347C5.82031 145.788 6.12571 145.362 6.52344 145.068C6.92353 144.775 7.40175 144.628 7.9581 144.628C8.51444 144.628 8.99148 144.776 9.3892 145.072C9.78693 145.365 10.0911 145.791 10.3018 146.35C10.5149 146.906 10.6214 147.579 10.6214 148.367C10.6214 149.16 10.5161 149.837 10.3054 150.398C10.0947 150.957 9.79048 151.384 9.39276 151.68C8.99503 151.974 8.51681 152.121 7.9581 152.121ZM7.9581 151.173C8.45052 151.173 8.83523 150.932 9.11222 150.452C9.39157 149.971 9.53125 149.276 9.53125 148.367C9.53125 147.763 9.46733 147.253 9.33949 146.837C9.21402 146.418 9.03291 146.1 8.79616 145.885C8.56179 145.667 8.28243 145.558 7.9581 145.558C7.46804 145.558 7.08333 145.8 6.80398 146.283C6.52462 146.766 6.38376 147.46 6.38139 148.367C6.38139 148.973 6.44413 149.486 6.5696 149.905C6.69744 150.321 6.87855 150.638 7.11293 150.853C7.3473 151.066 7.62902 151.173 7.9581 151.173ZM14.6404 144.727V152H13.5396V145.828H13.497L11.7569 146.964V145.913L13.5716 144.727H14.6404ZM19.1397 152.121C18.5787 152.118 18.0993 151.97 17.7015 151.677C17.3038 151.383 16.9996 150.956 16.7889 150.395C16.5782 149.834 16.4728 149.158 16.4728 148.367C16.4728 147.579 16.5782 146.905 16.7889 146.347C17.002 145.788 17.3074 145.362 17.7051 145.068C18.1052 144.775 18.5834 144.628 19.1397 144.628C19.6961 144.628 20.1731 144.776 20.5708 145.072C20.9686 145.365 21.2728 145.791 21.4835 146.35C21.6966 146.906 21.8031 147.579 21.8031 148.367C21.8031 149.16 21.6977 149.837 21.487 150.398C21.2763 150.957 20.9721 151.384 20.5744 151.68C20.1767 151.974 19.6984 152.121 19.1397 152.121ZM19.1397 151.173C19.6322 151.173 20.0169 150.932 20.2939 150.452C20.5732 149.971 20.7129 149.276 20.7129 148.367C20.7129 147.763 20.649 147.253 20.5211 146.837C20.3957 146.418 20.2145 146.1 19.9778 145.885C19.7434 145.667 19.4641 145.558 19.1397 145.558C18.6497 145.558 18.265 145.8 17.9856 146.283C17.7063 146.766 17.5654 147.46 17.563 148.367C17.563 148.973 17.6258 149.486 17.7512 149.905C17.8791 150.321 18.0602 150.638 18.2946 150.853C18.5289 151.066 18.8107 151.173 19.1397 151.173Z" fill="white" fill-opacity="0.5"/>
<line x1="46" y1="148.25" x2="358" y2="148.25" stroke="white" stroke-opacity="0.3" stroke-width="0.5" stroke-dasharray="4 4"/>
<line x1="46" y1="115.25" x2="358" y2="115.25" stroke="white" stroke-opacity="0.3" stroke-width="0.5" stroke-dasharray="4 4"/>
<line x1="46" y1="82.25" x2="358" y2="82.25" stroke="white" stroke-opacity="0.3" stroke-width="0.5" stroke-dasharray="4 4"/>
<line x1="46" y1="49.25" x2="358" y2="49.25" stroke="white" stroke-opacity="0.3" stroke-width="0.5" stroke-dasharray="4 4"/>
<line x1="46" y1="16.25" x2="358" y2="16.25" stroke="white" stroke-opacity="0.3" stroke-width="0.5" stroke-dasharray="4 4"/>
<path d="M70 49L163 81.75L209.5 68L303.255 148L349 129" stroke="#7165E3" stroke-width="2" stroke-linecap="round"/>
<path d="M70 29L163.335 61.75H210.002L303 128L349 128" stroke="#01C27F" stroke-width="2" stroke-linecap="round"/>
<path d="M70 22L163 54.5H210L303.255 121H349" stroke="#EE3F3F" stroke-width="2" stroke-linecap="round"/>
<circle cx="350.5" cy="130" r="7" fill="#01C27F" stroke="#0B0B25" stroke-width="2"/>
<path d="M342.479 159H344.793L339.705 144.908H337.342L332.254 159H334.529L335.818 155.191H341.189L342.479 159ZM338.475 147.252H338.533L340.633 153.434H336.375L338.475 147.252Z" fill="white"/>
<path d="M51.6152 176H52.6846V168.954H51.6055L49.75 170.272V171.347L51.5908 170.038H51.6152V176Z" fill="white" fill-opacity="0.5"/>
<path d="M94.3457 171.02V171.029H95.3809V171.015C95.3809 170.282 95.9619 169.726 96.7334 169.726C97.4658 169.726 98.0322 170.224 98.0322 170.849C98.0322 171.4 97.8076 171.771 96.9482 172.665L94.4043 175.258V176H99.2236V175.077H95.8789V175.053L97.6416 173.28C98.6719 172.226 99.1113 171.615 99.1113 170.795C99.1113 169.677 98.1104 168.822 96.7676 168.822C95.3662 168.822 94.3457 169.75 94.3457 171.02Z" fill="white" fill-opacity="0.5"/>
<path d="M140.509 172.812H141.388C142.315 172.812 142.892 173.28 142.892 174.042C142.892 174.73 142.276 175.219 141.417 175.219C140.528 175.219 139.972 174.755 139.903 174.081H138.854C138.922 175.297 139.898 176.132 141.417 176.132C142.887 176.132 144.005 175.287 144.005 174.057C144.005 173.07 143.321 172.421 142.262 172.348V172.328C143.136 172.172 143.712 171.542 143.712 170.663C143.712 169.579 142.74 168.822 141.407 168.822C140.011 168.822 139.078 169.618 138.995 170.854H140.025C140.089 170.16 140.597 169.721 141.358 169.721C142.193 169.721 142.643 170.155 142.643 170.81C142.643 171.474 142.12 171.952 141.358 171.952H140.509V172.812Z" fill="white" fill-opacity="0.5"/>
<path d="M186.896 176H187.946V174.608H188.913V173.69H187.946V168.954H186.364C184.777 171.249 183.977 172.514 183.371 173.651V174.608H186.896V176ZM184.392 173.681C184.953 172.66 185.666 171.562 186.887 169.799H186.906V173.705H184.392V173.681Z" fill="white" fill-opacity="0.5"/>
<path d="M230.644 176.132C232.162 176.132 233.227 175.131 233.227 173.686C233.227 172.318 232.255 171.327 230.902 171.327C230.214 171.327 229.638 171.596 229.33 172.04H229.306L229.501 169.877H232.816V168.954H228.622L228.251 172.938H229.252C229.525 172.475 230.053 172.196 230.663 172.196C231.542 172.196 232.157 172.831 232.157 173.715C232.157 174.599 231.542 175.219 230.653 175.219C229.867 175.219 229.267 174.74 229.188 174.042H228.144C228.207 175.272 229.237 176.132 230.644 176.132Z" fill="white" fill-opacity="0.5"/>
<path d="M275.342 176.137C276.836 176.137 277.915 175.111 277.915 173.7C277.915 172.362 276.919 171.371 275.576 171.371C274.697 171.371 273.95 171.83 273.643 172.514H273.623C273.628 170.741 274.272 169.735 275.381 169.735C276.025 169.735 276.553 170.111 276.724 170.688H277.817C277.603 169.564 276.636 168.817 275.391 168.817C273.628 168.817 272.573 170.214 272.573 172.572C272.573 173.397 272.72 174.091 273.008 174.652C273.467 175.604 274.302 176.137 275.342 176.137ZM275.332 175.214C274.492 175.214 273.843 174.55 273.843 173.715C273.843 172.88 274.482 172.265 275.342 172.265C276.206 172.265 276.826 172.88 276.826 173.734C276.826 174.56 276.162 175.214 275.332 175.214Z" fill="white" fill-opacity="0.5"/>
<path d="M317.652 176H318.8L321.861 169.901V168.954H317.066V169.877H320.782V169.901L317.652 176Z" fill="white" fill-opacity="0.5"/>
</svg>
