<svg width="48" height="48" viewBox="0 0 48 48" fill="none" xmlns="http://www.w3.org/2000/svg">
<rect width="48" height="48" rx="4" fill="#1D1D40"/>
<ellipse cx="23.9228" cy="23.0126" rx="8.67283" ry="8.70499" fill="#7165E3" stroke="#7165E3"/>
<path d="M21.4229 24.7271C21.4229 25.6386 22.1598 26.3776 23.0689 26.3776H24.715C25.6241 26.3776 26.3611 25.6386 26.3611 24.7271C26.3611 23.8155 25.6241 23.0765 24.715 23.0765H23.0689C22.1598 23.0765 21.4229 22.3376 21.4229 21.426C21.4229 20.5144 22.1598 19.7755 23.0689 19.7755H24.715C25.6241 19.7755 26.3611 20.5144 26.3611 21.426M23.892 18.9502V27.2028" stroke="white" stroke-linecap="round" stroke-linejoin="round"/>
<path d="M37.9999 9.99955V21.8457M37.9999 21.8457L33.5576 17.4034M37.9999 21.8457L42.4422 17.4034" stroke="#7165E3" stroke-linecap="round" stroke-linejoin="round"/>
<path d="M9.99993 26.1538V38M9.99993 38L5.55762 33.5577M9.99993 38L14.4422 33.5577" stroke="#7165E3" stroke-linecap="round" stroke-linejoin="round"/>
</svg>
