<svg width="48" height="48" viewBox="0 0 48 48" fill="none" xmlns="http://www.w3.org/2000/svg">
<rect width="48" height="48" rx="4" fill="#1D1D40"/>
<ellipse cx="23.9228" cy="23.0126" rx="8.67283" ry="8.70499" fill="#7165E3" stroke="#7165E3"/>
<path d="M21.4229 24.7271C21.4229 25.6386 22.1598 26.3776 23.0689 26.3776H24.715C25.6241 26.3776 26.3611 25.6386 26.3611 24.7271C26.3611 23.8155 25.6241 23.0765 24.715 23.0765H23.0689C22.1598 23.0765 21.4229 22.3376 21.4229 21.426C21.4229 20.5144 22.1598 19.7755 23.0689 19.7755H24.715C25.6241 19.7755 26.3611 20.5144 26.3611 21.426M23.892 18.9502V27.2028" stroke="white" stroke-linecap="round" stroke-linejoin="round"/>
<path d="M37.9999 38.0005V26.1543M37.9999 26.1543L33.5576 30.5966M37.9999 26.1543L42.4422 30.5966" stroke="#7165E3" stroke-linecap="round" stroke-linejoin="round"/>
<path d="M9.99993 21.8462V10M9.99993 10L5.55762 14.4423M9.99993 10L14.4422 14.4423" stroke="#7165E3" stroke-linecap="round" stroke-linejoin="round"/>
</svg>
