<svg width="48" height="48" viewBox="0 0 48 48" fill="none" xmlns="http://www.w3.org/2000/svg">
<rect width="48" height="48" rx="4" fill="#1D1D40"/>
<rect x="17.6123" y="18.8442" width="13.5425" height="13.5425" fill="#7165E3"/>
<path d="M10.8799 18.9982H37.888L24.3839 10.688L10.8799 18.9982Z" fill="#7165E3" stroke="#7165E3" stroke-width="2.07754" stroke-linecap="round" stroke-linejoin="round"/>
<path d="M15.1504 20.0752V32.3866" stroke="#7165E3" stroke-width="1.84671" stroke-linecap="round" stroke-linejoin="round"/>
<path d="M33.6172 20.0752V32.3866" stroke="#7165E3" stroke-width="1.84671" stroke-linecap="round" stroke-linejoin="round"/>
<path d="M11.9189 33.0791H36.8495" stroke="#7165E3" stroke-width="1.84671" stroke-linecap="round" stroke-linejoin="round"/>
<path d="M9.84082 36.0034H38.9264" stroke="#7165E3" stroke-width="1.23114" stroke-linecap="round" stroke-linejoin="round"/>
<path d="M21 28C21 29.1046 22.0447 30 23.3333 30H25.6667C26.9553 30 28 29.1046 28 28C28 26.8954 26.9553 26 25.6667 26H23.3333C22.0447 26 21 25.1046 21 24C21 22.8954 22.0447 22 23.3333 22H25.6667C26.9553 22 28 22.8954 28 24M24.5 21V31" stroke="white" stroke-width="1.23114" stroke-linecap="round" stroke-linejoin="round"/>
</svg>
