<svg width="48" height="48" viewBox="0 0 48 48" fill="none" xmlns="http://www.w3.org/2000/svg">
<circle cx="22.4788" cy="25.6146" r="12.6268" fill="#5E5CC2"/>
<path d="M38.2431 25.5108C38.2431 34.229 31.1756 41.2965 22.4573 41.2965C13.7391 41.2965 6.67163 34.229 6.67163 25.5108C6.67163 16.7926 13.7391 9.7251 22.4573 9.7251C24.6129 9.7251 26.6676 10.1572 28.5395 10.9394" stroke="#5E5CC2" stroke-linecap="round"/>
<path d="M36.8862 6.70414V18.5503M36.8862 18.5503L32.4438 14.108M36.8862 18.5503L41.3285 14.108" stroke="#5E5CC2" stroke-linecap="round" stroke-linejoin="round"/>
<path d="M18.8145 28.5464C18.8145 29.8876 19.9018 30.975 21.243 30.975H23.6716C25.0129 30.975 26.1002 29.8876 26.1002 28.5464C26.1002 27.2051 25.0129 26.1178 23.6716 26.1178H21.243C19.9018 26.1178 18.8145 25.0305 18.8145 23.6892C18.8145 22.348 19.9018 21.2607 21.243 21.2607H23.6716C25.0129 21.2607 26.1002 22.348 26.1002 23.6892M22.4573 20.0464V32.1892" stroke="#EAECEF" stroke-opacity="0.9" stroke-linecap="round" stroke-linejoin="round"/>
</svg>
