<svg width="49" height="48" viewBox="0 0 49 48" fill="none" xmlns="http://www.w3.org/2000/svg">
<path d="M10.1414 13.7744C10.1414 12.8357 10.5143 11.9354 11.1781 11.2716C11.8419 10.6078 12.7422 10.2349 13.6809 10.2349H20.3731V17.7041C20.3731 18.169 20.4646 18.6292 20.6425 19.0587C20.8204 19.4881 21.0811 19.8783 21.4098 20.207C22.0736 20.8708 22.9739 21.2437 23.9126 21.2437H31.3788V34.2253C31.3788 35.164 31.0059 36.0643 30.3421 36.7281C29.6783 37.3919 28.778 37.7649 27.8392 37.7649H13.6809C12.7422 37.7649 11.8419 37.3919 11.1781 36.7281C10.5143 36.0643 10.1414 35.164 10.1414 34.2253V13.7744ZM22.7328 17.7041V14.3376V10.9711C22.8524 11.0623 22.9688 11.163 23.0757 11.2716L30.3421 18.5379C30.4522 18.648 30.5529 18.7629 30.6457 18.884H23.9126C23.5997 18.884 23.2996 18.7597 23.0784 18.5384C22.8571 18.3172 22.7328 18.0171 22.7328 17.7041Z" fill="#5E5CC2"/>
<path d="M26.4802 34.3237L21.3184 34.3237" stroke="white" stroke-linecap="round" stroke-linejoin="round"/>
<path d="M25.465 24H13.4207" stroke="white" stroke-linecap="round" stroke-linejoin="round"/>
<path d="M20.3032 27.4409H13.4207" stroke="white" stroke-linecap="round" stroke-linejoin="round"/>
<path d="M18.5808 20.5586H14.7271H13.4189" stroke="white" stroke-linecap="round" stroke-linejoin="round"/>
<path d="M26.2253 32.603L28.6356 32.3352C28.93 32.3025 29.0773 32.2861 29.2149 32.2416C29.337 32.202 29.4532 32.1462 29.5603 32.0755C29.6811 31.9959 29.7858 31.8911 29.9953 31.6816L37.2639 24.4131L34.4152 21.5645L27.1467 28.833C26.9372 29.0425 26.8324 29.1472 26.7528 29.268C26.6821 29.3751 26.6263 29.4913 26.5868 29.6134C26.5422 29.7511 26.5259 29.8983 26.4931 30.1928L26.2253 32.603Z" fill="#5E5CC2" stroke="#141432" stroke-linecap="round" stroke-linejoin="round"/>
<path d="M39.3836 22.2765C40.1702 21.4899 40.1702 20.2145 39.3836 19.4279C38.5969 18.6412 37.3216 18.6412 36.5349 19.4279L34.3984 21.5644L37.2471 24.413L39.3836 22.2765Z" fill="#5E5CC2" stroke="#141432" stroke-linecap="round" stroke-linejoin="round"/>
</svg>
